<svg width="32" height="32" viewBox="0 0 32 32" fill="none" xmlns="http://www.w3.org/2000/svg">
<path d="M7.86638 7.03233C7.87931 7.02586 8.875 6.65733 10.0841 6.21121C11.2931 5.76509 12.3405 5.40302 12.4116 5.40302C12.5151 5.39655 12.5733 5.48707 12.7026 5.84914C12.7931 6.09483 12.8513 6.31466 12.8319 6.32759C12.8125 6.34698 11.7974 6.72198 10.569 7.17457C9.34052 7.62069 8.29957 7.97629 8.24784 7.96983C8.20259 7.9569 8.09267 7.75 8.00215 7.49784C7.9181 7.25215 7.85345 7.03879 7.86638 7.03233Z" fill="#867EAE"/>
<path d="M18.1853 7.49784C18.1789 7.46552 18.3147 7.29741 18.4892 7.12931C18.6638 6.96121 18.8384 6.81897 18.8772 6.81897C18.9095 6.81897 20.3513 8.22845 25.2134 13.0841L24.4569 13.8341L21.3276 10.6983C19.6078 8.97198 18.1918 7.53664 18.1853 7.49784Z" fill="#867EAE"/>
<path d="M11.0603 11.2672C11.0991 11.222 11.694 10.3168 12.3793 9.25647C13.0647 8.19612 13.6595 7.34267 13.6983 7.3556C13.7371 7.36853 13.9375 7.49138 14.1444 7.62069C14.3448 7.75 14.5129 7.86638 14.5129 7.88578C14.5129 7.90517 13.944 8.79095 13.2522 9.85776C12.5603 10.9246 11.9914 11.8103 11.9914 11.8297C11.9914 11.8491 12.2241 11.9784 12.5086 12.1207C12.7931 12.2629 13.0259 12.4116 13.0259 12.444C13.0259 12.4828 12.9483 12.6767 12.8513 12.8836C12.7478 13.0841 12.6444 13.2716 12.6056 13.2974C12.5668 13.3168 12.2759 13.2069 11.9591 13.0517C11.6422 12.8901 11.3578 12.7802 11.3384 12.8125C11.3125 12.8384 10.8793 13.5043 10.375 14.2866C9.86422 15.069 9.45043 15.7349 9.45043 15.7737C9.45043 15.8125 10.5496 17.681 11.8879 19.931C13.2263 22.1746 14.319 24.056 14.319 24.1013C14.319 24.1401 14.1897 24.2565 14.0409 24.3534C13.8922 24.4504 13.7112 24.5733 13.6401 24.6315C13.5172 24.7284 13.4332 24.6056 11.1509 20.7586C9.85129 18.5797 8.77802 16.8017 8.75862 16.8082C8.73922 16.8211 8.35129 17.4159 7.88578 18.1272C7.42026 18.8448 7.02586 19.4267 7 19.4267C6.96767 19.4267 6.80603 19.3233 6.625 19.2004C6.45043 19.0776 6.2694 18.9741 6.23707 18.9741C6.20474 18.9741 6.18534 18.9224 6.19181 18.8642C6.20474 18.7996 6.65086 18.0754 8.16379 15.7737L7.10345 13.9828C6.52155 12.9935 6.0431 12.1595 6.0431 12.1207C6.0431 12.0884 6.0625 12.056 6.08836 12.056C6.12069 12.056 6.31466 11.9526 6.52802 11.8297C6.74138 11.7004 6.92241 11.597 6.92888 11.6034C6.94181 11.6034 7.36207 12.3017 7.86638 13.1552C8.37716 14.0086 8.80388 14.7069 8.82328 14.7069C8.84267 14.7004 9.20474 14.1509 10.4073 12.2694L9.14655 11.6422C8.45474 11.2931 7.82112 10.9698 7.59483 10.8276L7.83405 10.3944C7.96336 10.1487 8.07974 9.94828 8.09267 9.94181C8.09914 9.92888 8.75862 10.2457 9.54741 10.6401C10.6983 11.2091 11.0022 11.3384 11.0603 11.2672Z" fill="#867EAE"/>
<path d="M19.4784 15.056C19.4849 14.8491 19.5108 14.6099 19.5302 14.5259C19.569 14.3901 19.6013 14.3772 19.8082 14.4095C19.9375 14.4289 20.9009 14.5647 21.9483 14.7134C22.9957 14.8556 23.8621 14.9784 23.8685 14.9849C23.875 14.9914 23.8427 15.2241 23.8039 15.5022C23.7328 15.9741 23.7198 16 23.5647 16C23.4741 15.9935 22.5172 15.8707 19.4591 15.444L19.4784 15.056Z" fill="#867EAE"/>
<path d="M15.4698 20.9073C15.4634 19.3233 15.4892 18.0043 15.5151 17.9784C15.5474 17.9526 15.7802 17.9461 16.4849 17.972L16.5172 23.7909H15.4828L15.4698 20.9073Z" fill="#867EAE"/>
<path d="M18.3922 24.6315L21.4116 21.4504C23.0797 19.7047 24.4634 18.2694 24.5022 18.2694C24.5409 18.2694 24.7284 18.4246 25.278 18.9741L24.5991 19.6724C24.2241 20.0539 22.8276 21.5086 21.4957 22.9052C20.1638 24.3017 19.0517 25.4203 19.0323 25.3944C19.0129 25.3621 18.8642 25.181 18.3922 24.6315Z" fill="#867EAE"/>
<path d="M7.69181 24.3341C7.65302 24.2953 7.70474 24.1142 7.85345 23.8233C7.97629 23.5776 8.08621 23.3707 8.09267 23.3707C8.1056 23.3707 9.15948 23.8944 10.4397 24.5345C12.3858 25.5108 12.7608 25.7177 12.7284 25.8147C12.7091 25.8728 12.6315 26.0927 12.5668 26.2996C12.5022 26.5 12.4181 26.6681 12.3793 26.6681C12.3405 26.6681 11.2866 26.1573 10.0323 25.5302C8.78448 24.903 7.7306 24.3664 7.69181 24.3341Z" fill="#867EAE"/>
<path d="M15.1466 1.19397C15.2241 1.19397 15.3082 1.14871 15.3276 1.09698C15.3599 1.0194 15.4957 1 16.0065 1C16.5172 1 16.653 1.0194 16.6789 1.09698C16.6983 1.14871 16.7759 1.19397 16.8599 1.19397C16.9375 1.19397 17.2478 1.31034 17.5517 1.45905C17.9461 1.64655 18.2177 1.84052 18.4957 2.125C18.7931 2.41595 18.9677 2.67457 19.4591 3.68319V5.55819L19.1552 6.17241C18.9483 6.59267 18.7414 6.89655 18.5022 7.14224C18.25 7.40086 17.9914 7.57543 17.5453 7.78879C16.9569 8.06681 16.9181 8.07328 16.194 8.09914C15.6444 8.11853 15.3405 8.09914 15.0302 8.02155C14.7845 7.9569 14.403 7.78233 14.125 7.60776C13.8599 7.43965 13.556 7.2069 13.4461 7.08405C13.3362 6.96121 13.1875 6.77371 13.1099 6.66379C13.0323 6.55388 12.9418 6.43103 12.9159 6.39871C12.8836 6.36638 12.7802 6.08836 12.6767 5.78448C12.5022 5.27371 12.4892 5.18319 12.5151 4.45905C12.5409 3.70259 12.5474 3.67026 12.8254 3.10129C13.0323 2.67457 13.2069 2.41595 13.5043 2.125C13.7823 1.84052 14.0539 1.64655 14.4483 1.45905C14.7522 1.31034 15.0625 1.19397 15.1466 1.19397Z" fill="#FF6DC6"/>
<path d="M14.319 11.3448C14.5841 11.2091 14.9203 11.0668 15.0625 11.028C15.2047 10.9892 15.6832 10.9698 16.9375 10.9892L17.5194 11.2737C17.9461 11.4806 18.2047 11.6552 18.4957 11.9526C18.7866 12.2371 18.9677 12.5022 19.1616 12.8966C19.3491 13.2974 19.4397 13.5754 19.4784 13.931C19.5172 14.2155 19.5108 14.6293 19.4784 14.9332C19.4332 15.3211 19.3556 15.5862 19.1552 16C18.9677 16.4009 18.7866 16.653 18.4957 16.944C18.25 17.1897 17.9267 17.4289 17.6358 17.5776C17.3772 17.7069 17.0216 17.8362 16.8405 17.875C16.6142 17.9203 16.5302 17.9655 16.556 18.0237C16.5948 18.0819 16.5819 18.0819 16.5108 18.0172C16.459 17.972 16.2522 17.9397 15.9935 17.9397C15.7478 17.9397 15.5345 17.972 15.4892 18.0237C15.4181 18.0884 15.4052 18.0884 15.444 18.0237C15.4698 17.9655 15.3858 17.9203 15.1595 17.875C14.9849 17.8362 14.6228 17.7069 14.3707 17.5776C14.0733 17.4289 13.75 17.1897 13.5043 16.944C13.2069 16.653 13.0323 16.3944 12.5409 15.3858V14.5129C12.5409 14.0345 12.5539 13.569 12.5733 13.4784C12.5927 13.3879 12.6185 13.3039 12.6379 13.2845C12.6573 13.2651 12.7543 13.0647 12.8642 12.8319C12.9806 12.5797 13.2134 12.25 13.4461 12.0043C13.7112 11.7263 13.9892 11.5129 14.319 11.3448Z" fill="#FF6DC6"/>
<path d="M2.92672 5.53233C3.14655 5.42241 3.48276 5.2931 3.67026 5.24138C3.85129 5.18965 4.27155 5.1444 4.58836 5.1444C4.91164 5.13793 5.3319 5.18319 5.54526 5.23491C5.74569 5.28664 6.09483 5.42241 6.32112 5.53233C6.57974 5.6681 6.89009 5.90733 7.21336 6.2306C7.64009 6.66379 7.72414 6.78664 7.90517 7.27155C8.02155 7.57543 8.1444 7.87284 8.17672 7.9375C8.21552 7.99569 8.23491 8.40302 8.22845 8.84267C8.20905 9.61853 8.20259 9.63793 7.94397 10.181C7.80172 10.4849 7.67241 10.7565 7.65948 10.7953C7.64655 10.8341 7.48491 11.0216 7.29741 11.2155C7.10991 11.4095 6.78017 11.6746 6.56034 11.7974C6.34052 11.9203 6.12715 12.056 6.08836 12.0948C6.0431 12.1336 5.82328 12.2112 5.59052 12.2694C5.35776 12.3276 4.92457 12.3793 4.62069 12.3793C4.31681 12.3793 3.90302 12.3341 3.70259 12.2823C3.49569 12.2306 3.14655 12.0948 2.92672 11.9849C2.67457 11.8556 2.34483 11.6034 2.06034 11.319C1.77586 11.0345 1.52371 10.7047 1.3944 10.4591C1.28448 10.2328 1.14871 9.88362 1.09698 9.68319C1.04526 9.47629 1 9.0625 1 8.75862C1 8.45474 1.04526 8.04095 1.09698 7.84052C1.14871 7.63362 1.28448 7.28448 1.3944 7.06465C1.52371 6.8125 1.77586 6.48276 2.06034 6.19828C2.34483 5.91379 2.67457 5.66164 2.92672 5.53233Z" fill="#2398DE"/>
<path d="M14.7328 23.9655C14.9461 23.8944 15.1853 23.8168 15.2565 23.8039C15.3276 23.7909 15.6638 23.778 16 23.778C16.3362 23.7716 16.7694 23.8103 16.9569 23.8621C17.1379 23.9138 17.4741 24.0431 17.7004 24.153C17.9397 24.2759 18.2565 24.5151 18.4892 24.7543C18.7026 24.9741 18.9741 25.2974 19.0905 25.4784C19.2069 25.653 19.3621 25.9569 19.4397 26.1509C19.5302 26.3901 19.5819 26.7198 19.6078 27.153C19.6207 27.5151 19.6078 27.9547 19.5625 28.1552C19.5237 28.3491 19.3879 28.7306 19.2586 28.9957C19.0905 29.3513 18.903 29.6034 18.5603 29.9397C18.2759 30.2241 17.9461 30.4763 17.7004 30.6056C17.4741 30.7155 17.125 30.8513 16.9246 30.903C16.7177 30.9547 16.3039 31 16 31C15.6961 31 15.2823 30.9547 15.0819 30.903C14.875 30.8513 14.5259 30.7155 14.306 30.6056C14.0539 30.4763 13.7241 30.2241 13.4397 29.9397C13.1552 29.6552 12.903 29.3254 12.7737 29.0733C12.6638 28.8534 12.528 28.5043 12.4763 28.2974C12.4246 28.097 12.3793 27.6638 12.3793 27.347C12.3793 26.8297 12.4052 26.6875 12.6185 26.1185C12.7543 25.7565 12.9547 25.3556 13.0582 25.2134C13.1681 25.0776 13.4267 24.819 13.6401 24.6379C13.8534 24.4634 14.0991 24.2888 14.1897 24.2565C14.2802 24.2177 14.3448 24.1724 14.3448 24.1465C14.3384 24.1272 14.5129 24.0431 14.7328 23.9655Z" fill="#2398DE"/>
<path d="M25.7112 12.7608C25.9181 12.6573 26.2414 12.5345 26.4289 12.4828H26.4224C26.6099 12.431 27.0302 12.3858 27.347 12.3858C27.6703 12.3793 28.0905 12.4246 28.2974 12.4763C28.5043 12.528 28.8534 12.6638 29.0733 12.7737C29.3254 12.903 29.6552 13.1552 29.9397 13.4397C30.2241 13.7241 30.4763 14.0539 30.6056 14.306C30.7155 14.5259 30.8513 14.875 30.903 15.0819C30.9547 15.2823 31 15.6961 31 16C31 16.3039 30.9547 16.7177 30.903 16.9246C30.8513 17.125 30.7155 17.4741 30.6056 17.7004C30.4763 17.9461 30.2241 18.2759 29.9397 18.5603C29.6552 18.8448 29.3254 19.097 29.0733 19.2263C28.8534 19.3362 28.5043 19.472 28.2974 19.5237C28.097 19.5754 27.6832 19.6207 27.3793 19.6207C27.0754 19.6207 26.6616 19.5754 26.4547 19.5237C26.2543 19.472 25.9181 19.3427 25.7112 19.2392C25.4978 19.1293 25.1358 18.8513 24.8578 18.5733C24.5862 18.3017 24.2823 17.9203 24.1659 17.7069C24.056 17.5 23.9138 17.1509 23.8621 16.9375C23.8039 16.7241 23.7586 16.3556 23.7586 16.1164C23.7586 15.8707 23.7974 15.4634 23.8491 15.2112C23.8944 14.9526 24.0302 14.5582 24.1401 14.3384C24.2759 14.0668 24.5086 13.7694 24.8384 13.4397C25.1293 13.1552 25.4978 12.8707 25.7112 12.7608Z" fill="#FFC83D"/>
<path d="M2.92672 18.9806C3.14655 18.8707 3.48276 18.7349 3.67026 18.6832C3.90948 18.6121 4.21983 18.5927 4.75 18.6121C5.24138 18.625 5.60345 18.6767 5.81681 18.7478C5.99784 18.8125 6.15302 18.8836 6.17241 18.9095C6.19181 18.9289 6.33405 19.0259 6.49569 19.1164C6.65733 19.2069 6.97414 19.4526 7.19397 19.6595C7.49138 19.931 7.67241 20.1767 7.84698 20.5259C7.98276 20.7909 8.13147 21.1853 8.17672 21.3987C8.22198 21.6315 8.24784 22.0517 8.22845 22.4332C8.20259 23.028 8.18319 23.125 7.94397 23.6293C7.80172 23.9332 7.67888 24.1983 7.67241 24.2241C7.66595 24.2565 7.46552 24.4828 7.22629 24.7284C6.94181 25.0194 6.63793 25.2651 6.36638 25.4073C6.13362 25.5237 5.77155 25.6724 5.55819 25.7241C5.34483 25.7823 4.92457 25.8276 4.62069 25.8276C4.31681 25.8276 3.90302 25.7823 3.70259 25.7306C3.49569 25.6789 3.14655 25.5431 2.92672 25.4332C2.67457 25.3039 2.34483 25.0517 2.06034 24.7672C1.77586 24.4828 1.52371 24.153 1.3944 23.9009C1.28448 23.681 1.14871 23.3319 1.09698 23.125C1.04526 22.9246 1 22.5108 1 22.2069C1 21.903 1.04526 21.4892 1.09698 21.2823C1.14871 21.0819 1.28448 20.7328 1.3944 20.5065C1.52371 20.2608 1.77586 19.931 2.06034 19.6466C2.34483 19.3621 2.67457 19.1099 2.92672 18.9806Z" fill="#0074BA"/>
</svg>
