<svg width="32" height="32" viewBox="0 0 32 32" fill="none" xmlns="http://www.w3.org/2000/svg">
<path d="M15.2319 14.8724C15.0827 14.8823 14.8142 14.8823 14.6352 14.8724C14.4561 14.8624 14.5805 14.8574 14.9086 14.8574C15.2368 14.8574 15.381 14.8624 15.2319 14.8724Z" fill="#0074BA"/>
<path d="M17.3203 14.8724C17.1711 14.8823 16.9026 14.8823 16.7236 14.8724C16.5446 14.8624 16.6689 14.8574 16.9971 14.8574C17.3253 14.8574 17.4695 14.8624 17.3203 14.8724Z" fill="#0074BA"/>
<path d="M23.5111 15.926C23.4813 15.931 23.3072 15.8763 23.1133 15.8117C22.9194 15.7421 22.7851 15.6874 22.815 15.6874C22.8448 15.6825 23.0188 15.7371 23.2128 15.8018C23.4067 15.8713 23.541 15.926 23.5111 15.926Z" fill="#0074BA"/>
<path d="M7.02718 16.4727C7.01226 16.4727 7.15647 16.3932 7.35039 16.2988C7.53935 16.2043 7.72333 16.1298 7.7482 16.1298C7.77306 16.1348 7.62886 16.2093 7.42498 16.3087C7.22111 16.4031 7.0421 16.4777 7.02718 16.4727Z" fill="#0074BA"/>
<path d="M25.709 17.0045C25.5499 16.8952 25.4255 16.7958 25.4305 16.7858C25.4305 16.7759 25.4604 16.7858 25.4952 16.8057C25.525 16.8256 25.6593 16.925 25.7985 17.0244C25.9327 17.1238 26.1665 17.3375 26.3156 17.5015C26.4598 17.6606 26.604 17.8395 26.6289 17.8941C26.6538 17.9488 26.6239 17.924 26.5593 17.8444C26.4996 17.7649 26.3455 17.586 26.2212 17.4518C26.0968 17.3226 25.8681 17.1188 25.709 17.0045Z" fill="#0074BA"/>
<path d="M5.29177 17.8196C5.32657 17.75 5.49067 17.5562 5.65973 17.3822C5.82383 17.2133 5.97798 17.0741 5.99787 17.0741C6.01278 17.0741 5.89842 17.2033 5.73929 17.3574C5.58515 17.5164 5.40116 17.7152 5.34149 17.7947C5.25199 17.914 5.24204 17.919 5.29177 17.8196Z" fill="#0074BA"/>
<path d="M5.00336 21.2489C5.0133 18.6247 5.02325 18.3216 5.09784 18.1526V18.1576C5.14259 18.0532 5.19232 17.9687 5.19729 17.9687C5.20723 17.9687 5.17243 18.0979 5.1227 18.257C5.05309 18.4607 5.03817 18.6148 5.05806 18.8136C5.07298 18.9627 5.13762 19.2013 5.20226 19.3355C5.2669 19.4746 5.431 19.7032 5.56526 19.8524C5.69951 20.0015 5.95311 20.2301 6.13212 20.3643C6.31114 20.4985 6.74375 20.7519 7.10177 20.9259C7.45482 21.1048 8.01671 21.3384 8.3449 21.4477C8.67309 21.562 9.24493 21.7261 9.6129 21.8205C9.98086 21.9149 10.5179 22.0342 10.8063 22.0889C11.0947 22.1435 11.6616 22.233 12.0743 22.2877C12.482 22.3423 13.1086 22.4169 13.4666 22.4517C13.8694 22.4914 14.8092 22.5113 15.9529 22.5113C17.3253 22.5113 18.0065 22.4914 18.638 22.4268C19.1055 22.3771 19.8513 22.2827 20.3038 22.2131C20.7563 22.1435 21.368 22.0292 21.6713 21.9646C21.9696 21.895 22.3426 21.8056 22.4918 21.7658C22.6229 21.7265 22.873 21.6526 23.0802 21.5915L23.163 21.567C23.3818 21.4974 23.7399 21.3732 23.9586 21.2887C24.1774 21.2092 24.5454 21.0452 24.7791 20.9308C25.0128 20.8165 25.3559 20.6227 25.5499 20.4985C25.7438 20.3692 26.062 20.0909 26.2609 19.8772C26.5195 19.5989 26.6538 19.405 26.7283 19.2112C26.8029 19.0025 26.8228 18.8633 26.8029 18.6148C26.788 18.4359 26.7632 18.247 26.7085 18.093L26.7781 18.1924C26.8278 18.2719 26.8427 18.8981 26.8427 24.4546L26.6836 24.7777C26.5941 24.9616 26.4051 25.2299 26.2361 25.3989C26.0769 25.5629 25.8134 25.7916 25.6493 25.9059C25.4852 26.0152 25.1471 26.214 24.9034 26.3383C24.6548 26.4675 24.2321 26.6563 23.9586 26.7607C23.6852 26.8651 23.2277 27.0241 22.9393 27.1086C22.6509 27.1931 22.1238 27.3273 21.7707 27.4068C21.4177 27.4863 20.8309 27.6007 20.4779 27.6553C20.1248 27.715 19.5381 27.7945 19.185 27.8343C18.832 27.874 18.1259 27.9337 17.6187 27.9635C17.0617 27.9983 16.1518 28.0082 15.3064 27.9933C14.5407 27.9734 13.5661 27.9237 13.1434 27.884C12.7207 27.8442 12.1389 27.7746 11.8505 27.7299C11.5621 27.6901 10.9903 27.5907 10.5825 27.5062C10.1698 27.4267 9.52339 27.2726 9.14051 27.1633C8.75762 27.054 8.22059 26.88 7.9471 26.7756C7.67361 26.6663 7.26089 26.4824 7.02718 26.3681C6.79347 26.2488 6.44539 26.05 6.25644 25.9208C6.06251 25.7916 5.78902 25.5629 5.64482 25.4188C5.50061 25.2697 5.32657 25.051 5.25696 24.9268C5.18734 24.8025 5.10281 24.5789 5.06303 24.4298C5.00336 24.2061 4.99341 23.6147 5.00336 21.2489Z" fill="#0074BA"/>
<path d="M15.2319 9.44363C15.0827 9.45357 14.8142 9.45357 14.6352 9.44363C14.4561 9.43369 14.5805 9.42872 14.9086 9.42872C15.2368 9.42872 15.381 9.43369 15.2319 9.44363Z" fill="#2398DE"/>
<path d="M17.3203 9.44363C17.1711 9.45357 16.9026 9.45357 16.7236 9.44363C16.5446 9.43369 16.6689 9.42872 16.9971 9.42872C17.3253 9.42872 17.4695 9.43369 17.3203 9.44363Z" fill="#2398DE"/>
<path d="M23.5111 10.4973C23.4813 10.5023 23.3072 10.4476 23.1133 10.383C22.9194 10.3134 22.7851 10.2587 22.815 10.2587C22.8448 10.2538 23.0188 10.3084 23.2128 10.373C23.4067 10.4426 23.541 10.4973 23.5111 10.4973Z" fill="#2398DE"/>
<path d="M7.02718 11.044C7.01226 11.044 7.15647 10.9645 7.35039 10.87C7.53935 10.7756 7.72333 10.7011 7.7482 10.7011C7.77306 10.706 7.62886 10.7806 7.42498 10.88C7.22111 10.9744 7.0421 11.049 7.02718 11.044Z" fill="#2398DE"/>
<path d="M25.709 11.5758C25.5499 11.4664 25.4255 11.367 25.4305 11.3571C25.4305 11.3472 25.4604 11.3571 25.4952 11.377C25.525 11.3969 25.6593 11.4963 25.7985 11.5957C25.9327 11.6951 26.1665 11.9088 26.3156 12.0728C26.4598 12.2318 26.604 12.4108 26.6289 12.4654C26.6538 12.5201 26.6239 12.4952 26.5593 12.4157C26.4996 12.3362 26.3455 12.1573 26.2212 12.0231C26.0968 11.8939 25.8681 11.6901 25.709 11.5758Z" fill="#2398DE"/>
<path d="M5.29177 12.3909C5.32657 12.3213 5.49067 12.1275 5.65973 11.9535C5.82383 11.7845 5.97798 11.6454 5.99787 11.6454C6.01278 11.6454 5.89842 11.7746 5.73929 11.9287C5.58515 12.0877 5.40116 12.2865 5.34149 12.366C5.25199 12.4853 5.24204 12.4903 5.29177 12.3909Z" fill="#2398DE"/>
<path d="M5.00336 15.8202C5.0133 13.196 5.02325 12.8928 5.09784 12.7239V12.7288C5.14259 12.6245 5.19232 12.54 5.19729 12.54C5.20723 12.54 5.17243 12.6692 5.1227 12.8282C5.05309 13.032 5.03817 13.1861 5.05806 13.3849C5.07298 13.534 5.13762 13.7725 5.20226 13.9067C5.2669 14.0459 5.431 14.2745 5.56526 14.4236C5.69951 14.5727 5.95311 14.8013 6.13212 14.9355C6.31114 15.0697 6.74375 15.3232 7.10177 15.4972C7.45482 15.6761 8.01671 15.9097 8.3449 16.019C8.67309 16.1333 9.24493 16.2973 9.6129 16.3918C9.98086 16.4862 10.5179 16.6055 10.8063 16.6601C11.0947 16.7148 11.6616 16.8043 12.0743 16.859C12.482 16.9136 13.1086 16.9882 13.4666 17.023C13.8694 17.0627 14.8092 17.0826 15.9529 17.0826C17.3253 17.0826 18.0065 17.0627 18.638 16.9981C19.1055 16.9484 19.8513 16.854 20.3038 16.7844C20.7563 16.7148 21.368 16.6005 21.6713 16.5359C21.9696 16.4663 22.3426 16.3769 22.4918 16.3371C22.6229 16.2978 22.873 16.2239 23.0802 16.1627L23.163 16.1383C23.3818 16.0687 23.7399 15.9445 23.9586 15.86C24.1774 15.7804 24.5454 15.6164 24.7791 15.5021C25.0128 15.3878 25.3559 15.194 25.5499 15.0697C25.7438 14.9405 26.062 14.6622 26.2609 14.4485C26.5195 14.1702 26.6538 13.9763 26.7283 13.7825C26.8029 13.5737 26.8228 13.4346 26.8029 13.1861C26.788 13.0072 26.7632 12.8183 26.7085 12.6642L26.7781 12.7636C26.8278 12.8431 26.8427 13.4694 26.8427 19.0259L26.6836 19.3489C26.5941 19.5328 26.4051 19.8012 26.2361 19.9702C26.0769 20.1342 25.8134 20.3628 25.6493 20.4771C25.4852 20.5865 25.1471 20.7853 24.9034 20.9095C24.6548 21.0388 24.2321 21.2276 23.9586 21.332C23.6852 21.4364 23.2277 21.5954 22.9393 21.6799C22.6509 21.7644 22.1238 21.8986 21.7707 21.9781C21.4177 22.0576 20.8309 22.1719 20.4779 22.2266C20.1248 22.2862 19.5381 22.3658 19.185 22.4055C18.832 22.4453 18.1259 22.5049 17.6187 22.5347C17.0617 22.5695 16.1518 22.5795 15.3064 22.5646C14.5407 22.5447 13.5661 22.495 13.1434 22.4552C12.7207 22.4155 12.1389 22.3459 11.8505 22.3012C11.5621 22.2614 10.9903 22.162 10.5825 22.0775C10.1698 21.998 9.52339 21.8439 9.14051 21.7346C8.75762 21.6252 8.22059 21.4513 7.9471 21.3469C7.67361 21.2376 7.26089 21.0537 7.02718 20.9394C6.79347 20.8201 6.44539 20.6213 6.25644 20.4921C6.06251 20.3628 5.78902 20.1342 5.64482 19.9901C5.50061 19.841 5.32657 19.6223 5.25696 19.498C5.18734 19.3738 5.10281 19.1501 5.06303 19.001C5.00336 18.7774 4.99341 18.186 5.00336 15.8202Z" fill="#2398DE"/>
<path d="M15.2319 4.02561C15.0827 4.03555 14.8142 4.03555 14.6352 4.02561C14.4562 4.01567 14.5805 4.0107 14.9087 4.0107C15.2369 4.0107 15.3811 4.01567 15.2319 4.02561Z" fill="#50B7F5"/>
<path d="M17.3204 4.02561C17.1712 4.03555 16.9027 4.03555 16.7237 4.02561C16.5447 4.01567 16.669 4.0107 16.9971 4.0107C17.3253 4.0107 17.4695 4.01567 17.3204 4.02561Z" fill="#50B7F5"/>
<path d="M23.5112 5.07926C23.4813 5.08423 23.3073 5.02956 23.1134 4.96495C22.9194 4.89537 22.7852 4.8407 22.815 4.8407C22.8448 4.83573 23.0189 4.8904 23.2128 4.95501C23.4067 5.02459 23.541 5.07926 23.5112 5.07926Z" fill="#50B7F5"/>
<path d="M7.02722 5.62597C7.01231 5.62597 7.15651 5.54644 7.35044 5.45201C7.5394 5.35758 7.72338 5.28303 7.74824 5.28303C7.7731 5.288 7.6289 5.36255 7.42503 5.46195C7.22115 5.55639 7.04214 5.63094 7.02722 5.62597Z" fill="#50B7F5"/>
<path d="M25.709 6.15776C25.5499 6.04842 25.4256 5.94902 25.4306 5.93908C25.4306 5.92914 25.4604 5.93908 25.4952 5.95896C25.525 5.97884 25.6593 6.07824 25.7985 6.17764C25.9328 6.27704 26.1665 6.49075 26.3157 6.65477C26.4599 6.81381 26.6041 6.99273 26.6289 7.0474C26.6538 7.10207 26.624 7.07722 26.5593 6.9977C26.4997 6.91818 26.3455 6.73926 26.2212 6.60507C26.0969 6.47584 25.8681 6.27207 25.709 6.15776Z" fill="#50B7F5"/>
<path d="M5.29181 6.97285C5.32662 6.90327 5.49071 6.70944 5.65978 6.53549C5.82387 6.3665 5.97802 6.22734 5.99791 6.22734C6.01283 6.22734 5.89846 6.35656 5.73934 6.51063C5.58519 6.66968 5.40121 6.86848 5.34154 6.948C5.25203 7.06728 5.24209 7.07225 5.29181 6.97285Z" fill="#50B7F5"/>
<path d="M5.0034 10.4022C5.01335 7.778 5.02329 7.47482 5.09788 7.30584V7.31081C5.14264 7.20644 5.19236 7.12195 5.19733 7.12195C5.20728 7.12195 5.17247 7.25117 5.12275 7.41021C5.05313 7.61399 5.03821 7.76806 5.0581 7.96686C5.07302 8.11596 5.13766 8.35452 5.20231 8.48871C5.26695 8.62788 5.43104 8.8565 5.5653 9.0056C5.69956 9.1547 5.95316 9.38332 6.13217 9.51752C6.31118 9.65171 6.74379 9.90518 7.10181 10.0791C7.45486 10.2581 8.01676 10.4916 8.34495 10.601C8.67313 10.7153 9.24497 10.8793 9.61294 10.9737C9.98091 11.0682 10.5179 11.1875 10.8063 11.2421C11.0948 11.2968 11.6616 11.3863 12.0743 11.4409C12.4821 11.4956 13.1086 11.5701 13.4667 11.6049C13.8694 11.6447 14.8092 11.6646 15.9529 11.6646C17.3253 11.6646 18.0066 11.6447 18.6381 11.5801C19.1055 11.5304 19.8514 11.436 20.3039 11.3664C20.7564 11.2968 21.368 11.1825 21.6713 11.1179C21.9697 11.0483 22.3426 10.9588 22.4918 10.9191C22.6229 10.8798 22.8731 10.8059 23.0803 10.7447L23.1631 10.7203C23.3819 10.6507 23.7399 10.5264 23.9587 10.4419C24.1775 10.3624 24.5455 10.1984 24.7792 10.0841C25.0129 9.96979 25.356 9.77596 25.5499 9.65171C25.7438 9.52249 26.0621 9.24416 26.261 9.03045C26.5195 8.75213 26.6538 8.5583 26.7284 8.36446C26.803 8.15572 26.8229 8.01656 26.803 7.76806C26.7881 7.58914 26.7632 7.40027 26.7085 7.2462L26.7781 7.3456C26.8278 7.42512 26.8428 8.05135 26.8428 13.6079L26.6836 13.9309C26.5941 14.1148 26.4052 14.3832 26.2361 14.5522C26.077 14.7162 25.8134 14.9448 25.6494 15.0591C25.4853 15.1685 25.1471 15.3673 24.9035 15.4915C24.6548 15.6207 24.2322 15.8096 23.9587 15.914C23.6852 16.0183 23.2277 16.1774 22.9393 16.2619C22.6509 16.3464 22.1238 16.4806 21.7708 16.5601C21.4177 16.6396 20.831 16.7539 20.4779 16.8086C20.1249 16.8682 19.5381 16.9477 19.1851 16.9875C18.832 17.0273 18.1259 17.0869 17.6187 17.1167C17.0618 17.1515 16.1518 17.1615 15.3065 17.1465C14.5407 17.1267 13.5661 17.077 13.1434 17.0372C12.7208 16.9974 12.139 16.9279 11.8506 16.8831C11.5622 16.8434 10.9903 16.744 10.5826 16.6595C10.1699 16.58 9.52344 16.4259 9.14055 16.3165C8.75767 16.2072 8.22063 16.0333 7.94714 15.9289C7.67365 15.8195 7.26093 15.6356 7.02722 15.5213C6.79352 15.4021 6.44544 15.2033 6.25648 15.074C6.06255 14.9448 5.78906 14.7162 5.64486 14.5721C5.50066 14.423 5.32662 14.2043 5.257 14.08C5.18739 13.9558 5.10286 13.7321 5.06307 13.583C5.0034 13.3594 4.99346 12.7679 5.0034 10.4022Z" fill="#50B7F5"/>
<path d="M13.8147 4.09023C14.2523 4.06041 14.8142 4.03059 15.0579 4.02562C15.3015 4.01568 15.6148 4.00574 15.754 4.00077C15.8883 3.9958 16.5049 4.01568 17.1215 4.04053C17.7381 4.06538 18.474 4.11011 18.7624 4.13993C19.0508 4.16975 19.6077 4.23933 20.0055 4.294C20.4033 4.34867 20.9503 4.43813 21.2238 4.4928C21.4973 4.54747 21.9448 4.65184 22.2183 4.71645C22.4918 4.78603 22.8946 4.89537 23.1134 4.96495C23.3322 5.03453 23.725 5.1737 23.9836 5.2731C24.2421 5.3725 24.6598 5.55639 24.9035 5.68064C25.1471 5.8049 25.5052 6.01861 25.6941 6.1528C25.8831 6.29196 26.1615 6.53549 26.3057 6.6995C26.4549 6.86352 26.624 7.09711 26.6787 7.22136C26.7433 7.35058 26.7931 7.5792 26.808 7.76807C26.8229 8.0116 26.803 8.16069 26.7284 8.36446C26.6538 8.5583 26.5195 8.75213 26.261 9.03045C26.0621 9.24416 25.7438 9.52249 25.5499 9.65171C25.356 9.77596 25.0129 9.96979 24.7792 10.0841C24.5455 10.1984 24.1775 10.3624 23.9587 10.4419C23.7399 10.5264 23.3819 10.6507 23.1631 10.7203L23.0803 10.7447C22.8731 10.8059 22.6229 10.8798 22.4918 10.9191C22.3426 10.9588 21.9747 11.0483 21.6713 11.1179C21.368 11.1825 20.7564 11.2968 20.3039 11.3664C19.8514 11.436 19.1055 11.5304 18.6381 11.5801C18.0066 11.6447 17.3253 11.6646 15.9529 11.6646C14.8092 11.6646 13.8694 11.6447 13.4667 11.6049C13.1086 11.5701 12.4871 11.4956 12.0743 11.4409C11.6666 11.3863 11.0948 11.2968 10.8063 11.2421C10.5179 11.1875 9.98091 11.0682 9.61294 10.9737C9.24497 10.8793 8.67313 10.7153 8.34495 10.601C8.01676 10.4916 7.45984 10.2581 7.10181 10.0791C6.74379 9.90518 6.31118 9.65171 6.13217 9.51752C5.95316 9.38332 5.69956 9.1547 5.5653 9.0056C5.43104 8.8565 5.26696 8.62788 5.20729 8.48872C5.14265 8.35453 5.07303 8.13088 5.05811 7.99172C5.03325 7.82274 5.05314 7.64878 5.11281 7.44501C5.15756 7.281 5.19734 7.14184 5.19237 7.1319C5.1874 7.12693 5.22718 7.0822 5.27193 7.0325C5.32166 6.97783 5.45094 6.82873 5.56034 6.6995C5.66973 6.56531 5.88355 6.36651 6.03273 6.25717C6.1819 6.14286 6.45042 5.96891 6.62943 5.86454C6.80844 5.76016 7.1416 5.58621 7.37531 5.48184C7.60902 5.37747 8.02174 5.21346 8.29523 5.11903C8.56872 5.0246 9.05106 4.8755 9.36433 4.791C9.67759 4.71148 10.2842 4.57232 10.7069 4.48783C11.1296 4.40334 11.8257 4.294 12.2484 4.23933C12.6711 4.18963 13.3772 4.12005 13.8147 4.09023Z" fill="#88CEF9"/>
</svg>
