<svg width="192" height="126" viewBox="0 0 192 126" fill="none" xmlns="http://www.w3.org/2000/svg"><path d="M100.371 51.259c4.064-4.175 17.013-17.407 28.801-29.425L150.627 0l20.496.076c11.309.05 20.598.152 20.699.253.075.101-.278.734-.808 1.391-.53.684-12.419 12.777-26.453 26.895-14.01 14.143-26.58 26.793-30.291 30.588l1.136 1.34c.606.735 2.777 3.214 4.796 5.516 2.02 2.303 8.835 10.045 15.145 17.205 6.311 7.16 15.726 17.862 20.951 23.782 5.2 5.92 10.45 11.891 11.636 13.283a179.22 179.22 0 0 1 3.231 3.921c.783 1.038.985 1.442.732 1.569-.176.101-4.366.202-9.289.177-4.922 0-13.908-.101-30.921-.43l-.757-.86-18.427-20.721a17139.834 17139.834 0 0 0-25.999-29.197c-4.594-5.161-9.516-10.702-10.93-12.347C94.162 60.822 93 59.33 93 59.152c0-.151 3.307-3.719 7.371-7.893Z" fill="#118260"/><path d="M0 25.752c0 14.14.102 42.497.204 62.987L.382 126c27.111-.101 35.054-.253 35.181-.354.127-.127.23-10.574.28-23.222l.051-22.994 47.222 46.545c29.607 0 38.797-.076 39.535-.177.738-.102 1.349-.304 1.349-.456 0-.126-1.12-1.442-2.469-2.909-1.35-1.467-4.761-5.034-7.586-7.943-2.221-2.327-7.34-7.598-12.475-12.884l-3.97-4.09c-6.212-6.4-16.547-17.049-22.912-23.651-6.39-6.603-12.168-12.623-12.855-13.357l-1.273-1.34 7.98-7.985.066-.066c5.957-5.962 14.017-14.028 22.528-22.532C104.602 15 116.388 3.137 117.228 2.2c.841-.936 1.426-1.796 1.324-1.897-.127-.102-9.546-.203-20.925-.228L76.879 0 36.785 40.044c-.23-6.425-.305-15.43-.33-24.158L36.402 0H0v25.752Z" fill="#fff"/></svg>