<svg width="167" height="69" viewBox="0 0 167 69" fill="none" xmlns="http://www.w3.org/2000/svg">
<path fill-rule="evenodd" clip-rule="evenodd" d="M28.5238 0.0664526C29.9832 0.155056 31.8405 0.465169 34.0517 1.08539V13.4899L32.8134 13.1798C32.1501 13.0026 30.6023 12.8697 29.4083 12.8697C28.17 12.8697 26.5338 13.2241 25.7378 13.6228C24.986 14.0215 23.9688 14.9075 23.5708 15.5721C22.9959 16.4581 22.7748 17.6986 22.7748 23.9008L34.0517 24.1223V36.5268L22.7748 36.7483L22.5537 67.9811H8.40236L8.18125 36.7483L0 36.5268V24.1223L8.18125 23.9008L8.40236 18.3631C8.62348 13.3127 8.75615 12.5595 10.0386 9.94575C10.9231 8.04077 12.294 6.2244 14.0187 4.62953C15.9645 2.72456 17.2912 1.92713 19.4581 1.174C21.0501 0.686677 23.1286 0.155056 24.1015 0.0664526C25.0744 -0.0221509 27.0645 -0.0221509 28.5238 0.0664526ZM89.7726 0.642376H104.366V20.5782L106.71 18.8061C107.948 17.8315 110.292 16.591 111.884 16.1037C113.874 15.4835 115.997 15.1734 118.739 15.1291C120.906 15.1291 123.824 15.3506 125.151 15.705C126.478 16.0151 128.777 16.8568 130.237 17.61C131.696 18.3631 133.951 20.0465 135.322 21.4199C136.649 22.7933 138.374 25.0969 139.17 26.5589C139.966 28.0209 141.027 30.8119 141.514 32.7612C142.221 35.375 142.486 37.6786 142.486 41.6215C142.531 45.8302 142.31 47.6908 141.558 50.4819C141.027 52.4311 139.921 55.2221 139.17 56.6841C138.374 58.1461 136.561 60.5384 135.101 62.0446C133.642 63.5066 131.563 65.2786 130.458 65.8989C129.352 66.5634 126.787 67.4937 124.709 68.0254C121.746 68.7785 120.154 68.9114 117.191 68.7342C114.847 68.6013 112.459 68.1583 110.779 67.4937C109.319 66.9621 107.329 65.7217 106.356 64.8356C105.383 63.9053 104.455 63.1522 104.278 63.1079C104.057 63.1079 103.924 64.1268 103.924 67.538H89.7726V0.642376ZM108.921 30.9891C108.125 31.6093 106.975 32.9384 106.4 34.0016C105.826 35.0205 105.118 36.9255 104.853 38.2103C104.587 39.4507 104.366 41.1785 104.366 41.9759C104.366 42.7291 104.676 44.5897 105.074 46.0517C105.428 47.5136 106.4 49.5958 107.196 50.7034C108.125 51.9881 109.496 53.14 111.044 53.9374C112.901 54.912 114.007 55.1778 116.218 55.1335C117.722 55.1335 119.623 54.8677 120.419 54.5576C121.171 54.2475 122.63 53.2729 123.603 52.3868C124.576 51.5451 125.859 49.773 126.478 48.444C127.406 46.4061 127.539 45.3872 127.539 41.843C127.539 38.8748 127.318 37.1027 126.743 35.8623C126.345 34.8876 125.505 33.4257 124.886 32.6726C124.311 31.8751 122.896 30.679 121.746 30.0144C120.154 29.1284 118.871 28.774 116.749 28.6854C114.936 28.5968 113.211 28.8183 112.105 29.2613C111.132 29.6157 109.673 30.4132 108.921 30.9891ZM60.3644 13.0912C61.8237 13.0912 64.3002 13.2684 65.8922 13.5342C67.4843 13.7557 70.005 14.5531 71.5528 15.262C73.189 16.0594 75.1791 17.5213 76.55 18.939C77.7882 20.1795 79.2476 22.2616 79.8667 23.4578C80.4416 24.6982 81.1049 26.3817 81.2818 27.2677C81.5472 28.6411 81.4587 28.9069 80.7069 29.1284C80.2205 29.3056 77.5229 29.9258 74.7368 30.5461C71.9508 31.1663 69.3858 31.6536 69.1205 31.6536C68.8109 31.6536 68.4129 30.9005 68.2803 30.0144C68.1034 28.9512 67.4843 27.7994 66.5998 26.9576C65.7153 26.0716 64.4771 25.4071 63.0177 25.0969C61.7795 24.8311 60.1432 24.7425 59.2588 24.964C58.4185 25.1412 57.1361 25.6729 56.4727 26.1602C55.8094 26.6032 55.0576 27.5335 54.8365 28.2424C54.5269 28.9955 54.5711 29.9258 54.8365 30.7676C55.0576 31.5207 55.7209 32.3181 56.2958 32.6283C56.8265 32.8941 60.1432 33.7801 63.6811 34.5332C67.6611 35.4193 71.1548 36.4825 72.8795 37.3685C74.383 38.1217 76.4615 39.5836 77.5229 40.6469C78.54 41.6658 79.8667 43.5265 80.4858 44.7226C81.3703 46.4947 81.6356 47.7351 81.7241 50.9249C81.8567 54.0703 81.7241 55.3994 80.9723 57.3486C80.4858 58.6777 79.2033 60.8928 78.142 62.2218C77.0364 63.5509 75.0906 65.2786 73.8081 66.0761C72.4814 66.8735 70.1376 67.8481 68.5456 68.2469C66.7767 68.7342 63.9906 69 61.2488 69C58.5512 68.9557 55.7209 68.6899 53.952 68.2026C52.36 67.8038 50.1046 66.9178 48.8664 66.2976C47.6724 65.6774 45.6823 64.1711 44.4883 62.9307C43.3385 61.6902 41.7907 59.4751 41.0831 58.0132C40.3756 56.5512 39.668 54.6462 39.27 52.2539L44.9305 50.9692C48.0704 50.2603 50.9891 49.5958 51.4313 49.5072C51.962 49.4186 52.2716 49.7287 52.4484 50.6148C52.6253 51.2793 53.156 52.564 53.6867 53.4944C54.3058 54.6462 55.3229 55.5323 56.8265 56.2854C58.2417 56.9499 59.7895 57.3486 61.1604 57.3486C62.3102 57.3486 63.9464 57.0385 64.7867 56.6841C65.6711 56.3297 66.644 55.4437 66.9978 54.6905C67.3516 53.9374 67.6611 53.0514 67.6611 52.6969C67.6611 52.3425 67.3958 51.5451 67.1305 50.9249C66.8209 50.3046 65.9807 49.5072 65.2289 49.1528C64.4771 48.7541 61.3373 47.8681 58.1532 47.1149C54.9692 46.4061 51.3429 45.2986 50.1046 44.7226C48.8222 44.1024 46.6552 42.5518 45.3285 41.3114C43.8692 39.8937 42.4983 38.0774 41.9234 36.7483C41.1716 35.0205 40.9505 33.6472 40.9505 30.5461C40.9062 27.1791 41.0831 26.1602 42.056 24.1223C42.6752 22.7933 43.9576 20.7997 44.9305 19.7364C45.8592 18.6732 47.4512 17.2555 48.4242 16.5467C49.3971 15.8822 51.0775 14.9961 52.1831 14.5974C53.2887 14.1987 54.9692 13.7114 55.9421 13.4899C56.915 13.3127 58.905 13.1355 60.3644 13.0912Z" fill="#13141C"/>
<path d="M150.402 51.5008C151.243 50.8363 152.392 50.1275 153.011 49.8616C153.631 49.5958 155.532 49.4186 157.301 49.5072C159.999 49.5958 160.75 49.773 162.387 50.9249C163.625 51.8109 164.686 53.0957 165.527 54.6905C166.234 56.1525 166.721 57.836 166.721 58.8992C166.721 59.8738 166.544 61.3801 166.278 62.2218C166.057 63.0636 165.217 64.5698 164.421 65.5002C163.625 66.4305 162.166 67.6266 161.193 68.114C159.999 68.6899 158.539 69 156.77 69C155.002 69 153.542 68.6899 152.348 68.114C151.375 67.6266 149.96 66.5191 149.253 65.6774C148.545 64.7913 147.66 63.3294 147.395 62.399C147.086 61.4244 146.82 59.8738 146.82 58.8992C146.82 57.9246 147.307 56.1525 147.837 54.912C148.412 53.7159 149.562 52.1653 150.402 51.5008Z" fill="#01C38D"/>
</svg>
