<svg width="32" height="32" viewBox="0 0 32 32" fill="none" xmlns="http://www.w3.org/2000/svg">
<path d="M14.3982 1.19336C14.6981 1.16406 14.8885 1.11719 14.9058 1.07617V1.07031C14.9289 1.01758 15.252 1 16.2558 1C17.2653 1 17.5826 1.01758 17.5999 1.07031C17.6115 1.11719 17.8019 1.16406 18.1018 1.19336C18.3672 1.2168 18.9268 1.30469 19.3364 1.38086C19.746 1.46289 20.4094 1.61523 20.8075 1.72656C21.2056 1.84375 21.7998 2.03711 22.1344 2.16016C22.469 2.2832 23.0632 2.54102 23.4612 2.73438C23.8593 2.92187 24.3612 3.17969 24.5862 3.30273C24.8112 3.42578 25.1631 3.63672 25.3823 3.77148C25.5957 3.90625 25.7804 4.05859 25.7977 4.10547C25.8092 4.15234 25.7515 4.78516 25.6592 5.51172C25.5438 6.46094 25.515 6.84766 25.5611 6.89453C25.5957 6.92969 25.8207 7.0293 26.0573 7.12305C26.2938 7.21094 26.6688 7.38086 26.8938 7.49219C27.1188 7.60352 27.3437 7.73828 27.4014 7.79102C27.4591 7.84375 27.5053 7.93164 27.4995 7.98437C27.4995 8.04297 27.2341 8.5 26.9111 8.99805C26.5822 9.49609 26.2938 9.90039 26.2592 9.90039C26.2246 9.90039 26.0919 10.0645 25.9592 10.2695C25.8207 10.4746 25.7111 10.6621 25.7111 10.6973C25.7111 10.7324 25.7919 10.832 25.89 10.9316C25.988 11.0312 26.2592 11.3477 26.4957 11.6348C26.7265 11.9219 26.9226 12.1855 26.9226 12.2207C26.9226 12.2559 26.7207 12.5313 26.4726 12.8359C26.2246 13.1406 25.8784 13.5215 25.7054 13.6855C25.5323 13.8437 25.2208 14.1074 25.0188 14.2656C24.8112 14.418 24.6266 14.5762 24.6093 14.6172C24.5862 14.6523 24.4708 15.5254 24.1247 18.4434L24.4362 18.7891C24.6035 18.9766 24.8227 19.2871 24.9092 19.4688C25.0015 19.6562 25.1169 19.9727 25.1746 20.1719C25.2381 20.4355 25.2669 20.7637 25.2611 21.3027C25.2611 21.9121 25.2323 22.1758 25.1169 22.6211C25.0419 22.9258 24.8631 23.4004 24.7304 23.6758C24.5977 23.9512 24.3785 24.332 24.24 24.5254C24.1074 24.7187 23.8535 25.0059 23.6804 25.1699C23.5131 25.3281 23.3516 25.498 23.3285 25.5332C23.3055 25.5742 23.2478 25.9199 23.2016 26.2949C23.1555 26.6758 23.1151 27.0215 23.1151 27.0566C23.1151 27.0977 22.7978 27.2734 22.4113 27.4492C22.019 27.6191 21.3902 27.8711 21.0094 28C20.6287 28.1289 20.0171 28.2988 19.6537 28.3867C19.2903 28.4746 18.823 28.5742 18.2403 28.6855L17.7788 25.6387L17.375 25.4922C17.0288 25.3691 16.873 25.3457 16.25 25.3457C15.6269 25.3457 15.4712 25.3691 14.7212 25.6387L14.2597 28.6914L14.0578 28.6504C13.9482 28.627 13.5328 28.5332 13.1348 28.4512C12.7367 28.3633 12.1771 28.2168 11.8944 28.1289C11.6117 28.041 11.1964 27.8945 10.9714 27.8066C10.7522 27.7246 10.3022 27.5313 9.97335 27.3789C9.65029 27.2266 9.37914 27.0801 9.38491 27.0449C9.38491 27.0098 9.34453 26.6758 9.29838 26.2949C9.25223 25.9199 9.19454 25.5742 9.17146 25.5332C9.14838 25.498 8.98685 25.3281 8.81955 25.1699C8.64648 25.0059 8.39265 24.7187 8.25996 24.5254C8.12151 24.332 7.90228 23.9512 7.7696 23.6758C7.63691 23.4004 7.45807 22.9258 7.38308 22.6211C7.2677 22.1758 7.23885 21.9121 7.23308 21.3027C7.23308 20.7578 7.25616 20.4355 7.32539 20.1719C7.37731 19.9727 7.49846 19.6562 7.59076 19.4688C7.67729 19.2871 7.89652 18.9766 8.37534 18.4434L8.15035 16.5918C8.0292 15.5723 7.91382 14.6934 7.89075 14.6406C7.87344 14.5879 7.68883 14.4121 7.48115 14.2539C7.27347 14.0957 6.96771 13.8379 6.79464 13.6797C6.62157 13.5215 6.27543 13.1406 6.02737 12.8359C5.7793 12.5313 5.57739 12.2617 5.57739 12.2324C5.57739 12.209 5.66392 12.0801 5.76199 11.9395C5.86583 11.8047 6.14275 11.4766 6.36774 11.207C6.5985 10.9434 6.78887 10.709 6.78887 10.6797C6.78887 10.6562 6.67926 10.4746 6.54081 10.2695C6.40812 10.0645 6.27543 9.90039 6.24082 9.90039C6.21197 9.90039 5.91776 9.49609 5.59469 8.99805C5.26586 8.5 5.00049 8.04297 5.00049 7.98437C4.99472 7.93164 5.04087 7.84375 5.09856 7.79102C5.15625 7.73828 5.38701 7.60352 5.60623 7.49219C5.83122 7.38086 6.2062 7.21094 6.44273 7.12305C6.67926 7.0293 6.90425 6.93555 6.9331 6.91211C6.97348 6.88281 6.93887 6.4082 6.83502 5.5293C6.74849 4.79687 6.6908 4.15234 6.70234 4.10547C6.71964 4.05859 6.96771 3.86523 7.26193 3.68359C7.55615 3.50195 8.13881 3.17969 8.54841 2.97461C8.96378 2.76367 9.62721 2.45898 10.0368 2.29492C10.4406 2.13086 11.1387 1.89062 11.5944 1.76172C12.0444 1.62695 12.754 1.45703 13.1636 1.38086C13.579 1.30469 14.1328 1.2168 14.3982 1.19336Z" fill="#DFC06B"/>
<path d="M9.47145 27.748C9.45414 27.5195 9.4253 27.2852 9.41376 27.2266C9.40222 27.1563 9.41953 27.127 9.45991 27.1504C9.50029 27.168 9.8522 27.3262 10.2503 27.502C10.6483 27.6777 11.2541 27.918 11.606 28.0352C11.9579 28.1465 12.5117 28.3105 12.8463 28.3867C13.1809 28.4688 13.6251 28.5625 14.2309 28.6563L14.1962 28.873C14.1789 28.9961 14.1501 29.2246 14.127 29.3887C14.0866 29.6699 14.0809 29.6816 13.9136 29.6641C13.8155 29.6523 13.4174 29.582 13.0194 29.5C12.6213 29.418 12.0271 29.2715 11.6925 29.1719C11.3579 29.0781 10.7637 28.8555 10.3656 28.6797C9.96758 28.5039 9.61567 28.3164 9.57529 28.2578C9.53491 28.2051 9.48876 27.9707 9.47145 27.748Z" fill="#7B665E"/>
<path d="M21.4709 27.8301C21.8228 27.7012 22.3132 27.4902 22.567 27.3672C22.8209 27.2441 23.0459 27.1387 23.0632 27.1387C23.0805 27.1328 23.092 27.1797 23.0805 27.2324C23.0689 27.291 23.0459 27.5195 23.0286 27.748C23.0112 27.9766 22.9651 28.2051 22.9247 28.2578C22.8843 28.3164 22.5324 28.5039 22.1344 28.6797C21.7363 28.8555 21.1421 29.0781 20.8075 29.1719C20.4729 29.2715 19.8787 29.418 19.4806 29.5C19.0826 29.582 18.6845 29.6523 18.4134 29.6816L18.3441 29.1836L18.342 29.1667C18.3084 28.8989 18.2808 28.6797 18.2864 28.6797C18.2922 28.6738 18.6384 28.6035 19.048 28.5215C19.4576 28.4395 20.0345 28.2988 20.3171 28.2168C20.5998 28.1348 21.119 27.959 21.4709 27.8301Z" fill="#7B665E"/>
<path d="M14.7616 25.6387C14.7904 25.6035 15.0154 25.5215 15.2577 25.4512C15.5635 25.3633 15.8635 25.3223 16.2212 25.3223C16.5673 25.3164 16.8846 25.3574 17.173 25.4336C17.4096 25.498 17.6461 25.5859 17.698 25.627C17.773 25.6797 17.8595 26.1543 18.0845 27.6895C18.2461 28.7852 18.3788 29.8984 18.3788 30.1621C18.3845 30.5723 18.3672 30.666 18.2691 30.7656C18.2057 30.8301 18.1538 30.9063 18.1538 30.9414C18.1538 30.9766 17.4788 31 16.25 31C15.0212 31 14.3462 30.9766 14.3462 30.9414C14.3462 30.9063 14.2943 30.8301 14.2309 30.7656C14.1328 30.666 14.1155 30.5723 14.1212 30.1621C14.1212 29.8984 14.2539 28.7852 14.4155 27.6895C14.577 26.5938 14.7328 25.668 14.7616 25.6387Z" fill="#C5E5C9"/>
<path d="M8.64648 11.4004C8.81378 11.2891 9.11954 11.1309 9.32722 11.0488C9.59836 10.9492 9.82335 10.9082 10.1349 10.9082C10.4406 10.9082 10.6772 10.9434 10.9425 11.0371C11.1502 11.1133 11.4733 11.2773 11.6637 11.4063C11.854 11.541 12.1194 11.7461 12.2521 11.875C12.3848 11.998 12.5002 12.1504 12.5002 12.209C12.5002 12.2617 12.4136 12.4023 12.3156 12.5195C12.2117 12.6367 11.9406 12.8594 11.7213 13.0059C11.5021 13.1582 11.1618 13.3457 10.9714 13.4219C10.7118 13.5215 10.5099 13.5566 10.1637 13.5566C9.83489 13.5566 9.60413 13.5215 9.35607 13.4277C9.16569 13.3633 8.84263 13.1875 8.63495 13.041C8.42726 12.9004 8.16189 12.6895 8.04651 12.5723C7.91959 12.4551 7.82729 12.3086 7.82729 12.2383C7.82152 12.1504 7.91959 12.0098 8.08689 11.8574C8.23112 11.7168 8.48495 11.5117 8.64648 11.4004Z" fill="#7B665E"/>
<path d="M20.8652 11.3945C21.0729 11.2598 21.3959 11.0957 21.5863 11.0254C21.8113 10.9492 22.0824 10.9082 22.3478 10.9023C22.6247 10.9023 22.8843 10.9434 23.0978 11.0195C23.2824 11.084 23.5708 11.2246 23.7439 11.3301C23.917 11.4297 24.1939 11.6406 24.3612 11.793C24.5804 11.9922 24.6727 12.1152 24.6727 12.2207C24.6727 12.3145 24.5919 12.4434 24.4535 12.5781C24.3381 12.6953 24.0612 12.9121 23.8362 13.0586C23.6112 13.2051 23.2882 13.375 23.1151 13.4395C22.9036 13.5137 22.644 13.5527 22.3363 13.5566C21.9901 13.5566 21.7882 13.5215 21.5286 13.4219C21.3382 13.3457 21.0036 13.1582 20.7786 13.0059C20.5537 12.8594 20.2883 12.6367 20.1844 12.5195C20.0864 12.4023 19.9998 12.2617 19.9998 12.209C19.9998 12.1504 20.1152 11.998 20.2479 11.875C20.3806 11.7461 20.6575 11.5293 20.8652 11.3945Z" fill="#7B665E"/>
<path d="M9.38491 19.9199C9.46568 19.8613 9.64452 19.7852 9.78874 19.7559C9.93297 19.7207 10.256 19.709 10.5099 19.7207C10.7637 19.7383 11.1271 19.791 11.3175 19.8379C11.5079 19.8906 12.0502 20.1016 12.529 20.3008C13.0021 20.5059 13.602 20.7402 13.8559 20.8223C14.1097 20.9043 14.5251 21.0098 14.7789 21.0566C15.0327 21.1035 15.4885 21.1621 15.7885 21.1855C16.0942 21.209 16.6192 21.1973 16.9711 21.1621C17.323 21.127 17.8538 21.0332 18.1538 20.957C18.4538 20.8809 18.9383 20.7285 19.221 20.6113C19.5037 20.5 20.0402 20.2832 20.4037 20.1309C20.8248 19.9492 21.2575 19.8145 21.5863 19.7617C21.9786 19.6914 22.2036 19.6855 22.5093 19.7266C22.7401 19.7617 22.9882 19.8379 23.0862 19.9023C23.1785 19.9727 23.3228 20.1543 23.4035 20.3125C23.5074 20.5293 23.5478 20.7227 23.5651 21.0977C23.5824 21.4434 23.5593 21.7422 23.4901 22.0645C23.4324 22.3223 23.2882 22.7324 23.167 22.9727C23.0459 23.2129 22.8324 23.541 22.694 23.7051C22.5497 23.8633 22.2959 24.0801 22.1286 24.1855C21.9382 24.3027 21.6382 24.4141 21.3555 24.4727C21.044 24.5371 20.7152 24.5605 20.346 24.543C19.8498 24.5195 19.7345 24.4902 19.1345 24.2383C18.771 24.0859 18.2115 23.8691 17.8942 23.7637C17.5307 23.6406 17.1096 23.5469 16.7692 23.5117C16.4404 23.4766 16.025 23.4766 15.7308 23.5059C15.4596 23.5352 15.0962 23.5996 14.9231 23.6523C14.7501 23.6992 14.1789 23.916 13.654 24.1328C12.7598 24.4961 12.6675 24.5195 12.154 24.543C11.7848 24.5605 11.456 24.5371 11.1445 24.4727C10.8618 24.4141 10.5618 24.3027 10.3714 24.1855C10.2041 24.0801 9.95027 23.8633 9.80605 23.7051C9.66759 23.5469 9.45414 23.2129 9.33299 22.9727C9.21184 22.7324 9.06762 22.3223 9.00993 22.0645C8.9407 21.7422 8.91763 21.4434 8.93493 21.0977C8.95224 20.7227 8.99262 20.5293 9.09646 20.3125C9.17723 20.1543 9.30415 19.9785 9.38491 19.9199Z" fill="#7B665E"/>
<path d="M13.6251 4.15234C13.8789 4.05273 14.2712 3.92383 14.4905 3.86523C14.7097 3.80664 14.9866 3.76562 15.0962 3.77148C15.2923 3.7832 15.3039 3.79492 15.6731 4.54492C16.0481 5.30664 16.0481 5.30664 16.25 5.30664C16.4519 5.30664 16.4519 5.30664 16.7981 4.58008C16.9884 4.18164 17.1903 3.82422 17.2423 3.78906C17.323 3.74219 17.4615 3.74805 17.8192 3.82422C18.0845 3.87695 18.5461 4.02344 18.846 4.14648C19.1518 4.26953 19.4691 4.41602 19.5556 4.46875C19.6479 4.5332 19.7114 4.62695 19.7114 4.70313C19.7114 4.7793 19.5152 5.48242 19.2787 6.27344C19.0364 7.06445 18.823 7.72656 18.7999 7.74414C18.7768 7.76172 18.5922 7.89648 18.3845 8.04883C18.1768 8.19531 17.8538 8.45898 17.3173 8.95117L17.4499 9.25C17.5596 9.50781 17.5769 9.66016 17.5769 10.2578C17.5769 10.668 17.5999 10.9727 17.6346 10.9902C17.6692 11.0078 17.6922 11.2832 17.6865 11.6465C17.6807 11.998 17.6807 13.0703 17.6922 15.7949L18.2807 15.8301C18.7422 15.8535 18.9441 15.8945 19.1922 16.0059C19.3652 16.0879 19.6075 16.2578 19.7287 16.3867C19.8498 16.5098 20.0056 16.7324 20.0691 16.8789C20.1383 17.0312 20.2018 17.3066 20.2191 17.5234C20.2364 17.7637 20.2133 17.9746 20.1671 18.0977C20.0979 18.2676 20.0114 18.3262 19.4229 18.584C19.0595 18.7422 18.5807 18.9414 18.3557 19.0176C18.1307 19.0996 17.9461 19.1523 17.9403 19.1348C17.9288 19.1172 17.9807 19.0059 18.0499 18.8828C18.1134 18.7656 18.2691 18.5313 18.3903 18.373C18.5057 18.209 18.6211 17.9863 18.6441 17.875C18.673 17.6992 18.6557 17.6465 18.5287 17.5234C18.4249 17.4238 18.3095 17.377 18.1711 17.377C17.998 17.377 17.9288 17.4238 17.7153 17.6699C17.5711 17.8281 17.4442 18.0156 17.4269 18.0801C17.4096 18.1445 17.3057 18.3789 17.1961 18.6074C17.0865 18.8359 17 19.0703 17 19.1348C17 19.1992 16.9711 19.2871 16.9307 19.3223C16.8846 19.375 16.6654 19.3984 16.2558 19.3984C15.8346 19.3984 15.6212 19.375 15.5693 19.3281C15.5289 19.2871 15.5 19.1992 15.5 19.1348C15.5 19.0703 15.4135 18.8359 15.3039 18.6074C15.1943 18.3789 15.0904 18.1445 15.0731 18.0801C15.0558 18.0156 14.9289 17.8281 14.7847 17.6699C14.5712 17.4238 14.502 17.377 14.3289 17.377C14.1905 17.377 14.0751 17.4238 13.9713 17.5234C13.8443 17.6465 13.827 17.6992 13.8559 17.875C13.8789 17.9863 13.9943 18.209 14.1097 18.373C14.2309 18.5313 14.3866 18.7656 14.4501 18.8828C14.5193 19.0059 14.5712 19.1172 14.5655 19.1348C14.5539 19.1523 14.3635 19.0996 14.1443 19.0176C13.9251 18.9414 13.4405 18.7422 13.0771 18.584C12.4886 18.3262 12.4021 18.2676 12.3329 18.0977C12.2867 17.9746 12.2636 17.7637 12.2809 17.5234C12.2982 17.3066 12.3617 17.0312 12.4309 16.8789C12.4944 16.7324 12.6502 16.5098 12.7713 16.3867C12.8925 16.2578 13.1348 16.0879 13.3078 16.0059C13.5559 15.8945 13.7578 15.8535 14.8078 15.7949L14.8135 14.0371C14.8193 13.0703 14.8193 11.998 14.8135 11.6523C14.8078 11.2832 14.8308 11.0078 14.8654 10.9902C14.9001 10.9727 14.9231 10.668 14.9231 10.2578C14.9231 9.66016 14.9404 9.50781 15.1827 8.95117L14.8366 8.63477C14.6462 8.45898 14.3232 8.19531 14.1155 8.04883C13.9078 7.89648 13.7232 7.76172 13.7001 7.74414C13.677 7.72656 13.4636 7.06445 13.2213 6.27344C12.9848 5.48242 12.7886 4.7793 12.7886 4.70898C12.7886 4.62109 12.8578 4.5332 12.9732 4.45703C13.0771 4.39258 13.3713 4.25781 13.6251 4.15234Z" fill="#C5E5C9"/>
<path d="M8.40419 8.50194C8.73879 8.33785 9.20607 8.15618 9.4426 8.09171C9.67913 8.02725 10.008 7.97451 10.1637 7.97451C10.3253 7.97451 10.6195 8.00381 10.8272 8.05069C11.0348 8.09171 11.3867 8.20892 11.606 8.29683C11.8252 8.39059 12.229 8.61915 12.5002 8.80082C12.7713 8.9825 13.2328 9.36342 13.5328 9.64472C13.8328 9.93188 14.2424 10.3773 14.8078 11.104V12.1881L14.5655 11.8834C14.4328 11.7134 14.1847 11.4146 14.0116 11.2212C13.8386 11.0278 13.527 10.7172 13.3136 10.5238C13.1059 10.3362 12.7252 10.0432 12.4713 9.87328C12.2175 9.69746 11.8137 9.48063 11.5771 9.381C11.3406 9.28724 11.0002 9.17589 10.8272 9.13487C10.6426 9.09384 10.2791 9.07626 9.96181 9.09384C9.57529 9.11728 9.28684 9.17003 8.98108 9.28138C8.74456 9.36342 8.35803 9.54509 8.12151 9.68574C7.89075 9.82053 7.49269 10.096 7.24462 10.3011C6.99655 10.5003 6.77156 10.6644 6.74272 10.6644C6.71964 10.6703 6.59273 10.5062 6.21774 9.93188L6.37351 9.80295C6.46004 9.72677 6.81772 9.47477 7.16386 9.23449C7.50999 8.99422 8.06959 8.66017 8.40419 8.50194Z" fill="#CB903C"/>
<path d="M20.894 8.29683C21.119 8.20306 21.4536 8.09758 21.644 8.05655C21.8344 8.00967 22.1171 7.97451 22.2786 7.97451C22.4343 7.96865 22.7747 8.02139 23.0286 8.08585C23.2824 8.15032 23.7612 8.33785 24.0958 8.50194C24.4304 8.66603 24.9842 8.99422 25.3361 9.22863C25.6881 9.46891 26.04 9.72677 26.2823 9.93188L26.04 10.3011C25.9073 10.5062 25.7746 10.6703 25.74 10.6644C25.7054 10.6644 25.515 10.5179 25.3073 10.348C25.0996 10.178 24.8054 9.94946 24.6439 9.84397C24.4881 9.73263 24.1766 9.55681 23.9516 9.45719C23.7266 9.3517 23.3805 9.22277 23.1728 9.17589C22.9651 9.12314 22.5901 9.08212 22.3363 9.08212C22.0421 9.08212 21.7132 9.129 21.4421 9.20519C21.2056 9.26965 20.8306 9.41616 20.6056 9.53337C20.3806 9.64472 19.9998 9.89086 19.746 10.0725C19.4979 10.2542 19.0883 10.6117 18.8287 10.8695C18.5749 11.1274 18.2115 11.5318 17.6922 12.1881V11.104L18.0557 10.6351C18.2576 10.3773 18.6672 9.93188 18.9672 9.64472C19.2672 9.36342 19.7287 8.9825 19.9998 8.80082C20.271 8.61915 20.669 8.39059 20.894 8.29683Z" fill="#CB903C"/>
<path d="M14.1039 18.365C13.9828 18.2243 13.8905 18.0485 13.8963 17.9841C13.902 17.8844 13.9251 17.8669 14.0232 17.8962C14.0924 17.9196 14.3578 17.9958 15.0962 18.195L15.2635 18.5174C15.3558 18.6932 15.4596 18.951 15.4943 19.0858C15.552 19.3085 15.5462 19.3378 15.4596 19.3378C15.402 19.3378 15.2404 19.3085 15.0962 19.2792C14.952 19.244 14.7789 19.2089 14.7097 19.1913C14.6231 19.1737 14.5308 19.0682 14.4501 18.8924C14.3751 18.7459 14.2193 18.5056 14.1039 18.365Z" fill="#CB903C"/>
<path d="M17.6519 18.1306C17.7845 18.1071 18.0268 18.0427 18.1826 17.9841C18.3441 17.9313 18.5057 17.8786 18.5461 17.8786C18.5807 17.8727 18.6153 17.9255 18.6153 17.9899C18.6153 18.0544 18.5172 18.2243 18.4018 18.365C18.2807 18.5056 18.1249 18.7459 18.0557 18.8924C17.9692 19.0682 17.8769 19.1737 17.7961 19.1913C17.7211 19.2089 17.548 19.244 17.4038 19.2792C17.2596 19.3085 17.098 19.3378 17.0461 19.3378C16.9538 19.3378 16.948 19.3085 17 19.1034C17.0346 18.9745 17.1384 18.7108 17.2307 18.5174C17.3923 18.1892 17.4211 18.1657 17.6519 18.1306Z" fill="#CB903C"/>
<path d="M13.654 7.78111C13.654 7.76939 13.5559 7.42949 13.4347 7.01926C13.3078 6.60317 13.2271 6.26913 13.2444 6.26913C13.2617 6.26913 13.4636 6.4215 13.6943 6.60317C13.9193 6.79071 14.2943 7.11889 14.5308 7.33572C14.7847 7.57014 15.0039 7.72837 15.0847 7.73423C15.1539 7.73423 15.3443 7.64633 15.5116 7.5467C15.7423 7.39433 15.8866 7.34744 16.1577 7.32986C16.4346 7.31228 16.5788 7.34158 16.8211 7.44707C16.9884 7.52326 17.1615 7.62288 17.1961 7.66391C17.2307 7.70493 17.323 7.74009 17.4038 7.73423C17.4961 7.73423 17.698 7.59358 17.9692 7.33572C18.2057 7.11889 18.5807 6.79071 18.8057 6.60317C19.0364 6.4215 19.2383 6.26913 19.2672 6.26913C19.2903 6.26913 19.2037 6.60317 19.0768 7.01926C18.9499 7.42949 18.846 7.76353 18.846 7.76353C18.8518 7.76353 18.673 7.89832 18.4595 8.06241C18.2461 8.2265 17.9172 8.49608 17.4038 8.96491L17.173 8.7598C17.0403 8.64259 16.8096 8.51366 16.6423 8.46678C16.475 8.4199 16.2962 8.37887 16.25 8.37887C16.2038 8.37887 16.025 8.4199 15.8635 8.46678C15.6904 8.51366 15.4597 8.64259 15.0962 8.96491L14.7385 8.63087C14.5366 8.4492 14.2135 8.18548 14.0174 8.04483C13.8155 7.91004 13.654 7.78697 13.654 7.78111Z" fill="#669E4F"/>
<path d="M14.0001 30.3729C14.0001 30.2147 14.0174 30.0037 14.0347 29.8982V29.9041C14.052 29.7986 14.0866 29.7107 14.1097 29.7107C14.127 29.7107 14.1962 29.7517 14.2597 29.7986C14.3578 29.8748 14.6808 29.8865 16.25 29.8865C17.8249 29.8865 18.148 29.8748 18.2576 29.7986C18.3788 29.7166 18.3903 29.7224 18.4422 29.8572C18.4768 29.9393 18.4999 30.1502 18.4999 30.3261C18.4999 30.6015 18.4768 30.6718 18.1653 31H14.3462L14.1732 30.8242C14.0289 30.6777 14.0001 30.6015 14.0001 30.3729Z" fill="#669E4F"/>
<path d="M9.44837 28.228C9.41953 28.1577 9.37914 27.8823 9.35607 27.6186V27.6127C9.32145 27.2669 9.32722 27.1321 9.37914 27.1321C9.41376 27.1321 9.5926 27.2083 9.77144 27.3021C9.95604 27.3959 10.406 27.5893 10.7695 27.7358C11.1329 27.8823 11.7444 28.0991 12.1252 28.2046C12.5059 28.3159 13.129 28.4683 13.5097 28.5445C13.8905 28.6148 14.2988 28.6316 14.3104 28.6316C14.3161 28.6374 14.202 28.9196 14.1616 29.2067C14.1097 29.5701 14.3681 29.7923 14.3104 29.8158C14.2642 29.8275 13.7463 29.7517 13.5386 29.7107C13.3309 29.6697 12.8521 29.5642 12.4713 29.4763C12.0906 29.3825 11.4733 29.2009 11.1041 29.0719C10.7291 28.9371 10.2156 28.7262 9.96181 28.5972C9.66759 28.4507 9.48299 28.3159 9.44837 28.228Z" fill="#DA6F27"/>
<path d="M21.7882 27.7182C22.1863 27.56 22.6247 27.3607 22.7689 27.2845C22.9132 27.2083 23.0632 27.1439 23.1035 27.138C23.1555 27.138 23.167 27.2552 23.1382 27.6186C23.1209 27.8881 23.0805 28.1636 23.0516 28.2339C23.017 28.3218 22.8209 28.4566 22.469 28.6324C22.1747 28.7789 21.5805 29.0133 21.1536 29.154C20.7267 29.3005 20.0633 29.4822 19.6825 29.5701C19.3018 29.6521 18.769 29.7982 18.319 29.8158L18.3441 29.3063C18.3095 29.0661 18.1897 28.7262 18.1897 28.6793C18.1839 28.6148 18.4307 28.6617 18.9441 28.5621C19.3191 28.4918 19.9479 28.3394 20.346 28.2222C20.744 28.105 21.3902 27.8823 21.7882 27.7182Z" fill="#DA6F27"/>
<path d="M12.2694 17.6266C12.2694 17.4683 12.2867 17.3043 12.3098 17.2515C12.3329 17.1988 12.3848 17.1753 12.4367 17.1988C12.4886 17.2222 12.8348 17.3746 13.2097 17.5387C13.7866 17.7965 13.8905 17.861 13.8847 17.9782C13.8847 18.0485 13.9597 18.195 14.052 18.3005C14.1386 18.4002 14.277 18.5935 14.3578 18.7225C14.4328 18.8514 14.5193 19.0038 14.5366 19.0624C14.577 19.1561 14.5597 19.1561 14.3059 19.0741C14.1501 19.0214 13.6597 18.8221 13.2097 18.6346C12.4425 18.3064 12.379 18.2712 12.3271 18.0954C12.2925 17.9899 12.2694 17.7789 12.2694 17.6266Z" fill="#D3D3D3"/>
<path d="M18.6037 17.9723C18.5922 17.8493 18.673 17.8024 19.3364 17.5094C19.7518 17.3277 20.1037 17.1753 20.1325 17.1753C20.1556 17.1695 20.1844 17.2105 20.2018 17.2574C20.2191 17.3043 20.2306 17.4683 20.2306 17.6266C20.2306 17.7789 20.2075 17.9899 20.1729 18.0954C20.121 18.2712 20.0575 18.3064 19.2672 18.6463C18.7941 18.8455 18.3038 19.0389 18.1711 19.0858C17.9403 19.1561 17.9288 19.1561 17.9634 19.0624C17.9807 19.0038 18.0672 18.8514 18.1422 18.7225C18.223 18.5935 18.3614 18.4002 18.448 18.3005C18.5461 18.1892 18.6095 18.0485 18.6037 17.9723Z" fill="#D3D3D3"/>
<path d="M15.5 19.1503C15.5 19.0741 15.4193 18.8455 15.3154 18.6346L15.125 18.2536H16.2327C16.8442 18.2536 17.3461 18.2595 17.3461 18.2712C17.3461 18.2771 17.2711 18.447 17.173 18.6521C17.0807 18.8514 17 19.0741 17 19.1503C17 19.2323 16.948 19.2968 16.8557 19.3378C16.775 19.373 16.5038 19.3964 16.25 19.3964C15.9962 19.3964 15.725 19.373 15.6443 19.3378C15.552 19.2968 15.5 19.2323 15.5 19.1503Z" fill="#D3D3D3"/>
<path d="M5.45624 12.2233C5.45047 12.1999 5.53123 12.0709 5.63508 11.9479C5.73315 11.8248 5.83699 11.7193 5.8543 11.7193C5.87737 11.7252 6.15428 11.9947 6.47158 12.3229C6.78887 12.657 7.23308 13.0672 7.4523 13.2313C7.67153 13.4012 8.11574 13.6708 8.43303 13.8349C8.76186 13.999 9.183 14.1631 9.41376 14.21C9.63298 14.2569 9.97335 14.2979 10.1637 14.2979C10.3541 14.2979 10.7175 14.2451 10.9714 14.1807C11.2252 14.1162 11.6406 13.958 11.8944 13.829C12.1483 13.706 12.5752 13.4305 12.8463 13.2254C13.1174 13.0144 13.579 12.5925 13.8674 12.2819C14.1616 11.9713 14.4212 11.731 14.4443 11.7427C14.4732 11.7545 14.5597 11.8717 14.8078 12.2467L14.5366 12.6101C14.3866 12.8152 14.0289 13.2196 13.7405 13.5067C13.4578 13.7997 13.0367 14.1748 12.8175 14.3448C12.5982 14.5147 12.2175 14.7491 11.981 14.8781C11.7444 15.0011 11.4156 15.1476 11.2598 15.2004C11.0983 15.2473 10.7868 15.3176 10.5676 15.3469C10.3195 15.382 10.008 15.3879 9.7599 15.3527C9.54068 15.3234 9.22338 15.259 9.06762 15.2062C8.90609 15.1535 8.57726 15.007 8.32919 14.8781C8.08689 14.755 7.88498 14.6671 7.88498 14.6905C7.88498 14.7198 7.8619 14.7081 7.83883 14.6788C7.81575 14.6436 7.63114 14.4854 7.42346 14.3272C7.22155 14.1631 6.89848 13.8876 6.70811 13.7118C6.51773 13.536 6.16005 13.1375 5.91199 12.8328C5.66392 12.528 5.45624 12.2526 5.45624 12.2233Z" fill="#F2B211"/>
<path d="M17.7326 12.1706C17.7557 12.1354 17.8307 12.0123 17.9115 11.9068C17.9865 11.8072 18.0615 11.7193 18.073 11.7193C18.0845 11.7193 18.3384 11.9713 18.6268 12.2819C18.921 12.5925 19.3826 13.0144 19.6537 13.2196C19.9248 13.4247 20.3517 13.7001 20.6056 13.829C20.8594 13.958 21.2748 14.1162 21.5286 14.1807C21.7825 14.2451 22.1459 14.2979 22.3363 14.2979C22.5267 14.2979 22.8613 14.2569 23.0862 14.21C23.317 14.1631 23.7381 13.999 24.067 13.8349C24.3843 13.6708 24.8227 13.4012 25.0477 13.2313C25.2727 13.0613 25.7227 12.6452 26.6457 11.69L26.8418 11.9244C26.9515 12.0533 27.038 12.1823 27.038 12.2174C27.038 12.2526 26.8361 12.528 26.588 12.8328C26.3399 13.1375 25.965 13.5477 25.7631 13.7411C25.5554 13.9345 25.2323 14.21 25.0477 14.3565C24.8573 14.503 24.69 14.6436 24.6727 14.6671C24.6554 14.6964 24.6266 14.714 24.5977 14.714C24.5746 14.7081 24.3439 14.8136 24.0785 14.9367C23.8189 15.0656 23.4381 15.2121 23.2305 15.2648C23.0228 15.3234 22.6363 15.3645 22.3651 15.3703C22.094 15.3703 21.7075 15.3234 21.4998 15.2766C21.2921 15.2238 20.8883 15.0597 20.6056 14.9132C20.3229 14.7667 19.9075 14.5088 19.6825 14.3448C19.4576 14.1748 19.0422 13.7997 18.7595 13.5067C18.4711 13.2196 18.1134 12.8152 17.9634 12.6101C17.8076 12.405 17.7096 12.2174 17.7326 12.1706Z" fill="#F2B211"/>
<path d="M7.12924 21.7406C7.1004 21.4358 7.09463 21.137 7.1177 21.0784C7.14078 21.0197 7.16386 20.9787 7.16962 20.9904C7.17539 21.0022 7.22731 21.1897 7.27924 21.4183C7.33116 21.6468 7.4523 22.0277 7.54461 22.268C7.64268 22.5083 7.83883 22.9068 7.98882 23.1471C8.13881 23.3873 8.4388 23.7741 8.66379 24.0027C8.88301 24.2312 9.25223 24.5243 9.47145 24.6591C9.69067 24.788 10.0426 24.9521 10.2503 25.0165C10.4579 25.0869 10.8964 25.1806 11.231 25.2334C11.6406 25.2978 11.9867 25.3096 12.2982 25.2861C12.5521 25.2627 12.9444 25.1982 13.1636 25.1396C13.3828 25.081 13.902 24.8935 14.3174 24.7118C14.7328 24.536 15.2347 24.3485 15.4423 24.2957C15.65 24.2488 16.0135 24.2019 16.25 24.2019C16.4865 24.2019 16.8384 24.243 17.0288 24.2957C17.2192 24.3426 17.7557 24.5418 18.2288 24.7352C18.696 24.9228 19.2383 25.1162 19.4402 25.163C19.6364 25.2099 19.9768 25.2685 20.2018 25.2861C20.4729 25.3154 20.8248 25.2978 21.269 25.2275C21.6325 25.1748 22.1113 25.0634 22.3363 24.9872C22.5613 24.911 22.8843 24.7587 23.0574 24.6532C23.2305 24.5536 23.5708 24.2664 23.8074 24.0261C24.0497 23.7859 24.367 23.3873 24.5112 23.1471C24.6612 22.9068 24.8573 22.5083 24.9554 22.268C25.0477 22.0277 25.1746 21.6292 25.2265 21.389C25.2958 21.0608 25.3361 20.9729 25.3708 21.049C25.3996 21.1135 25.3996 21.3948 25.365 21.723C25.3361 22.0395 25.2438 22.5259 25.1631 22.8072C25.0823 23.0943 24.9265 23.5163 24.8112 23.7448C24.6958 23.9792 24.4881 24.3309 24.3554 24.5243C24.217 24.7177 23.9343 25.04 23.7266 25.2392C23.5189 25.4443 23.3458 25.5967 23.3458 25.5791C23.3458 25.5616 23.1959 25.6436 23.017 25.7549C22.8324 25.8722 22.5267 26.0128 22.3363 26.0773C22.1459 26.1417 21.7882 26.2355 21.5459 26.2824C21.2979 26.3293 20.8306 26.3703 20.5075 26.3703C20.121 26.3703 19.7518 26.3293 19.4518 26.2589C19.198 26.1945 18.6153 25.9894 18.1538 25.796C17.6922 25.6084 17.173 25.415 17 25.3682C16.8269 25.3271 16.4865 25.292 16.25 25.292C16.0135 25.292 15.6731 25.3271 15.5 25.3682C15.327 25.415 14.7789 25.6143 14.2885 25.8136C13.7982 26.0187 13.204 26.2238 12.979 26.2765C12.7425 26.3293 12.2982 26.3703 11.981 26.3703C11.6637 26.3703 11.2021 26.3293 10.9598 26.2824C10.7118 26.2355 10.3541 26.1417 10.1637 26.0773C9.97335 26.0128 9.66759 25.8722 9.48876 25.7549C9.30415 25.6436 9.15415 25.5616 9.15415 25.5791C9.15415 25.5967 8.98108 25.4443 8.7734 25.2392C8.56572 25.04 8.28304 24.7177 8.14458 24.5243C8.0119 24.3309 7.80421 23.9792 7.68883 23.7448C7.57345 23.5163 7.41769 23.0943 7.33693 22.8072C7.25616 22.5259 7.16386 22.0453 7.12924 21.7406Z" fill="#F2B211"/>
<path d="M8.43303 9.52165C8.72148 9.37514 9.108 9.22277 9.29838 9.17589C9.48875 9.12901 9.86374 9.08798 10.1349 9.08798C10.406 9.08212 10.7752 9.12315 10.9598 9.17003C11.1387 9.21691 11.4502 9.32826 11.6464 9.4103C11.8483 9.49235 12.2175 9.70332 12.4713 9.87328C12.7252 10.0432 13.1059 10.3362 13.3194 10.5238C13.527 10.7172 13.8616 11.0454 14.4039 11.6607L14.2366 11.8834C14.1443 12.0006 13.8386 12.3229 13.5559 12.5984C13.2732 12.8738 12.8463 13.2313 12.6098 13.4012C12.379 13.5653 12.0156 13.7822 11.8079 13.8818C11.6002 13.9814 11.2252 14.1162 10.9714 14.1807C10.7175 14.2451 10.3541 14.2979 10.1637 14.2979C9.97335 14.2979 9.63298 14.2569 9.41376 14.21C9.183 14.1631 8.76186 13.999 8.43303 13.8349C8.11574 13.6708 7.67153 13.4012 7.4523 13.2313C7.23308 13.0672 6.7831 12.6511 6.45427 12.3112C6.13121 11.9654 5.86007 11.6783 5.86007 11.6607C5.86007 11.6431 6.09083 11.3911 6.36774 11.0981C6.64465 10.8051 7.10617 10.389 7.39461 10.178C7.68306 9.96118 8.14458 9.66816 8.43303 9.52165Z" fill="#FFC83D"/>
<path d="M20.5767 9.54509C20.7844 9.43961 21.1479 9.28724 21.3844 9.21691C21.6786 9.12901 21.9728 9.08798 22.3074 9.08798C22.5786 9.08212 22.9651 9.12314 23.1728 9.17589C23.3805 9.22277 23.7266 9.3517 23.9516 9.45719C24.1766 9.55681 24.4881 9.73263 24.6439 9.84397C24.8054 9.94946 25.1688 10.2308 25.4515 10.4593C25.7342 10.6937 26.1207 11.0571 26.6342 11.6607L26.2765 12.0768C26.0746 12.3053 25.7054 12.6687 25.4515 12.8855C25.1977 13.1024 24.8746 13.3602 24.7304 13.4598C24.5862 13.5595 24.2516 13.7529 23.9804 13.8818C23.7093 14.0166 23.3112 14.1631 23.0862 14.21C22.8613 14.2569 22.5267 14.2979 22.3363 14.2979C22.1459 14.2979 21.7825 14.2451 21.5286 14.1807C21.2748 14.1162 20.8594 13.958 20.6056 13.829C20.3517 13.7001 19.9248 13.4247 19.6537 13.2196C19.3826 13.0144 18.921 12.5925 18.6326 12.2819C18.1999 11.8306 18.1076 11.7017 18.148 11.6197C18.1768 11.5611 18.448 11.2622 18.748 10.9574C19.048 10.6527 19.4979 10.2542 19.746 10.0725C19.9998 9.89086 20.3691 9.65058 20.5767 9.54509Z" fill="#FFC83D"/>
<path d="M9.06762 18.0778C9.22915 18.0251 9.51183 17.9606 9.70221 17.9313C9.89258 17.9079 10.3079 17.8962 10.6252 17.9137C10.9425 17.9313 11.4387 18.0075 11.7213 18.0778C12.004 18.1482 12.6444 18.3826 13.1347 18.5935C13.6251 18.8045 14.1962 19.0331 14.4039 19.0975C14.6116 19.1561 14.9231 19.2382 15.0962 19.2792C15.2693 19.3144 15.65 19.3613 15.9327 19.3788C16.2154 19.3964 16.6711 19.3847 16.9423 19.3437C17.2134 19.3085 17.6288 19.2265 17.8653 19.1679C18.1018 19.1034 18.7364 18.8631 19.2787 18.6287C19.821 18.4002 20.5075 18.1482 20.8075 18.0661C21.2344 17.9548 21.5113 17.9196 22.0767 17.9137C22.5036 17.9079 22.9305 17.9372 23.1151 17.9841C23.2882 18.0251 23.6228 18.154 23.8593 18.2771C24.1593 18.4236 24.3727 18.5877 24.5746 18.8104C24.7362 18.9862 24.9381 19.2909 25.0246 19.4843C25.1169 19.6777 25.2265 19.9942 25.2785 20.1876C25.3246 20.381 25.365 20.6095 25.365 20.7033C25.365 20.7912 25.3015 21.1077 25.2265 21.4065C25.1515 21.6996 25.0073 22.1449 24.9035 22.3852C24.8054 22.6255 24.6035 23.0064 24.4593 23.235C24.315 23.4635 24.0093 23.8269 23.7843 24.0554C23.5535 24.284 23.2247 24.5536 23.0516 24.6532C22.8843 24.7587 22.5613 24.911 22.3363 24.9872C22.1113 25.0634 21.6325 25.1748 21.269 25.2275C20.8248 25.2978 20.4729 25.3154 20.2018 25.2861C19.9768 25.2685 19.6364 25.2099 19.4402 25.163C19.2383 25.1162 18.696 24.9228 18.2288 24.7352C17.7557 24.5418 17.2192 24.3426 17.0288 24.2957C16.8384 24.243 16.4865 24.2019 16.25 24.2019C16.0135 24.2019 15.65 24.2488 15.4423 24.2957C15.2347 24.3485 14.7328 24.536 14.3174 24.7118C13.902 24.8935 13.3828 25.081 13.1636 25.1396C12.9444 25.1982 12.5521 25.2627 12.2982 25.2861C11.9867 25.3096 11.6406 25.2978 11.231 25.2334C10.8964 25.1806 10.4579 25.0869 10.2503 25.0165C10.0426 24.9521 9.69067 24.788 9.47145 24.6591C9.25223 24.5243 8.88301 24.2312 8.66379 24.0027C8.4388 23.7741 8.13881 23.3873 7.98882 23.1471C7.83883 22.9068 7.64268 22.5083 7.54461 22.268C7.4523 22.0277 7.32539 21.6292 7.27347 21.389C7.21001 21.0901 7.16386 20.9787 7.13501 21.0373C7.10617 21.0901 7.1004 21.0022 7.1177 20.8322C7.12924 20.674 7.18116 20.381 7.22731 20.1876C7.27347 19.9942 7.38308 19.6777 7.47538 19.4843C7.56192 19.2909 7.75229 19.0038 7.89652 18.8397C8.03497 18.6815 8.29458 18.4646 8.46765 18.365C8.64071 18.2654 8.91186 18.1364 9.06762 18.0778Z" fill="#FFC83D"/>
<path d="M14.1732 3.93083C14.3809 3.86637 14.6001 3.80191 14.6635 3.79019C14.727 3.7726 14.9001 3.76088 15.327 3.74916L15.7019 4.54032C16.0596 5.29631 16.0827 5.33147 16.25 5.33147C16.4173 5.33147 16.4404 5.29631 17.173 3.74916H17.4153C17.5538 3.74916 17.8307 3.79605 18.0384 3.84293C18.2461 3.89567 18.6614 4.04218 18.9614 4.17111C19.2614 4.29418 19.5672 4.45241 19.7806 4.65752L19.5441 5.44868C19.4114 5.88235 19.2729 6.25741 19.2326 6.27499C19.1979 6.29843 18.9903 6.45666 18.7826 6.62662C18.5691 6.80243 18.2057 7.11889 17.9749 7.33572C17.698 7.59358 17.4961 7.73423 17.4038 7.73423C17.323 7.74009 17.2307 7.70493 17.1961 7.66391C17.1615 7.62288 16.9884 7.52326 16.8211 7.44707C16.5788 7.34158 16.4346 7.31228 16.1577 7.32986C15.8866 7.34744 15.7423 7.39433 15.5116 7.54084C15.3443 7.64632 15.1539 7.73423 15.0847 7.73423C15.0039 7.72837 14.7789 7.57014 14.5251 7.33572C14.2943 7.11889 13.9309 6.80243 13.7174 6.62662C13.5097 6.45666 13.3021 6.29843 13.2674 6.27499C13.2271 6.25741 13.0886 5.89993 12.9617 5.47798C12.8348 5.05603 12.7425 4.6751 12.7598 4.62822C12.7713 4.58134 13.0136 4.42897 13.2905 4.29418C13.5674 4.15939 13.9655 3.9953 14.1732 3.93083Z" fill="#8AD06E"/>
<path d="M15.2116 25.4502C15.3847 25.4033 15.6443 25.3389 15.7885 25.3154C15.9327 25.292 16.1115 25.2685 16.1923 25.2627C16.2731 25.2627 16.4923 25.2861 16.6827 25.3154C16.873 25.3447 17.1615 25.4092 17.3173 25.4619C17.4788 25.5088 17.6519 25.5791 17.7096 25.6202C17.7903 25.6788 17.8653 26.1007 18.1134 27.7299C18.2749 28.8434 18.4018 29.7459 18.3845 29.7342C18.3672 29.7224 18.3038 29.7517 18.2403 29.7986C18.1422 29.8748 17.8076 29.8865 16.25 29.8924C14.5366 29.8924 14.3635 29.8807 14.0982 29.6814L14.3924 27.6889C14.6347 26.0714 14.7097 25.6846 14.7904 25.6202C14.8481 25.5791 15.0385 25.5029 15.2116 25.4502Z" fill="#8AD06E"/>
<path d="M13.0771 1.2878C13.4405 1.21747 14.0116 1.12371 14.3462 1.08268C14.6808 1.04166 15.4943 1.0065 16.1635 1.00064C16.9019 0.994776 17.6576 1.02994 18.0961 1.08268C18.4941 1.12957 19.0883 1.21747 19.4229 1.28194C19.7575 1.3464 20.3921 1.50463 20.8363 1.63356C21.2806 1.76249 21.8632 1.95002 22.1344 2.04965C22.4055 2.15513 22.7805 2.30164 22.9709 2.38369C23.1612 2.46574 23.6401 2.69429 24.0381 2.89941C24.4362 3.09866 25.0015 3.40926 25.2958 3.59093C25.5842 3.77846 25.8496 3.97186 25.8784 4.0246C25.9188 4.09493 25.8784 4.57548 25.7746 5.44868C25.6823 6.17537 25.5957 6.81415 25.5727 6.86689C25.5381 6.96652 25.5208 6.96652 25.2958 6.88447C25.1573 6.83173 24.765 6.73796 24.4131 6.66764C23.9343 6.57387 23.5766 6.54457 22.942 6.54457C22.4113 6.54457 21.9382 6.58559 21.644 6.6442C21.3902 6.69694 20.9633 6.80829 20.6921 6.8962C20.421 6.9841 19.9018 7.2068 19.5383 7.39433C19.1749 7.58186 18.8691 7.72837 18.8691 7.72251C18.8633 7.71079 19.0653 7.01926 19.7806 4.65752L19.6422 4.5286C19.5729 4.45241 19.2614 4.29418 18.9614 4.17111C18.6614 4.04218 18.2461 3.89567 18.0384 3.84293C17.8307 3.79605 17.5538 3.74916 17.173 3.74916L16.7981 4.54032C16.4404 5.29631 16.4173 5.33147 16.25 5.33147C16.0827 5.33147 16.0596 5.29631 15.3154 3.71986L14.9347 3.76088C14.7212 3.78433 14.3808 3.85465 14.1732 3.92497C13.9655 3.9953 13.5674 4.15939 13.2905 4.29418C13.0136 4.42897 12.7713 4.58134 12.7598 4.62822C12.7425 4.6751 12.9386 5.39007 13.1867 6.21053C13.4347 7.03098 13.6309 7.71079 13.6193 7.71665C13.6078 7.72837 13.3828 7.61702 13.1232 7.47637C12.8578 7.32986 12.4079 7.11889 12.1252 7.00754C11.8425 6.8962 11.3348 6.74969 11.0002 6.6735C10.5387 6.57973 10.1926 6.54457 9.55798 6.54457C8.92916 6.54457 8.56572 6.57387 8.08689 6.66764C7.74075 6.73796 7.34269 6.83173 7.21001 6.88447C7.01386 6.9548 6.95617 6.9548 6.92156 6.90206C6.89848 6.86103 6.81195 6.22225 6.72541 5.47798C6.62157 4.60478 6.58696 4.09493 6.62157 4.0246C6.65042 3.97186 6.91579 3.77846 7.20424 3.59093C7.49846 3.40926 8.06382 3.09866 8.46188 2.89354C8.85994 2.69429 9.5176 2.39541 9.93297 2.22546C10.3483 2.05551 11.0695 1.80937 11.5483 1.66872C12.0213 1.52807 12.7136 1.35812 13.0771 1.2878Z" fill="#E67B33"/>
<path d="M13.7405 13.5067C14.0289 13.2196 14.3751 12.8269 14.5135 12.6452V12.6394C14.652 12.4577 14.7731 12.3053 14.7847 12.3053C14.7962 12.3053 14.8078 13.0906 14.8078 15.7923L14.2193 15.8274C13.7578 15.8509 13.5559 15.8919 13.3078 16.0033C13.1348 16.0853 12.8867 16.2552 12.7655 16.3842C12.6386 16.5072 12.4829 16.7299 12.4194 16.8765C12.3386 17.064 12.304 17.2691 12.2982 17.5797C12.2982 17.82 12.3156 18.072 12.3386 18.1364C12.379 18.2536 12.3732 18.2536 11.906 18.1189C11.6464 18.0427 11.1618 17.9606 10.8272 17.9255C10.4406 17.8903 10.0657 17.8903 9.78874 17.9255C9.55221 17.9548 9.22915 18.0251 9.06762 18.0778C8.91186 18.1364 8.66956 18.2419 8.53687 18.3181C8.35803 18.4177 8.28304 18.4412 8.26573 18.3826C8.24842 18.3474 8.14458 17.5152 8.03497 16.5365C7.91959 15.5637 7.83883 14.7433 7.85613 14.7081C7.87344 14.6729 8.08112 14.7491 8.33496 14.8781C8.57726 15.007 8.91186 15.1535 9.06762 15.2062C9.22915 15.259 9.54068 15.3234 9.7599 15.3527C10.008 15.3879 10.3195 15.382 10.5676 15.3469C10.7868 15.3176 11.1041 15.2473 11.2598 15.2004C11.4214 15.1476 11.7444 15.0011 11.981 14.8781C12.2175 14.7491 12.5982 14.5147 12.8175 14.3448C13.0367 14.1748 13.4578 13.7997 13.7405 13.5067Z" fill="#E67B33"/>
<path d="M17.6922 15.7981V14.04L17.698 12.2819L17.8538 12.487C17.9403 12.5984 18.1884 12.8972 18.4134 13.1551C18.6384 13.413 19.0537 13.8232 19.3422 14.0693C19.6306 14.3096 20.0748 14.6261 20.3229 14.7726C20.5767 14.9132 20.9344 15.089 21.1248 15.1594C21.3152 15.2297 21.6671 15.3176 21.9036 15.3469C22.1805 15.3879 22.4805 15.3938 22.7401 15.3586C22.9651 15.3293 23.2766 15.2648 23.4324 15.218C23.5939 15.1652 23.9227 15.0187 24.1708 14.8898C24.4189 14.7608 24.6266 14.6788 24.6439 14.714C24.6612 14.7491 24.5804 15.5696 24.465 16.5424C24.3554 17.5211 24.2516 18.3533 24.2343 18.3884C24.217 18.447 24.142 18.4236 23.9689 18.324C23.8304 18.2478 23.5939 18.1364 23.4324 18.0837C23.2766 18.0309 22.9247 17.9606 22.6536 17.9255C22.319 17.8844 21.9901 17.8903 21.6152 17.9313C21.3152 17.9665 20.8536 18.0544 20.594 18.1247C20.1268 18.2595 20.121 18.2595 20.1614 18.1423C20.1844 18.0778 20.2018 17.8258 20.2018 17.5856C20.2018 17.2574 20.1671 17.0816 20.0748 16.8823C20.0056 16.7358 19.8498 16.5131 19.7287 16.39C19.6075 16.2611 19.3652 16.0912 19.1922 16.0091C18.9441 15.8978 18.7422 15.8567 17.6922 15.7981Z" fill="#E67B33"/>
<path d="M9.20608 26.3879C9.15415 25.9776 9.11954 25.626 9.12531 25.6026C9.13685 25.585 9.29261 25.6553 9.47722 25.7667C9.66182 25.878 9.97335 26.0187 10.1637 26.0831C10.3541 26.1476 10.706 26.2414 10.9541 26.2882C11.2021 26.3351 11.6694 26.3762 11.9925 26.3762C12.379 26.3762 12.7482 26.3351 13.0482 26.2648C13.3021 26.2003 13.7693 26.0421 14.0866 25.9073C14.4039 25.7784 14.8218 25.5994 14.8276 25.6053C14.8391 25.617 14.5885 26.3586 14.2482 28.6324L13.9943 28.6207C13.8559 28.6148 13.429 28.5386 13.0482 28.4507C12.6675 28.3687 12.0156 28.187 11.606 28.0464C11.1906 27.9116 10.556 27.6596 10.1926 27.4896C9.82336 27.3255 9.47722 27.1732 9.41376 27.1556C9.30992 27.1321 9.28684 27.0442 9.20608 26.3879Z" fill="#E67B33"/>
<path d="M22.4805 26.0304C22.6536 25.9659 22.9132 25.837 23.0516 25.7432C23.1959 25.6495 23.3285 25.585 23.3458 25.6084C23.3689 25.626 23.3401 25.9776 23.2939 26.3937C23.2305 26.9036 23.1785 27.138 23.1266 27.138C23.0862 27.138 22.8901 27.22 22.694 27.3197C22.4978 27.4252 22.0478 27.6186 21.7017 27.7592C21.3498 27.894 20.7383 28.105 20.346 28.2222C19.9479 28.3394 19.3306 28.4918 18.973 28.5621C18.5461 28.6441 18.3095 28.6734 18.2749 28.6324C18.2518 28.5972 18.1307 27.9292 18.0153 27.138C17.8999 26.3469 17.6666 25.6111 17.6724 25.6053C17.6839 25.5935 18.0961 25.7784 18.4134 25.9132C18.7307 26.0421 19.198 26.2003 19.4518 26.2589C19.7575 26.3351 20.1152 26.3762 20.519 26.3762C20.8883 26.3762 21.3267 26.3293 21.644 26.2648C21.9267 26.2062 22.3017 26.1007 22.4805 26.0304Z" fill="#E67B33"/>
<path d="M7.88498 6.70866C8.15612 6.65006 8.55995 6.58559 8.77917 6.56215C8.99839 6.53285 9.46568 6.52699 9.81759 6.53871C10.1695 6.55629 10.7118 6.62076 11.0291 6.68522C11.3464 6.74968 11.8425 6.8962 12.1252 7.00754C12.4079 7.11889 12.8636 7.33572 13.1348 7.48223C13.4059 7.62874 13.8213 7.89832 14.0578 8.07413C14.2943 8.25581 14.6289 8.52538 15.0962 8.96491L14.9693 9.21691C14.8654 9.42202 14.8366 9.59784 14.7789 11.0747L14.4616 10.6586C14.2885 10.43 13.8847 9.99048 13.5674 9.68574C13.2501 9.37514 12.7713 8.97663 12.5002 8.80082C12.229 8.61915 11.8252 8.39059 11.606 8.29683C11.3867 8.20892 11.0348 8.09171 10.8272 8.05069C10.6195 8.00381 10.3368 7.96865 10.1926 7.96865C10.0483 7.96865 9.72528 8.02139 9.47145 8.08586C9.21761 8.15032 8.6984 8.36129 8.31765 8.54883C7.9369 8.74222 7.35423 9.08798 7.0254 9.32826C6.69658 9.56266 6.37929 9.79708 6.31582 9.84397C6.25813 9.89086 6.20044 9.92016 6.1889 9.90258C6.18313 9.885 5.90622 9.46891 5.58892 8.97664C5.26586 8.49022 5.00049 8.03897 5.00049 7.98623C4.99472 7.92762 5.04087 7.83972 5.09856 7.78697C5.15625 7.73423 5.35816 7.61116 5.54854 7.51154C5.73892 7.41777 6.09659 7.25368 6.33889 7.15405C6.58696 7.05443 6.86387 6.96066 6.96194 6.94308C7.06001 6.9255 7.1927 6.89033 7.26193 6.86103C7.33693 6.83173 7.61384 6.76727 7.88498 6.70866Z" fill="#A37029"/>
<path d="M21.4998 6.6735C21.6728 6.63834 21.9959 6.58559 22.2209 6.55629C22.4459 6.53285 22.9074 6.52699 23.2593 6.53871C23.6112 6.55629 24.1535 6.62076 24.4708 6.67936C24.7881 6.74382 25.1573 6.83173 25.2958 6.88447C25.4804 6.94894 25.5381 6.9548 25.5381 6.89619C25.5381 6.84931 25.5534 6.8454 25.5842 6.88447C25.6073 6.91964 25.8207 7.02512 26.0573 7.11303C26.2938 7.2068 26.6688 7.37675 26.8938 7.48809C27.1188 7.59944 27.3437 7.73423 27.4014 7.78697C27.4591 7.83972 27.5053 7.92762 27.4995 7.98623C27.4995 8.03897 27.2341 8.49022 26.9111 8.97664C26.5938 9.46891 26.3169 9.885 26.3053 9.90258C26.2938 9.92016 26.213 9.87328 26.1265 9.80295C26.04 9.72677 25.6881 9.47477 25.3361 9.23449C24.9842 8.99422 24.4304 8.66603 24.0958 8.50194C23.7612 8.33785 23.2824 8.15032 23.0286 8.08585C22.7747 8.02139 22.4517 7.96865 22.3074 7.96865C22.1632 7.96865 21.8805 8.00381 21.6728 8.05069C21.4652 8.09172 21.119 8.20892 20.894 8.29683C20.669 8.39059 20.271 8.61915 19.9998 8.80082C19.7287 8.97663 19.2499 9.37514 18.9326 9.68574C18.6153 9.99048 18.2115 10.43 17.7211 11.0747L17.6865 10.2659C17.6634 9.59784 17.6346 9.42202 17.4038 8.96491L17.7096 8.68948C17.8769 8.53125 18.223 8.24995 18.4711 8.05655C18.7249 7.86902 19.2153 7.56428 19.5672 7.38261C19.9191 7.20094 20.421 6.9841 20.6921 6.8962C20.9633 6.81415 21.3267 6.70866 21.4998 6.6735Z" fill="#A37029"/>
<path d="M13.8847 17.7731C13.8847 17.7321 13.9366 17.6442 14.0001 17.5797C14.0693 17.5094 14.1905 17.4625 14.3174 17.4625C14.4905 17.4625 14.5597 17.5094 14.7789 17.7731C14.9231 17.9372 15.0385 18.0954 15.0385 18.1247C15.0385 18.1482 14.9693 18.154 14.8828 18.1364C14.7904 18.1189 14.5308 18.0427 14.3001 17.9723C14.0693 17.902 13.8847 17.8083 13.8847 17.7731Z" fill="#A37029"/>
<path d="M17.4557 18.1189C17.4557 18.0954 17.5711 17.9372 17.7211 17.7672C17.9461 17.5094 18.0211 17.4625 18.1884 17.4625C18.3095 17.4625 18.4307 17.5094 18.4999 17.5797C18.5634 17.6442 18.6153 17.7321 18.6153 17.7731C18.6153 17.8083 18.4422 17.902 18.2288 17.9723C18.0095 18.0427 17.7499 18.113 17.6519 18.1306C17.548 18.1482 17.4615 18.1482 17.4557 18.1189Z" fill="#A37029"/>
<path d="M15.2808 8.80082C15.3847 8.69534 15.6154 8.56055 15.7885 8.49608C15.9616 8.43162 16.1577 8.37887 16.2212 8.37887C16.2846 8.37887 16.475 8.4199 16.6365 8.46678C16.8211 8.51952 17.0346 8.64259 17.1788 8.77738C17.3115 8.89459 17.473 9.0997 17.5423 9.22863C17.663 9.45645 17.6634 9.52706 17.6977 15.7318L17.698 15.7923L18.2865 15.8274C18.7422 15.8509 18.9441 15.8919 19.1922 16.0032C19.3652 16.0853 19.6075 16.2552 19.7287 16.3842C19.8498 16.5072 19.9998 16.7241 20.0633 16.8647C20.121 16.9995 20.1671 17.1226 20.1614 17.1343C20.1498 17.1519 19.8037 17.3101 19.3941 17.4918C18.8403 17.7379 18.6384 17.8024 18.6211 17.7438C18.6037 17.7028 18.5461 17.6207 18.4884 17.568C18.4307 17.5094 18.298 17.4625 18.1999 17.4625C18.0499 17.4566 17.9634 17.5094 17.8076 17.6793C17.698 17.8024 17.548 17.9841 17.3576 18.2536H15.1424L15.0212 18.0778C14.952 17.9841 14.802 17.8024 14.6924 17.6793C14.5366 17.5094 14.4501 17.4566 14.3059 17.4625C14.202 17.4625 14.0693 17.5094 14.0116 17.568C13.9539 17.6207 13.8963 17.7028 13.8789 17.7438C13.8616 17.8024 13.654 17.7321 13.1059 17.4918C12.6905 17.3101 12.3502 17.146 12.3386 17.1343C12.3329 17.1226 12.3732 16.9995 12.4309 16.8647C12.4886 16.7241 12.6386 16.5072 12.7655 16.3842C12.8867 16.2552 13.1348 16.0853 13.3078 16.0033C13.5559 15.8919 13.7578 15.8509 14.802 15.7923L14.8194 12.606C14.8366 9.50968 14.8369 9.45666 14.9635 9.22863C15.0327 9.0997 15.1712 8.90631 15.2808 8.80082Z" fill="#F4F4F4"/>
<path d="M7.81575 12.235C7.80998 12.153 7.87921 12.024 8.0119 11.8893L8.22535 11.6783L8.58879 11.9186C8.79071 12.0533 9.108 12.2292 9.29838 12.3053C9.57529 12.4225 9.74836 12.446 10.1637 12.446C10.5676 12.446 10.7522 12.4108 11.0002 12.3112C11.1733 12.2409 11.4791 12.0768 12.0271 11.7076L12.2059 11.8306C12.304 11.901 12.4079 12.0065 12.4425 12.0709C12.4771 12.1354 12.4886 12.2409 12.4713 12.3053C12.454 12.3698 12.2694 12.5691 12.0502 12.7507C11.8367 12.9265 11.4791 13.161 11.2598 13.2723C11.0406 13.3778 10.7002 13.495 10.5099 13.5302C10.2791 13.5712 10.0483 13.577 9.81759 13.536C9.62721 13.5067 9.26376 13.3778 9.00993 13.2489C8.75609 13.1199 8.38688 12.8679 8.18497 12.6921C7.97728 12.4987 7.82152 12.3112 7.81575 12.235Z" fill="#554C81"/>
<path d="M23.1959 12.3053C23.3862 12.2233 23.6978 12.0533 23.8881 11.9186L24.2343 11.6783L24.4535 11.8893C24.5804 12.0123 24.6727 12.153 24.6727 12.2292C24.6727 12.3171 24.5458 12.4694 24.3093 12.6863C24.1131 12.8679 23.7381 13.1199 23.4843 13.243C23.2189 13.3778 22.8728 13.5009 22.6651 13.536C22.3882 13.577 22.2094 13.5712 21.8863 13.5009C21.6555 13.454 21.3267 13.3368 21.1479 13.2371C20.9748 13.1434 20.6575 12.9207 20.444 12.7449C20.2306 12.5632 20.0402 12.3581 20.0229 12.2878C19.9998 12.2057 20.0287 12.1061 20.0921 12.0182C20.1498 11.942 20.2652 11.8424 20.3402 11.7896C20.4787 11.7076 20.5017 11.7134 20.7729 11.9127C20.9344 12.024 21.2344 12.194 21.4363 12.2819C21.7536 12.4167 21.8978 12.4401 22.3305 12.4401C22.7516 12.446 22.9189 12.4167 23.1959 12.3053Z" fill="#554C81"/>
<path d="M9.00993 22.0863C8.95801 21.8754 8.91763 21.5179 8.91763 21.2835C8.91763 21.049 8.93493 20.8557 8.95224 20.8557C8.96955 20.8557 9.02724 21.008 9.07339 21.1956C9.11954 21.3772 9.25223 21.7171 9.36761 21.9398C9.49452 22.1977 9.70221 22.4848 9.92143 22.7075C10.1176 22.9009 10.4003 23.1178 10.5502 23.1881C10.7002 23.2584 11.0752 23.3639 11.3867 23.4166C11.8598 23.4928 12.0156 23.4987 12.379 23.4401C12.6271 23.4049 13.0886 23.2584 13.4463 23.106C13.7982 22.9595 14.2655 22.7779 14.4847 22.6958C14.7097 22.6196 15.0789 22.5141 15.3097 22.4673C15.5404 22.4204 15.9616 22.3794 16.2442 22.3794C16.5327 22.3794 16.9538 22.4204 17.1846 22.4673C17.4153 22.5083 17.7845 22.6138 18.0038 22.6958C18.2288 22.772 18.696 22.9595 19.0422 23.106C19.3999 23.2584 19.8672 23.4049 20.1094 23.4401C20.4729 23.4987 20.6344 23.4928 21.1075 23.4166C21.4132 23.3639 21.794 23.2584 21.944 23.1881C22.094 23.1178 22.3709 22.9009 22.5613 22.7075C22.7689 22.4966 22.9997 22.1801 23.1209 21.9398C23.2362 21.7171 23.3805 21.3714 23.542 20.8264L23.5593 21.2366C23.5708 21.4769 23.5362 21.8226 23.4843 22.057C23.4324 22.2856 23.3055 22.6548 23.2016 22.8775C23.0978 23.106 22.9074 23.4225 22.7805 23.5807C22.6536 23.7448 22.4113 23.9734 22.2382 24.0906C22.0305 24.2371 21.7709 24.3543 21.4652 24.4305C21.1882 24.5008 20.8248 24.5477 20.5421 24.5477C20.2883 24.5477 19.971 24.5184 19.8383 24.4891C19.6999 24.4598 19.221 24.2723 18.771 24.0847C18.3153 23.8913 17.7153 23.6745 17.4269 23.6042C17.0519 23.5163 16.7288 23.4811 16.2442 23.4811C15.7769 23.4811 15.4366 23.5163 15.0904 23.5983C14.8193 23.6686 14.277 23.8562 13.8789 24.0203C13.4809 24.1902 13.054 24.366 12.9271 24.4129C12.8001 24.4657 12.4367 24.5184 12.1194 24.536C11.6521 24.5594 11.4502 24.5418 11.0521 24.4364C10.7175 24.3543 10.4637 24.243 10.2503 24.0965C10.083 23.9734 9.83489 23.7448 9.70798 23.5807C9.58106 23.4225 9.39068 23.106 9.28684 22.8775C9.183 22.6548 9.05608 22.2973 9.00993 22.0863Z" fill="#554C81"/>
<path d="M8.72148 11.3501C8.87724 11.2446 9.17723 11.104 9.38491 11.0278C9.6849 10.9223 9.85797 10.8988 10.256 10.9106C10.7002 10.9281 10.7925 10.9516 11.2368 11.1743C11.5021 11.3091 11.7963 11.4849 12.0502 11.69L11.6867 11.9361C11.4848 12.0709 11.1733 12.2409 11.0002 12.3112C10.7522 12.4108 10.5676 12.446 10.1637 12.446C9.76567 12.446 9.56952 12.4167 9.32722 12.3229C9.15415 12.2526 8.8484 12.0885 8.64648 11.9537C8.34073 11.7545 8.30034 11.7076 8.35803 11.6255C8.39842 11.5728 8.55995 11.4497 8.72148 11.3501Z" fill="#635994"/>
<path d="M21.2113 11.1919C21.3555 11.1157 21.5748 11.0219 21.7017 10.975C21.8459 10.9281 22.1228 10.9047 22.4517 10.9164C22.9074 10.934 23.0228 10.9633 23.4035 11.1508C23.6401 11.2681 23.9285 11.438 24.24 11.7017L23.8651 11.9479C23.6574 12.0826 23.3458 12.2526 23.1728 12.3229C22.9305 12.4167 22.7343 12.446 22.3363 12.446C21.9036 12.446 21.7536 12.4167 21.4421 12.2819C21.2344 12.194 20.9229 12.024 20.4325 11.6724L20.6921 11.4966C20.8363 11.4028 21.0671 11.2622 21.2113 11.1919Z" fill="#635994"/>
<path d="M9.40799 19.9121C9.48875 19.8535 9.66759 19.7832 9.80028 19.7539H9.80605C9.93873 19.7246 10.1637 19.7012 10.3079 19.6953C10.4522 19.6953 10.7637 19.7305 11.0002 19.7715C11.2368 19.8184 11.629 19.9297 11.8656 20.0293C12.1021 20.1231 12.6098 20.3341 12.9905 20.4982C13.3713 20.6564 13.9424 20.8557 14.2597 20.9377C14.577 21.0256 15.1481 21.1252 15.5289 21.1604C16.0654 21.219 16.3827 21.219 16.9423 21.1604C17.3403 21.1252 17.9115 21.0256 18.2115 20.9494C18.5114 20.8732 19.0826 20.674 19.4806 20.5099C19.8787 20.3458 20.3979 20.129 20.6344 20.0293C20.871 19.9297 21.2748 19.8125 21.5286 19.7656C21.8228 19.7129 22.1401 19.6953 22.394 19.7187C22.619 19.7363 22.8843 19.8008 22.9939 19.8535C23.1035 19.9063 23.242 20.0352 23.3112 20.129C23.3747 20.2227 23.4612 20.4103 23.4958 20.5392C23.5593 20.7443 23.5478 20.8264 23.4381 21.1838C23.3632 21.4124 23.2189 21.764 23.1093 21.975C23.0055 22.186 22.7574 22.5141 22.567 22.7075C22.3767 22.9068 22.0997 23.1236 21.9498 23.194C21.794 23.2643 21.419 23.3639 21.1133 23.4166C20.6402 23.4987 20.4787 23.5046 20.1152 23.446C19.8729 23.4049 19.4056 23.2643 19.048 23.1119C18.696 22.9654 18.2345 22.7779 18.0095 22.7017C17.7845 22.6196 17.4153 22.5141 17.1903 22.4673C16.9596 22.4204 16.5327 22.3852 16.25 22.3852C15.9673 22.3852 15.5404 22.4262 15.3154 22.4731C15.0847 22.52 14.7155 22.6255 14.4905 22.7017C14.2712 22.7779 13.804 22.9654 13.452 23.1119C13.0944 23.2643 12.6271 23.4049 12.3848 23.446C12.0213 23.5046 11.8598 23.4987 11.3925 23.4166C11.081 23.3639 10.706 23.2643 10.556 23.194C10.4003 23.1236 10.1233 22.9068 9.9272 22.7075C9.71951 22.5024 9.50029 22.2035 9.38491 21.975C9.28107 21.764 9.13685 21.4124 9.06762 21.1838C8.95801 20.8557 8.94647 20.7326 8.99262 20.5685C9.02147 20.4572 9.09646 20.2813 9.15415 20.1876C9.21184 20.0938 9.32722 19.9649 9.40799 19.9121Z" fill="#635994"/>
</svg>
