<svg width="755" height="340" viewBox="0 0 755 340" fill="none" xmlns="http://www.w3.org/2000/svg">
<path fill-rule="evenodd" clip-rule="evenodd" d="M428.637 0.708382C425.455 1.21847 420.491 2.42995 417.5 3.32261C414.509 4.21527 409.926 5.93684 407.317 7.14831C404.708 8.35978 400.38 10.719 397.77 12.3768C395.161 14.0346 391.024 17.0314 388.542 19.0717C386.06 21.1121 382.432 24.6828 380.396 27.0419C378.359 29.4011 375.241 33.6094 373.522 36.4149C371.804 39.2204 369.513 43.6837 368.431 46.2979C367.285 48.9122 365.758 53.8218 364.93 57.1374C364.039 60.453 363.085 66.3191 362.703 70.2086C362.194 75.2457 362.194 79.454 362.703 85.1925C363.085 89.5921 363.976 95.4582 364.612 98.2637C365.312 101.069 366.585 105.341 367.54 107.828C368.431 110.315 370.34 114.459 371.804 117.073C373.204 119.688 375.877 123.832 377.723 126.319C379.568 128.805 383.069 132.631 385.424 134.927C387.842 137.222 391.661 140.41 393.952 142.068C396.243 143.726 401.08 146.467 404.771 148.253C408.462 150.038 414.19 152.142 417.5 153.035C420.809 153.864 425.773 154.884 428.446 155.267C431.183 155.649 436.911 155.968 441.175 155.968C445.503 155.968 451.994 155.522 455.686 154.948C459.695 154.374 465.932 152.78 471.215 150.995L480.061 147.998C480.316 129.571 480.57 127.403 482.034 122.174C482.989 118.859 484.58 114.395 485.598 112.291C487.189 109.039 487.316 108.338 486.553 107.509C485.789 106.68 485.089 107.063 481.016 110.442C478.47 112.61 475.097 115.224 473.506 116.244C471.915 117.328 468.223 119.433 465.232 120.899C462.241 122.366 457.85 124.087 455.368 124.725C452.885 125.362 448.494 126.064 445.503 126.319C442.257 126.574 437.929 126.446 434.683 126C431.692 125.617 427.11 124.533 424.501 123.705C421.891 122.812 417.754 120.899 415.272 119.496C412.79 118.03 408.653 114.714 406.044 112.036C402.225 108.21 400.571 105.915 398.216 101.133C396.625 97.8173 394.779 93.099 394.206 90.6123C393.506 87.6792 393.124 83.4072 393.124 78.1788C393.124 72.8865 393.506 68.6783 394.206 65.7452C394.779 63.3223 396.243 59.3053 397.389 56.8186C398.598 54.3957 401.016 50.5062 402.798 48.2108C404.58 45.9154 407.826 42.536 410.053 40.6869C412.217 38.8378 415.845 36.3511 418.136 35.2034C420.427 33.992 424.437 32.3341 427.046 31.5052C431.119 30.23 433.156 30.0387 441.048 30.0387C448.685 30.0387 451.103 30.2938 455.24 31.5052C457.913 32.2704 462.368 34.0557 465.041 35.3947C467.778 36.7337 471.851 39.2204 474.142 40.942C476.433 42.5998 479.934 45.5966 481.907 47.5094L485.534 51.0801C489.289 47.7007 493.999 43.1736 498.454 38.8378C502.973 34.5658 506.6 30.7401 506.6 30.3575C506.6 30.0387 504.246 27.3607 501.318 24.4915C498.39 21.5584 493.299 17.3502 489.989 15.0547C486.68 12.8231 481.461 9.76253 478.279 8.29602C475.097 6.76574 470.387 4.85289 467.778 3.96022C465.169 3.13132 460.841 1.91985 458.231 1.346C455.558 0.772143 449.258 0.198289 443.912 0.0707655C437.293 -0.120519 432.583 0.0707654 428.637 0.708382ZM444.866 2.74872C447.858 2.94001 452.694 3.4501 455.686 3.89643C458.677 4.40653 463.387 5.55424 466.187 6.4469C468.987 7.40332 473.697 9.25241 476.688 10.6552C479.679 12.0579 484.389 14.7359 487.189 16.585C489.989 18.4978 494.635 22.196 497.499 24.874C500.427 27.552 502.782 29.9749 502.782 30.3575C502.782 30.7401 498.9 34.5658 485.598 46.9355L481.589 43.2374C479.425 41.2607 476.052 38.5828 474.142 37.3075C472.233 36.0323 468.669 33.9919 466.187 32.7167C463.705 31.5052 459.759 29.9112 457.277 29.146C454.795 28.4447 450.403 27.552 447.412 27.1694C444.421 26.7231 440.03 26.5956 437.547 26.8506C435.065 27.1057 430.738 27.807 427.81 28.5084C424.946 29.146 420.809 30.6126 418.582 31.6965C416.418 32.7804 412.917 34.9483 410.817 36.4149C408.717 37.9451 405.662 40.5594 404.007 42.2809C402.416 43.9387 399.871 47.063 398.47 49.1672C397.007 51.2713 394.97 55.0333 393.952 57.4562C392.997 59.8791 391.661 64.3425 391.024 67.3392C390.197 71.4838 390.07 74.6081 390.324 80.4104C390.515 84.6187 391.151 89.9109 391.724 92.2063C392.361 94.5017 393.761 98.3274 394.906 100.814C396.052 103.301 397.834 106.553 398.916 108.147C399.998 109.741 402.544 112.674 404.58 114.714C406.617 116.755 410.244 119.688 412.727 121.218C415.209 122.748 419.154 124.788 421.637 125.681C424.119 126.638 428.192 127.785 430.674 128.295C433.22 128.805 438.184 129.188 441.684 129.188C445.185 129.188 450.276 128.742 452.949 128.168C455.686 127.594 460.077 126.319 462.686 125.362C465.296 124.342 470.642 121.409 481.589 114.204L480.379 117.711C479.743 119.624 478.725 123.386 478.215 126C477.643 128.614 477.134 134.225 477.006 145.957L470.96 148.125C467.651 149.337 462.05 150.867 458.55 151.632C453.649 152.652 449.767 152.971 441.684 152.971C434.683 152.971 429.274 152.652 425.455 151.951C422.273 151.377 417.436 150.166 414.636 149.209C411.836 148.317 407.126 146.34 404.135 144.81C401.143 143.279 396.752 140.474 394.27 138.625C391.788 136.776 387.969 133.396 385.742 131.101C383.514 128.805 380.268 124.98 378.486 122.493C376.768 120.006 374.35 116.053 373.14 113.566C371.868 111.08 370.086 106.68 369.131 103.683C368.113 100.687 366.903 95.2668 366.331 91.5687C365.758 87.8705 365.312 81.7494 365.312 77.8599C365.312 73.9705 365.758 67.9769 366.267 64.47C366.84 60.9631 368.113 55.4796 369.195 52.3553C370.276 49.2309 372.249 44.4488 373.65 41.8346C375.05 39.2204 377.723 35.0121 379.632 32.5892C381.478 30.1662 384.66 26.5318 386.76 24.5552C388.797 22.6423 392.297 19.6456 394.588 17.9878C396.879 16.3299 400.698 13.8432 403.18 12.5043C405.662 11.1653 409.799 9.18865 412.408 8.1047C415.018 7.08451 419.727 5.55424 422.909 4.85286C426.092 4.08772 431.056 3.25882 434.047 2.94001C437.038 2.68496 441.875 2.6212 444.866 2.74872Z" fill="#292929"/>
<path fill-rule="evenodd" clip-rule="evenodd" d="M111.057 0.134527C109.976 0.325812 106.857 0.899667 104.057 1.47352C101.256 1.98361 96.8014 3.19509 94.192 4.02399C91.5826 4.91665 87.1276 6.76574 84.3273 8.16849C81.527 9.57125 76.9447 12.2492 74.1444 14.0983C71.3441 15.9474 67.08 19.3268 64.6616 21.4947C62.2431 23.7263 58.6791 27.7433 56.7061 30.3575C54.7332 32.9718 51.9965 37.18 50.5964 39.603C49.2599 42.0259 47.2233 46.6805 46.0777 49.8048C44.9958 52.9292 43.532 57.9663 42.8956 60.9631C42.0046 65.1076 41.75 69.1246 41.6863 77.86C41.6863 86.5315 42.0046 90.676 42.8319 94.7568C43.4683 97.7536 44.8685 102.791 45.8868 105.915C46.9687 109.039 48.878 113.63 50.1509 116.117C51.4238 118.54 54.0968 122.748 56.0697 125.362C58.0426 127.977 61.2885 131.866 63.3887 133.906C65.4253 136.011 69.4348 139.39 72.2351 141.494C75.0354 143.534 79.9359 146.531 83.0545 148.062C86.173 149.592 91.3917 151.568 94.5102 152.461C97.6288 153.354 102.975 154.565 106.284 155.012C109.594 155.522 115.894 155.968 120.286 155.968C124.677 155.968 130.978 155.522 134.287 155.012C137.597 154.565 142.943 153.354 146.061 152.461C149.18 151.505 153.953 149.719 156.562 148.38C159.172 147.105 163.945 144.236 167.064 142.132C170.182 139.964 175.528 135.819 178.838 132.886C182.147 129.953 184.884 127.211 184.884 126.765C184.884 126.383 180.365 121.282 174.828 115.479L164.836 104.959C158.154 111.144 154.399 114.332 152.107 116.053C149.816 117.711 145.679 120.198 142.879 121.537C140.079 122.876 135.815 124.47 133.333 125.107C130.214 125.872 126.396 126.191 120.604 126.191C114.812 126.191 110.994 125.872 107.875 125.107C105.457 124.47 100.811 122.748 97.6924 121.218C94.5739 119.688 90.3734 117.01 88.4005 115.352C86.4912 113.694 83.6909 110.888 82.2271 109.103C80.6996 107.382 78.4085 103.62 77.0083 100.814C75.6718 98.0086 74.0171 93.8641 73.3807 91.5687C72.5533 88.5081 72.2987 85.0013 72.2987 78.1788C72.2987 71.2925 72.5533 67.8494 73.4443 64.7888C74.0171 62.4934 75.6082 58.5402 76.8811 55.9259C78.1539 53.3117 80.9542 49.2947 82.9908 46.9993C85.091 44.7039 88.4005 41.4521 90.3098 39.7305C92.2827 38.0727 95.9104 35.7135 98.3288 34.502C100.747 33.2906 104.63 31.8241 106.921 31.1864C110.039 30.3575 113.349 30.0387 120.286 30.0387C127.35 30.1025 130.469 30.3575 133.651 31.2502C135.942 31.9516 139.761 33.3543 142.243 34.4383C144.725 35.586 148.862 37.9452 151.471 39.7943C154.08 41.5796 158.09 44.8314 160.381 46.9356C162.672 49.0397 164.645 50.7613 164.836 50.7613C165.027 50.7613 169.864 46.1704 175.655 40.5594L186.157 30.3575C176.292 20.7295 171.264 16.5213 168.655 14.7359C166.045 13.0144 161.463 10.3364 158.472 8.80611C155.48 7.33959 150.453 5.23546 147.334 4.21527C144.216 3.19509 139.442 1.85609 136.833 1.28224C134.096 0.708382 128.05 0.198289 122.513 0.0707655C117.231 -0.056758 112.139 0.00700375 111.057 0.134527ZM124.104 2.81249C127.096 2.94001 131.932 3.4501 134.924 4.02396C137.915 4.53405 142.625 5.68176 145.425 6.57442C148.225 7.46708 153.126 9.4437 156.244 10.974C159.363 12.5043 164.2 15.246 166.873 17.0951C169.546 18.9442 174.064 22.5786 176.865 25.1291C179.729 27.6158 181.956 29.9749 181.892 30.2937C181.765 30.5488 177.883 34.4383 164.836 46.9355L160.89 43.3649C158.663 41.3883 155.035 38.5828 152.744 37.0525C150.453 35.5222 146.443 33.2905 143.834 32.0153C141.224 30.8038 136.642 29.2098 133.651 28.5084C130.66 27.807 126.205 27.1057 123.786 26.8506C121.368 26.6593 116.722 26.7869 113.603 27.1694C110.485 27.552 105.457 28.6997 102.466 29.7199C99.4744 30.8038 95.4649 32.5892 93.5556 33.6731C91.6463 34.8208 87.3822 38.519 84.0091 41.8346C80.6997 45.1502 77.0083 49.486 75.8628 51.3988C74.7808 53.3117 72.9988 57.3287 71.9805 60.3255C70.8986 63.3223 69.8167 68.3594 69.4348 71.4838C69.0529 74.9269 69.0529 79.5177 69.3712 82.9608C69.6257 86.0852 70.3894 90.5485 70.9622 92.8439C71.535 95.1393 73.1261 99.2838 74.4626 102.089C75.8628 104.895 78.4721 109.039 80.3814 111.335C82.2271 113.63 85.6002 116.882 87.8913 118.604C90.1189 120.325 94.2557 122.812 97.056 124.151C99.8563 125.426 103.993 127.084 106.284 127.722C109.53 128.614 112.712 128.869 120.604 128.869C129.196 128.869 131.551 128.614 135.751 127.403C138.424 126.638 142.561 125.044 144.979 123.832C147.334 122.621 151.025 120.325 153.253 118.731C155.417 117.137 158.79 114.395 160.699 112.61C162.609 110.888 164.454 109.486 164.772 109.613C165.027 109.677 168.909 113.566 181.383 126.638L178.328 129.443C176.674 130.973 174.064 133.333 172.473 134.608C170.882 135.947 167.445 138.433 164.836 140.219C162.227 142.004 157.453 144.682 154.335 146.212C151.216 147.679 145.87 149.592 142.561 150.484C139.251 151.313 132.76 152.397 128.241 152.78C121.94 153.354 118.058 153.354 112.012 152.78C107.621 152.397 101.447 151.377 98.3288 150.548C95.2103 149.783 90.4371 148.253 87.8277 147.105C85.2183 146.021 80.4451 143.471 77.3266 141.43C74.208 139.39 69.4984 135.755 66.8891 133.333C64.3433 130.846 60.7157 126.893 58.8064 124.406C56.9607 121.919 54.0968 117.328 52.5057 114.204C50.9146 111.08 48.878 106.234 48.0507 103.492C47.1597 100.814 46.0141 96.0957 45.5049 93.0352C44.9321 89.6558 44.4866 83.5347 44.4866 77.8599C44.4866 70.9737 44.8685 66.5103 45.6959 61.9195C46.3959 58.4126 47.9234 52.9291 49.069 49.8048C50.2782 46.6167 52.633 41.6433 54.415 38.7103C56.197 35.7135 60.0792 30.7401 63.325 27.2969C66.4436 23.9813 70.8986 19.9006 73.1898 18.179C75.4809 16.4575 80.0632 13.652 83.3727 11.9304C86.6821 10.2088 91.8372 7.91342 94.8285 6.89323C97.8197 5.87304 101.956 4.66157 104.057 4.21524C106.157 3.76891 110.294 3.25882 113.285 3.00377C116.276 2.74872 121.113 2.6212 124.104 2.81249Z" fill="#292929"/>
<path d="M509.655 29.9112C509.528 46.1067 509.592 60.8356 509.655 62.5572C509.719 64.5338 510.419 66.9567 511.437 68.9333C512.392 70.7186 513.919 73.0778 514.81 74.2893C515.765 75.437 518.247 77.2861 520.602 78.4338L524.739 80.4104H568.653C574.062 77.7962 576.417 76.1384 577.435 75.0544L579.154 73.0778C581.381 75.6283 583.418 77.2861 585.2 78.37L588.382 80.4104C631.214 80.7292 634.587 80.6655 637.387 79.709C639.169 79.1352 641.779 77.86 643.306 76.8398C644.77 75.8196 646.679 73.7792 647.507 72.3127C648.334 70.7824 649.352 68.0407 649.734 66.2553C650.116 64.4062 650.434 60.8994 650.434 58.4127V53.9493L617.34 18.2428C612.885 21.941 611.612 23.1525 611.612 23.3438C611.612 23.535 618.612 31.2502 627.204 40.5594L642.797 57.4562C642.224 62.4296 641.779 64.7251 641.46 65.7452C641.206 66.8292 640.251 68.2957 639.487 69.0608C638.66 69.826 636.751 71.0375 635.16 71.7388C632.487 72.9503 631.023 73.0778 613.203 73.0778C601.047 73.0778 593.155 72.8228 591.564 72.3764C590.164 71.9939 588 70.5911 586.727 69.3159C585.454 68.0407 584.054 65.8728 583.672 64.47C583.29 63.0673 582.972 61.4095 582.972 60.8356C582.972 59.8154 582.399 59.6879 579.09 59.8792L575.144 60.0067C573.871 64.9801 572.917 67.0842 572.28 67.9769C571.58 68.8696 570.371 70.081 569.544 70.7187C568.716 71.3563 566.743 72.1214 565.152 72.4402C563.561 72.759 554.842 73.0141 545.741 73.0778C535.749 73.0778 528.175 72.8228 526.648 72.3764C525.248 71.9939 523.148 70.7824 522.002 69.6985C520.793 68.5508 519.393 66.8292 518.82 65.7452C517.865 64.0874 517.738 60.5805 517.547 35.9686L517.42 8.04097H542.241V59.6879H550.514V8.04097H577.881V0.389573H509.783L509.655 29.9112Z" fill="#292929"/>
<path d="M588.064 1.346C586.536 1.85609 583.8 3.19509 582.018 4.34279C579.663 5.93684 578.39 7.40335 576.99 10.3364C575.271 13.7158 575.017 14.8635 574.826 20.8571L574.635 27.552C592.201 46.3617 599.647 54.3957 602.511 57.52L607.729 63.2585C612.248 59.3053 613.457 57.9663 613.394 57.7113C613.266 57.52 606.202 49.7411 597.674 40.4956L582.145 23.7263C582.845 17.5415 583.545 15.1823 584.436 13.8433C585.263 12.568 587.173 10.8465 588.764 10.0176C591.564 8.42354 591.691 8.35978 610.339 8.23225C621.349 8.10473 630.45 8.29601 632.296 8.67859C634.651 9.12492 636.242 10.0176 638.215 11.8667C640.315 13.907 641.079 15.1823 641.715 17.9878L642.479 21.4947H649.798C651.707 14.7359 652.662 13.0781 654.125 11.8029C655.271 10.7827 656.989 9.63501 657.944 9.25244C659.026 8.80611 666.218 8.42354 676.528 8.23225C687.729 8.04097 694.666 8.16849 697.085 8.61482C699.63 9.12492 701.412 9.95382 703.067 11.4203C704.34 12.568 705.804 14.4809 706.313 15.7561C706.949 17.2864 707.331 22.2598 707.649 32.4617L708.031 46.9993H682.892V18.3066H674.619V73.1416H647.252V80.793H683.529V55.2883H715.35C715.541 28.3172 715.477 19.5181 715.414 18.3066C715.35 17.0314 714.523 14.4809 713.632 12.568C712.677 10.5914 711.022 8.04097 709.941 6.8295C708.795 5.55426 706.058 3.70518 703.831 2.68499L699.758 0.772143H656.48C651.071 3.38637 648.716 4.98041 647.761 6.12812L645.979 8.10473C643.306 5.29922 641.078 3.64142 639.297 2.62123L636.114 0.772143C595.701 0.517097 590.355 0.64462 588.064 1.346Z" fill="#292929"/>
<path fill-rule="evenodd" clip-rule="evenodd" d="M0 152.206H30.5488V3.64142H0V152.206ZM27.3666 6.12809H2.54573V149.592H27.3666V6.12809Z" fill="#292929"/>
<path fill-rule="evenodd" clip-rule="evenodd" d="M211.041 5.04417C210.85 5.80931 205.059 38.9016 198.249 78.5613C191.439 118.157 185.838 150.931 185.838 151.377C185.838 152.015 189.275 152.206 200.794 152.206C209.068 152.206 215.751 151.951 215.751 151.696C215.751 151.441 219.06 132.121 223.07 108.848C227.079 85.5113 230.452 66.0003 230.58 65.554C230.643 65.0439 237.262 84.3636 245.217 108.402L259.664 152.206L286.586 151.887C308.924 85.5113 315.607 66.0003 315.861 65.6815C316.116 65.3627 316.371 65.4264 316.371 65.7452C316.309 66.1129 319.246 83.6197 322.865 105.19L323.308 107.828C326.018 123.765 328.45 137.993 329.714 145.39L329.714 145.393L329.754 145.628C330.276 148.683 330.589 150.514 330.627 150.739L330.945 152.206C356.911 152.206 360.221 152.015 360.221 151.377C360.221 150.931 354.811 118.157 348.129 78.4976C341.51 38.9016 335.909 5.80931 335.718 5.04417L335.4 3.64142H306.442C280.794 79.709 273.284 101.707 273.22 101.643C273.157 101.579 265.838 79.5177 256.991 52.7379L240.89 3.96022L211.359 3.57765L211.041 5.04417ZM238.662 6.12809L255.846 58.6039C265.329 87.4242 273.221 110.888 273.348 110.697C273.475 110.506 281.43 86.9778 308.479 6.4469H333.172L345.074 77.2223C351.629 116.181 356.975 148.38 357.039 148.827C357.039 149.4 354.302 149.528 333.236 149.273L325.599 104.002C318.516 62.3615 317.948 59.0225 316.713 58.7548C316.606 58.7314 316.493 58.7314 316.371 58.7314C314.907 58.7314 314.525 59.6879 310.197 72.759C308.905 76.5803 306.582 83.5299 302.587 95.4827C298.516 107.663 292.708 125.038 284.485 149.592H261.892L246.936 104.13C232.552 60.5168 231.852 58.7314 228.861 58.7314L221.733 99.8577C217.787 122.493 214.287 142.897 213.205 149.592H188.702L189.148 147.87C189.339 146.85 194.876 114.969 201.431 76.9035C207.923 38.8378 213.396 7.33956 213.523 6.89323C213.778 6.31937 216.833 6.12809 238.662 6.12809Z" fill="#292929"/>
<path fill-rule="evenodd" clip-rule="evenodd" d="M689.638 97.4348C687.856 97.6898 684.42 98.5825 682.001 99.3476C679.519 100.177 674.809 102.217 671.5 103.938C668.127 105.596 662.208 109.167 658.262 111.717L651.134 116.499C644.452 110.442 640.506 107.382 638.087 105.788C635.605 104.13 631.023 101.771 627.904 100.559C622.367 98.4549 621.858 98.3912 613.266 98.3274C605.757 98.3274 603.593 98.5187 599.71 99.7302C596.719 100.687 593.028 102.599 589.209 105.15C585.964 107.318 581.19 110.888 578.581 112.993C578.276 113.233 577.973 113.472 577.675 113.706L577.27 114.025C575.138 115.707 573.352 117.116 572.98 117.328C572.535 117.583 570.88 116.627 568.843 114.969C566.998 113.503 563.816 111.08 561.715 109.677C559.615 108.21 555.542 105.915 552.614 104.449C549.75 102.982 544.85 101.069 541.795 100.177C538.295 99.1563 533.903 98.4549 529.894 98.1999C525.311 97.9449 522.129 98.1361 518.756 98.9013C516.083 99.4114 512.074 100.814 509.846 101.962C507.555 103.11 504.118 105.469 502.209 107.254C500.109 109.231 497.754 112.291 496.354 114.969C495.081 117.392 493.553 121.218 492.917 123.513C492.196 126.276 491.835 129.996 491.835 134.672C491.835 138.88 492.281 143.407 492.853 145.957C493.426 148.317 494.89 152.206 496.099 154.565C497.245 156.924 499.918 161.196 502.018 164.002C504.118 166.807 507.682 171.079 509.973 173.566L514.174 178.029C511.628 181.473 507.555 186.765 503.482 192.057C499.409 197.285 494.635 203.598 492.853 206.085C491.135 208.508 487.953 213.417 485.853 216.924C483.689 220.431 480.634 226.425 478.979 230.314C477.324 234.14 475.351 239.878 474.524 243.066C473.697 246.191 472.678 251.355 472.233 254.543C471.787 257.987 471.597 263.024 471.851 267.296C472.106 271.121 472.806 276.605 473.506 279.41C474.206 282.216 475.479 286.233 476.306 288.337C477.197 290.441 478.788 293.757 479.934 295.67C481.079 297.583 483.434 301.026 485.216 303.257C487.062 305.489 490.499 308.932 492.981 310.781C495.399 312.694 499.727 315.372 502.527 316.711C505.327 318.05 509.464 319.58 511.755 320.154C513.983 320.728 518.183 321.366 520.984 321.557C523.784 321.748 529.194 321.621 533.076 321.238C536.895 320.792 543.004 319.772 546.568 318.943L553.124 317.349C559.742 323.534 563.816 326.658 566.489 328.316C569.098 329.973 573.68 332.333 576.672 333.608C579.599 334.883 584.945 336.605 588.446 337.434C591.946 338.326 598.056 339.283 602.129 339.665C607.284 340.112 611.548 340.112 616.767 339.665C620.776 339.283 626.186 338.517 628.859 338.007C631.468 337.434 636.496 336.095 639.997 334.883C643.497 333.735 648.779 331.567 651.771 330.101C654.698 328.571 659.153 326.02 661.635 324.362C664.054 322.705 667.554 320.027 669.4 318.369L672.773 315.436C681.365 316.647 688.047 316.966 693.139 316.902C699.949 316.902 703.831 316.52 708.095 315.563C711.213 314.862 716.114 313.395 718.914 312.311C721.715 311.228 726.106 308.932 728.779 307.211C731.388 305.489 735.271 302.428 737.371 300.388C739.471 298.284 742.462 294.777 743.99 292.482C745.581 290.186 747.936 286.042 749.272 283.236C750.545 280.431 752.454 275.266 753.345 271.759C754.809 266.212 755 264.108 755 255.819C755 247.657 754.809 245.362 753.409 240.197C752.582 236.881 750.927 232.291 749.781 229.995C748.636 227.7 745.963 222.981 743.862 219.475C741.762 215.968 737.816 209.783 735.143 205.766C732.407 201.749 727.633 194.99 724.515 190.782C721.333 186.574 716.75 180.707 714.268 177.711L709.75 172.291C715.286 166.361 718.278 162.599 720.06 160.176C721.778 157.69 724.26 153.417 725.597 150.612C726.933 147.806 728.461 143.662 729.034 141.367C729.543 139.071 729.988 134.672 730.052 131.611C730.052 127.275 729.67 124.916 728.397 121.09C727.442 118.412 725.66 114.587 724.388 112.738C723.115 110.825 720.633 107.955 718.851 106.361C717.132 104.704 713.696 102.344 711.213 101.069C708.795 99.7302 704.785 98.2637 702.367 97.6898C699.885 97.1797 696.766 96.7971 695.366 96.7971C693.966 96.8609 691.357 97.116 689.638 97.4348ZM708.349 102.854C703.258 100.368 702.622 100.176 696.575 100.049C693.075 99.9852 689.638 100.049 688.938 100.24C688.498 100.36 687.38 100.707 686.042 101.122C685.25 101.368 684.38 101.637 683.529 101.898C681.237 102.599 676.401 104.704 672.709 106.553C669.018 108.402 663.481 111.654 660.299 113.694C657.117 115.798 650.561 120.516 645.661 124.215C640.76 127.977 631.532 135.309 625.104 140.601C618.74 145.894 613.521 150.484 613.521 150.867C613.521 151.186 614.921 152.652 616.703 154.055L619.885 156.606C640.824 140.538 650.37 133.269 654.571 130.144C658.771 126.956 663.799 123.386 665.708 122.11C667.618 120.835 671.755 118.285 674.937 116.499C678.119 114.714 682.956 112.482 685.756 111.59C689.447 110.378 692.248 109.932 695.939 109.932C699.058 109.932 702.112 110.315 703.894 110.952C705.486 111.526 707.84 112.801 709.177 113.758C710.513 114.714 712.614 116.882 713.823 118.667C714.968 120.389 716.368 123.577 716.941 125.681C717.45 127.785 717.896 130.91 717.896 132.695C717.896 134.416 717.45 137.668 716.941 139.836C716.432 142.068 715.096 145.639 714.014 147.806C712.932 150.038 711.086 153.099 709.941 154.693C708.795 156.287 706.44 158.901 704.785 160.495L701.667 163.428L708.031 170.059C712.932 164.448 715.605 161.196 717.069 159.22C718.596 157.243 720.76 153.8 721.969 151.505C723.178 149.209 724.769 145.511 725.47 143.216C726.233 140.92 726.997 137.094 727.188 134.608C727.379 132.121 727.251 128.423 726.87 126.319C726.488 124.215 725.088 120.325 723.815 117.711C722.224 114.459 720.251 111.717 717.578 109.167C715.032 106.68 712.041 104.64 708.349 102.854ZM624.659 102.408C622.24 101.707 617.785 100.942 614.794 100.814C611.803 100.687 608.111 100.814 606.52 101.069C604.929 101.388 602.065 102.089 600.156 102.599C598.247 103.173 594.11 105.341 590.928 107.445C587.745 109.486 582.018 113.758 578.199 116.818C574.38 119.879 563.37 130.208 553.824 139.836C544.341 149.4 536.513 157.434 536.513 157.689C536.513 158.008 537.913 159.794 539.631 161.706L542.75 165.213C546.95 160.24 553.06 153.928 559.042 147.998C565.025 142.004 573.808 133.843 578.517 129.762C583.227 125.681 588.7 121.09 590.609 119.56C592.519 117.966 596.337 115.798 599.01 114.65C601.747 113.503 606.075 112.291 608.557 111.845C612.185 111.271 614.157 111.271 617.658 111.909C620.076 112.355 623.959 113.566 626.25 114.714C628.541 115.798 632.614 118.349 635.287 120.389C638.024 122.429 640.378 124.087 640.569 124.087C640.76 124.087 642.67 122.748 644.833 121.027L648.716 118.03C644.388 114.268 641.524 111.909 639.615 110.442C637.705 108.912 634.523 106.808 632.614 105.724C630.705 104.64 627.077 103.173 624.659 102.408ZM539.377 102.408C535.685 101.452 532.376 101.133 527.284 101.197C523.466 101.26 519.138 101.515 517.738 101.898C516.338 102.217 513.41 103.301 511.246 104.385C509.019 105.405 505.709 107.7 503.864 109.549C501.891 111.462 499.536 114.778 498.327 117.073C497.181 119.369 495.845 123.067 495.399 125.362C494.89 127.658 494.508 131.675 494.508 134.289C494.508 136.903 494.826 140.92 495.145 143.216C495.526 145.511 496.927 149.592 498.263 152.461C499.6 155.267 502.527 159.985 504.755 162.982C506.982 165.915 513.728 173.375 519.711 179.56C525.693 185.681 532.949 193.268 535.813 196.457C538.677 199.581 542.813 204.746 544.977 207.806C545.926 209.176 546.863 210.522 547.647 211.649L547.701 211.726L547.706 211.733L547.72 211.753L547.731 211.769C548.694 213.153 549.415 214.188 549.623 214.501C550.196 215.458 550.769 215.011 553.569 211.249C556.115 207.934 556.751 206.722 556.306 205.829C555.987 205.256 553.442 202.004 550.641 198.688C547.905 195.373 540.459 187.147 534.158 180.516C527.857 173.821 521.175 166.68 519.393 164.576C517.547 162.472 514.619 158.901 512.901 156.606C511.246 154.31 509.146 150.994 508.255 149.273C507.428 147.488 506.282 144.363 505.709 142.259C505.137 140.155 504.691 136.584 504.691 134.289C504.691 131.994 505.073 128.678 505.646 126.956C506.155 125.171 507.428 122.429 508.51 120.708C509.528 119.05 511.755 116.691 513.474 115.479C515.129 114.268 518.311 112.674 520.602 111.972C523.211 111.143 526.457 110.697 529.512 110.697C532.312 110.697 536.194 111.207 538.931 111.972C541.413 112.674 545.741 114.332 548.414 115.734C551.151 117.073 555.669 119.943 558.47 121.983L563.561 125.809L569.798 119.943C564.961 115.607 561.843 113.184 559.742 111.781C557.642 110.378 553.378 107.955 550.196 106.425C547.014 104.959 542.177 103.11 539.377 102.408ZM702.303 113.503C700.585 112.993 697.53 112.61 695.621 112.674C693.711 112.674 690.402 113.184 688.302 113.821C686.202 114.395 683.083 115.543 681.301 116.372C679.583 117.137 675.7 119.241 672.709 121.09C669.718 122.876 665.263 125.809 662.845 127.53C660.426 129.316 650.37 136.903 640.569 144.363C630.768 151.887 622.686 158.263 622.622 158.582C622.495 158.901 624.022 160.431 625.931 162.025L629.432 164.895C646.425 151.25 655.526 144.363 660.617 140.729C665.708 137.094 673.027 132.249 676.846 129.953C680.665 127.658 685.311 125.171 687.029 124.533C688.811 123.832 691.929 123.258 694.03 123.194C696.766 123.131 698.548 123.513 700.394 124.47C702.091 125.362 703.428 126.744 704.404 128.614C705.231 130.208 705.804 132.504 705.804 133.97C705.804 135.373 705.231 137.668 704.594 139.071C703.958 140.474 700.967 144.491 697.976 147.998L692.439 154.374L699.121 161.196C702.431 158.901 704.785 156.478 706.504 154.374C708.222 152.27 710.45 148.827 711.468 146.722C712.55 144.618 713.695 141.303 714.141 139.39C714.523 137.477 714.714 133.588 714.587 130.782C714.396 127.02 713.886 124.852 712.677 122.493C711.786 120.708 709.813 118.221 708.286 116.882C706.758 115.543 704.085 114.077 702.303 113.503ZM536.194 114.204C533.712 113.694 530.467 113.311 528.875 113.311C527.284 113.311 524.42 113.758 522.511 114.268C520.602 114.778 518.12 115.798 517.102 116.436C516.083 117.073 514.11 118.731 512.837 120.07C511.564 121.409 509.91 123.768 509.21 125.362C508.573 126.956 507.81 129.826 507.555 131.738C507.3 133.97 507.491 136.903 508.064 139.709C508.573 142.195 509.783 145.766 510.737 147.679C511.692 149.592 513.983 153.162 515.829 155.649C517.674 158.136 522.002 163.173 525.439 166.935L526.333 167.896C530.026 171.865 536.274 178.581 540.904 183.513C545.932 188.869 551.978 195.628 554.269 198.561C556.56 201.43 558.597 203.789 558.788 203.853C558.979 203.853 560.633 202.131 562.479 199.963L565.789 196.138C559.042 187.976 554.396 182.62 551.087 178.922C549.233 176.81 546.756 174.032 544.428 171.42L544.415 171.406L544.409 171.399L544.389 171.376C542.654 169.431 541.005 167.581 539.758 166.17C536.767 162.854 533.84 159.921 533.203 159.602C532.567 159.347 532.058 158.646 532.058 158.008C532.121 157.434 531.612 156.478 531.039 155.968C530.467 155.458 527.921 152.27 525.375 148.954C522.829 145.639 520.411 141.749 520.029 140.346C519.647 138.944 519.329 136.457 519.329 134.735C519.329 133.077 519.711 130.782 520.156 129.634C520.602 128.55 522.002 126.893 523.211 126C524.611 125.044 526.521 124.342 528.557 124.215C530.467 124.023 533.267 124.406 535.558 125.044C537.658 125.617 541.35 127.148 543.832 128.359C546.314 129.634 549.56 131.547 551.151 132.695L554.015 134.735L561.334 127.913C555.16 122.939 550.514 120.07 547.014 118.349C543.386 116.499 538.74 114.714 536.194 114.204ZM621.604 115.798C619.122 114.905 616.449 114.523 613.076 114.587H613.012C610.339 114.587 606.838 114.969 605.247 115.416C603.656 115.862 600.538 117.073 598.247 118.157C595.637 119.369 591.119 122.684 586.154 126.956C581.763 130.718 573.871 137.732 568.653 142.578C563.37 147.36 555.924 154.82 552.105 159.092C548.287 163.364 545.104 167.062 545.104 167.381C545.104 167.636 546.441 169.358 548.096 171.143L551.151 174.459C553.378 171.717 556.178 168.529 558.851 165.532C561.524 162.535 566.68 157.243 570.307 153.8C573.935 150.293 579.472 145.256 582.654 142.642C585.836 140.028 591.691 135.437 595.701 132.376C600.283 128.933 604.293 126.446 606.52 125.681C608.43 125.044 611.739 124.533 613.839 124.533C616.703 124.533 618.676 124.98 621.795 126.383C624.086 127.466 626.95 129.061 628.159 130.017C629.368 130.91 630.705 131.675 631.023 131.675C631.341 131.675 633.06 130.463 634.714 128.997C637.642 126.446 637.706 126.255 636.624 125.171C635.987 124.533 633.187 122.429 630.386 120.516C627.586 118.604 623.64 116.499 621.604 115.798ZM699.312 127.275C697.954 126.425 696.215 126.021 694.093 126.064C692.311 126.064 689.766 126.51 688.365 127.02C686.965 127.53 682.892 129.762 679.265 131.93C675.701 134.098 672.773 136.011 672.773 136.202C672.773 136.393 674.109 137.668 675.764 139.071C677.482 140.474 681.492 143.981 684.674 146.85L690.593 152.142C698.548 143.024 701.285 139.454 701.858 138.433C702.367 137.413 702.876 135.373 702.876 133.97C702.876 132.567 702.558 130.782 702.176 129.953C701.731 129.188 700.458 127.977 699.312 127.275ZM537.849 128.805C535.94 128.04 533.203 127.275 531.803 127.148C530.403 126.956 528.557 126.956 527.666 127.084C526.775 127.275 525.311 128.168 524.357 129.061C523.402 130.017 522.448 131.675 522.257 132.695C522.066 133.715 522.257 136.202 522.575 138.115C523.148 141.048 524.102 142.642 528.494 148.253C531.358 151.887 533.84 154.948 534.031 155.075C534.221 155.203 537.849 151.823 542.113 147.488C546.377 143.216 550.323 139.071 550.896 138.242C551.787 136.967 551.723 136.776 550.705 135.883C550.132 135.373 547.777 133.843 545.486 132.567C543.195 131.228 539.758 129.571 537.849 128.805ZM622.176 129.762C619.249 128.168 617.403 127.658 614.221 127.466C611.294 127.339 609.257 127.594 607.22 128.423C605.629 128.997 602.447 130.973 600.029 132.695C597.674 134.48 595.828 136.074 595.892 136.329C596.019 136.584 599.392 139.517 603.402 142.833C609.511 147.934 610.912 148.763 611.739 148.125C611.976 147.918 612.982 147.09 614.439 145.893L614.447 145.887L614.456 145.879C616.132 144.502 618.4 142.638 620.776 140.665C626.793 135.642 628.295 134.388 628.079 133.617C628.007 133.36 627.745 133.157 627.395 132.886C626.632 132.249 624.277 130.846 622.176 129.762ZM605.623 148.53C599.136 143.18 593.827 138.802 593.473 138.625C593.092 138.37 591.246 139.39 589.337 140.793C587.491 142.195 586.027 143.534 586.091 143.789C586.091 143.981 588 145.575 590.164 147.36C592.391 149.082 597.165 153.162 600.856 156.35C604.547 159.539 612.375 166.744 618.358 172.355C624.277 178.029 633.887 187.402 639.678 193.205C645.47 199.007 650.498 203.789 650.816 203.789C651.134 203.725 652.534 202.195 653.807 200.282C655.144 198.369 656.226 196.52 656.226 196.138C656.226 195.755 652.407 191.611 647.761 186.829C643.179 182.046 635.032 174.204 629.814 169.422C624.531 164.639 614.348 155.84 607.22 149.847L605.623 148.53ZM675.128 142.323C672.455 140.027 669.973 138.115 669.718 138.115C669.4 138.115 667.491 139.326 665.39 140.793L661.635 143.407C669.527 150.357 675.51 156.032 679.965 160.431C684.483 164.831 691.039 171.653 694.603 175.67C698.167 179.623 704.276 186.829 708.095 191.674C711.914 196.52 717.578 203.98 720.633 208.316C723.624 212.652 728.206 219.538 730.752 223.555C733.298 227.572 736.162 232.673 737.18 234.841C738.135 237.073 739.598 241.345 740.362 244.405C741.38 248.614 741.762 251.929 741.762 257.668C741.762 262.896 741.38 266.722 740.617 269.782C739.98 272.269 738.325 276.669 736.925 279.665C734.825 284.065 733.361 286.042 729.161 290.186C725.406 293.948 722.733 295.925 719.232 297.646C716.623 298.985 712.168 300.643 709.368 301.408C705.358 302.492 702.049 302.875 693.584 303.002L682.956 303.257C679.901 307.466 678.055 309.57 676.973 310.717L675 312.758C679.901 313.523 686.52 313.778 692.82 313.778C701.603 313.714 705.295 313.459 708.731 312.63C711.15 311.993 715.032 310.717 717.323 309.825C719.614 308.932 723.306 307.083 725.597 305.808C727.888 304.469 731.707 301.536 734.125 299.304C736.543 297.136 739.726 293.565 741.253 291.461C742.717 289.357 745.135 285.213 746.535 282.216C747.936 279.219 749.781 274.501 750.545 271.695C751.691 267.359 751.945 264.873 751.945 255.755C751.945 247.275 751.754 244.023 750.863 240.771C750.227 238.475 748.445 234.012 746.917 230.888C745.39 227.764 741.571 221.132 738.516 216.223C735.461 211.313 730.625 204.044 727.824 200.027C725.024 196.01 719.805 189.124 716.305 184.724C712.741 180.325 706.44 172.929 702.24 168.401C698.039 163.874 691.357 157.052 687.347 153.354C683.338 149.592 677.864 144.618 675.128 142.323ZM660.617 146.531L658.899 145.256L652.407 150.229C669.909 167.381 678.183 176.053 682.128 180.58C686.074 185.107 691.42 191.547 694.093 194.862C696.703 198.178 701.858 205.064 705.486 210.165C709.113 215.266 714.523 223.3 717.514 228.019C720.442 232.737 723.942 238.475 725.215 240.771C726.488 243.066 727.952 246.509 728.461 248.422C728.97 250.335 729.415 253.651 729.415 255.755C729.415 257.859 728.97 261.302 728.461 263.406C727.888 265.51 726.551 269.081 725.47 271.376C724.197 273.991 721.905 277.051 719.296 279.729C716.369 282.599 713.632 284.575 710.322 286.233C707.713 287.508 703.322 288.975 700.649 289.549C697.912 290.059 694.221 290.505 692.502 290.505H689.32L685.12 299.75C690.784 300.643 694.921 300.579 699.185 300.133C703.003 299.75 707.777 298.985 709.686 298.411C711.595 297.838 715.35 296.307 717.96 295.032C721.333 293.438 724.069 291.398 727.251 288.273C730.688 284.83 732.343 282.535 734.38 278.39C735.78 275.393 737.434 270.739 737.944 267.997C738.516 265.319 738.962 260.473 738.962 257.349C738.962 254.225 738.516 249.379 737.944 246.637C737.371 243.959 736.225 240.006 735.398 237.902C734.507 235.797 732.088 231.207 729.925 227.7C727.761 224.193 723.878 218.199 721.269 214.31C718.66 210.42 714.332 204.427 711.723 200.92C709.05 197.413 704.658 191.802 701.858 188.486C699.121 185.171 693.202 178.412 688.684 173.502C684.229 168.593 676.401 160.814 671.373 156.159C666.409 151.568 661.508 147.169 660.617 146.531ZM593.346 153.8C588.636 149.911 584.436 146.531 583.991 146.34C583.545 146.021 581.827 147.105 579.79 148.954L576.353 152.078C578.772 153.864 581.636 156.095 584.309 158.2C586.918 160.304 592.519 165.022 596.719 168.656C600.92 172.291 613.203 184.278 624.086 195.245L643.815 215.139L649.416 206.658C626.313 184.087 615.621 173.757 610.721 169.167C605.82 164.639 597.992 157.689 593.346 153.8ZM658.58 160.367C654.125 156.223 650.116 152.844 649.67 152.844C649.225 152.844 645.852 155.33 642.224 158.327C638.533 161.324 634.714 164.448 633.76 165.341L632.041 166.807L658.771 193.587C668 180.516 671.055 176.053 671.564 175.288C672.391 173.949 672.264 173.694 669.591 170.952C668 169.294 663.035 164.576 658.58 160.367ZM583.863 161.77C579.726 158.455 575.908 155.33 575.335 154.82C574.444 154.055 573.68 154.565 568.907 159.284C565.98 162.217 561.206 167.317 558.342 170.633L553.187 176.69C557.324 181.536 560.443 185.234 562.861 188.104C565.216 190.973 567.443 193.268 567.761 193.268C568.08 193.268 573.489 187.594 579.79 180.707C586.154 173.757 591.31 168.019 591.31 167.955C591.31 167.831 588.137 165.249 584.23 162.069L584.228 162.067L584.22 162.061L583.863 161.77ZM600.092 176.053C595.51 171.334 593.983 169.995 593.792 169.995C593.537 169.995 588.382 175.479 582.208 182.238C576.099 188.996 569.098 196.839 566.68 199.645C564.261 202.45 560.57 206.85 558.47 209.528C556.433 212.142 551.723 218.709 548.032 224.193C544.404 229.613 540.331 236.371 538.995 239.177C537.658 241.982 536.131 245.999 535.558 248.103C535.049 250.208 534.285 254.798 533.84 258.305C533.331 263.087 533.331 266.339 533.903 271.695C534.285 275.521 535.24 281.132 535.94 284.129C536.64 287.062 537.404 289.867 537.658 290.314C538.04 290.951 539.122 290.824 542.559 289.804C545.041 289.038 547.268 288.337 547.523 288.21C547.778 288.018 547.396 286.297 546.696 284.256C545.996 282.28 544.977 278.135 544.404 275.202C543.641 271.249 543.513 267.678 543.768 262.131C543.959 257.923 544.532 252.758 545.104 250.654C545.741 248.55 547.459 244.086 549.05 240.771C550.641 237.392 553.951 231.844 556.433 228.337C558.915 224.83 563.434 218.773 566.425 214.947C569.416 211.058 575.144 204.044 579.217 199.326C583.29 194.544 589.655 187.402 593.346 183.385L600.092 176.053ZM676.401 178.412L674.3 176.372L670.164 182.238C667.936 185.49 663.481 191.738 660.299 196.138C657.117 200.474 653.043 206.212 651.325 208.89C649.543 211.504 646.424 216.541 644.452 220.048C642.415 223.555 639.678 228.847 638.406 231.844C637.069 234.777 635.478 239.687 634.841 242.684C633.887 246.764 633.569 250.526 633.569 258.305C633.569 265.957 633.887 269.527 634.714 272.652C635.351 274.883 637.069 279.347 638.596 282.535C640.188 285.659 643.052 290.314 644.961 292.864L648.525 297.519C653.553 293.31 655.271 291.589 655.589 290.951C656.035 290.122 655.589 289.102 653.744 286.807C652.407 285.149 650.243 282.216 648.97 280.303C647.697 278.326 645.979 274.883 645.152 272.652C644.261 270.356 643.242 266.02 642.797 263.087C642.224 258.815 642.161 256.392 642.797 251.929C643.179 248.741 644.261 243.895 645.152 241.09C646.043 238.284 647.761 233.821 648.97 231.207C650.18 228.529 653.107 223.109 655.526 219.092C657.944 215.011 663.099 207.168 667.109 201.494C671.054 195.883 675.573 189.379 677.037 187.02C679.074 183.768 679.583 182.429 679.137 181.6C678.819 181.026 677.61 179.56 676.401 178.412ZM609.448 184.597C604.547 179.687 602.893 178.284 602.702 178.284C602.447 178.284 599.074 181.664 595.255 185.808C591.373 189.889 585.2 196.839 581.445 201.239C577.69 205.638 571.835 212.78 568.398 217.179C565.025 221.579 560.379 227.891 558.024 231.207C555.733 234.522 552.742 239.687 551.342 242.684C549.941 245.681 548.287 250.144 547.714 252.567C546.887 255.755 546.568 259.389 546.568 265C546.632 271.504 546.95 274.182 548.287 279.347C549.241 282.854 550.196 285.978 550.451 286.233C550.705 286.488 552.36 285.723 554.078 284.511C555.86 283.364 557.897 281.706 558.724 280.877L560.124 279.347C557.96 273.226 557.324 269.336 557.133 265.638C556.879 261.302 557.069 258.242 557.833 254.798C558.406 252.184 559.742 248.167 560.824 245.872C561.906 243.576 563.879 240.325 565.152 238.539C566.489 236.818 569.544 232.673 571.962 229.294C574.38 225.978 579.09 219.985 582.336 215.904C585.645 211.887 593.092 203.215 598.883 196.584L609.448 184.597ZM524.166 188.359C518.247 182.557 516.401 180.835 516.21 180.835C515.956 180.835 511.437 186.51 506.028 193.46C500.681 200.346 494.254 209.209 491.708 213.035C489.162 216.924 485.789 222.663 484.198 225.787C482.607 228.975 480.698 233.119 479.997 235.032C479.234 236.945 477.897 241.281 477.006 244.597C475.733 249.379 475.288 252.822 475.033 260.537C474.779 267.041 474.906 271.823 475.415 274.565C475.861 276.86 476.815 280.558 477.515 282.854C478.215 285.149 480.125 289.549 481.779 292.673C483.625 296.243 486.298 300.005 488.844 302.811C491.135 305.298 494.699 308.486 496.799 310.016C498.899 311.546 502.464 313.587 504.755 314.607C507.046 315.691 511.183 317.03 513.983 317.667C518.056 318.56 520.92 318.688 528.303 318.433C533.394 318.241 539.695 317.604 542.304 317.03C544.914 316.456 549.241 315.244 551.851 314.352C554.46 313.459 558.788 311.61 561.397 310.207C564.007 308.868 568.143 306.254 570.625 304.405C573.044 302.556 576.608 299.177 578.581 296.881C580.554 294.586 583.418 290.569 584.945 287.954C586.536 285.34 588.573 280.877 589.528 278.071C590.419 275.266 591.564 270.548 592.01 267.551C592.455 264.171 592.646 259.644 592.391 255.436C592.137 251.738 591.437 246.446 590.737 243.64C590.1 240.835 588.636 236.244 587.491 233.438C586.409 230.633 584.754 226.998 583.927 225.341C583.1 223.683 582.145 222.152 581.763 221.961C581.445 221.77 579.917 223.3 578.517 225.341C576.035 228.784 575.908 229.102 576.608 230.888C577.053 231.972 578.263 235.032 579.281 237.774C580.299 240.452 581.636 245.362 582.145 248.614C582.909 252.694 583.1 256.329 582.845 260.537C582.654 263.853 581.827 268.762 581.127 271.376C580.363 273.991 578.581 278.454 577.117 281.259C575.144 285.085 573.108 287.763 569.098 291.78C565.534 295.287 561.97 298.156 558.851 299.878C556.242 301.344 551.914 303.257 549.305 304.15C546.696 305.043 542.241 306.19 539.44 306.764C536.64 307.338 531.803 307.976 528.621 308.167C523.911 308.486 522.002 308.294 517.802 307.147C515.001 306.382 510.737 304.66 508.255 303.385C505.264 301.855 502.082 299.304 498.327 295.67C493.744 291.079 492.408 289.23 489.926 284.129C488.271 280.622 486.616 276.031 486.044 273.162C485.471 270.42 485.025 265.829 485.025 262.96C485.025 260.027 485.598 255.117 486.234 251.929C486.871 248.805 488.462 243.449 489.798 240.133C491.071 236.818 493.49 231.653 495.081 228.656C496.672 225.659 499.854 220.367 502.082 216.86C504.373 213.353 508.382 207.615 511.055 204.108C513.728 200.601 517.738 195.628 520.029 193.077L524.166 188.359ZM685.883 189.124C683.974 186.701 682.319 184.661 682.192 184.724C682.128 184.724 679.774 188.104 677.037 192.185C674.3 196.329 668.636 204.682 664.436 210.803C660.299 216.924 655.144 225.404 653.107 229.613C651.007 233.821 648.525 239.878 647.634 243.003C646.488 246.892 645.852 250.909 645.597 255.436C645.343 260.409 645.534 263.279 646.361 266.594C646.934 269.081 648.525 273.226 649.925 275.84C651.261 278.454 653.807 282.216 655.526 284.129L658.644 287.636C661.444 283.172 662.845 280.686 663.545 279.219L664.817 276.605C660.617 271.823 658.771 268.826 658.071 266.913C657.371 265 656.544 261.43 656.289 258.943C656.035 256.52 656.035 252.312 656.353 249.697C656.735 247.083 657.498 243.513 658.199 241.727C658.899 240.006 661.19 235.415 663.354 231.525C665.518 227.7 669.527 220.941 672.327 216.541C675.128 212.142 679.774 205.383 682.701 201.43C685.629 197.477 688.365 194.097 688.684 193.906C689.066 193.715 687.793 191.611 685.883 189.124ZM642.224 217.817L611.357 186.51L600.474 199.135C594.428 206.085 588.191 213.353 586.6 215.266L583.672 218.773C588.064 227.19 590.228 232.227 591.246 235.351C592.264 238.539 593.601 243.385 594.173 246.191C594.81 249.315 595.255 254.288 595.255 258.943C595.255 263.661 594.81 268.571 594.173 271.695C593.601 274.501 592.201 279.092 591.119 281.897C590.037 284.703 587.3 289.74 585.072 293.055L580.999 299.113C583.8 301.408 586.918 303.194 589.718 304.596C592.519 305.935 596.656 307.593 598.947 308.231C602.065 309.06 605.438 309.315 612.63 309.251C620.394 309.251 623.195 308.932 627.268 307.848C630.068 307.083 635.223 305.106 638.66 303.449C642.097 301.791 645.152 300.069 645.47 299.623C645.852 299.049 644.77 297.136 642.097 293.566C639.869 290.633 637.005 285.978 635.733 283.172C634.396 280.367 632.741 275.776 631.978 272.97C630.896 268.89 630.577 266.084 630.577 258.624C630.577 251.547 630.896 247.848 631.978 242.875C632.678 239.241 634.396 233.948 635.669 231.079C636.942 228.146 638.915 224.002 640.124 221.834L642.224 217.817ZM529.066 193.396L526.012 190.335L521.875 195.309C520.796 196.6 519.561 198.103 518.405 199.512L518.399 199.519C517.102 201.1 515.902 202.561 515.129 203.47C513.728 205.256 510.546 209.528 508.128 213.035C505.646 216.541 501.954 222.28 499.918 225.787C497.881 229.294 495.081 234.777 493.744 237.902C492.344 241.09 490.499 246.382 489.671 249.697C488.462 254.288 488.08 257.476 488.017 262.769C488.017 267.359 488.335 271.185 489.035 273.927C489.608 276.222 491.199 280.367 492.599 283.172C493.999 285.978 496.481 289.804 498.199 291.716C499.854 293.629 502.973 296.371 505.073 297.901C507.173 299.368 510.419 301.344 512.392 302.237C514.301 303.13 517.738 304.277 520.029 304.724C523.02 305.361 525.821 305.489 530.53 305.043C534.031 304.788 539.313 303.959 542.304 303.257C545.359 302.492 550.705 300.452 554.842 298.475C560.952 295.478 562.734 294.267 566.934 290.059C570.435 286.552 572.662 283.619 574.571 279.984C576.035 277.179 577.817 272.588 578.517 269.782C579.472 266.148 579.854 262.705 579.854 257.668C579.854 252.312 579.472 249.187 578.326 244.597C577.435 241.281 576.099 236.945 575.208 235.032L573.68 231.525C567.698 239.942 566.234 242.492 566.489 242.684C566.807 242.875 567.698 244.597 568.462 246.509C569.416 248.932 569.925 251.993 570.116 256.392C570.307 259.899 570.116 264.363 569.734 266.276C569.353 268.188 568.08 271.632 566.998 273.927C565.661 276.669 563.434 279.665 560.443 282.599C557.26 285.787 554.587 287.763 551.214 289.485C548.541 290.76 544.404 292.418 541.986 293.119C539.504 293.884 535.049 294.586 532.121 294.777C527.857 294.968 525.821 294.777 522.575 293.757C520.284 293.055 516.72 291.398 514.619 289.995C512.519 288.656 509.401 285.978 507.682 284.065C506.028 282.216 503.8 278.9 502.718 276.796C501.7 274.692 500.427 270.548 499.79 267.551C498.899 263.024 498.899 261.302 499.472 256.711C499.854 253.714 500.809 249.442 501.573 247.147C502.336 244.852 504.309 240.261 505.964 236.945C507.619 233.63 510.673 228.146 512.646 224.83C514.683 221.515 518.12 216.223 520.284 213.035C522.511 209.91 526.012 205.064 528.175 202.386C530.339 199.645 532.121 197.222 532.121 196.967C532.121 196.648 530.721 195.118 529.066 193.396ZM697.466 203.917C694.03 199.326 691.102 195.5 690.975 195.5C690.848 195.5 688.493 198.561 685.629 202.323C682.829 206.148 679.774 210.42 678.883 211.887L677.228 214.629C681.047 219.793 683.019 222.918 684.101 224.83C685.183 226.743 687.347 231.207 688.875 234.714C690.72 238.858 692.057 243.066 692.693 246.828C693.266 249.953 693.902 255.309 694.157 258.624C694.412 262.259 694.221 267.359 693.775 271.376C693.33 275.075 692.566 279.665 692.057 281.578C691.967 281.914 691.878 282.256 691.79 282.595C691.68 283.019 691.573 283.438 691.472 283.833L691.471 283.838L691.466 283.856C691.191 284.93 690.962 285.825 690.848 286.169C690.593 287.189 691.039 287.317 694.221 287.317C696.257 287.317 699.63 286.871 701.731 286.36C703.831 285.787 707.331 284.448 709.559 283.3C711.786 282.152 715.159 279.665 717.069 277.753C718.914 275.84 721.205 273.098 722.096 271.695C722.924 270.293 724.26 267.296 724.96 265C725.851 262.259 726.297 259.134 726.297 255.755C726.297 252.248 725.915 249.634 725.151 247.466C724.451 245.681 721.778 240.707 719.169 236.308C716.559 231.908 712.041 224.767 709.113 220.367C706.186 215.968 700.967 208.571 697.466 203.917ZM537.404 202.578L534.349 199.135L529.512 205.447C526.839 208.89 522.638 214.756 520.22 218.454C517.738 222.152 514.619 227.126 513.156 229.613C511.755 232.036 509.464 236.371 508.064 239.177C506.6 241.982 504.882 246.127 504.118 248.422C503.227 251.1 502.591 254.926 502.336 259.262C502.018 264.937 502.209 266.658 503.355 270.548C504.182 273.289 505.837 276.86 507.428 279.092C508.891 281.26 511.883 284.384 513.983 286.042C516.083 287.636 519.52 289.676 521.62 290.441C524.166 291.461 526.775 291.971 529.703 291.971C532.058 292.035 534.094 291.908 534.349 291.716C534.54 291.589 534.094 289.038 533.394 286.042C532.694 283.045 531.803 278.582 531.485 276.159C531.103 273.672 530.848 268.507 530.848 264.681C530.785 260.792 531.23 255.372 531.739 252.567C532.249 249.761 533.267 245.744 534.031 243.64C534.731 241.536 536.131 238.22 537.149 236.308C538.104 234.395 540.968 229.613 543.45 225.787C545.996 221.897 548.032 218.391 548.032 217.944C548.032 217.562 546.314 214.692 544.214 211.568C542.177 208.508 539.058 204.49 537.404 202.578ZM676.973 219.219C676.21 218.454 675.446 217.753 675.191 217.817C674.937 217.817 673.728 219.538 672.455 221.642L670.227 225.468C674.3 232.163 676.273 235.925 677.228 238.22C678.246 240.516 679.583 244.533 680.346 247.147C681.047 249.761 681.874 254.48 682.192 257.668C682.51 260.92 682.51 265.638 682.256 268.507C681.938 271.313 681.237 275.266 680.728 277.243C680.219 279.283 679.01 282.726 678.119 284.894C677.228 287.126 675.191 291.079 673.537 293.693C671.882 296.307 668.381 300.707 665.772 303.512C663.163 306.318 658.835 310.144 656.226 312.12C653.553 314.097 649.161 316.902 646.361 318.369C643.561 319.835 638.66 321.876 635.542 322.896C632.359 323.98 627.523 325.319 624.722 325.893C621.413 326.594 616.512 326.977 611.039 327.04C606.266 327.04 600.538 326.722 598.31 326.275C596.019 325.829 591.882 324.745 589.082 323.852C586.282 322.96 581.954 321.302 579.536 320.154C577.053 319.006 572.853 316.583 570.116 314.798L565.216 311.546C558.533 314.734 556.433 315.755 556.306 315.882C556.115 316.01 557.515 317.54 559.488 319.261C561.397 320.983 564.961 323.789 567.443 325.446C569.862 327.04 574.317 329.463 577.308 330.739C580.236 332.014 585.136 333.672 588.127 334.437C591.055 335.202 596.083 336.095 599.265 336.477C602.383 336.86 608.684 337.051 613.266 336.86C617.785 336.668 624.404 335.903 627.904 335.202C631.405 334.5 636.814 333.034 639.997 331.886C643.115 330.802 647.697 328.889 650.18 327.678C652.598 326.403 656.926 323.916 659.726 322.067C662.526 320.282 666.918 316.775 669.527 314.352C672.073 311.929 675.891 307.657 677.992 304.851C680.092 302.046 683.083 297.136 684.61 294.012C686.138 290.824 688.111 285.404 689.066 281.897C690.338 276.924 690.784 273.417 691.039 265.957C691.293 258.624 691.102 254.735 690.275 249.379C689.32 243.576 688.556 241.026 685.502 234.395C683.529 229.995 681.11 225.149 680.092 223.555C679.137 221.961 677.737 220.048 676.973 219.219ZM673.473 237.264C671.818 233.757 670.036 230.25 669.463 229.485C668.509 228.082 668.445 228.146 666.09 232.354L663.736 236.626C666.79 244.278 668.063 248.295 668.572 250.463C669.082 252.694 669.654 256.648 669.909 259.262C670.164 262.322 669.973 265.893 669.4 269.145C668.891 271.95 667.681 276.095 666.79 278.39C665.836 280.686 664.181 284.065 663.036 285.914C661.89 287.763 659.535 290.951 657.817 292.928C656.035 294.841 652.343 298.156 649.543 300.26C646.743 302.301 642.351 304.979 639.806 306.19C637.26 307.402 632.869 309.06 629.941 309.888C627.077 310.717 621.858 311.738 618.358 312.184C613.648 312.758 610.466 312.758 606.266 312.248C603.083 311.865 598.501 310.972 596.083 310.207C593.601 309.442 589.909 307.976 587.809 306.892C585.709 305.872 582.781 304.086 581.318 303.002L578.645 301.026C573.426 305.808 571.071 307.657 570.116 308.231C569.162 308.805 568.334 309.506 568.398 309.761C568.398 310.08 570.753 311.738 573.617 313.587C576.544 315.372 581.19 317.795 583.991 318.943C586.791 320.09 591.373 321.684 594.173 322.386C597.165 323.151 602.383 323.852 606.902 324.107C611.548 324.299 616.767 324.171 620.267 323.661C623.386 323.278 628.414 322.194 631.405 321.302C634.332 320.473 639.36 318.496 642.542 316.966C645.661 315.436 649.989 313.013 652.089 311.61C654.189 310.271 657.88 307.274 660.299 305.043C662.654 302.811 666.345 298.73 668.445 295.925C670.545 293.119 673.218 288.783 674.364 286.36C675.51 283.874 677.164 279.602 677.928 276.796C679.201 272.524 679.392 270.229 679.328 262.769C679.328 255.691 679.01 252.758 677.928 248.741C677.164 245.936 675.191 240.771 673.473 237.264ZM663.608 244.086C662.845 242.237 662.017 240.707 661.763 240.771C661.508 240.771 660.808 242.429 660.172 244.405C659.408 246.956 659.09 250.208 659.09 254.798C659.09 259.836 659.344 262.259 660.299 264.681C660.935 266.403 662.335 269.145 663.417 270.739L663.419 270.741C664.556 272.45 665.016 273.141 665.336 273.081C665.553 273.041 665.706 272.657 665.963 272.014C666.281 271.121 666.663 267.551 666.854 264.044C667.109 259.262 666.918 256.329 666.09 252.567C665.454 249.761 664.372 245.936 663.608 244.086ZM566.298 248.869C565.661 246.892 564.961 245.234 564.643 245.234C564.325 245.234 563.497 246.573 562.797 248.231C562.097 249.953 561.143 252.567 560.697 254.161C560.252 255.755 559.87 259.772 559.87 263.087C559.806 267.168 560.188 270.356 560.952 272.97L562.097 276.796C564.516 272.843 565.725 270.101 566.298 268.188C566.998 265.893 567.38 262.577 567.38 258.624C567.38 254.671 566.998 251.292 566.298 248.869Z" fill="#292929"/>
<path d="M63.1341 154.31C61.9249 154.693 60.3975 155.777 59.761 156.669C59.0609 157.562 58.2972 159.475 58.1063 160.941L57.6608 163.619C64.1524 163.683 64.3433 163.556 64.3433 162.089C64.3433 161.196 64.7252 160.367 65.298 160.176C65.8071 159.985 67.5891 160.686 69.2439 161.77C71.3441 163.109 73.0625 163.683 74.8445 163.683C76.2446 163.683 78.2812 163.109 79.4268 162.408C80.5724 161.706 81.7816 160.623 82.0998 159.985C82.418 159.411 82.9272 157.689 83.1817 156.159L83.7545 153.417C77.5175 153.417 77.3266 153.545 76.8811 155.394C76.6265 156.414 75.9901 157.307 75.4809 157.307C74.9081 157.307 72.9352 156.414 71.0259 155.394C69.0529 154.31 67.0163 153.481 66.3799 153.481C65.8071 153.545 64.2797 153.864 63.1341 154.31Z" fill="#292929"/>
<path d="M13.0469 166.106C11.3285 166.68 9.10099 167.7 8.14634 168.274C7.19169 168.912 5.85518 170.314 5.1551 171.462C4.32774 172.801 3.88224 174.714 3.8186 176.754C3.8186 179.05 4.2641 180.58 5.28239 182.11C6.04611 183.322 8.01905 184.979 9.61013 185.745C11.1376 186.51 15.338 187.657 18.8384 188.231C22.3388 188.741 25.9664 189.57 26.9847 190.017C28.0667 190.463 28.894 191.419 29.1486 192.376C29.3395 193.524 29.0213 194.416 27.7485 195.564C26.3483 196.903 25.33 197.158 21.5114 197.413C18.5202 197.541 15.5926 197.222 13.2378 196.584C11.2649 196.01 8.65548 194.99 7.5099 194.289C6.36433 193.587 4.96417 193.013 4.32774 193.013C3.37309 193.013 3.24581 193.587 3.37309 197.285L3.56402 201.557C9.48285 203.47 14.0015 204.108 17.5655 204.299C22.2751 204.554 24.8209 204.363 27.4302 203.662C29.3395 203.088 32.0762 201.621 33.6036 200.346C35.322 198.943 36.5949 197.222 37.0404 195.691C37.4222 194.416 37.6132 192.057 37.3586 190.463C37.1677 188.741 36.4039 186.956 35.5766 186.063C34.7492 185.235 32.7763 183.959 31.2488 183.258C29.6578 182.557 25.2027 181.473 21.3841 180.771C16.9291 180.006 13.9379 179.177 13.2378 178.476C12.5377 177.838 12.1559 176.69 12.2831 175.798C12.4104 174.714 13.1742 173.821 14.7016 173.056C15.9745 172.418 18.3929 171.972 20.4295 171.972C22.3388 171.908 25.8392 172.482 28.194 173.247C30.5488 173.949 32.649 174.778 32.8399 175.16C32.9672 175.479 33.8582 175.798 34.7492 175.798C36.2767 175.798 36.3403 175.607 36.3403 171.972C36.3403 168.975 36.0857 168.019 35.1947 167.573C34.6219 167.254 32.0126 166.552 29.4668 165.979C26.9211 165.405 22.9116 164.958 20.5568 164.958C18.202 164.958 14.8289 165.468 13.0469 166.106Z" fill="#292929"/>
<path fill-rule="evenodd" clip-rule="evenodd" d="M116.531 165.787C114.94 166.234 112.585 167.254 111.376 168.083C110.103 168.912 108.13 170.761 107.048 172.227C105.902 173.63 104.566 176.244 104.057 178.029C103.548 179.751 103.102 182.812 103.102 184.724C103.102 186.637 103.548 189.634 104.057 191.419C104.566 193.141 105.902 195.883 107.112 197.477C108.321 199.135 110.676 201.111 112.712 202.259C116.022 204.044 116.594 204.172 123.532 204.172C129.896 204.172 131.169 203.98 133.524 202.705C135.051 201.94 137.151 200.474 138.297 199.453C139.442 198.497 141.033 196.138 141.924 194.225C142.879 192.057 143.579 189.06 143.706 186.318C143.961 183.385 143.706 180.644 143.07 178.348C142.497 176.435 141.097 173.566 139.888 171.972C138.488 170.123 136.451 168.401 134.033 167.19C130.851 165.532 129.45 165.213 124.804 165.086C121.813 165.022 118.058 165.341 116.531 165.787ZM118.376 172.61C117.485 172.992 116.085 173.885 115.322 174.65C114.494 175.415 113.412 176.754 112.967 177.647C112.521 178.54 111.948 180.389 111.694 181.791C111.503 183.194 111.503 185.745 111.758 187.53C112.076 189.252 112.84 191.547 113.603 192.631C114.303 193.651 115.894 195.181 117.104 196.01C118.822 197.158 120.222 197.477 123.468 197.477C126.714 197.477 128.114 197.158 129.832 196.01C131.041 195.181 132.633 193.524 133.46 192.312C134.287 191.101 135.115 188.614 135.306 186.892C135.56 184.852 135.369 182.493 134.733 180.197C134.096 178.157 132.951 175.989 131.932 174.969C130.978 174.013 129.387 172.929 128.432 172.61C127.414 172.227 125.123 171.908 123.341 171.972C121.495 171.972 119.267 172.291 118.376 172.61Z" fill="#292929"/>
<path d="M197.358 165.787C195.767 166.234 193.094 167.381 191.439 168.338C189.784 169.294 187.875 170.824 187.238 171.781C186.602 172.737 185.584 174.459 185.011 175.607C184.438 176.754 183.674 179.177 183.293 181.026C182.847 183.449 182.847 185.553 183.356 188.55C183.738 190.846 184.629 193.715 185.266 194.926C185.902 196.138 187.366 198.051 188.511 199.198C189.721 200.282 192.075 201.876 193.857 202.705C196.53 203.917 198.058 204.172 204.04 204.172C209.577 204.172 211.932 203.853 215.305 202.705L219.633 201.302C219.633 194.225 219.378 193.013 218.806 193.013C218.36 193.013 216.005 194.034 213.587 195.245C209.768 197.158 208.495 197.477 204.804 197.477C202.449 197.477 199.713 197.158 198.758 196.775C197.803 196.393 196.339 195.5 195.512 194.735C194.685 193.97 193.476 192.248 192.839 190.909C192.075 189.443 191.63 187.211 191.63 185.043C191.63 183.13 192.075 180.452 192.585 179.113C193.157 177.838 194.048 176.18 194.685 175.543C195.258 174.905 196.912 173.821 198.312 173.12C200.285 172.1 201.749 171.845 205.377 172.036C208.877 172.227 210.723 172.737 213.969 174.395C216.196 175.543 218.36 176.435 218.806 176.435C219.378 176.435 219.633 175.16 219.633 172.418V168.465C212.95 165.979 209.768 165.405 205.95 165.213C202.386 165.022 199.076 165.277 197.358 165.787Z" fill="#292929"/>
<path fill-rule="evenodd" clip-rule="evenodd" d="M389.751 166.042C387.969 166.68 385.424 168.083 384.023 169.167C382.687 170.251 380.714 172.673 379.696 174.586C378.232 177.328 377.786 178.986 377.532 183.13C377.341 186.765 377.595 189.315 378.423 192.057C379.314 195.054 380.205 196.584 382.751 199.071C385.233 201.494 386.951 202.578 389.879 203.47C392.806 204.363 395.034 204.618 399.425 204.363C403.498 204.172 405.853 203.725 407.699 202.769C409.099 202.068 411.199 200.601 412.345 199.645C413.554 198.624 415.272 196.202 416.163 194.289C417.627 191.228 417.882 189.953 417.882 184.724C417.882 179.56 417.627 178.221 416.291 175.479C415.4 173.694 413.808 171.398 412.79 170.378C411.708 169.294 409.417 167.764 407.699 166.935C405.217 165.723 403.244 165.341 398.789 165.15C394.461 164.958 392.233 165.213 389.751 166.042ZM392.106 172.801C390.897 173.247 389.242 174.522 388.415 175.67C387.651 176.754 386.633 178.858 386.251 180.325C385.869 181.855 385.678 184.469 385.869 186.255C385.996 187.976 386.696 190.59 387.333 191.929C388.033 193.268 389.433 194.99 390.451 195.755C391.852 196.775 393.57 197.158 397.134 197.285C401.271 197.477 402.162 197.349 404.071 196.01C405.28 195.245 406.808 193.842 407.444 192.95C408.081 192.057 408.844 189.889 409.163 188.167C409.417 186.382 409.417 183.385 409.163 181.472C408.844 179.56 408.081 177.264 407.38 176.372C406.744 175.479 405.408 174.204 404.517 173.502C403.244 172.61 401.589 172.163 398.534 172.036C395.988 171.972 393.379 172.227 392.106 172.801Z" fill="#292929"/>
<path d="M444.23 165.723C442.639 166.17 440.22 167.254 438.82 168.21C437.42 169.103 435.829 170.888 435.193 172.163C434.62 173.439 434.111 175.607 434.111 176.882C434.111 178.221 434.62 180.325 435.256 181.536C436.084 183.067 437.547 184.278 439.902 185.49C442.002 186.574 445.757 187.657 449.703 188.295C453.204 188.869 456.831 189.698 457.786 190.208C459.25 190.909 459.504 191.483 459.377 193.141C459.25 194.799 458.804 195.5 457.022 196.393C455.24 197.285 453.649 197.477 449.385 197.349C444.803 197.158 443.275 196.775 439.839 195.054C437.547 193.97 435.193 193.013 434.556 193.013C433.602 193.013 433.474 193.587 433.411 196.967C433.411 200.729 433.538 201.047 435.193 201.813C436.147 202.259 438.693 203.088 440.793 203.534C442.893 204.044 446.903 204.491 449.703 204.491C452.504 204.491 456.195 204.044 457.977 203.534C459.695 203.024 462.114 201.876 463.387 201.111C464.596 200.282 466.123 198.497 466.823 197.094C467.46 195.691 468.033 193.46 468.033 192.057C468.033 190.654 467.46 188.55 466.823 187.339C466.06 186.063 464.405 184.597 462.559 183.704C460.777 182.812 456.449 181.6 452.058 180.899C446.012 179.815 444.357 179.305 443.466 178.157C442.83 177.392 442.321 176.435 442.321 176.117C442.321 175.734 443.084 174.778 443.975 173.885C445.503 172.418 446.139 172.291 451.485 172.291C456.513 172.291 457.786 172.546 460.841 174.012C462.75 174.969 464.85 175.734 465.423 175.798C466.378 175.798 466.569 175.16 466.569 171.781V167.828C460.395 165.979 456.004 165.277 452.885 165.15C449.512 165.022 445.948 165.277 444.23 165.723Z" fill="#292929"/>
<path fill-rule="evenodd" clip-rule="evenodd" d="M57.9154 184.661L50.0236 203.789L58.6154 203.853L62.1795 194.607H78.4721L81.9725 203.534C91.0099 203.853 91.0735 203.853 90.5007 202.386C90.4252 202.205 90.1705 201.603 89.7741 200.667L89.7619 200.638C88.4824 197.616 85.7515 191.164 82.7999 184.087C78.854 174.778 75.5445 166.807 75.4173 166.361C75.2263 165.851 73.6352 165.596 70.4531 165.596H65.8071L57.9154 184.661ZM70.3894 175.224C70.5167 175.288 71.5987 177.966 72.8079 181.154C74.0808 184.278 75.1627 186.956 75.099 187.02C75.099 187.147 72.9988 187.211 70.3258 187.211C67.7164 187.211 65.5526 186.956 65.5526 186.701C65.5526 186.446 66.6345 183.704 67.9074 180.644C69.2439 177.583 70.3258 175.16 70.3894 175.224Z" fill="#292929"/>
<path fill-rule="evenodd" clip-rule="evenodd" d="M246.809 165.979C246.618 166.297 242.99 174.778 238.79 184.852C234.525 194.926 231.089 203.279 231.089 203.47C231.089 203.662 232.998 203.725 235.353 203.662L239.617 203.47L243.499 194.161L259.346 194.544L263.229 203.853C269.911 203.789 271.82 203.598 271.757 203.343C271.757 203.088 268.256 194.544 263.929 184.342L256.164 165.851C249.163 165.596 246.999 165.723 246.809 165.979ZM253.682 180.516C252.536 177.519 251.454 175.096 251.264 175.096C251.136 175.096 250.054 177.456 248.909 180.325C248.525 181.308 248.148 182.262 247.812 183.113C247.145 184.802 246.639 186.085 246.554 186.382C246.363 186.956 247.572 187.211 251.073 187.211C253.873 187.211 255.846 186.892 255.846 186.574C255.846 186.191 254.891 183.449 253.682 180.516Z" fill="#292929"/>
<path fill-rule="evenodd" clip-rule="evenodd" d="M286.586 165.405L286.458 203.789H294.732V189.762C300.014 189.762 300.396 190.017 307.142 196.775L314.143 203.853L324.962 203.789L308.797 187.53C311.852 185.553 313.316 184.278 313.952 183.385C314.589 182.493 315.416 180.644 315.734 179.241C316.052 177.711 316.052 175.734 315.671 174.14C315.352 172.737 314.461 170.952 313.634 170.123C312.87 169.294 311.088 168.019 309.688 167.254C307.461 166.106 305.806 165.851 296.832 165.66L286.586 165.405ZM294.668 172.546V182.748C301.096 182.748 303.706 182.365 304.66 181.855C305.679 181.409 306.633 180.516 306.888 179.942C307.206 179.368 307.397 178.029 307.397 177.009C307.397 175.67 306.888 174.714 305.615 173.821C304.278 172.737 302.942 172.482 299.251 172.546H294.668Z" fill="#292929"/>
<path d="M337.373 165.532V203.789H366.012V196.775H345.647V165.532H337.373Z" fill="#292929"/>
</svg>
