<svg width="932" height="846" fill="none" xmlns="http://www.w3.org/2000/svg"><mask id="a" fill="#fff"><path d="M281 84c0-7.732 6.268-14 14-14h523c7.732 0 14 6.268 14 14v762H281V84Z"/></mask><path d="M281 84c0-7.732 6.268-14 14-14h523c7.732 0 14 6.268 14 14v762H281V84Z" fill="#23242B"/><path d="M279.5 84c0-8.56 6.94-15.5 15.5-15.5h523c8.56 0 15.5 6.94 15.5 15.5h-3c0-6.904-5.596-12.5-12.5-12.5H295c-6.904 0-12.5 5.596-12.5 12.5h-3ZM832 846H281h551Zm-552.5 0V84c0-8.56 6.94-15.5 15.5-15.5v3c-6.904 0-12.5 5.596-12.5 12.5v762h-3ZM818 68.5c8.56 0 15.5 6.94 15.5 15.5v762h-3V84c0-6.904-5.596-12.5-12.5-12.5v-3Z" fill="#404350" mask="url(#a)"/><mask id="b" fill="#fff"><path d="M281 84c0-7.732 6.268-14 14-14h523c7.732 0 14 6.268 14 14v69.562H281V84Z"/></mask><path d="M281 84c0-7.732 6.268-14 14-14h523c7.732 0 14 6.268 14 14v69.562H281V84Z" fill="#141417"/><path d="M279.5 84c0-8.56 6.94-15.5 15.5-15.5h523c8.56 0 15.5 6.94 15.5 15.5h-3c0-6.904-5.596-12.5-12.5-12.5H295c-6.904 0-12.5 5.596-12.5 12.5h-3ZM832 153.562H281h551Zm-552.5 0V84c0-8.56 6.94-15.5 15.5-15.5v3c-6.904 0-12.5 5.596-12.5 12.5v69.562h-3ZM818 68.5c8.56 0 15.5 6.94 15.5 15.5v69.562h-3V84c0-6.904-5.596-12.5-12.5-12.5v-3Z" fill="#404350" mask="url(#b)"/><path d="M821 221.222c22.091 0 40-18.157 40-40.555s-17.909-40.556-40-40.556-40 18.158-40 40.556c0 22.398 17.909 40.555 40 40.555Z" fill="#FF4C64"/><path fill-rule="evenodd" clip-rule="evenodd" d="M777 180.667c0-24.638 19.699-44.611 44-44.611s44 19.973 44 44.611c0 24.638-19.699 44.611-44 44.611s-44-19.973-44-44.611Zm44-36.5c-19.882 0-36 16.341-36 36.5 0 20.158 16.118 36.5 36 36.5s36-16.342 36-36.5c0-20.159-16.118-36.5-36-36.5Z" fill="#FF4C64"/><path fill-rule="evenodd" clip-rule="evenodd" d="m835 198.917 3.578-1.814a4.107 4.107 0 0 1-.175 3.946 3.99 3.99 0 0 1-3.403 1.923h-28a3.99 3.99 0 0 1-3.403-1.923 4.107 4.107 0 0 1-.175-3.946l3.578 1.814c-3.578-1.814-3.576-1.818-3.576-1.818l.002-.004.004-.008.009-.019.024-.046.067-.128c.054-.1.125-.23.215-.385.18-.309.436-.722.772-1.204a20.58 20.58 0 0 1 3.076-3.475c2.825-2.546 7.236-5.08 13.407-5.08s10.582 2.534 13.407 5.08a20.58 20.58 0 0 1 3.076 3.475c.336.482.592.895.772 1.204.09.155.161.285.215.385l.067.128.024.046.009.019.004.008.002.004s.002.004-3.576 1.818ZM835 168.5c2.209 0 4 1.816 4 4.056v2.027c0 2.24-1.791 4.056-4 4.056s-4-1.816-4-4.056v-2.027c0-2.24 1.791-4.056 4-4.056ZM807 168.5c2.209 0 4 1.816 4 4.056v2.027c0 2.24-1.791 4.056-4 4.056s-4-1.816-4-4.056v-2.027c0-2.24 1.791-4.056 4-4.056Z" fill="#262A31"/><path d="M821 331.556c22.091 0 40-18.157 40-40.556 0-22.398-17.909-40.555-40-40.555S781 268.602 781 291c0 22.399 17.909 40.556 40 40.556Z" fill="#FFC765"/><path fill-rule="evenodd" clip-rule="evenodd" d="M777 291c0-24.638 19.699-44.611 44-44.611s44 19.973 44 44.611c0 24.638-19.699 44.611-44 44.611S777 315.638 777 291Zm44-36.5c-19.882 0-36 16.342-36 36.5 0 20.159 16.118 36.5 36 36.5s36-16.341 36-36.5c0-20.158-16.118-36.5-36-36.5Z" fill="#FFC765"/><path fill-rule="evenodd" clip-rule="evenodd" d="M835 274.778c2.209 0 4 1.816 4 4.055v2.028c0 2.24-1.791 4.056-4 4.056s-4-1.816-4-4.056v-2.028c0-2.239 1.791-4.055 4-4.055ZM807 274.778c2.209 0 4 1.816 4 4.055v2.028c0 2.24-1.791 4.056-4 4.056s-4-1.816-4-4.056v-2.028c0-2.239 1.791-4.055 4-4.055ZM803 305.194c0-2.239 1.791-4.055 4-4.055h28c2.209 0 4 1.816 4 4.055 0 2.24-1.791 4.056-4 4.056h-28c-2.209 0-4-1.816-4-4.056Z" fill="#262A31"/><path d="M821 441.889c22.091 0 40-18.157 40-40.556 0-22.398-17.909-40.555-40-40.555s-40 18.157-40 40.555c0 22.399 17.909 40.556 40 40.556Z" fill="#01C38D"/><path fill-rule="evenodd" clip-rule="evenodd" d="M777 401.333c0-24.638 19.699-44.611 44-44.611s44 19.973 44 44.611c0 24.638-19.699 44.611-44 44.611s-44-19.973-44-44.611Zm44-36.5c-19.882 0-36 16.342-36 36.5 0 20.159 16.118 36.5 36 36.5s36-16.341 36-36.5c0-20.158-16.118-36.5-36-36.5Z" fill="#01C38D"/><path fill-rule="evenodd" clip-rule="evenodd" d="M803.597 413.395a3.99 3.99 0 0 1 3.403-1.923h28a3.99 3.99 0 0 1 3.403 1.923 4.107 4.107 0 0 1 .175 3.946L835 415.528c3.578 1.813 3.576 1.817 3.576 1.817l-.002.004-.004.008-.009.019-.024.046-.067.128c-.054.1-.125.23-.215.385-.18.31-.436.722-.772 1.204a20.58 20.58 0 0 1-3.076 3.475c-2.825 2.546-7.236 5.08-13.407 5.08s-10.582-2.534-13.407-5.08a20.58 20.58 0 0 1-3.076-3.475 17.47 17.47 0 0 1-.772-1.204c-.09-.155-.161-.285-.215-.385l-.067-.128-.024-.046-.009-.019-.004-.008-.002-.004s-.002-.004 3.576-1.817l-3.578 1.813a4.107 4.107 0 0 1 .175-3.946ZM835 389.167c2.209 0 4 1.815 4 4.055v2.028c0 2.24-1.791 4.055-4 4.055s-4-1.815-4-4.055v-2.028c0-2.24 1.791-4.055 4-4.055ZM807 389.167c2.209 0 4 1.815 4 4.055v2.028c0 2.24-1.791 4.055-4 4.055s-4-1.815-4-4.055v-2.028c0-2.24 1.791-4.055 4-4.055Z" fill="#262A31"/><rect y="195" width="648" height="353" rx="14" fill="#2B2C34"/><g clip-path="url(#c)"><circle cx="98" cy="293" r="50" fill="#414854"/><path d="M63.007 355.584c0 .782.653 1.416 1.458 1.416h67.066c.805 0 1.458-.634 1.458-1.416v-21.691c.033-.51.101-3.054-1.575-5.866-1.058-1.773-2.592-3.305-4.562-4.553-2.382-1.51-5.412-2.603-9.078-3.262-.027-.004-2.745-.364-5.529-1.075-4.848-1.238-5.272-2.334-5.275-2.345a1.431 1.431 0 0 0-.123-.31c-.039-.205-.137-.974.05-3.036.476-5.236 3.284-8.331 5.541-10.817.712-.785 1.384-1.525 1.902-2.252 2.233-3.133 2.441-6.696 2.45-6.917 0-.447-.051-.815-.161-1.156-.22-.683-.632-1.108-.933-1.418l-.002-.002a4.782 4.782 0 0 1-.206-.221c-.023-.025-.082-.094-.028-.447.198-1.298.317-2.386.374-3.421.102-1.846.181-4.606-.295-7.292a11.016 11.016 0 0 0-.316-1.52c-.503-1.85-1.311-3.431-2.434-4.736-.193-.21-4.887-5.155-18.512-6.17-1.884-.14-3.747-.064-5.58.029-.442.022-1.047.052-1.614.199-1.406.364-1.782 1.256-1.88 1.755-.164.827.123 1.47.313 1.895.028.062.062.138.002.337-.316.49-.813.931-1.32 1.35-.147.124-3.564 3.071-3.752 6.919-.507 2.927-.468 7.487.13 10.639.036.174.087.432.004.606-.645.577-1.375 1.232-1.373 2.725.008.15.215 3.713 2.448 6.846.518.726 1.19 1.466 1.9 2.25 2.257 2.486 5.068 5.583 5.544 10.819.187 2.062.089 2.831.05 3.036a1.372 1.372 0 0 0-.123.31c-.003.01-.425 1.103-5.252 2.339-2.785.713-5.526 1.077-5.608 1.089-3.562.601-6.574 1.668-8.952 3.17-1.962 1.239-3.5 2.774-4.57 4.561-1.708 2.856-1.662 5.456-1.637 5.931v21.702Z" fill="#CDD5E4"/></g><rect x="49.5" y="244.5" width="97" height="97" rx="48.5" stroke="#414854" stroke-width="3"/><rect x="172" y="278.5" width="289" height="29" rx="14.5" fill="#414854"/><rect x="48" y="375" width="552" height="20" rx="10" fill="#414854"/><rect x="139" y="377" width="67" height="16" rx="8" fill="url(#d)" stroke="#414854" stroke-width="4"/><rect x="48" y="410" width="516" height="20" rx="10" fill="#414854"/><rect x="48" y="445" width="541" height="20" rx="10" fill="#414854"/><rect x="48" y="480" width="305" height="20" rx="10" fill="#414854"/><rect x="279" y="412" width="211" height="16" rx="8" fill="url(#e)" stroke="#414854" stroke-width="4"/><rect x="187" y="447" width="115" height="16" rx="8" fill="url(#f)" stroke="#414854" stroke-width="4"/><rect x="50" y="482" width="101" height="16" rx="8" fill="url(#g)" stroke="#414854" stroke-width="4"/><g clip-path="url(#h)"><path d="M143 599c0-7.732 6.268-14 14-14h620c7.732 0 14 6.268 14 14v247H143V599Z" fill="#2B2C34"/><g clip-path="url(#i)"><circle cx="241" cy="683" r="50" fill="#414854"/><path d="M206.007 745.584c0 .782.653 1.416 1.458 1.416h67.066c.805 0 1.458-.634 1.458-1.416v-21.691c.033-.51.101-3.054-1.575-5.866-1.058-1.773-2.592-3.305-4.562-4.553-2.382-1.51-5.412-2.603-9.078-3.262-.027-.004-2.745-.364-5.529-1.075-4.848-1.238-5.272-2.334-5.275-2.345a1.431 1.431 0 0 0-.123-.31c-.039-.205-.137-.974.05-3.036.476-5.236 3.284-8.331 5.541-10.817.712-.785 1.384-1.525 1.902-2.252 2.233-3.133 2.441-6.696 2.45-6.917 0-.447-.051-.815-.161-1.156-.22-.683-.632-1.108-.933-1.418l-.002-.002a4.782 4.782 0 0 1-.206-.221c-.023-.025-.082-.094-.028-.447.198-1.298.317-2.386.374-3.421.102-1.846.181-4.606-.295-7.292a11.016 11.016 0 0 0-.316-1.52c-.503-1.85-1.311-3.431-2.434-4.736-.193-.21-4.887-5.155-18.512-6.17-1.884-.14-3.747-.064-5.58.029-.442.022-1.047.052-1.614.199-1.407.364-1.782 1.256-1.88 1.755-.164.827.123 1.47.313 1.895.028.062.062.138.002.337-.316.49-.813.931-1.321 1.35-.146.124-3.563 3.071-3.751 6.919-.507 2.927-.468 7.487.131 10.639.035.174.086.432.003.606-.645.577-1.375 1.232-1.373 2.725.008.15.215 3.713 2.448 6.846.518.726 1.189 1.466 1.9 2.25 2.257 2.486 5.068 5.583 5.544 10.819.187 2.062.089 2.831.049 3.036a1.343 1.343 0 0 0-.122.31c-.003.01-.426 1.103-5.252 2.339-2.785.713-5.526 1.077-5.608 1.089-3.562.601-6.574 1.668-8.952 3.17-1.962 1.239-3.5 2.774-4.569 4.561-1.709 2.856-1.663 5.456-1.638 5.931v21.702Z" fill="#CDD5E4"/></g><rect x="192.5" y="634.5" width="97" height="97" rx="48.5" stroke="#414854" stroke-width="3"/><rect x="315" y="668.5" width="289" height="29" rx="14.5" fill="#414854"/><rect x="194" y="765" width="552" height="20" rx="10" fill="#414854"/><rect x="194" y="800" width="516" height="20" rx="10" fill="#414854"/><rect x="194" y="835" width="541" height="20" rx="10" fill="#414854"/><rect x="193" y="767" width="116" height="16" rx="8" fill="url(#j)" stroke="#414854" stroke-width="4"/><rect x="441" y="837" width="238" height="16" rx="8" fill="url(#k)" stroke="#414854" stroke-width="4"/><rect x="349" y="802" width="67" height="16" rx="8" fill="url(#l)" stroke="#414854" stroke-width="4"/></g><defs><linearGradient id="d" x1="137" y1="385" x2="208" y2="385" gradientUnits="userSpaceOnUse"><stop stop-color="#01C38D"/><stop offset="1" stop-color="#7AC6B1"/></linearGradient><linearGradient id="e" x1="277" y1="420" x2="492" y2="420" gradientUnits="userSpaceOnUse"><stop stop-color="#FFC765"/><stop offset="1" stop-color="#E9D1A9"/></linearGradient><linearGradient id="f" x1="185" y1="455" x2="304" y2="455" gradientUnits="userSpaceOnUse"><stop stop-color="#01C38D"/><stop offset="1" stop-color="#7AC6B1"/></linearGradient><linearGradient id="g" x1="48" y1="490" x2="153" y2="490" gradientUnits="userSpaceOnUse"><stop stop-color="#FF4C64"/><stop offset="1" stop-color="#FF92A0"/></linearGradient><linearGradient id="j" x1="191" y1="775" x2="311" y2="775" gradientUnits="userSpaceOnUse"><stop stop-color="#FFC765"/><stop offset="1" stop-color="#E9D1A9"/></linearGradient><linearGradient id="k" x1="439" y1="845" x2="681" y2="845" gradientUnits="userSpaceOnUse"><stop stop-color="#FF5067"/><stop offset="1" stop-color="#FF8F9E"/></linearGradient><linearGradient id="l" x1="347" y1="810" x2="418" y2="810" gradientUnits="userSpaceOnUse"><stop stop-color="#01C38D"/><stop offset="1" stop-color="#7AC6B1"/></linearGradient><clipPath id="c"><rect x="48" y="243" width="100" height="100" rx="50" fill="#fff"/></clipPath><clipPath id="h"><path d="M143 599c0-7.732 6.268-14 14-14h620c7.732 0 14 6.268 14 14v247H143V599Z" fill="#fff"/></clipPath><clipPath id="i"><rect x="191" y="633" width="100" height="100" rx="50" fill="#fff"/></clipPath></defs></svg>