<svg width="932" height="846" viewBox="0 0 932 846" fill="none" xmlns="http://www.w3.org/2000/svg">
<mask id="path-1-inside-1_19_573" fill="white">
<path d="M281 84C281 76.268 287.268 70 295 70H818C825.732 70 832 76.268 832 84V846H281V84Z"/>
</mask>
<path d="M281 84C281 76.268 287.268 70 295 70H818C825.732 70 832 76.268 832 84V846H281V84Z" fill="#23242B"/>
<path d="M279.5 84C279.5 75.4396 286.44 68.5 295 68.5H818C826.56 68.5 833.5 75.4396 833.5 84H830.5C830.5 77.0964 824.904 71.5 818 71.5H295C288.096 71.5 282.5 77.0964 282.5 84H279.5ZM832 846H281H832ZM279.5 846V84C279.5 75.4396 286.44 68.5 295 68.5V71.5C288.096 71.5 282.5 77.0964 282.5 84V846H279.5ZM818 68.5C826.56 68.5 833.5 75.4396 833.5 84V846H830.5V84C830.5 77.0964 824.904 71.5 818 71.5V68.5Z" fill="#404350" mask="url(#path-1-inside-1_19_573)"/>
<mask id="path-3-inside-2_19_573" fill="white">
<path d="M281 84C281 76.268 287.268 70 295 70H818C825.732 70 832 76.268 832 84V153.562H281V84Z"/>
</mask>
<path d="M281 84C281 76.268 287.268 70 295 70H818C825.732 70 832 76.268 832 84V153.562H281V84Z" fill="#141417"/>
<path d="M279.5 84C279.5 75.4396 286.44 68.5 295 68.5H818C826.56 68.5 833.5 75.4396 833.5 84H830.5C830.5 77.0964 824.904 71.5 818 71.5H295C288.096 71.5 282.5 77.0964 282.5 84H279.5ZM832 153.562H281H832ZM279.5 153.562V84C279.5 75.4396 286.44 68.5 295 68.5V71.5C288.096 71.5 282.5 77.0964 282.5 84V153.562H279.5ZM818 68.5C826.56 68.5 833.5 75.4396 833.5 84V153.562H830.5V84C830.5 77.0964 824.904 71.5 818 71.5V68.5Z" fill="#404350" mask="url(#path-3-inside-2_19_573)"/>
<path d="M821 221.222C843.091 221.222 861 203.065 861 180.667C861 158.269 843.091 140.111 821 140.111C798.909 140.111 781 158.269 781 180.667C781 203.065 798.909 221.222 821 221.222Z" fill="#FF4C64"/>
<path fill-rule="evenodd" clip-rule="evenodd" d="M777 180.667C777 156.029 796.699 136.056 821 136.056C845.301 136.056 865 156.029 865 180.667C865 205.305 845.301 225.278 821 225.278C796.699 225.278 777 205.305 777 180.667ZM821 144.167C801.118 144.167 785 160.508 785 180.667C785 200.825 801.118 217.167 821 217.167C840.882 217.167 857 200.825 857 180.667C857 160.508 840.882 144.167 821 144.167Z" fill="#FF4C64"/>
<path fill-rule="evenodd" clip-rule="evenodd" d="M835 198.917L838.578 197.103C839.198 198.36 839.131 199.853 838.403 201.049C837.674 202.244 836.386 202.972 835 202.972H807C805.614 202.972 804.326 202.244 803.597 201.049C802.869 199.853 802.802 198.36 803.422 197.103L807 198.917C803.422 197.103 803.424 197.099 803.424 197.099L803.426 197.095L803.43 197.087L803.439 197.068L803.463 197.022C803.481 196.987 803.503 196.944 803.53 196.894C803.584 196.794 803.655 196.664 803.745 196.509C803.925 196.2 804.181 195.787 804.517 195.305C805.187 194.346 806.197 193.088 807.593 191.83C810.418 189.284 814.829 186.75 821 186.75C827.171 186.75 831.582 189.284 834.407 191.83C835.803 193.088 836.813 194.346 837.483 195.305C837.819 195.787 838.075 196.2 838.255 196.509C838.345 196.664 838.416 196.794 838.47 196.894C838.497 196.944 838.519 196.987 838.537 197.022L838.561 197.068L838.57 197.087L838.574 197.095L838.576 197.099C838.576 197.099 838.578 197.103 835 198.917Z" fill="#262A31"/>
<path fill-rule="evenodd" clip-rule="evenodd" d="M835 168.5C837.209 168.5 839 170.316 839 172.556V174.583C839 176.823 837.209 178.639 835 178.639C832.791 178.639 831 176.823 831 174.583V172.556C831 170.316 832.791 168.5 835 168.5Z" fill="#262A31"/>
<path fill-rule="evenodd" clip-rule="evenodd" d="M807 168.5C809.209 168.5 811 170.316 811 172.556V174.583C811 176.823 809.209 178.639 807 178.639C804.791 178.639 803 176.823 803 174.583V172.556C803 170.316 804.791 168.5 807 168.5Z" fill="#262A31"/>
<path d="M821 331.556C843.091 331.556 861 313.399 861 291C861 268.602 843.091 250.445 821 250.445C798.909 250.445 781 268.602 781 291C781 313.399 798.909 331.556 821 331.556Z" fill="#FFC765"/>
<path fill-rule="evenodd" clip-rule="evenodd" d="M777 291C777 266.362 796.699 246.389 821 246.389C845.301 246.389 865 266.362 865 291C865 315.638 845.301 335.611 821 335.611C796.699 335.611 777 315.638 777 291ZM821 254.5C801.118 254.5 785 270.842 785 291C785 311.159 801.118 327.5 821 327.5C840.882 327.5 857 311.159 857 291C857 270.842 840.882 254.5 821 254.5Z" fill="#FFC765"/>
<path fill-rule="evenodd" clip-rule="evenodd" d="M835 274.778C837.209 274.778 839 276.594 839 278.833V280.861C839 283.101 837.209 284.917 835 284.917C832.791 284.917 831 283.101 831 280.861V278.833C831 276.594 832.791 274.778 835 274.778Z" fill="#262A31"/>
<path fill-rule="evenodd" clip-rule="evenodd" d="M807 274.778C809.209 274.778 811 276.594 811 278.833V280.861C811 283.101 809.209 284.917 807 284.917C804.791 284.917 803 283.101 803 280.861V278.833C803 276.594 804.791 274.778 807 274.778Z" fill="#262A31"/>
<path fill-rule="evenodd" clip-rule="evenodd" d="M803 305.194C803 302.955 804.791 301.139 807 301.139H835C837.209 301.139 839 302.955 839 305.194C839 307.434 837.209 309.25 835 309.25H807C804.791 309.25 803 307.434 803 305.194Z" fill="#262A31"/>
<path d="M821 441.889C843.091 441.889 861 423.732 861 401.333C861 378.935 843.091 360.778 821 360.778C798.909 360.778 781 378.935 781 401.333C781 423.732 798.909 441.889 821 441.889Z" fill="#01C38D"/>
<path fill-rule="evenodd" clip-rule="evenodd" d="M777 401.333C777 376.695 796.699 356.722 821 356.722C845.301 356.722 865 376.695 865 401.333C865 425.971 845.301 445.944 821 445.944C796.699 445.944 777 425.971 777 401.333ZM821 364.833C801.118 364.833 785 381.175 785 401.333C785 421.492 801.118 437.833 821 437.833C840.882 437.833 857 421.492 857 401.333C857 381.175 840.882 364.833 821 364.833Z" fill="#01C38D"/>
<path fill-rule="evenodd" clip-rule="evenodd" d="M803.597 413.395C804.326 412.2 805.614 411.472 807 411.472H835C836.386 411.472 837.674 412.2 838.403 413.395C839.131 414.591 839.198 416.084 838.578 417.341L835 415.528C838.578 417.341 838.576 417.345 838.576 417.345L838.574 417.349L838.57 417.357L838.561 417.376L838.537 417.422C838.519 417.457 838.497 417.5 838.47 417.55C838.416 417.65 838.345 417.78 838.255 417.935C838.075 418.245 837.819 418.657 837.483 419.139C836.813 420.098 835.803 421.356 834.407 422.614C831.582 425.16 827.171 427.694 821 427.694C814.829 427.694 810.418 425.16 807.593 422.614C806.197 421.356 805.187 420.098 804.517 419.139C804.181 418.657 803.925 418.245 803.745 417.935C803.655 417.78 803.584 417.65 803.53 417.55C803.503 417.5 803.481 417.457 803.463 417.422L803.439 417.376L803.43 417.357L803.426 417.349L803.424 417.345C803.424 417.345 803.422 417.341 807 415.528L803.422 417.341C802.802 416.084 802.869 414.591 803.597 413.395Z" fill="#262A31"/>
<path fill-rule="evenodd" clip-rule="evenodd" d="M835 389.167C837.209 389.167 839 390.982 839 393.222V395.25C839 397.49 837.209 399.305 835 399.305C832.791 399.305 831 397.49 831 395.25V393.222C831 390.982 832.791 389.167 835 389.167Z" fill="#262A31"/>
<path fill-rule="evenodd" clip-rule="evenodd" d="M807 389.167C809.209 389.167 811 390.982 811 393.222V395.25C811 397.49 809.209 399.305 807 399.305C804.791 399.305 803 397.49 803 395.25V393.222C803 390.982 804.791 389.167 807 389.167Z" fill="#262A31"/>
<rect y="195" width="648" height="353" rx="14" fill="#2B2C34"/>
<g clip-path="url(#clip0_19_573)">
<circle cx="98" cy="293" r="50" fill="#414854"/>
<path d="M63.0069 355.584C63.0069 356.366 63.6596 357 64.4649 357L131.531 357C132.336 357 132.989 356.366 132.989 355.584V333.893C133.022 333.383 133.09 330.839 131.414 328.027C130.356 326.254 128.822 324.722 126.852 323.474C124.47 321.964 121.44 320.871 117.774 320.212C117.747 320.208 115.029 319.848 112.245 319.137C107.397 317.899 106.973 316.803 106.97 316.792C106.941 316.684 106.9 316.58 106.847 316.482C106.808 316.277 106.71 315.508 106.897 313.446C107.373 308.21 110.181 305.115 112.438 302.629C113.15 301.844 113.822 301.104 114.34 300.377C116.573 297.244 116.781 293.681 116.79 293.46C116.79 293.013 116.739 292.645 116.629 292.304C116.409 291.621 115.997 291.196 115.696 290.886L115.694 290.884C115.618 290.806 115.546 290.731 115.488 290.663C115.465 290.638 115.406 290.569 115.46 290.216C115.658 288.918 115.777 287.83 115.834 286.795C115.936 284.949 116.015 282.189 115.539 279.503C115.481 279.045 115.38 278.56 115.223 277.983C114.72 276.133 113.912 274.552 112.789 273.247C112.596 273.037 107.902 268.092 94.2767 267.077C92.3926 266.937 90.5301 267.013 88.6966 267.106C88.2547 267.128 87.6496 267.158 87.0833 267.305C85.6765 267.669 85.3011 268.561 85.2025 269.06C85.0391 269.887 85.3263 270.53 85.5162 270.955C85.5439 271.017 85.5779 271.093 85.5184 271.292C85.2021 271.782 84.7046 272.223 84.1973 272.642C84.0506 272.766 80.6339 275.713 80.446 279.561C79.9394 282.488 79.9778 287.048 80.5768 290.2C80.6116 290.374 80.663 290.632 80.5796 290.806C79.9354 291.383 79.2052 292.038 79.207 293.531C79.2148 293.681 79.422 297.244 81.6554 300.377C82.1726 301.103 82.8443 301.843 83.5555 302.627C85.8124 305.113 88.6228 308.21 89.0986 313.446C89.2857 315.508 89.1877 316.277 89.1481 316.482C89.0953 316.579 89.054 316.683 89.0256 316.792C89.0227 316.802 88.6005 317.895 83.7738 319.131C80.9893 319.844 78.248 320.208 78.1662 320.22C74.6042 320.821 71.5923 321.888 69.2144 323.39C67.2518 324.629 65.7144 326.164 64.6448 327.951C62.9358 330.807 62.982 333.407 63.0069 333.882V355.584Z" fill="#CDD5E4"/>
</g>
<rect x="49.5" y="244.5" width="97" height="97" rx="48.5" stroke="#414854" stroke-width="3"/>
<rect x="172" y="278.5" width="289" height="29" rx="14.5" fill="#414854"/>
<rect x="48" y="375" width="552" height="20" rx="10" fill="#414854"/>
<rect x="139" y="377" width="67" height="16" rx="8" fill="url(#paint0_linear_19_573)" stroke="#414854" stroke-width="4"/>
<rect x="48" y="410" width="516" height="20" rx="10" fill="#414854"/>
<rect x="48" y="445" width="541" height="20" rx="10" fill="#414854"/>
<rect x="48" y="480" width="305" height="20" rx="10" fill="#414854"/>
<rect x="279" y="412" width="211" height="16" rx="8" fill="url(#paint1_linear_19_573)" stroke="#414854" stroke-width="4"/>
<rect x="187" y="447" width="115" height="16" rx="8" fill="url(#paint2_linear_19_573)" stroke="#414854" stroke-width="4"/>
<rect x="50" y="482" width="101" height="16" rx="8" fill="url(#paint3_linear_19_573)" stroke="#414854" stroke-width="4"/>
<g clip-path="url(#clip1_19_573)">
<path d="M143 599C143 591.268 149.268 585 157 585H777C784.732 585 791 591.268 791 599V846H143V599Z" fill="#2B2C34"/>
<g clip-path="url(#clip2_19_573)">
<circle cx="241" cy="683" r="50" fill="#414854"/>
<path d="M206.007 745.584C206.007 746.366 206.66 747 207.465 747L274.531 747C275.336 747 275.989 746.366 275.989 745.584V723.893C276.022 723.383 276.09 720.839 274.414 718.027C273.356 716.254 271.822 714.722 269.852 713.474C267.47 711.964 264.44 710.871 260.774 710.212C260.747 710.208 258.029 709.848 255.245 709.137C250.397 707.899 249.973 706.803 249.97 706.792C249.941 706.684 249.9 706.58 249.847 706.482C249.808 706.277 249.71 705.508 249.897 703.446C250.373 698.21 253.181 695.115 255.438 692.629C256.15 691.844 256.822 691.104 257.34 690.377C259.573 687.244 259.781 683.681 259.79 683.46C259.79 683.013 259.739 682.645 259.629 682.304C259.409 681.621 258.997 681.196 258.696 680.886L258.694 680.884C258.618 680.806 258.546 680.731 258.488 680.663C258.465 680.638 258.406 680.569 258.46 680.216C258.658 678.918 258.777 677.83 258.834 676.795C258.936 674.949 259.015 672.189 258.539 669.503C258.481 669.045 258.38 668.56 258.223 667.983C257.72 666.133 256.912 664.552 255.789 663.247C255.596 663.037 250.902 658.092 237.277 657.077C235.393 656.937 233.53 657.013 231.697 657.106C231.255 657.128 230.65 657.158 230.083 657.305C228.676 657.669 228.301 658.561 228.203 659.06C228.039 659.887 228.326 660.53 228.516 660.955C228.544 661.017 228.578 661.093 228.518 661.292C228.202 661.782 227.705 662.223 227.197 662.642C227.051 662.766 223.634 665.713 223.446 669.561C222.939 672.488 222.978 677.048 223.577 680.2C223.612 680.374 223.663 680.632 223.58 680.806C222.935 681.383 222.205 682.038 222.207 683.531C222.215 683.681 222.422 687.244 224.655 690.377C225.173 691.103 225.844 691.843 226.555 692.627C228.812 695.113 231.623 698.21 232.099 703.446C232.286 705.508 232.188 706.277 232.148 706.482C232.095 706.579 232.054 706.683 232.026 706.792C232.023 706.802 231.6 707.895 226.774 709.131C223.989 709.844 221.248 710.208 221.166 710.22C217.604 710.821 214.592 711.888 212.214 713.39C210.252 714.629 208.714 716.164 207.645 717.951C205.936 720.807 205.982 723.407 206.007 723.882V745.584Z" fill="#CDD5E4"/>
</g>
<rect x="192.5" y="634.5" width="97" height="97" rx="48.5" stroke="#414854" stroke-width="3"/>
<rect x="315" y="668.5" width="289" height="29" rx="14.5" fill="#414854"/>
<rect x="194" y="765" width="552" height="20" rx="10" fill="#414854"/>
<rect x="194" y="800" width="516" height="20" rx="10" fill="#414854"/>
<rect x="194" y="835" width="541" height="20" rx="10" fill="#414854"/>
<rect x="193" y="767" width="116" height="16" rx="8" fill="url(#paint4_linear_19_573)" stroke="#414854" stroke-width="4"/>
<rect x="441" y="837" width="238" height="16" rx="8" fill="url(#paint5_linear_19_573)" stroke="#414854" stroke-width="4"/>
<rect x="349" y="802" width="67" height="16" rx="8" fill="url(#paint6_linear_19_573)" stroke="#414854" stroke-width="4"/>
</g>
<defs>
<linearGradient id="paint0_linear_19_573" x1="137" y1="385" x2="208" y2="385" gradientUnits="userSpaceOnUse">
<stop stop-color="#01C38D"/>
<stop offset="1" stop-color="#7AC6B1"/>
</linearGradient>
<linearGradient id="paint1_linear_19_573" x1="277" y1="420" x2="492" y2="420" gradientUnits="userSpaceOnUse">
<stop stop-color="#FFC765"/>
<stop offset="1" stop-color="#E9D1A9"/>
</linearGradient>
<linearGradient id="paint2_linear_19_573" x1="185" y1="455" x2="304" y2="455" gradientUnits="userSpaceOnUse">
<stop stop-color="#01C38D"/>
<stop offset="1" stop-color="#7AC6B1"/>
</linearGradient>
<linearGradient id="paint3_linear_19_573" x1="48" y1="490" x2="153" y2="490" gradientUnits="userSpaceOnUse">
<stop stop-color="#FF4C64"/>
<stop offset="1" stop-color="#FF92A0"/>
</linearGradient>
<linearGradient id="paint4_linear_19_573" x1="191" y1="775" x2="311" y2="775" gradientUnits="userSpaceOnUse">
<stop stop-color="#FFC765"/>
<stop offset="1" stop-color="#E9D1A9"/>
</linearGradient>
<linearGradient id="paint5_linear_19_573" x1="439" y1="845" x2="681" y2="845" gradientUnits="userSpaceOnUse">
<stop stop-color="#FF5067"/>
<stop offset="1" stop-color="#FF8F9E"/>
</linearGradient>
<linearGradient id="paint6_linear_19_573" x1="347" y1="810" x2="418" y2="810" gradientUnits="userSpaceOnUse">
<stop stop-color="#01C38D"/>
<stop offset="1" stop-color="#7AC6B1"/>
</linearGradient>
<clipPath id="clip0_19_573">
<rect x="48" y="243" width="100" height="100" rx="50" fill="white"/>
</clipPath>
<clipPath id="clip1_19_573">
<path d="M143 599C143 591.268 149.268 585 157 585H777C784.732 585 791 591.268 791 599V846H143V599Z" fill="white"/>
</clipPath>
<clipPath id="clip2_19_573">
<rect x="191" y="633" width="100" height="100" rx="50" fill="white"/>
</clipPath>
</defs>
</svg>
