<svg width="1753" height="909" fill="none" xmlns="http://www.w3.org/2000/svg"><path d="M0 82h1426c7.73 0 14 6.268 14 14v813H0V82Z" fill="#fff"/><g filter="url(#b)" clip-path="url(#a)"><mask id="c" fill="#fff"><path d="M0 82h1420c11.05 0 20 8.954 20 20v807H0V82Z"/></mask><path d="M0 82h1420c11.05 0 20 8.954 20 20v807H0V82Z" fill="#fff"/><path d="M0 80.5h1420c11.87 0 21.5 9.626 21.5 21.5h-3c0-10.217-8.28-18.5-18.5-18.5H0v-3ZM1440 909H0h1440ZM0 909V82v827ZM1420 80.5c11.87 0 21.5 9.626 21.5 21.5v807h-3V102c0-10.217-8.28-18.5-18.5-18.5v-3Z" fill="#BEBEBE" mask="url(#c)"/></g><g clip-path="url(#d)" stroke="#BEBEBE" stroke-width="1.5"><rect x="-164.25" y="227.898" width="495.62" height="608.442" rx="13.25"/><rect x="368.75" y="227.75" width="989.5" height="608.5" rx="13.25"/><path d="M824.164 865.84H-151c-7.318 0-13.25 5.932-13.25 13.25v359.32H837.414V879.09c0-7.318-5.932-13.25-13.25-13.25ZM1346.26 865.84H888.164c-7.318 0-13.25 5.932-13.25 13.25v359.32h484.596V879.09c0-7.318-5.93-13.25-13.25-13.25Z"/></g><mask id="e" fill="#fff"><path d="M0 82h1426c7.73 0 14 6.268 14 14v64H0V82Z"/></mask><path d="M0 82h1426c7.73 0 14 6.268 14 14v64H0V82Z" fill="#F3F3F3"/><path d="M0 80.5h1426c8.56 0 15.5 6.94 15.5 15.5h-3c0-6.904-5.6-12.5-12.5-12.5H0v-3ZM1440 160H0h1440ZM0 160V82v78Zm1426-79.5c8.56 0 15.5 6.94 15.5 15.5v64h-3V96c0-6.904-5.6-12.5-12.5-12.5v-3Z" fill="#BEBEBE" mask="url(#e)"/><g opacity=".5" filter="url(#g)" clip-path="url(#f)"><path d="M1.336 805.758c-4.551 3.128-5.705 9.354-2.578 13.906 3.128 4.551 9.354 5.706 13.906 2.578L1.336 805.758Zm220.292-139.254 2.727-9.621-4.52-1.281-3.871 2.661 5.664 8.241ZM684.344 544.18l5.244-8.515-5.468-3.367-5.338 3.571 5.562 8.311ZM981.19 727.004l-5.245 8.515 7.699 4.741 5.491-7.184-7.945-6.072Zm205.54-268.937 1.95-9.808-6.11-1.215-3.78 4.951 7.94 6.072Zm226.58 45.044-1.95 9.808 6.93 1.377 3.61-6.065-8.59-5.12ZM1689.59 59.12c2.83-4.744 1.27-10.882-3.47-13.71-4.74-2.828-10.88-1.274-13.71 3.47l17.18 10.24ZM12.664 822.242 227.29 674.746l-11.327-16.483L1.336 805.758l11.328 16.484ZM218.9 676.125c29.111 8.253 73.573 20.633 112.357 30.955 19.384 5.159 37.406 9.819 51.403 13.196 6.99 1.686 13.052 3.07 17.81 4.038 4.355.886 8.633 1.65 11.407 1.65v-20c.029 0-.535-.022-2.044-.256-1.37-.213-3.162-.542-5.375-.992-4.418-.899-10.215-2.22-17.108-3.883-13.771-3.321-31.618-7.935-50.949-13.08-38.646-10.286-82.999-22.635-112.046-30.87l-5.455 19.242Zm192.977 49.839c1.941 0 3.661-.484 4.618-.781 1.151-.358 2.349-.826 3.519-1.327 2.35-1.007 5.183-2.407 8.354-4.082 6.374-3.367 14.729-8.17 24.505-14.016 19.585-11.712 45.331-27.883 73.279-45.794 55.918-35.836 120.939-78.821 163.753-107.473l-11.123-16.622c-42.75 28.61-107.653 71.516-163.422 107.257-27.896 17.877-53.435 33.916-72.751 45.467-9.675 5.785-17.675 10.376-23.582 13.496-2.968 1.568-5.258 2.684-6.889 3.383-.82.351-1.328.534-1.582.613-.447.139.168-.121 1.321-.121v20ZM679.1 552.695l296.845 182.824 10.489-17.03-296.846-182.824-10.488 17.03Zm310.035 180.381L1194.68 464.14l-15.89-12.145-205.546 268.937 15.891 12.144Zm195.655-265.201 226.57 45.044 3.9-19.616-226.58-45.044-3.89 19.616Zm237.11 40.356L1689.59 59.12l-17.18-10.24-267.69 449.111 17.18 10.24Z" fill="url(#h)"/></g><path fill-rule="evenodd" clip-rule="evenodd" d="M1675.81 36.102c2.55-4.275.86-9.65-3.76-12.004-4.63-2.355-10.44-.797-12.99 3.479l-264.27 443.639-225.82-44.918-203.839 266.853-294.653-181.577-5.383 3.604c-42.755 28.629-107.665 71.565-163.441 107.33-27.899 17.889-53.444 33.941-72.766 45.502-9.677 5.79-17.683 10.387-23.595 13.511-2.973 1.571-5.266 2.69-6.9 3.39-.395.17-.717.3-.973.398a41.252 41.252 0 0 1-1.198-.17c-1.364-.211-3.151-.54-5.362-.99-4.415-.899-10.21-2.22-17.103-3.884-13.769-3.323-31.616-7.939-50.948-13.087-38.648-10.292-83.003-22.649-112.052-30.889l-4.628-1.312L0 776.957V799l209.777-144.502c29.06 8.221 70.953 19.869 107.738 29.665 19.386 5.162 37.412 9.826 51.412 13.205 6.991 1.687 13.056 3.073 17.819 4.043 4.345.884 8.655 1.656 11.47 1.656 1.994 0 3.747-.495 4.699-.792 1.156-.359 2.354-.828 3.523-1.329 2.348-1.006 5.177-2.405 8.346-4.08 6.369-3.366 14.719-8.17 24.494-14.018 19.582-11.717 45.326-27.895 73.275-45.817 53.624-34.385 115.619-75.349 158.375-103.936l299.086 184.308L1177.3 446.036l227.37 45.227 271.14-455.16ZM396.671 685.564a.555.555 0 0 1 .101-.028 1.145 1.145 0 0 1-.101.028Z" fill="url(#i)"/><defs><clipPath id="a"><path fill="#fff" d="M0 0h1714v909H0z"/></clipPath><clipPath id="d"><path fill="#fff" transform="translate(0 227)" d="M0 0h1360v682H0z"/></clipPath><clipPath id="f"><path fill="#fff" d="M0 0h1753v909H0z"/></clipPath><linearGradient id="h" x1="1322.01" y1="454.092" x2="40.436" y2="869.907" gradientUnits="userSpaceOnUse"><stop stop-color="#1BBD8C"/><stop offset=".613" stop-color="#39404B"/></linearGradient><linearGradient id="i" x1="1315.59" y1="432.629" x2="33.777" y2="848.285" gradientUnits="userSpaceOnUse"><stop offset=".309" stop-color="#1BBD8C"/><stop offset="1" stop-color="#CDCDCD"/></linearGradient><filter id="b" x="-100" y="12" width="1640" height="1027" filterUnits="userSpaceOnUse" color-interpolation-filters="sRGB"><feFlood flood-opacity="0" result="BackgroundImageFix"/><feColorMatrix in="SourceAlpha" values="0 0 0 0 0 0 0 0 0 0 0 0 0 0 0 0 0 0 127 0" result="hardAlpha"/><feOffset dy="30"/><feGaussianBlur stdDeviation="50"/><feComposite in2="hardAlpha" operator="out"/><feColorMatrix values="0 0 0 0 0 0 0 0 0 0 0 0 0 0 0 0 0 0 0.1 0"/><feBlend in2="BackgroundImageFix" result="effect1_dropShadow_18_380"/><feBlend in="SourceGraphic" in2="effect1_dropShadow_18_380" result="shape"/></filter><filter id="g" x="-53.001" y="-6.001" width="1794" height="880.002" filterUnits="userSpaceOnUse" color-interpolation-filters="sRGB"><feFlood flood-opacity="0" result="BackgroundImageFix"/><feBlend in="SourceGraphic" in2="BackgroundImageFix" result="shape"/><feGaussianBlur stdDeviation="25" result="effect1_foregroundBlur_18_380"/></filter></defs></svg>