<svg width="80" height="30" fill="none" xmlns="http://www.w3.org/2000/svg"><g clip-path="url(#a)"><path d="M57.195 8.431c.67-.687 2.804-2.863 4.748-4.84L65.48 0l3.379.012c1.864.009 3.396.025 3.412.042.013.017-.046.12-.133.229-.087.112-2.047 2.102-4.361 4.424-2.31 2.326-4.382 4.407-4.994 5.03l.188.221c.1.12.457.529.79.908l2.497 2.83c1.04 1.177 2.593 2.937 3.454 3.91.857.975 1.723 1.957 1.918 2.186.181.212.359.427.533.645.13.17.162.237.12.258-.028.016-.72.033-1.53.029-.812 0-2.293-.017-5.098-.071l-.125-.141-3.038-3.409a2867.586 2867.586 0 0 0-4.286-4.802c-.758-.849-1.569-1.76-1.802-2.03-.233-.267-.425-.513-.425-.542 0-.025.546-.612 1.216-1.298Z" fill="#118260"/><path d="M.283 1.315A32.05 32.05 0 0 1 .029.179L0 0l2.71.012c1.726.009 2.72.03 2.75.055.025.025.07.154.1.29.033.138.25 1.158.482 2.269.283 1.346.567 2.691.853 4.036.238 1.111.47 2.227.52 2.476.05.25.217 1.049.375 1.769s.354 1.656.437 2.08c.083.425.162.808.175.854.017.066.029.07.054.02.017-.033.358-1.394.762-3.016l.804-3.264.431-1.751c.219-.886.513-2.088.735-2.991l.164-.67c.217-.883.429-1.728.558-2.165l2.722.013c1.498.004 2.734.016 2.746.029.012.012.083.229.15.478.07.254.736 2.988 1.481 6.076l.602 2.5.002.005a2597.56 2597.56 0 0 0 1.14 4.715c.012.033.029.054.041.042a25.5 25.5 0 0 0 .246-1.04c.125-.563.296-1.357.379-1.77.079-.411.316-1.527.52-2.475l1.063-4.985.002-.01c.383-1.797.712-3.324.729-3.39.024-.096.066-.134.17-.159.075-.016 1.203-.029 2.51-.029 1.302 0 2.471.017 2.808.063l-.025.145c-.01.07-.145.641-.305 1.323l-.065.28-.514 2.142c-.13.541-.264 1.094-.38 1.582a913.75 913.75 0 0 0-.75 3.142c-.433 1.832-.87 3.663-1.31 5.493l-.134.556c-.555 2.319-1.046 4.37-1.12 4.687-.078.345-.19.778-.349 1.31l-6.055-.003-1.26-5.065c-.407-1.628-.845-3.391-1.193-4.795l-.002-.006-.004-.02-.558-2.24a81.236 81.236 0 0 0-.54-2.123c-.021-.066-.05-.116-.059-.104-.012.013-.487 1.923-1.06 4.245a3211.59 3211.59 0 0 0-2.252 9.176c-.067.274-.15.599-.25.936H4.877l-.041-.196c-.021-.112-.275-1.181-.562-2.384a993.561 993.561 0 0 1-.795-3.35c-.315-1.34-.633-2.678-.953-4.016-.375-1.569-.74-3.113-.811-3.433-.071-.32-.233-1.003-.358-1.519-.103-.41-.274-1.135-.426-1.776L.82 3.582l-.234-.987v-.001l-.303-1.28Zm31.394 19.413V.004h5.784v20.662l-.882.033c-.487.017-1.79.029-4.902.029ZM40.748 4.24c0 2.327.016 6.992.033 10.362l.029 6.13c4.432-.017 5.73-.042 5.75-.058.022-.021.038-1.74.047-3.82l.008-3.783 7.72 7.657c4.839 0 6.341-.013 6.462-.03.12-.016.22-.05.22-.074 0-.021-.183-.237-.403-.479-.22-.241-.778-.828-1.24-1.306-.363-.383-1.2-1.25-2.04-2.12l-.648-.673a1887.376 1887.376 0 0 1-3.746-3.89 437.87 437.87 0 0 1-2.101-2.198l-.208-.22 1.304-1.314.011-.01c.974-.981 2.291-2.308 3.683-3.707C57.848 2.472 59.774.52 59.912.367c.137-.155.233-.296.216-.313-.02-.017-1.56-.033-3.42-.037L53.315.004l-6.554 6.588c-.038-1.057-.05-2.539-.054-3.974L46.699.004h-5.95V4.24ZM74.072 18.64c-.017-1.149-.033-5.813-.033-10.362V.008h5.825v20.724h-5.763l-.03-2.093Zm-16.524 10.58v-5.504h2.972c.918 0 1.54.174 1.866.52.326.347.49 1.011.49 1.992 0 1.194-.146 1.99-.438 2.391-.288.4-.867.601-1.735.601H57.55Zm.724-.524h2.093c.768 0 1.263-.132 1.485-.395.223-.264.334-.851.334-1.762 0-1-.097-1.633-.291-1.9-.192-.265-.652-.399-1.383-.399h-2.238v4.456Zm9.512-.641h-3.249l-.494 1.165h-.766l2.35-5.504h1.016l2.398 5.504h-.757l-.498-1.165Zm-.212-.468-1.424-3.363-1.406 3.363h2.83Zm4.363-3.294v4.927h-.724v-4.927H69.12v-.577h4.89v.577h-2.074Zm6.662 3.762H75.35l-.494 1.165h-.766l2.35-5.504h1.016l2.398 5.504h-.757l-.499-1.165Zm-.211-.468-1.425-3.363-1.406 3.363h2.83Z" fill="#E8E8DE"/></g><defs><clipPath id="a"><path fill="#fff" d="M0 0h80v29.249H0z"/></clipPath></defs></svg>