<svg width="506" height="132" fill="none" xmlns="http://www.w3.org/2000/svg"><path d="M361.756 53.326c4.237-4.343 17.74-18.109 30.032-30.611L414.16 0l21.373.079c11.792.053 21.478.158 21.583.263.079.105-.29.763-.842 1.448-.553.71-12.95 13.292-27.585 27.979-14.608 14.713-27.715 27.874-31.585 31.822l1.185 1.395c.632.763 2.895 3.343 5.001 5.738 2.105 2.395 9.212 10.45 15.792 17.898 6.58 7.449 16.398 18.582 21.847 24.741 5.422 6.16 10.896 12.371 12.133 13.819a190.6 190.6 0 0 1 3.37 4.08c.815 1.079 1.026 1.5.763 1.631-.184.106-4.554.211-9.686.185-5.133 0-14.503-.106-32.243-.448l-.79-.895c-.447-.5-9.081-10.186-19.214-21.556a17774.917 17774.917 0 0 0-27.111-30.375c-4.79-5.37-9.922-11.133-11.396-12.844-1.474-1.685-2.685-3.238-2.685-3.422 0-.158 3.448-3.87 7.686-8.212Z" fill="#118260"/><path d="M1.79 8.317C1 5.001.29 1.764.184 1.132L0 0l17.135.079c10.923.053 17.214.184 17.398.342.158.158.447.974.632 1.843.21.868 1.579 7.317 3.053 14.344a8814.192 8814.192 0 0 0 5.396 25.532c1.5 7.027 2.974 14.081 3.29 15.66.316 1.58 1.368 6.633 2.369 11.187 1 4.553 2.237 10.476 2.763 13.16.527 2.685 1.027 5.106 1.106 5.396.105.421.184.447.342.132.105-.21 2.264-8.818 4.817-19.083 1.533-6.23 3.435-13.943 5.088-20.645l2.729-11.072c1.38-5.602 3.244-13.204 4.645-18.919l1.04-4.243C73.172 8.133 74.514 2.79 75.33.026l17.214.08c9.476.026 17.293.105 17.372.184.079.078.526 1.447.947 3.026.448 1.606 4.659 18.899 9.371 38.429l3.809 15.815v.003l.006.024a16515.7 16515.7 0 0 0 5.923 24.56c.632 2.685 1.211 5.054 1.29 5.264.079.211.184.343.263.264.053-.08.763-3.027 1.553-6.58.79-3.554 1.869-8.581 2.395-11.187.5-2.606 2.001-9.66 3.29-15.66 1.288-5.992 4.307-20.167 6.726-31.528l.013-.058c2.421-11.37 4.5-21.03 4.606-21.451.158-.606.421-.843 1.079-1 .474-.106 7.607-.185 15.871-.185 8.239 0 15.635.106 17.767.395l-.158.921c-.07.441-.917 4.056-1.929 8.37l-.414 1.764c-.737 3.093-1.972 8.225-3.253 13.55l-.001.007c-.823 3.417-1.664 6.914-2.405 10a5692.832 5692.832 0 0 0-4.737 19.872 8244.502 8244.502 0 0 1-8.291 34.744l-.843 3.521c-3.51 14.665-6.617 27.643-7.08 29.643-.5 2.185-1.211 4.922-2.211 8.291l-38.297-.026-7.975-32.033c-2.571-10.298-5.34-21.452-7.543-30.328l-.01-.04-.03-.124c-1.546-6.226-2.81-11.314-3.524-14.174-1.711-6.949-3.264-13.003-3.422-13.424-.132-.42-.316-.737-.368-.658-.08.08-3.08 12.16-6.712 26.847a20329.443 20329.443 0 0 0-14.24 58.038c-.421 1.737-.948 3.79-1.58 5.922H30.849l-.263-1.237c-.132-.711-1.737-7.475-3.553-15.082a6310.024 6310.024 0 0 1-5.028-21.188 7937.586 7937.586 0 0 0-6.027-25.4c-2.37-9.923-4.685-19.688-5.133-21.714-.447-2.027-1.474-6.344-2.263-9.607-.65-2.598-1.733-7.179-2.692-11.236v-.003l-.704-2.975-1.477-6.244-.001-.006c-.734-3.102-1.453-6.144-1.917-8.095ZM200.354 131.104V.026h36.586V130.71l-5.58.211c-3.079.105-11.318.184-31.006.184ZM257.734 26.82c0 14.714.105 44.22.21 65.54l.184 38.77c28.032-.105 36.244-.263 36.376-.368.131-.132.237-11.002.289-24.163l.053-23.925 48.825 48.43c30.611 0 40.113-.079 40.876-.184.764-.105 1.395-.316 1.395-.474 0-.132-1.158-1.5-2.553-3.027-1.395-1.526-4.922-5.238-7.843-8.265-2.297-2.421-7.589-7.905-12.898-13.406l-4.106-4.255c-6.422-6.659-17.108-17.74-23.688-24.61-6.607-6.87-12.582-13.134-13.292-13.897l-1.316-1.395c1.755-1.765 4.623-4.654 8.251-8.308l.068-.069c6.159-6.203 14.493-14.596 23.292-23.445 14.029-14.134 26.215-26.479 27.084-27.453.869-.974 1.474-1.869 1.369-1.974-.132-.105-9.871-.21-21.636-.237L337.222.026l-41.455 41.666c-.237-6.685-.316-16.055-.342-25.136l-.053-16.53h-37.638v26.795ZM468.511 117.891c-.106-7.265-.211-36.77-.211-65.539V.052h36.849V131.13h-36.454l-.184-13.239Z" fill="#E8E8DE"/></svg>