<svg width="324" height="362" viewBox="0 0 324 362" fill="none" xmlns="http://www.w3.org/2000/svg">
<path d="M230.656 63.0586C230.75 64.2891 230.914 81.8359 205.199 80.3008C204.191 80.2422 202.957 79.8477 202.031 79.9531C249.316 48.2539 198.652 37.9922 194.09 23.6328C193.633 29.8164 196.129 31.7734 198.488 37.3711C200.754 42.7617 200.297 45.2305 200.297 45.2305C200.297 45.2305 175.016 27.8125 179.109 11.4727C179.355 10.5117 169.668 18.2188 171.719 31.9375C173.359 42.8555 174.137 60.4492 145.594 64.2188C129.992 66.2812 87.6797 75.4531 90.2266 97.6641C92.7695 119.859 136.562 117.164 136.562 117.164C148.598 117.164 143.414 107.07 136.293 103.648C123.973 98.0391 123.949 84.4023 154.887 78.4531C139.496 88.0234 141.758 93.2578 153.359 99.3945C166.5 106.227 154.664 117.082 160.363 117.094C164.797 117.281 172.562 117.316 176.68 117.316C183.789 117.199 149.969 101.246 185.059 80.9336C168.457 104.691 189.973 115.457 193.316 115.609C196.66 115.75 182.078 101.809 210.816 95.5664C240.531 89.1016 230.656 63.0586 230.656 63.0586ZM160.574 26.1719C166.453 40.6406 156.891 51.3594 147.191 54.2031C138.531 56.7461 128.703 57.3672 122.355 59.6055C115.832 61.9102 108.902 68.2266 108.902 68.2266C108.902 68.2266 108.266 61.5273 116.184 53.2773C125.605 44.6211 133.852 45.7109 141.477 37.4414C148.223 30.1094 142.355 24.3359 142.953 15.8438C143.391 9.53906 145.711 4.69141 150.484 0.976562C148.504 10.0781 155.754 14.3203 160.574 26.1719ZM113.734 6.4375C127.563 3.73047 145.5 29.1953 123.867 38.0977C103.668 46.4023 102.965 64.6055 102.965 64.6055C102.965 64.6055 92.2891 45.8984 117.09 30.4727C129.219 22.9297 120.563 11.2148 113.734 6.4375Z" fill="#F9423A"/>
<path d="M222.949 144.996C222.844 139.738 213.703 137.734 211.238 137.043H159.684C156.996 137.031 161.043 144.973 162.992 144.973C164.984 144.973 222.949 144.996 222.949 144.996ZM129.289 134.398L209.281 134.41C208.051 129.512 204.016 128.844 204.016 128.844L159.344 128.832C157.195 128.82 157.383 130.742 157.477 132.195H130.602C129.09 132.207 129.289 134.398 129.289 134.398ZM138.426 126.688L201.574 126.676C200.613 122.051 198.805 121.547 198.805 121.547H158.758C157.582 121.547 156.551 122.191 156.832 124.758C149.313 124.758 141.699 124.758 139.531 124.77C138.332 124.77 138.426 126.688 138.426 126.688ZM127.246 122.168C127.246 122.168 125.312 122.016 124.023 126.535C122.496 128.293 119.023 124.266 114.648 133.555C101.383 135.102 99.8555 143.594 101.852 144.574C102.602 144.867 102.508 144.691 102.508 144.691C103.117 139.316 113.102 135.836 115.949 135.145C119.504 125.52 123.305 129.207 124.68 127.32C125.594 122.707 127.246 122.168 127.246 122.168ZM106.742 152.812C108.477 154.344 108.066 153.793 109.711 155.48C115.387 161.949 111.492 174.738 132.738 181.379C132.738 181.379 133.242 184.918 135.012 184.93C136.785 184.93 187.016 184.953 189.152 184.93C191.285 184.883 191.801 181.379 191.801 181.379C213.047 174.738 209.164 161.949 214.84 155.48C216.496 153.805 216.074 154.344 217.809 152.812C221.187 149.918 223.723 147.223 221.938 147.223C220.18 147.234 103.105 147.223 103.105 147.223C100.148 147.141 103.363 149.918 106.742 152.812ZM114.367 149.379L166.688 149.543C166.688 149.543 177.961 151.418 181.363 159.852C185.105 171.191 170.535 174.82 157.594 177.48C150.426 178.957 144.188 181.602 140.82 181.613C138.273 181.625 136.504 178.078 136.504 178.078C117.91 172.207 117.5 162.801 115.562 157.145C113.617 151.477 109.289 149.379 114.367 149.379ZM135.953 188.762C135.953 189.617 136.387 190.305 136.914 190.305H187.18C187.719 190.305 188.141 189.617 188.141 188.762C188.141 187.895 187.719 187.191 187.18 187.191H136.914C136.398 187.203 135.953 187.895 135.953 188.762ZM149.863 241.062C147.953 241.062 147.402 241.074 145.488 241.074L150.664 288.059C152.117 288.562 151.859 288.48 153.523 288.949L149.863 241.062ZM153.5 241.062C155.285 241.062 157.664 241.051 160.164 241.051L160.785 290.027C158.301 289.922 156.246 289.582 155.25 289.418L153.5 241.062ZM161.957 338.941C157.617 338.941 156.363 338.062 156.363 338.062L158.594 358C158.594 358 159.027 361.152 162.066 361.152C165.102 361.152 165.617 357.988 165.617 357.988L167.754 338.062C167.742 338.062 166.313 338.941 161.957 338.941ZM163.25 290.039C165.664 289.969 167.801 289.652 168.797 289.5L170.523 241.062C168.738 241.051 166.359 241.051 163.871 241.051L163.262 289.746L163.25 290.039ZM174.277 241.098L170.77 288.973C172.223 288.621 172.199 288.621 173.527 288.152L178.617 241.156C176.715 241.133 176.176 241.121 174.277 241.098Z" fill="#AD841F"/>
<path d="M264.414 56.0664C261.602 54.0625 258.855 55.0352 256.367 57.543C253.035 60.8945 252.859 64.3477 255.371 66.9258L262.176 73.8945L281.719 54.2148L278.035 50.4453L269.941 58.5859L268.992 57.6133C266.152 54.7188 268.32 52.9258 270.656 50.5859C271.934 49.3086 273.355 48.0664 274.059 46.3789L270.445 42.6797C269.977 43.8477 266.363 47.6211 265.133 48.875C261.613 52.4258 263.781 55.082 264.473 56.0195L264.414 56.0664ZM265.297 59.9453L266.926 61.6211L261.484 67.1016L259.852 65.4258C258.68 64.2188 258.68 62.8008 260.543 60.9062C261.801 59.6523 263.828 58.4453 265.297 59.9453Z" fill="#0072CE"/>
<path d="M63.7852 255.656L57.9062 249.098L37.6016 267.945L43.3477 274.328C49.3906 281.031 56.1367 273.965 59.2422 271.062C65.5664 265.191 68.418 260.789 63.7852 255.656ZM55.5469 267.195C50.457 271.93 48.1016 273.25 45.9414 270.875L44.2422 268.977L58.293 255.926L60.125 257.953C62.5859 260.672 59.2891 263.727 55.5469 267.195Z" fill="#0072CE"/>
<path d="M34.4102 232.734L40.3594 229.453L44.3828 236.961L48.1016 234.914L41.5898 222.719L17.4102 236.07L24.0508 248.5L27.7695 246.438L23.6289 238.684L30.6797 234.785L34.3867 241.719L38.1055 239.656L34.4102 232.734Z" fill="#0072CE"/>
<path d="M78.1875 268.766C71.5039 263.25 67.1289 268.707 62.5273 274.445C57.9883 280.117 53.5547 285.645 60.2539 291.16C66.9492 296.691 71.3633 291.16 75.9141 285.504C80.5117 279.766 84.8867 274.293 78.1875 268.766ZM71.8086 282.105C67.3633 287.66 65.1445 289.816 62.8555 287.93C60.582 286.043 62.2109 283.395 66.6445 277.844C71.0938 272.293 73.3086 270.137 75.5977 272.023C77.8828 273.895 76.2539 276.555 71.8086 282.105Z" fill="#0072CE"/>
<path d="M242.34 56.1484C249.211 61.4453 253.402 55.832 257.801 49.9297C262.152 44.1055 266.387 38.4258 259.512 33.1445C252.637 27.8477 248.402 33.5313 244.051 39.3516C239.652 45.2422 235.465 50.8555 242.34 56.1484ZM248.273 42.5977C252.531 36.8906 254.68 34.6641 257.023 36.457C259.371 38.2734 257.836 40.9688 253.578 46.6719C249.316 52.3906 247.172 54.6133 244.824 52.8086C242.48 51.0078 244.016 48.3008 248.273 42.5977Z" fill="#0072CE"/>
<path d="M146.18 298.789L129.582 295.707L128.773 300.273L134.484 301.34L130.367 324.266L135.52 325.227L139.637 302.289L145.359 303.367L146.18 298.789Z" fill="#0072CE"/>
<path d="M18.6797 99.3828L26.0586 102.641L22.9727 109.867L26.8438 111.578L29.9414 104.352L36.1562 107.094L32.8047 114.93L36.6875 116.641L42.1172 103.93L16.8828 92.8008L11.3359 105.77L15.2188 107.48L18.6797 99.3828Z" fill="#0072CE"/>
<path d="M121.887 292.742C115.82 290.777 112.996 293.504 111.668 297.664C109.172 305.594 119.105 309.145 117.605 313.934C117.031 315.75 115.82 316.687 114.145 316.148C111.398 315.246 111.973 313.078 112.785 310.535L107.797 308.922C106.098 313.441 105.969 317.871 112.137 319.871C115.926 321.113 120.703 321.77 122.883 314.871C125.523 306.508 115.352 303.684 116.949 298.625C117.523 296.785 118.801 296.105 120.422 296.633C122.437 297.289 122.086 299.422 121.465 301.398L126.309 302.969C128.375 297.535 126.742 294.312 121.887 292.742Z" fill="#0072CE"/>
<path d="M45.168 98.2266L30.2227 84.0039L30.2578 83.9453L49.4141 90.9727L52.2188 86.2305L25.4258 77.2812L22.2812 82.6328L42.5156 102.734L45.168 98.2266Z" fill="#0072CE"/>
<path d="M102.414 290.016L110.039 293.645L111.832 289.77L99.4805 283.863L87.7734 309.145L100.371 315.164L102.18 311.285L94.3086 307.527L97.7227 300.137L104.746 303.484L106.543 299.598L99.5273 296.234L102.414 290.016Z" fill="#0072CE"/>
<path d="M27.4883 224.91C35.5117 221.828 39.7578 218.793 37.332 212.281L34.2461 203.988L8.51953 213.875L11.5352 221.969C14.6914 230.484 23.5234 226.445 27.4883 224.91ZM15.207 219.742L14.3164 217.344L32.1328 210.488L33.0977 213.066C34.3867 216.523 30.2109 218.125 25.4727 219.941C19.0078 222.414 16.332 222.777 15.207 219.742Z" fill="#0072CE"/>
<path d="M154.074 218.477C153.98 220.34 153.781 221.898 153.488 223.129C153.184 224.359 152.785 225.402 152.27 226.246C151.813 226.957 151.145 227.473 150.285 227.766C149.43 228.07 147.871 228.211 145.605 228.211H139.73V216.992H141.055C142.59 216.992 143.637 217.379 144.176 218.125C144.715 218.875 145.02 220.516 145.09 223.047H149.195V206.602H145.09V206.918C145.09 208.918 144.785 210.312 144.176 211.086C143.566 211.871 142.508 212.27 141.008 212.27H139.73V202.371H144.996C146.992 202.371 148.445 202.512 149.336 202.805C150.238 203.086 150.992 203.578 151.625 204.27C152.164 204.867 152.633 205.652 153.008 206.637C153.383 207.621 153.746 208.988 154.086 210.734H159.309V197.301H124.633V202.359H126.238C127.422 202.359 128.152 202.523 128.469 202.852C128.797 203.18 128.961 204.047 128.961 205.453V225.379C128.961 226.703 128.785 227.508 128.445 227.789C128.105 228.07 127.387 228.199 126.297 228.199H124.645V233.32H159.508V218.477H154.074Z" fill="#0072CE"/>
<path d="M12.9062 128.562C17.6719 129.945 18.9023 126.723 19.3594 125.648L19.4297 125.672C19.0781 129.16 21.2578 131.117 24.625 132.102C29.1328 133.414 32.168 131.891 33.1562 128.398L35.8281 118.969L9.38672 111.25L7.94531 116.348L18.9023 119.543L18.5273 120.867C17.4102 124.793 14.8203 123.738 11.6641 122.812C9.95313 122.32 8.19141 121.652 6.39844 121.863L4.97656 126.863C6.21094 126.723 11.2188 128.07 12.9062 128.562ZM22.3281 123L22.9727 120.738L30.3281 122.883L29.6836 125.145C29.2266 126.758 27.9922 127.473 25.4609 126.734C23.7812 126.242 21.7539 125.039 22.3281 123Z" fill="#0072CE"/>
<path d="M9 149.461C17.5781 150.703 18.6211 140.055 23.7813 140.816C25.6719 141.086 26.5391 142.246 26.3047 143.957C26 146.086 23.875 146.098 21.8477 145.781L21.1172 150.902C26.75 152.086 29.6133 149.906 30.3398 144.785C31.2422 138.379 28.1211 136 23.8633 135.379C15.7578 134.188 13.9414 144.727 9.04688 144.016C7.19531 143.746 6.06641 142.691 6.32813 140.91C6.73828 138.016 8.92969 138.238 11.5352 138.625L12.2852 133.367C7.60547 132.406 3.28906 133.004 2.36328 139.516C1.79688 143.523 1.94922 148.418 9 149.461Z" fill="#0072CE"/>
<path d="M56.4766 80.8867L34.3984 64.1953L31.2773 68.4727L53.3438 85.1406L56.4766 80.8867Z" fill="#0072CE"/>
<path d="M1.10938 159.375L1.33984 154.059L28.8359 155.254L28.6016 160.566L1.10938 159.375Z" fill="#0072CE"/>
<path d="M73.3438 62.2031L77.4727 58.9375L65.707 43.625C63.832 41.1797 63.6328 39.1875 65.4258 37.7578C66.9258 36.5742 68.793 36.8203 70.8828 39.5273L82.6367 54.8594L86.7656 51.5938L74.7656 35.9531C71.5742 31.8086 67.375 30.9062 62.8438 34.5C57.8125 38.4844 58.8203 43.2773 61.3555 46.5781L73.3438 62.2031Z" fill="#0072CE"/>
<path d="M30.8555 189.242L2.50391 188.234L3.58203 193.363L9.84375 193.469L11.3477 200.555L5.67969 203.238L6.83203 208.695L32.2852 196.082L30.8555 189.242ZM15.2422 198.555L14.1992 193.598L26.3281 193.434L26.3398 193.504L15.2422 198.555Z" fill="#0072CE"/>
<path d="M61.6836 74.3867L47.793 61.1406L47.8516 61.0938L66.293 69.4102L71.1172 64.1836L51.0781 45.0547L47.7227 48.6641L62.3867 62.6602L62.3398 62.707L43.0078 53.7695L38.293 58.8789L58.3516 78.0078L61.6836 74.3867Z" fill="#0072CE"/>
<path d="M15.8164 182.211C24.3672 181.648 29.3203 180.035 28.8828 173.086L28.3203 164.242L0.859375 166.023L1.39844 174.656C1.97266 183.711 11.6055 182.492 15.8164 182.211ZM24.4375 169.82L24.6016 172.559C24.8359 176.238 20.3906 176.531 15.3359 176.859C8.44922 177.305 5.78516 176.848 5.58594 173.613L5.42188 171.062L24.4375 169.82Z" fill="#0072CE"/>
<path d="M98.6484 234.41C103.551 234.41 107.293 233.414 109.852 231.41C112.395 229.406 113.664 226.492 113.664 222.637V205.277C113.664 203.977 113.828 203.168 114.145 202.852C114.473 202.523 115.211 202.371 116.371 202.371H117.887V197.312H102.566V202.371H104.242C105.406 202.371 106.145 202.535 106.461 202.84C106.789 203.156 106.941 204.012 106.941 205.441V221.758C106.941 224.266 106.461 226.07 105.488 227.168C104.512 228.27 102.906 228.82 100.664 228.82C98.7773 228.82 97.4414 228.27 96.6523 227.156C95.8672 226.035 95.4688 224.09 95.4688 221.312V205.441C95.4688 204.082 95.6328 203.227 95.9609 202.887C96.2891 202.535 97.0508 202.371 98.2383 202.371H100.066V197.312H80.1484V202.371H81.8242C83 202.371 83.7383 202.547 84.0898 202.887C84.418 203.215 84.5938 204.07 84.5938 205.441V223.094C84.5938 226.691 85.8125 229.488 88.2656 231.469C90.7188 233.438 94.1797 234.41 98.6484 234.41Z" fill="#0072CE"/>
<path d="M272.453 240.16L295.48 255.457L298.34 251.008L275.301 235.723L272.453 240.16Z" fill="#0072CE"/>
<path d="M150.52 299.012L141.957 326.492L147.109 326.809L148.891 320.703L156.012 321.137L157.031 327.406L162.523 327.746L157.406 299.434L150.52 299.012ZM150.18 316.477L153.277 304.562L153.348 304.574L155.168 316.781L150.18 316.477Z" fill="#0072CE"/>
<path d="M278.914 255.363L278.855 255.316C280.512 252.262 279.254 249.578 276.523 247.352C272.875 244.355 269.484 244.555 267.242 247.375L261.168 255.012L282.551 272.586L285.836 268.461L276.98 261.176L277.824 260.109C280.348 256.934 282.34 258.937 284.887 261.023C286.27 262.16 287.645 263.461 289.379 263.984L292.605 259.934C291.41 259.594 287.312 256.359 285.953 255.246C282.117 252.086 279.746 254.566 278.914 255.363ZM275.16 256.641L273.707 258.48L267.746 253.586L269.215 251.746C270.27 250.434 271.664 250.27 273.707 251.945C275.066 253.07 276.477 255 275.16 256.641Z" fill="#0072CE"/>
<path d="M241.633 272.164C234.727 277.41 238.879 283.043 243.242 288.973C247.559 294.84 251.77 300.543 258.668 295.285C265.578 290.039 261.379 284.344 257.074 278.477C252.684 272.551 248.531 266.914 241.633 272.164ZM256.203 291.934C253.848 293.727 251.711 291.477 247.488 285.75C243.277 280 241.75 277.305 244.098 275.512C246.457 273.719 248.602 275.969 252.812 281.699C257.035 287.426 258.551 290.145 256.203 291.934Z" fill="#0072CE"/>
<path d="M307.656 186.898C299.27 185.059 294.082 185.27 292.641 192.086L290.797 200.754L317.695 206.625L319.492 198.156C321.379 189.289 311.785 187.801 307.656 186.898ZM315.211 198.016L314.672 200.531L296.043 196.469L296.617 193.785C297.379 190.168 301.742 191.113 306.707 192.191C313.438 193.668 315.867 194.84 315.211 198.016Z" fill="#0072CE"/>
<path d="M280.781 101.691L297.988 93.3867L298.012 93.4453L283.656 107.852L286.691 114.344L311.539 102.348L309.449 97.8633L291.27 106.637L291.242 106.578L306.484 91.5352L303.527 85.2109L278.68 97.207L280.781 101.691Z" fill="#0072CE"/>
<path d="M297.297 223.773C290.809 220.422 284.629 217.227 280.711 225.027C276.805 232.84 282.973 236.047 289.473 239.387C295.891 242.703 302.141 245.922 306.047 238.109C309.953 230.297 303.715 227.074 297.297 223.773ZM302.387 236.223C301.051 238.895 298.152 237.828 291.879 234.586C285.602 231.34 283.043 229.594 284.383 226.922C285.719 224.254 288.605 225.32 294.891 228.562C301.168 231.809 303.715 233.566 302.387 236.223Z" fill="#0072CE"/>
<path d="M318.918 168.66L318.25 177.469L310.234 176.848L310.824 168.988L306.613 168.66L306.012 176.508L299.258 175.992L299.891 167.465L295.68 167.125L294.645 180.961L322.074 183.09L323.141 168.988L318.918 168.66Z" fill="#0072CE"/>
<path d="M313.859 133.32L292.992 136.551L293.777 141.801L315.035 138.52C316.195 138.344 317.496 139 317.672 140.172C318.086 142.926 314.777 142.973 312.594 143.301L313.402 148.664C319.574 147.703 322.848 146.883 321.746 139.539C321.18 135.824 318.613 132.582 313.859 133.32Z" fill="#0072CE"/>
<path d="M291.043 128.715L319.387 127.543L317.922 122.52L311.668 122.895L309.648 115.938L315.105 112.844L313.543 107.469L289.074 122.004L291.043 128.715ZM305.918 118.23L307.34 123.094L295.258 124.184L295.234 124.125L305.918 118.23Z" fill="#0072CE"/>
<path d="M225.598 283.148L217.914 287.355L230.961 311.965L238.457 307.855C246.328 303.555 241.223 295.18 239.219 291.406C235.16 283.723 231.641 279.848 225.598 283.148ZM235.781 304.445L233.551 305.664L224.52 288.609L226.902 287.309C230.102 285.551 232.215 289.535 234.621 294.078C237.879 300.254 238.598 302.91 235.781 304.445Z" fill="#0072CE"/>
<path d="M267.559 80.7812L288.945 63.2109L285.66 59.0898L264.262 76.6602L267.559 80.7812Z" fill="#0072CE"/>
<path d="M174.172 298.918L165.477 299.68L167.848 327.523L176.352 326.773C185.258 325.988 183.824 316.242 183.473 311.965C182.711 303.297 181.012 298.32 174.172 298.918ZM175.203 322.566L172.68 322.789L171.039 303.508L173.738 303.262C177.352 302.945 177.738 307.457 178.172 312.586C178.781 319.555 178.383 322.285 175.203 322.566Z" fill="#0072CE"/>
<path d="M193.176 295.285C184.785 297.324 186.395 304.176 188.094 311.367C189.773 318.469 191.402 325.402 199.789 323.363C208.18 321.313 206.547 314.402 204.871 307.281C203.18 300.102 201.551 293.246 193.176 295.285ZM198.828 319.297C195.965 320 194.887 317.074 193.246 310.102C191.602 303.145 191.25 300.043 194.125 299.352C196.988 298.648 198.078 301.574 199.707 308.547C201.363 315.504 201.703 318.609 198.828 319.297Z" fill="#0072CE"/>
<path d="M207.699 223.152H204.344C204.344 223.293 204.355 223.504 204.367 223.797C204.379 224.066 204.391 224.277 204.391 224.395C204.391 225.637 204.273 226.574 204.062 227.18C203.852 227.801 203.52 228.094 203.074 228.094C202.605 228.094 202.277 227.848 202.078 227.344C201.879 226.855 201.785 225.953 201.785 224.664C201.785 220.375 201.387 217.637 200.59 216.441C199.789 215.258 198.277 214.496 196.023 214.203C198.266 213.711 199.977 212.762 201.199 211.367C202.418 209.996 203.027 208.289 203.027 206.273C203.027 203.262 202.043 201.012 200.062 199.523C198.078 198.039 195.086 197.301 191.062 197.301H168.328V202.406H169.984C171.156 202.406 171.895 202.57 172.223 202.898C172.551 203.227 172.703 204.082 172.703 205.465V225.098C172.703 226.504 172.539 227.379 172.211 227.707C171.883 228.047 171.133 228.211 169.984 228.211H168.328V233.332H188.188V228.211H186.324C185.187 228.211 184.457 228.035 184.117 227.707C183.789 227.379 183.625 226.516 183.625 225.098V217.051H186.57C188.422 217.051 189.645 217.379 190.219 218.031C190.816 218.676 191.098 220.211 191.098 222.602V225.625C191.098 228.609 191.777 230.777 193.152 232.148C194.512 233.508 196.707 234.199 199.684 234.199C202.5 234.199 204.543 233.438 205.809 231.914C207.074 230.391 207.711 227.941 207.711 224.582C207.711 224.43 207.699 224.195 207.688 223.867C207.711 223.539 207.699 223.305 207.699 223.152ZM190.699 211.086C189.879 211.789 188.445 212.152 186.43 212.152H183.543V202.641H186.781C188.695 202.641 190.031 203.004 190.781 203.73C191.543 204.469 191.93 205.734 191.93 207.551C191.93 209.211 191.52 210.383 190.699 211.086Z" fill="#0072CE"/>
<path d="M293.461 77.0352L286.762 81.5547L282.469 74.9844L278.949 77.3516L283.23 83.9219L277.59 87.7305L272.934 80.6055L269.414 82.9727L276.957 94.5352L299.891 79.0859L292.184 67.3008L288.652 69.668L293.461 77.0352Z" fill="#0072CE"/>
<path d="M232.66 233.566C234.387 233.004 235.816 232.137 236.977 230.977C237.984 229.98 238.703 228.773 239.137 227.355C239.57 225.941 239.781 223.914 239.781 221.254V205.172C239.781 203.859 239.957 203.051 240.285 202.77C240.613 202.488 241.328 202.359 242.422 202.359H243.957V197.301H224.25V202.359H226.09C227.266 202.359 228.004 202.523 228.32 202.84C228.648 203.168 228.801 204.023 228.801 205.441V220.727C228.801 223.961 228.449 226.117 227.746 227.203C227.043 228.27 225.785 228.797 223.98 228.797C223.09 228.797 222.312 228.586 221.656 228.152C221 227.719 220.473 227.051 220.074 226.188C220.332 226.246 220.566 226.281 220.789 226.305C221.023 226.328 221.234 226.34 221.445 226.34C222.699 226.34 223.699 225.906 224.473 225.027C225.246 224.148 225.621 222.988 225.621 221.559C225.621 220.047 225.199 218.828 224.344 217.938C223.5 217.039 222.348 216.594 220.883 216.594C218.934 216.594 217.34 217.297 216.133 218.699C214.91 220.105 214.301 221.945 214.301 224.207C214.301 227.203 215.441 229.641 217.715 231.551C220.004 233.461 222.961 234.398 226.605 234.398C228.906 234.41 230.938 234.141 232.66 233.566Z" fill="#0072CE"/>
</svg>
