<svg width="335" height="85" fill="none" xmlns="http://www.w3.org/2000/svg"><path fill-rule="evenodd" clip-rule="evenodd" d="M91.082 0c1.268 0 3.095.207 4.274.531 1.15.296 3.066 1.004 4.275 1.595 1.208.59 2.977 1.683 3.92 2.42.914.739 2.358 2.156 3.183 3.16.855 1.033 1.975 2.775 2.565 3.926.56 1.152 1.267 3.071 1.562 4.282.324 1.21.56 2.775.56 3.454 0 .708.118 1.27.295 1.27s.295-.444.295-.975c0-.502.206-2.008.471-3.307.265-1.387.973-3.395 1.68-4.871.855-1.713 1.857-3.16 3.302-4.665 1.149-1.21 2.653-2.628 3.39-3.159.736-.561 2.122-1.388 3.095-1.86 1.031-.502 2.947-1.092 4.568-1.388 1.975-.354 3.39-.443 4.864-.295 1.15.118 3.066.472 4.274.797 1.209.295 3.272 1.122 4.569 1.801 1.739.886 3.036 1.89 4.893 3.75 2.093 2.096 2.741 2.982 3.891 5.314.766 1.565 1.592 3.75 1.827 4.93.295 1.388.443 3.839.443 11.604h-14.149v-4.37c0-3.602-.118-4.547-.56-5.52-.295-.65-1.002-1.595-1.533-2.127-.56-.531-1.533-1.18-2.181-1.446-.678-.266-1.887-.473-2.8-.473-1.209.03-2.005.266-3.095.886-.973.56-1.769 1.358-3.243 3.69l-.147 16.15h41.856v14.172H125.57l-.148 34.69-14.001.148V49.276H83.124v35.133h-14.15V49.571h-6.779v8.326c0 6.289-.118 8.857-.442 10.422-.236 1.151-1.032 3.248-1.739 4.724-.737 1.476-1.828 3.277-2.447 4.015-.618.738-1.856 2.008-2.77 2.805-.914.797-2.889 2.096-4.422 2.864-1.532.767-3.507 1.594-4.392 1.83-.884.236-2.594.443-3.743.443-1.18 0-3.184-.207-4.422-.472-1.267-.237-3.154-.827-4.215-1.27-1.061-.413-2.77-1.388-3.832-2.126-1.06-.767-2.623-2.155-3.508-3.1-.854-.944-2.092-2.598-2.711-3.66-.62-1.064-1.386-2.717-1.71-3.691-.324-.974-.707-2.894-.884-4.281-.177-1.388-.324-5.787-.324-17.124H0V35.104h35.372v29.967l.796 1.624c.619 1.181 1.208 1.89 2.299 2.598.855.532 2.034 1.033 2.8 1.152.855.088 1.857 0 2.889-.325 1.022-.315 1.955-.896 2.8-1.742.707-.709 1.415-1.742 1.621-2.421.236-.856.354-5.226.354-30.558h8.784c4.805 0 9.58-.088 12.41-.442l.088-9.153c.118-9.093.118-9.182.914-11.367.442-1.21 1.326-3.1 1.975-4.222.648-1.092 2.093-2.863 3.183-3.985 1.12-1.093 2.741-2.421 3.626-2.923.884-.532 2.387-1.3 3.36-1.713.973-.384 2.623-.915 3.685-1.151C88.016.207 89.874.03 91.082 0Zm-4.657 15.648c-.56.384-1.356 1.299-1.769 2.037l-.796 1.329-.147 15.795h27.708v-6.495H97.42c0-7.145-.118-8.769-.413-9.596-.236-.65-.855-1.623-1.326-2.184-.501-.532-1.445-1.27-2.093-1.565-.649-.325-1.857-.65-2.653-.709-.825-.059-1.945.06-2.506.266-.56.236-1.473.709-2.004 1.122ZM328.957 8c1.798.06 2.388.236 3.213.827.59.413 1.297 1.358 1.68 2.214.384.797.796 2.185 1.15 4.576l-8.843.148.089.738c.058.413.442 1.063.825 1.476.501.502 1.032.738 1.768.738.767 0 1.238-.206 1.769-.826.649-.738.825-.797 2.329-.65 1.002.089 1.621.295 1.621.502 0 .207-.295.856-.678 1.417-.354.561-1.12 1.329-1.68 1.713-.855.531-1.445.679-3.154.65-1.179 0-2.506-.149-2.948-.326-.471-.147-1.208-.65-1.68-1.092-.472-.443-1.091-1.329-1.385-1.978-.354-.768-.56-1.86-.56-3.1 0-1.063.147-2.421.294-3.041.177-.59.678-1.536 1.12-2.067.472-.502 1.297-1.18 1.857-1.476.767-.384 1.533-.502 3.213-.443Zm-2.004 3.513c-.177.237-.383.768-.472 1.21l-.177.828c4.54 0 5.011-.089 5.011-.443 0-.236-.147-.709-.294-1.034-.148-.324-.678-.797-1.179-1.033-.501-.236-.973-.443-1.091-.413-.147 0-.531.118-.884.265-.354.118-.767.414-.914.62ZM180.632 3.218h3.891v6.348c0 4.812.088 6.554.412 7.145.207.472.737 1.004 1.179 1.18.413.207 1.386.384 2.182.384.766 0 1.68-.206 2.063-.442.354-.237.766-.945.943-1.565.148-.59.295-3.78.295-13.05h3.832v4.635c0 2.569-.147 5.935-.295 7.47-.206 2.067-.471 3.07-.943 3.809-.383.56-1.268 1.328-2.004 1.742-1.091.65-1.71.767-3.685.767-1.297.03-2.859-.059-3.449-.206-.619-.119-1.591-.65-2.181-1.181-.59-.502-1.297-1.359-1.562-1.83-.383-.739-.501-2.127-.56-8.061l-.118-7.145Zm33.338 0h3.832v3.248h-3.832V3.218Zm58.363 0h3.537v3.248h-3.537V3.218Zm15.328 0h3.537v18.305h-1.621c-1.592 0-1.621 0-1.621-1.771l-.796.679c-.442.383-1.356.856-2.005 1.092-.678.207-1.591.295-2.21.177-.56-.118-1.474-.502-2.064-.856-.619-.413-1.297-1.27-1.739-2.126-.383-.797-.766-2.184-.855-3.1-.059-.886.059-2.332.266-3.247.235-.975.737-2.008 1.297-2.628.501-.531 1.326-1.181 1.857-1.388.53-.206 1.503-.413 2.21-.413.855 0 1.592.236 2.358.738.59.413 1.18.65 1.268.532.059-.119.147-1.506.147-3.1l-.029-2.894Zm-5.159 8.857c-.265.443-.442 1.418-.442 2.421 0 .945.177 2.185.442 2.746.236.561.767 1.151 1.18 1.329.383.147 1.002.295 1.326.295.354 0 1.002-.354 1.444-.827.531-.502.885-1.27 1.032-2.155.147-.827.088-1.89-.088-2.657-.207-.709-.56-1.535-.855-1.801-.295-.266-.914-.59-1.386-.68-.501-.088-1.179 0-1.532.207-.354.237-.855.739-1.121 1.122Zm34.341-8.857h3.537v18.305h-1.621c-1.622 0-1.622 0-1.622-1.771l-.825.679c-.442.383-1.326.856-1.975 1.063-.707.236-1.592.295-2.211.177-.589-.118-1.503-.473-2.034-.827-.56-.354-1.355-1.24-1.768-1.978-.708-1.181-.767-1.653-.767-4.133 0-2.038.148-3.041.472-3.691.265-.472.884-1.24 1.327-1.683.471-.443 1.208-.945 1.65-1.092.442-.177 1.386-.325 2.064-.325.854-.03 1.591.207 2.358.738.619.413 1.179.65 1.267.502.089-.118.148-1.506.148-3.1V3.218Zm-5.129 8.887c-.295.443-.472 1.417-.472 2.569 0 1.062.177 2.214.442 2.716.236.502.708 1.033 1.032 1.18.324.178.884.325 1.238.325.383 0 1.002-.236 1.415-.56.442-.325.884-1.093 1.12-1.979.265-1.092.295-1.83.088-2.952-.177-.797-.56-1.683-.825-1.978-.295-.266-.943-.561-1.415-.65-.501-.118-1.179 0-1.533.207-.353.207-.855.709-1.09 1.122Zm-56.33-4.34c.649.088 1.297.325 1.474.472.196.217.137.788-.177 1.713-.354 1.092-.589 1.387-1.032 1.328-.294-.03-.913-.118-1.355-.147-.443-.03-1.032.118-1.268.354-.265.266-.59.974-.737 1.624-.147.679-.295 2.834-.295 8.414h-3.537V7.942h1.621c1.415 0 1.622.089 1.622.59 0 .355.059.591.147.591s.648-.325 1.238-.738c.914-.62 1.326-.738 2.299-.62Zm8.401 0c1.621.059 2.476.236 3.242.679.56.354 1.238 1.063 1.533 1.624.354.738.413 1.033.147 1.18-.206.09-.943.266-1.68.385-1.179.206-1.385.147-1.827-.473-.413-.59-.767-.709-2.152-.709-1.15 0-1.739.148-1.916.443-.177.296-.147.59.088.827.177.207 1.356.62 2.565.856 1.208.266 2.623.68 3.154.886.53.207 1.297.768 1.71 1.21.589.62.736 1.122.736 2.126 0 .797-.235 1.742-.589 2.303-.324.532-1.15 1.24-1.857 1.594-.914.473-1.798.62-3.449.65-1.768 0-2.505-.118-3.684-.709-.885-.442-1.74-1.151-2.152-1.771-.354-.561-.678-1.122-.649-1.24 0-.118.619-.295 1.386-.384.766-.088 1.65-.236 1.916-.295.324-.089.53.03.53.295 0 .266.354.738.796 1.063.442.325 1.238.59 1.769.59.53 0 1.297-.147 1.709-.324.413-.148.737-.502.737-.798.03-.295-.147-.649-.353-.856-.207-.177-1.327-.531-2.447-.826-1.15-.266-2.594-.738-3.242-1.034-.767-.383-1.356-.915-1.71-1.623-.265-.561-.501-1.3-.501-1.654 0-.325.236-1.063.501-1.624.295-.59.855-1.299 1.267-1.535.413-.266 1.062-.56 1.474-.709.413-.118 1.739-.206 2.948-.147Zm36.403 0c1.15.059 2.476.325 3.007.59.53.266 1.208.857 1.474 1.3.412.62.56 1.712.707 5.668.089 2.687.236 5.108.354 5.403.177.443 0 .502-1.562.502-1.533 0-1.798-.06-1.916-.59-.148-.562-.177-.562-1.563.176-.972.502-1.827.739-2.859.739-.825-.03-1.798-.178-2.21-.384-.384-.207-1.032-.827-1.386-1.417-.413-.59-.707-1.447-.678-2.067 0-.561.265-1.447.59-1.978.324-.532.972-1.152 1.474-1.417.471-.236 1.827-.62 3.006-.886 1.179-.236 2.388-.502 2.653-.59.295-.06.531-.384.531-.739 0-.324-.295-.767-.678-1.033-.354-.236-1.091-.443-1.622-.443-.589 0-1.297.295-1.827.738-.767.65-1.091.738-2.358.59-1.445-.117-1.474-.147-1.327-.944.118-.443.531-1.181.973-1.624.442-.443 1.326-1.033 1.975-1.27.766-.295 1.886-.413 3.242-.324Zm-2.741 8.562c-.206.088-.354.502-.354.856s.177.915.413 1.24c.295.413.766.59 1.503.59.796 0 1.268-.177 1.798-.797.501-.56.708-1.151.708-2.007 0-.65-.03-1.152-.089-1.122-.029 0-.854.236-1.827.531-.973.266-1.946.59-2.152.709Zm-91.289-8.385c1.238.03 2.034.177 2.712.62.531.325 1.179 1.033 1.415 1.594.324.797.442 2.274.442 11.367h-3.537l-.088-4.635c-.059-2.628-.207-4.901-.413-5.256-.177-.324-.649-.678-1.091-.797-.412-.118-1.09-.088-1.503.06-.413.177-.973.678-1.267 1.121-.413.65-.531 1.595-.649 9.507h-3.537V8.237h1.621c1.415 0 1.621.089 1.621.59 0 .355.059.591.148.591.088 0 .648-.325 1.238-.738.884-.56 1.474-.738 2.888-.738Zm11.496.148v13.285h-3.537l-.059-6.318c-.029-3.484.03-6.525.089-6.731.088-.295.619-.384 3.507-.236Zm5.306-.148 3.154 8.71.825-2.362c.442-1.27 1.12-3.218 2.211-6.2l1.828-.06c1.031-.029 1.857.03 1.857.148s-1.179 3.189-5.159 13.375l-3.213-.178-2.594-6.495c-1.444-3.572-2.594-6.584-2.594-6.702 0-.118.826-.236 3.685-.236Zm17.273.089c1.857.059 2.388.206 3.243.826.53.414 1.297 1.358 1.65 2.067.354.738.767 2.067 1.12 4.724h-4.303c-2.358 0-4.392.088-4.481.207-.088.118-.059.56.089.944.147.414.56 1.004.914 1.329.383.384 1.031.59 1.65.59.737 0 1.209-.206 1.739-.797.649-.738.826-.797 2.329-.679 1.297.118 1.621.266 1.621.68-.029.294-.353.944-.737 1.475-.412.532-1.179 1.21-1.709 1.536-.708.472-1.474.59-3.095.59-1.179 0-2.565-.177-3.095-.384-.531-.206-1.386-.885-1.916-1.476-.531-.59-1.091-1.565-1.238-2.185-.177-.62-.295-1.83-.295-2.746 0-.885.147-2.066.324-2.657.177-.56.649-1.446 1.002-1.978.354-.531 1.179-1.24 1.798-1.565.914-.442 1.622-.56 3.39-.501Zm-2.211 4.192c-.265.59-.471 1.122-.471 1.181 0 .088 1.12.148 2.505.148 2.3 0 2.506-.03 2.506-.59 0-.326-.295-.916-.678-1.3-.354-.413-.973-.797-1.386-.886-.412-.059-1.031 0-1.355.148-.354.148-.826.738-1.121 1.299Zm34.311-4.281h3.537v13.581h-3.537V7.942Zm-91.672 23.324h12.675v3.248h-8.843v4.133h7.664l-.147 3.1-7.517.148v7.676h-3.832V31.266Zm37.435 0h3.832v18.305h-1.768c-1.739 0-1.769 0-1.769-1.624l-.648.65c-.384.325-.973.767-1.356.944-.354.178-1.297.325-2.064.325a5.122 5.122 0 0 1-2.564-.679c-.825-.472-1.444-1.18-2.004-2.273-.678-1.358-.796-1.978-.796-3.897 0-1.388.177-2.717.442-3.396.265-.62.766-1.417 1.12-1.8.354-.384 1.032-.886 1.533-1.152.501-.266 1.591-.443 2.505-.443 1.15.03 1.857.207 2.417.65.442.324.885.59.973.59.088 0 .147-1.388.147-3.1v-3.1Zm-5.04 9.153c-.177.413-.265 1.712-.206 2.863.059 1.595.235 2.274.678 2.776.324.354.884.767 1.238.915.412.148 1.002.148 1.473-.03.442-.177 1.032-.679 1.297-1.121.266-.443.56-1.27.678-1.86.089-.562.059-1.624-.118-2.363-.147-.708-.589-1.623-.972-1.978-.413-.443-.973-.679-1.533-.65-.501 0-1.179.178-1.562.385-.354.177-.796.679-.973 1.063Zm49.255-9.153h3.832v18.305h-3.832V31.266Zm-61.488 4.724c.649 0 1.68.148 2.24.354.56.177 1.415.68 1.887 1.093.442.443 1.091 1.299 1.385 1.948.295.68.619 1.949 1.002 4.606h-4.509c-2.476 0-4.481.059-4.481.118 0 .089.206.62.442 1.181.236.59.708 1.181 1.032 1.329.324.177.943.324 1.385.324.443 0 1.091-.236 1.415-.531.324-.295.678-.68.737-.886.118-.295.501-.325 1.769-.059.884.177 1.68.384 1.768.443.089.089-.118.65-.442 1.24-.324.561-1.061 1.358-1.621 1.742-.678.472-1.651.768-2.8.886-.973.088-2.299.03-2.948-.148-.648-.177-1.562-.62-2.034-.974-.501-.384-1.179-1.358-1.562-2.185-.501-1.063-.678-2.008-.678-3.543-.03-1.683.118-2.332.825-3.69.678-1.329 1.091-1.742 2.417-2.421.944-.502 2.034-.827 2.771-.827Zm-2.181 5.167c0 .738 0 .738 2.417.679 2.417-.06 2.447-.089 2.358-.827-.029-.384-.383-1.033-.796-1.388-.442-.383-1.12-.679-1.65-.679-.561 0-1.15.296-1.592.738-.383.414-.708 1.063-.737 1.477Zm31.51-5.137c.737 0 1.887.236 2.535.53.649.326 1.474.887 1.828 1.27.353.384.825 1.152 1.061 1.713.236.59.531 1.8.796 4.428h-4.422c-2.446 0-4.421.089-4.421.148 0 .089.206.62.442 1.181.236.59.707 1.181 1.032 1.329.324.177.943.324 1.385.324.442 0 1.091-.236 1.415-.531.324-.295.678-.68.737-.886.118-.295.501-.325 1.768-.059.885.177 1.681.384 1.769.443.088.089-.118.65-.442 1.24-.324.561-1.061 1.358-1.621 1.742-.678.472-1.651.768-2.801.886-.972.088-2.299.03-2.947-.148-.649-.177-1.563-.62-2.034-.974-.501-.384-1.179-1.358-1.562-2.185-.501-1.063-.678-2.008-.678-3.543 0-1.653.147-2.362.796-3.66.677-1.359 1.09-1.772 2.417-2.451 1.061-.532 2.033-.797 2.947-.797Zm-2.328 5.137c0 .738 0 .738 2.417.679 2.417-.06 2.446-.089 2.358-.827-.059-.384-.413-1.033-.826-1.388-.412-.383-1.09-.679-1.621-.679-.56 0-1.149.296-1.591.738-.384.414-.708 1.063-.737 1.477Zm17.155-5.167c.678 0 1.474.177 1.769.384.471.354.471.472-.03 1.86-.354.984-.668 1.437-.943 1.358-.236-.089-.737-.177-1.15-.266-.471-.088-1.031.089-1.474.472-.737.561-.737.68-.884 9.773h-3.537V36.285h1.621c1.503 0 1.621.06 1.651 1.447l.855-.856c.678-.709 1.09-.886 2.122-.886Zm8.843.03c1.709 0 2.594.147 3.478.56.649.355 1.327.916 1.533 1.27.236.413.442 2.569.56 5.521.118 2.687.265 5.196.383 5.55.177.65.089.65-1.592.65-.972 0-1.768-.088-1.768-.207 0-.118-.148-.413-.295-.679-.236-.384-.324-.354-.796.06-.295.295-1.12.678-1.857.856-.737.206-1.827.295-2.446.177-.619-.118-1.563-.62-2.182-1.152-.943-.856-1.061-1.122-1.09-2.48-.03-1.122.118-1.742.589-2.362.324-.472 1.061-1.063 1.621-1.328.531-.266 2.093-.738 3.449-1.034 2.064-.472 2.447-.65 2.476-1.18.03-.325-.206-.798-.501-1.034-.295-.207-1.061-.413-1.71-.413-.884 0-1.297.206-1.857.826-.678.797-.766.797-2.328.502-.884-.147-1.621-.383-1.621-.502 0-.118.294-.738.678-1.328.383-.68 1.12-1.358 1.827-1.713.855-.413 1.798-.56 3.449-.56Zm-2.063 8.62c-.207.207-.384.62-.384.945 0 .355.295.856.619 1.181.501.502.826.561 1.71.384.589-.118 1.267-.384 1.474-.59.206-.207.442-1.004.501-1.772.088-.974.029-1.387-.236-1.387-.206.029-1.032.236-1.827.442-.826.236-1.651.59-1.857.797ZM180.661 59.02l12.528.147.147 3.1h-8.843V66.4h7.664v3.247h-7.664v7.677h-3.832V59.019Zm15.299.03h3.537v18.304h-3.537V59.048Zm44.509 0h3.537v3.542h-3.537v-3.543Zm-15.387 4.723c.678 0 1.592.118 1.975.295.413.148 1.002.561 1.327.886.589.561.619.59 1.267.03a8.655 8.655 0 0 1 1.327-.886c.353-.177 1.179-.325 1.827-.325.649 0 1.651.207 2.211.443.589.236 1.297.886 1.621 1.388.531.885.59 1.505.59 11.75h-3.538v-4.428c0-2.45-.117-4.754-.294-5.167-.148-.413-.59-.827-.944-.915-.353-.089-1.031 0-1.473.147-.502.207-1.003.738-1.268 1.358-.324.739-.442 2.156-.442 9.3h-3.537l.029-4.074c0-2.214-.118-4.487-.236-5.049-.117-.56-.53-1.18-.884-1.417-.56-.324-.825-.324-1.621 0-.649.266-1.091.709-1.326 1.417-.236.62-.384 2.51-.384 9.123h-3.537v-13.58h1.621c1.445 0 1.622.058 1.622.59 0 .325.088.59.147.59.088 0 .737-.324 1.415-.738.796-.472 1.709-.738 2.505-.738Zm30.125.148c.737.088 1.68.384 2.064.708.412.296 1.002.886 1.326 1.329.531.738.619 1.329.737 11.396h-3.832v-4.576c0-4.488 0-4.606-.737-5.314-.383-.414-1.061-.738-1.474-.738-.383 0-1.09.324-2.358 1.417l-.147 9.507-3.685-.148-.147-13.138h1.768c1.592 0 1.769.059 1.769.59 0 .59.029.561.973-.059.53-.354 1.297-.738 1.68-.886.413-.118 1.356-.147 2.063-.088Zm12.911 0c.855.088 1.916.325 2.358.56.442.237 1.032.65 1.297.945.295.325.766 1.152 1.091 1.89.324.738.648 2.037.913 4.429h-8.548v.738c0 .413.354 1.063.737 1.476.531.531 1.061.738 1.857.738.649-.03 1.327-.236 1.621-.531.295-.266.531-.65.531-.797 0-.197.589-.197 1.769 0 .972.147 1.768.413 1.768.59 0 .148-.354.797-.766 1.388-.383.62-1.268 1.387-1.916 1.712-.786.394-1.769.59-2.948.59-.973 0-2.24-.206-2.859-.472-.619-.236-1.415-.738-1.798-1.092-.383-.355-.973-1.181-1.268-1.83-.353-.798-.53-1.89-.53-3.396-.03-1.772.118-2.51.707-3.69.413-.827 1.179-1.772 1.71-2.156.53-.354 1.356-.767 1.827-.945.502-.147 1.592-.206 2.447-.147Zm-2.712 4.93-.177.827h5.011c-.236-1.27-.619-1.92-1.031-2.303-.384-.354-1.062-.65-1.445-.65s-1.061.296-1.474.65c-.383.384-.795 1.033-.884 1.476Zm18.983-4.93c.737.088 1.68.384 2.063.708.413.296 1.003.886 1.327 1.329.53.738.619 1.329.737 11.396h-3.832l-.059-4.753c-.089-4.665-.089-4.753-.826-5.314-.383-.325-1.031-.591-1.385-.591-.354.03-1.032.354-2.299 1.447l-.148 9.507-3.684-.148-.147-13.138h1.768c1.592 0 1.769.059 1.769.59 0 .59.029.561.972-.059a10.472 10.472 0 0 1 1.681-.886c.412-.118 1.356-.147 2.063-.088Zm12.174-.148c1.238 0 2.446.207 3.213.502.678.295 1.444.856 1.709 1.27.295.413.59.974.708 1.24.147.442-.059.56-1.445.826-1.503.266-1.65.237-2.358-.443-.56-.56-1.031-.738-2.034-.738-.854 0-1.473.177-1.798.502-.471.502-.471.561.059.886.295.207 1.445.59 2.535.827 1.091.236 2.535.679 3.213.944.678.296 1.474.857 1.769 1.27.353.472.56 1.21.56 2.067 0 .738-.265 1.712-.56 2.214-.266.472-1.12 1.18-1.828 1.535-1.031.532-1.827.68-3.684.68-1.887 0-2.594-.119-3.685-.68-.707-.384-1.621-1.151-1.975-1.712-.383-.561-.678-1.093-.678-1.24 0-.118.383-.266.826-.354.442-.06 1.297-.207 1.916-.296.766-.118 1.09-.03 1.09.207 0 .207.236.62.531.915.265.295 1.12.59 1.827.68 1.091.147 1.474.058 2.064-.414.619-.502.678-.709.412-1.152-.177-.295-.766-.65-1.326-.797a50.084 50.084 0 0 1-2.918-.797c-1.179-.325-2.211-.856-2.712-1.358a3.492 3.492 0 0 1-.973-2.008c-.118-.826 0-1.505.354-2.214.354-.679 1.002-1.27 1.857-1.712 1.002-.473 1.857-.65 3.331-.65Zm14.591.148c.854.088 1.945.354 2.417.59.501.236 1.208.886 1.591 1.388.384.531.855 1.447 1.032 2.008.177.56.383 1.653.619 3.838h-8.843l.177.797c.088.472.472 1.122.825 1.505.413.443.973.65 1.651.65.59 0 1.356-.207 1.71-.443.353-.236.648-.62.678-.826 0-.266.383-.296 1.768-.06.973.148 1.769.414 1.769.591 0 .148-.383.827-.826 1.476-.471.65-1.326 1.417-1.945 1.683-.648.325-1.769.531-2.859.531-.973 0-2.24-.206-2.859-.472-.619-.236-1.415-.738-1.799-1.092-.383-.355-.972-1.181-1.267-1.83-.354-.828-.531-1.86-.531-3.396 0-1.535.177-2.569.531-3.395.324-.65.943-1.536 1.415-2.008.471-.443 1.356-1.004 2.004-1.24.767-.295 1.739-.413 2.742-.295Zm-2.712 4.93-.177.827c4.834 0 5.011-.06 5.011-.59 0-.325-.383-1.004-.884-1.477-.472-.502-1.179-.885-1.592-.885-.383 0-1.061.295-1.474.65-.383.383-.796 1.032-.884 1.475Zm-105.703-4.783h3.537v4.281c0 2.362.148 4.606.295 5.02.177.413.619.885.973 1.062.353.177 1.09.237 1.621.148.59-.118 1.15-.472 1.474-.974.412-.65.53-1.595.648-9.537h3.537v13.286h-1.768c-1.71 0-1.769-.03-1.739-.826 0-.739-.03-.768-.531-.325-.295.266-.943.708-1.474.974-.53.266-1.503.472-2.151.472-.649 0-1.622-.206-2.211-.442-.56-.237-1.297-.886-1.621-1.418-.531-.856-.56-1.476-.59-6.347v-5.374Zm37.73 0h3.537v13.286h-3.537V64.067Z" fill="#0058A6"/></svg>