<svg width="335" height="85" viewBox="0 0 335 85" fill="none" xmlns="http://www.w3.org/2000/svg">
<path fill-rule="evenodd" clip-rule="evenodd" d="M91.0823 0C92.3498 0 94.1773 0.206669 95.3564 0.531434C96.5059 0.826676 98.4219 1.53526 99.6305 2.12574C100.839 2.71622 102.608 3.80861 103.551 4.54672C104.465 5.28482 105.909 6.70198 106.734 7.7058C107.589 8.73914 108.709 10.4811 109.299 11.6325C109.859 12.784 110.566 14.703 110.861 15.9135C111.185 17.124 111.421 18.6888 111.421 19.3678C111.421 20.0764 111.539 20.6374 111.716 20.6374C111.893 20.6374 112.011 20.1945 112.011 19.6631C112.011 19.1612 112.217 17.6554 112.482 16.3564C112.747 14.9687 113.455 12.9611 114.162 11.4849C115.017 9.77249 116.019 8.32581 117.464 6.82008C118.613 5.60959 120.117 4.19243 120.854 3.66099C121.59 3.10003 122.976 2.27336 123.949 1.80097C124.98 1.29906 126.896 0.708579 128.517 0.413338C130.492 0.0590483 131.907 -0.0295242 133.381 0.118097C134.531 0.236193 136.447 0.590483 137.655 0.915248C138.864 1.21049 140.927 2.03717 142.224 2.71622C143.963 3.60194 145.26 4.60577 147.117 6.46579C149.21 8.562 149.858 9.44773 151.008 11.7801C151.774 13.3449 152.6 15.5297 152.835 16.7107C153.13 18.0983 153.278 20.5488 153.278 28.3137H139.129V23.9441C139.129 20.3421 139.011 19.3974 138.569 18.4231C138.274 17.7735 137.567 16.8288 137.036 16.2973C136.476 15.7659 135.503 15.1164 134.855 14.8506C134.177 14.5849 132.968 14.3783 132.055 14.3783C130.846 14.4078 130.05 14.644 128.96 15.264C127.987 15.8249 127.191 16.6221 125.717 18.9545L125.57 35.1042H167.426V49.2758H125.57L125.422 83.9667L111.421 84.1143V49.2758H83.1236V84.4095H68.9749V49.571H62.1953V57.8968C62.1953 64.1855 62.0774 66.7541 61.7532 68.3189C61.5174 69.4703 60.7215 71.5665 60.0141 73.0427C59.2772 74.5189 58.1865 76.3199 57.5675 77.058C56.9485 77.7961 55.7105 79.0656 54.7967 79.8628C53.883 80.6599 51.9081 81.959 50.3753 82.7266C48.8425 83.4943 46.8676 84.3209 45.9833 84.5571C45.099 84.7933 43.3894 85 42.2398 85C41.0607 85 39.0563 84.7933 37.8183 84.5276C36.5508 84.2914 34.6643 83.7009 33.6032 83.2581C32.542 82.8447 30.8324 81.8704 29.7712 81.1323C28.7101 80.3647 27.1478 78.9771 26.2635 78.0323C25.4087 77.0875 24.1707 75.4342 23.5517 74.3713C22.9327 73.3084 22.1663 71.6551 21.8421 70.6808C21.5178 69.7065 21.1346 67.7874 20.9578 66.3998C20.7809 65.0122 20.6335 60.6131 20.6335 49.2758H0V35.1042H35.3718V65.0712L36.1676 66.695C36.7866 67.876 37.3762 68.5846 38.4668 69.2932C39.3216 69.8246 40.5007 70.3265 41.2671 70.4446C42.1219 70.5332 43.1241 70.4446 44.1557 70.1198C45.1776 69.8049 46.111 69.2243 46.956 68.3779C47.6634 67.6693 48.3709 66.636 48.5772 65.9569C48.813 65.1007 48.9309 60.7312 48.9309 35.3994H57.7149C62.5196 35.3994 67.2948 35.3109 70.1245 34.9566L70.2129 25.8041C70.3308 16.7107 70.3308 16.6221 71.1267 14.4373C71.5689 13.2268 72.4532 11.3373 73.1016 10.2154C73.7501 9.12296 75.1945 7.35151 76.2851 6.22959C77.4052 5.1372 79.0264 3.80861 79.9107 3.3067C80.795 2.77527 82.2983 2.00764 83.271 1.5943C84.2437 1.21049 85.8944 0.679055 86.9556 0.442862C88.0167 0.206669 89.8737 0.0295241 91.0823 0ZM86.425 15.6478C85.865 16.0316 85.0691 16.9469 84.6564 17.685L83.8605 19.0135L83.7132 34.809H111.421V28.3137H97.4197C97.4197 21.1688 97.3018 19.545 97.0071 18.7183C96.7712 18.0688 96.1522 17.0945 95.6806 16.5335C95.1795 16.0021 94.2363 15.264 93.5878 14.9687C92.9393 14.644 91.7308 14.3192 90.9349 14.2602C90.1096 14.2011 88.9895 14.3192 88.4294 14.5259C87.8693 14.7621 86.9556 15.2345 86.425 15.6478ZM328.957 8.00104C330.755 8.06009 331.345 8.23723 332.17 8.82772C332.76 9.24106 333.467 10.1858 333.85 11.042C334.234 11.8392 334.646 13.2268 335 15.6183L326.157 15.7659L326.246 16.504C326.304 16.9173 326.688 17.5669 327.071 17.9802C327.572 18.4821 328.103 18.7183 328.839 18.7183C329.606 18.7183 330.077 18.5116 330.608 17.8916C331.257 17.1535 331.433 17.0945 332.937 17.2421C333.939 17.3307 334.558 17.5373 334.558 17.744C334.558 17.9507 334.263 18.6002 333.88 19.1612C333.526 19.7221 332.76 20.4898 332.2 20.8736C331.345 21.405 330.755 21.5526 329.046 21.5231C327.867 21.5231 326.54 21.3755 326.098 21.1983C325.627 21.0507 324.89 20.5488 324.418 20.1059C323.946 19.6631 323.327 18.7774 323.033 18.1278C322.679 17.3602 322.473 16.2678 322.473 15.0278C322.473 13.9649 322.62 12.6068 322.767 11.9868C322.944 11.3963 323.445 10.4515 323.887 9.92011C324.359 9.4182 325.184 8.73915 325.744 8.4439C326.511 8.06009 327.277 7.94199 328.957 8.00104ZM326.953 11.5144C326.776 11.7506 326.57 12.282 326.481 12.7249L326.304 13.5516C330.844 13.5516 331.315 13.463 331.315 13.1087C331.315 12.8725 331.168 12.4001 331.021 12.0754C330.873 11.7506 330.343 11.2782 329.842 11.042C329.341 10.8058 328.869 10.5992 328.751 10.6287C328.604 10.6287 328.22 10.7468 327.867 10.8944C327.513 11.0125 327.1 11.3077 326.953 11.5144ZM180.632 3.21813H184.523V9.56582C184.523 14.3783 184.611 16.1202 184.935 16.7107C185.142 17.183 185.672 17.7145 186.114 17.8916C186.527 18.0983 187.5 18.2754 188.296 18.2754C189.062 18.2754 189.976 18.0688 190.359 17.8326C190.713 17.5964 191.125 16.8878 191.302 16.2678C191.45 15.6773 191.597 12.4887 191.597 3.21813H195.429V7.85342C195.429 10.422 195.282 13.7878 195.134 15.323C194.928 17.3897 194.663 18.3935 194.191 19.1316C193.808 19.6926 192.923 20.4602 192.187 20.8736C191.096 21.5231 190.477 21.6412 188.502 21.6412C187.205 21.6707 185.643 21.5821 185.053 21.4345C184.434 21.3164 183.462 20.785 182.872 20.2536C182.282 19.7516 181.575 18.8954 181.31 18.4231C180.927 17.685 180.809 16.2973 180.75 10.363L180.632 3.21813ZM213.97 3.21813H217.802V6.46579H213.97V3.21813ZM272.333 3.21813H275.87V6.46579H272.333V3.21813ZM287.661 3.21813H291.198V21.5231H289.577C287.985 21.5231 287.956 21.5231 287.956 19.7517L287.16 20.4307C286.718 20.8145 285.804 21.2869 285.155 21.5231C284.477 21.7298 283.564 21.8183 282.945 21.7002C282.385 21.5821 281.471 21.1983 280.881 20.844C280.262 20.4307 279.584 19.5745 279.142 18.7183C278.759 17.9212 278.376 16.5335 278.287 15.6183C278.228 14.7325 278.346 13.2859 278.553 12.3706C278.788 11.3963 279.29 10.363 279.85 9.74297C280.351 9.21153 281.176 8.562 281.707 8.35533C282.237 8.14866 283.21 7.94199 283.917 7.94199C284.772 7.94199 285.509 8.17819 286.275 8.6801C286.865 9.09344 287.455 9.32963 287.543 9.21153C287.602 9.09344 287.69 7.7058 287.69 6.1115L287.661 3.21813ZM282.502 12.0754C282.237 12.5182 282.06 13.4925 282.06 14.4964C282.06 15.4411 282.237 16.6811 282.502 17.2421C282.738 17.8031 283.269 18.3935 283.682 18.5707C284.065 18.7183 284.684 18.8659 285.008 18.8659C285.362 18.8659 286.01 18.5116 286.452 18.0392C286.983 17.5373 287.337 16.7697 287.484 15.884C287.631 15.0573 287.572 13.9944 287.396 13.2268C287.189 12.5182 286.836 11.6916 286.541 11.4258C286.246 11.1601 285.627 10.8354 285.155 10.7468C284.654 10.6582 283.976 10.7468 283.623 10.9535C283.269 11.1896 282.768 11.6916 282.502 12.0754ZM316.843 3.21813H320.38V21.5231H318.759C317.137 21.5231 317.137 21.5231 317.137 19.7517L316.312 20.4307C315.87 20.8145 314.986 21.2869 314.337 21.4936C313.63 21.7298 312.745 21.7888 312.126 21.6707C311.537 21.5526 310.623 21.1983 310.092 20.844C309.532 20.4898 308.737 19.604 308.324 18.8659C307.616 17.685 307.557 17.2126 307.557 14.7325C307.557 12.6954 307.705 11.6916 308.029 11.042C308.294 10.5696 308.913 9.80201 309.356 9.35915C309.827 8.91629 310.564 8.41438 311.006 8.26676C311.448 8.08961 312.392 7.94199 313.07 7.94199C313.924 7.91247 314.661 8.14866 315.428 8.6801C316.047 9.09344 316.607 9.32963 316.695 9.18201C316.784 9.06391 316.843 7.67628 316.843 6.08197V3.21813ZM311.714 12.1049C311.419 12.5478 311.242 13.5221 311.242 14.6735C311.242 15.7364 311.419 16.8878 311.684 17.3897C311.92 17.8916 312.392 18.4231 312.716 18.5707C313.04 18.7478 313.6 18.8954 313.954 18.8954C314.337 18.8954 314.956 18.6593 315.369 18.3345C315.811 18.0097 316.253 17.2421 316.489 16.3564C316.754 15.264 316.784 14.5259 316.577 13.404C316.4 12.6068 316.017 11.7211 315.752 11.4258C315.457 11.1601 314.809 10.8649 314.337 10.7763C313.836 10.6582 313.158 10.7763 312.804 10.983C312.451 11.1896 311.949 11.6916 311.714 12.1049ZM255.384 7.76485C256.033 7.85342 256.681 8.08961 256.858 8.23723C257.054 8.45375 256.995 9.02455 256.681 9.94964C256.327 11.042 256.092 11.3373 255.649 11.2782C255.355 11.2487 254.736 11.1601 254.294 11.1306C253.851 11.1011 253.262 11.2487 253.026 11.4849C252.761 11.7506 252.436 12.4592 252.289 13.1087C252.142 13.7878 251.994 15.943 251.994 21.5231H248.457V7.94199H250.078C251.493 7.94199 251.7 8.03057 251.7 8.53248C251.7 8.88677 251.759 9.12296 251.847 9.12296C251.935 9.12296 252.495 8.79819 253.085 8.38486C253.999 7.76485 254.411 7.64675 255.384 7.76485ZM263.785 7.76485C265.406 7.8239 266.261 8.00104 267.027 8.4439C267.587 8.79819 268.265 9.50677 268.56 10.0677C268.914 10.8058 268.973 11.1011 268.707 11.2487C268.501 11.3373 267.764 11.5144 267.027 11.6325C265.848 11.8392 265.642 11.7801 265.2 11.1601C264.787 10.5696 264.433 10.4515 263.048 10.4515C261.898 10.4515 261.309 10.5992 261.132 10.8944C260.955 11.1896 260.985 11.4849 261.22 11.7211C261.397 11.9278 262.576 12.3411 263.785 12.5773C264.993 12.843 266.408 13.2563 266.939 13.463C267.469 13.6697 268.236 14.2306 268.649 14.6735C269.238 15.2935 269.385 15.7954 269.385 16.7992C269.385 17.5964 269.15 18.5412 268.796 19.1021C268.472 19.6336 267.646 20.3421 266.939 20.6964C266.025 21.1688 265.141 21.3164 263.49 21.346C261.722 21.346 260.985 21.2279 259.806 20.6374C258.921 20.1945 258.066 19.4859 257.654 18.8659C257.3 18.305 256.976 17.744 257.005 17.6259C257.005 17.5078 257.624 17.3307 258.391 17.2421C259.157 17.1535 260.041 17.0059 260.307 16.9469C260.631 16.8583 260.837 16.9764 260.837 17.2421C260.837 17.5078 261.191 17.9802 261.633 18.305C262.075 18.6297 262.871 18.8954 263.402 18.8954C263.932 18.8954 264.699 18.7478 265.111 18.5707C265.524 18.4231 265.848 18.0688 265.848 17.7735C265.878 17.4783 265.701 17.124 265.495 16.9173C265.288 16.7402 264.168 16.3859 263.048 16.0907C261.898 15.8249 260.454 15.3526 259.806 15.0573C259.039 14.6735 258.45 14.1421 258.096 13.4335C257.831 12.8725 257.595 12.1344 257.595 11.7801C257.595 11.4554 257.831 10.7173 258.096 10.1563C258.391 9.56582 258.951 8.85724 259.363 8.62105C259.776 8.35533 260.425 8.06009 260.837 7.91247C261.25 7.79437 262.576 7.7058 263.785 7.76485ZM300.188 7.76485C301.338 7.8239 302.664 8.08961 303.195 8.35533C303.725 8.62105 304.403 9.21153 304.669 9.65439C305.081 10.2744 305.229 11.3668 305.376 15.323C305.465 18.0097 305.612 20.4307 305.73 20.7259C305.907 21.1688 305.73 21.2279 304.168 21.2279C302.635 21.2279 302.37 21.1688 302.252 20.6374C302.104 20.0764 302.075 20.0764 300.689 20.8145C299.717 21.3164 298.862 21.5526 297.83 21.5526C297.005 21.5231 296.032 21.3755 295.62 21.1688C295.236 20.9621 294.588 20.3421 294.234 19.7517C293.821 19.1612 293.527 18.305 293.556 17.685C293.556 17.124 293.821 16.2383 294.146 15.7068C294.47 15.1754 295.118 14.5554 295.62 14.2897C296.091 14.0535 297.447 13.6697 298.626 13.404C299.805 13.1678 301.014 12.902 301.279 12.8135C301.574 12.7544 301.81 12.4297 301.81 12.0754C301.81 11.7506 301.515 11.3077 301.132 11.042C300.778 10.8058 300.041 10.5992 299.51 10.5992C298.921 10.5992 298.213 10.8944 297.683 11.3373C296.916 11.9868 296.592 12.0754 295.325 11.9278C293.88 11.8097 293.851 11.7801 293.998 10.983C294.116 10.5401 294.529 9.80201 294.971 9.35915C295.413 8.91629 296.297 8.32581 296.946 8.08961C297.712 7.79437 298.832 7.67628 300.188 7.76485ZM297.447 16.3268C297.241 16.4154 297.093 16.8288 297.093 17.183C297.093 17.5373 297.27 18.0983 297.506 18.4231C297.801 18.8364 298.272 19.0135 299.009 19.0135C299.805 19.0135 300.277 18.8364 300.807 18.2164C301.308 17.6554 301.515 17.065 301.515 16.2088C301.515 15.5592 301.485 15.0573 301.426 15.0868C301.397 15.0868 300.572 15.323 299.599 15.6183C298.626 15.884 297.653 16.2088 297.447 16.3268ZM206.158 7.94199C207.396 7.97152 208.192 8.11914 208.87 8.562C209.401 8.88677 210.049 9.59535 210.285 10.1563C210.609 10.9535 210.727 12.4297 210.727 21.5231H207.19L207.102 16.8878C207.043 14.2602 206.895 11.9868 206.689 11.6325C206.512 11.3077 206.04 10.9535 205.598 10.8354C205.186 10.7173 204.508 10.7468 204.095 10.8944C203.682 11.0716 203.122 11.5735 202.828 12.0163C202.415 12.6659 202.297 13.6106 202.179 21.5231H198.642V8.23723H200.263C201.678 8.23723 201.884 8.32581 201.884 8.82772C201.884 9.18201 201.943 9.4182 202.032 9.4182C202.12 9.4182 202.68 9.09344 203.27 8.6801C204.154 8.11914 204.744 7.94199 206.158 7.94199ZM217.654 8.08961V21.3755H214.117L214.058 15.0573C214.029 11.5735 214.088 8.53248 214.147 8.32581C214.235 8.03057 214.766 7.94199 217.654 8.08961ZM222.96 7.94199L226.114 16.6516L226.939 14.2897C227.381 13.0201 228.059 11.0716 229.15 8.08961L230.978 8.03057C232.009 8.00104 232.835 8.06009 232.835 8.17819C232.835 8.29628 231.656 11.3668 227.676 21.5526L224.463 21.3755L221.869 14.8802C220.425 11.3077 219.275 8.29628 219.275 8.17819C219.275 8.06009 220.101 7.94199 222.96 7.94199ZM240.233 8.03057C242.09 8.08961 242.621 8.23723 243.476 8.85724C244.006 9.27058 244.773 10.2154 245.126 10.9239C245.48 11.662 245.893 12.9906 246.246 15.6478H241.943C239.585 15.6478 237.551 15.7364 237.462 15.8545C237.374 15.9726 237.403 16.4154 237.551 16.7992C237.698 17.2126 238.111 17.8031 238.465 18.1278C238.848 18.5116 239.496 18.7183 240.115 18.7183C240.852 18.7183 241.324 18.5116 241.854 17.9212C242.503 17.1831 242.68 17.124 244.183 17.2421C245.48 17.3602 245.804 17.5078 245.804 17.9212C245.775 18.2164 245.451 18.8659 245.067 19.3974C244.655 19.9288 243.888 20.6078 243.358 20.9326C242.65 21.405 241.884 21.5231 240.263 21.5231C239.084 21.5231 237.698 21.346 237.168 21.1393C236.637 20.9326 235.782 20.2536 235.252 19.6631C234.721 19.0726 234.161 18.0983 234.014 17.4783C233.837 16.8583 233.719 15.6478 233.719 14.7325C233.719 13.8468 233.866 12.6659 234.043 12.0754C234.22 11.5144 234.692 10.6287 235.045 10.0973C235.399 9.56582 236.224 8.85724 236.843 8.53248C237.757 8.08961 238.465 7.97152 240.233 8.03057ZM238.022 12.223C237.757 12.8135 237.551 13.3449 237.551 13.404C237.551 13.4925 238.671 13.5516 240.056 13.5516C242.356 13.5516 242.562 13.5221 242.562 12.9611C242.562 12.6363 242.267 12.0458 241.884 11.662C241.53 11.2487 240.911 10.8649 240.498 10.7763C240.086 10.7173 239.467 10.7763 239.143 10.9239C238.789 11.0716 238.317 11.662 238.022 12.223ZM272.333 7.94199H275.87V21.5231H272.333V7.94199ZM180.661 31.2661H193.336V34.5137H184.493V38.6471H192.157L192.01 41.7471L184.493 41.8948V49.571H180.661V31.2661ZM218.096 31.2661H221.928V49.571H220.16C218.421 49.571 218.391 49.571 218.391 47.9472L217.743 48.5967C217.359 48.9215 216.77 49.3644 216.387 49.5415C216.033 49.7187 215.09 49.8663 214.323 49.8663C213.41 49.8663 212.525 49.6301 211.759 49.1872C210.934 48.7148 210.315 48.0062 209.755 46.9139C209.077 45.5557 208.959 44.9357 208.959 43.0167C208.959 41.629 209.136 40.3004 209.401 39.6214C209.666 39.0014 210.167 38.2042 210.521 37.8204C210.875 37.4366 211.553 36.9347 212.054 36.669C212.555 36.4033 213.645 36.2261 214.559 36.2261C215.709 36.2556 216.416 36.4328 216.976 36.8756C217.418 37.2004 217.861 37.4661 217.949 37.4661C218.037 37.4661 218.096 36.0785 218.096 34.3661V31.2661ZM213.056 40.4185C212.879 40.8319 212.791 42.131 212.85 43.2824C212.909 44.8767 213.085 45.5557 213.528 46.0577C213.852 46.4119 214.412 46.8253 214.766 46.9729C215.178 47.1205 215.768 47.1205 216.239 46.9434C216.681 46.7662 217.271 46.2643 217.536 45.8215C217.802 45.3786 218.096 44.5519 218.214 43.9614C218.303 43.4005 218.273 42.3376 218.096 41.5995C217.949 40.8909 217.507 39.9757 217.124 39.6214C216.711 39.1785 216.151 38.9423 215.591 38.9719C215.09 38.9719 214.412 39.149 214.029 39.3557C213.675 39.5328 213.233 40.0347 213.056 40.4185ZM262.311 31.2661H266.143V49.571H262.311V31.2661ZM200.823 35.9899C201.472 35.9899 202.503 36.1375 203.063 36.3442C203.623 36.5214 204.478 37.0233 204.95 37.4366C205.392 37.8795 206.041 38.7357 206.335 39.3852C206.63 40.0643 206.954 41.3338 207.337 43.991H202.828C200.352 43.991 198.347 44.05 198.347 44.1091C198.347 44.1976 198.553 44.7291 198.789 45.29C199.025 45.8805 199.497 46.471 199.821 46.6186C200.145 46.7958 200.764 46.9434 201.206 46.9434C201.649 46.9434 202.297 46.7072 202.621 46.4119C202.945 46.1167 203.299 45.7329 203.358 45.5262C203.476 45.231 203.859 45.2015 205.127 45.4672C206.011 45.6443 206.807 45.851 206.895 45.91C206.984 45.9986 206.777 46.5596 206.453 47.1501C206.129 47.711 205.392 48.5082 204.832 48.892C204.154 49.3644 203.181 49.6596 202.032 49.7777C201.059 49.8663 199.733 49.8072 199.084 49.6301C198.436 49.4529 197.522 49.0101 197.05 48.6558C196.549 48.272 195.871 47.2977 195.488 46.471C194.987 45.4081 194.81 44.4634 194.81 42.9281C194.78 41.2452 194.928 40.5957 195.635 39.2376C196.313 37.909 196.726 37.4957 198.052 36.8166C198.996 36.3147 200.086 35.9899 200.823 35.9899ZM198.642 41.1566C198.642 41.8948 198.642 41.8948 201.059 41.8357C203.476 41.7767 203.506 41.7471 203.417 41.009C203.388 40.6252 203.034 39.9757 202.621 39.6214C202.179 39.2376 201.501 38.9423 200.971 38.9423C200.41 38.9423 199.821 39.2376 199.379 39.6804C198.996 40.0938 198.671 40.7433 198.642 41.1566ZM230.152 36.0195C230.889 36.0195 232.039 36.2556 232.687 36.5509C233.336 36.8756 234.161 37.4366 234.515 37.8204C234.868 38.2042 235.34 38.9719 235.576 39.5328C235.812 40.1233 236.107 41.3338 236.372 43.9614H231.95C229.504 43.9614 227.529 44.05 227.529 44.1091C227.529 44.1976 227.735 44.7291 227.971 45.29C228.207 45.8805 228.678 46.471 229.003 46.6186C229.327 46.7958 229.946 46.9434 230.388 46.9434C230.83 46.9434 231.479 46.7072 231.803 46.4119C232.127 46.1167 232.481 45.7329 232.54 45.5262C232.658 45.231 233.041 45.2015 234.308 45.4672C235.193 45.6443 235.989 45.851 236.077 45.91C236.165 45.9986 235.959 46.5596 235.635 47.1501C235.311 47.711 234.574 48.5082 234.014 48.892C233.336 49.3644 232.363 49.6596 231.213 49.7777C230.241 49.8663 228.914 49.8072 228.266 49.6301C227.617 49.4529 226.703 49.0101 226.232 48.6558C225.731 48.272 225.053 47.2977 224.67 46.471C224.169 45.4081 223.992 44.4634 223.992 42.9281C223.992 41.2747 224.139 40.5662 224.788 39.2671C225.465 37.909 225.878 37.4957 227.205 36.8166C228.266 36.2852 229.238 36.0195 230.152 36.0195ZM227.824 41.1566C227.824 41.8948 227.824 41.8948 230.241 41.8357C232.658 41.7767 232.687 41.7471 232.599 41.009C232.54 40.6252 232.186 39.9757 231.773 39.6214C231.361 39.2376 230.683 38.9423 230.152 38.9423C229.592 38.9423 229.003 39.2376 228.561 39.6804C228.177 40.0938 227.853 40.7433 227.824 41.1566ZM244.979 35.9899C245.657 35.9899 246.453 36.1671 246.748 36.3737C247.219 36.728 247.219 36.8461 246.718 38.2338C246.364 39.2179 246.05 39.6706 245.775 39.5919C245.539 39.5033 245.038 39.4147 244.625 39.3262C244.154 39.2376 243.594 39.4147 243.151 39.7985C242.414 40.3595 242.414 40.4776 242.267 49.571H238.73V36.2852H240.351C241.854 36.2852 241.972 36.3442 242.002 37.7318L242.857 36.8756C243.535 36.1671 243.947 35.9899 244.979 35.9899ZM253.822 36.0195C255.531 36.0195 256.416 36.1671 257.3 36.5804C257.949 36.9347 258.627 37.4957 258.833 37.8499C259.069 38.2633 259.275 40.4185 259.393 43.371C259.511 46.0577 259.658 48.5672 259.776 48.9215C259.953 49.571 259.865 49.571 258.184 49.571C257.212 49.571 256.416 49.4825 256.416 49.3644C256.416 49.2463 256.268 48.951 256.121 48.6853C255.885 48.3015 255.797 48.331 255.325 48.7444C255.03 49.0396 254.205 49.4234 253.468 49.6006C252.731 49.8072 251.641 49.8958 251.022 49.7777C250.403 49.6596 249.459 49.1577 248.84 48.6263C247.897 47.7701 247.779 47.5043 247.75 46.1462C247.72 45.0243 247.868 44.4043 248.339 43.7843C248.663 43.3119 249.4 42.7214 249.96 42.4557C250.491 42.19 252.053 41.7176 253.409 41.4224C255.473 40.95 255.856 40.7728 255.885 40.2414C255.915 39.9166 255.679 39.4442 255.384 39.2081C255.089 39.0014 254.323 38.7947 253.674 38.7947C252.79 38.7947 252.377 39.0014 251.817 39.6214C251.139 40.4185 251.051 40.4185 249.489 40.1233C248.605 39.9757 247.868 39.7395 247.868 39.6214C247.868 39.5033 248.162 38.8833 248.546 38.2928C248.929 37.6138 249.666 36.9347 250.373 36.5804C251.228 36.1671 252.171 36.0195 253.822 36.0195ZM251.759 44.6405C251.552 44.8472 251.375 45.2605 251.375 45.5853C251.375 45.9396 251.67 46.4415 251.994 46.7662C252.495 47.2681 252.82 47.3272 253.704 47.1501C254.293 47.032 254.971 46.7662 255.178 46.5596C255.384 46.3529 255.62 45.5557 255.679 44.7881C255.767 43.8138 255.708 43.4005 255.443 43.4005C255.237 43.43 254.411 43.6367 253.616 43.8433C252.79 44.0795 251.965 44.4338 251.759 44.6405ZM180.661 59.0187L193.189 59.1664L193.336 62.2664H184.493V66.3998H192.157V69.6474H184.493V77.3237H180.661V59.0187ZM195.96 59.0483H199.497V77.3533H195.96V59.0483ZM240.469 59.0483H244.006V62.5912H240.469V59.0483ZM225.082 63.7721C225.76 63.7721 226.674 63.8902 227.057 64.0674C227.47 64.215 228.059 64.6283 228.384 64.9531C228.973 65.5141 229.003 65.5436 229.651 64.9826C230.005 64.6874 230.624 64.2741 230.978 64.0969C231.331 63.9198 232.157 63.7721 232.805 63.7721C233.454 63.7721 234.456 63.9788 235.016 64.215C235.605 64.4512 236.313 65.1007 236.637 65.6026C237.168 66.4884 237.227 67.1084 237.227 77.3533H233.689V72.9246C233.689 70.4741 233.572 68.1712 233.395 67.7579C233.247 67.3446 232.805 66.9312 232.451 66.8426C232.098 66.7541 231.42 66.8426 230.978 66.9903C230.476 67.1969 229.975 67.7284 229.71 68.3484C229.386 69.0865 229.268 70.5036 229.268 77.6485H225.731L225.76 73.5742C225.76 71.3598 225.642 69.0865 225.524 68.5255C225.407 67.9646 224.994 67.3446 224.64 67.1084C224.08 66.7836 223.815 66.7836 223.019 67.1084C222.37 67.3741 221.928 67.8169 221.693 68.5255C221.457 69.1455 221.309 71.0351 221.309 77.6485H217.772V64.0674H219.393C220.838 64.0674 221.015 64.1264 221.015 64.6579C221.015 64.9826 221.103 65.2484 221.162 65.2484C221.25 65.2484 221.899 64.9236 222.577 64.5102C223.373 64.0379 224.286 63.7721 225.082 63.7721ZM255.207 63.9198C255.944 64.0083 256.887 64.3036 257.271 64.6283C257.683 64.9236 258.273 65.5141 258.597 65.9569C259.128 66.695 259.216 67.2855 259.334 77.3533H255.502V72.777C255.502 68.2893 255.502 68.1712 254.765 67.4627C254.382 67.0493 253.704 66.7246 253.291 66.7246C252.908 66.7246 252.201 67.0493 250.933 68.1417L250.786 77.6485L247.101 77.5009L246.954 64.3626H248.722C250.314 64.3626 250.491 64.4217 250.491 64.9531C250.491 65.5436 250.52 65.5141 251.464 64.8941C251.994 64.5398 252.761 64.156 253.144 64.0083C253.557 63.8902 254.5 63.8607 255.207 63.9198ZM268.118 63.9198C268.973 64.0083 270.034 64.2445 270.476 64.4807C270.918 64.7169 271.508 65.1303 271.773 65.4255C272.068 65.7503 272.539 66.5769 272.864 67.315C273.188 68.0531 273.512 69.3522 273.777 71.7437H265.229V72.4818C265.229 72.8951 265.583 73.5446 265.966 73.958C266.497 74.4894 267.027 74.6961 267.823 74.6961C268.472 74.6665 269.15 74.4599 269.444 74.1646C269.739 73.8989 269.975 73.5151 269.975 73.3675C269.975 73.1707 270.564 73.1707 271.744 73.3675C272.716 73.5151 273.512 73.7808 273.512 73.958C273.512 74.1056 273.158 74.7551 272.746 75.3456C272.363 75.9656 271.478 76.7332 270.83 77.058C270.044 77.4517 269.061 77.6485 267.882 77.6485C266.909 77.6485 265.642 77.4418 265.023 77.1761C264.404 76.9399 263.608 76.438 263.225 76.0837C262.842 75.7294 262.252 74.9027 261.957 74.2532C261.604 73.4561 261.427 72.3637 261.427 70.8579C261.397 69.0865 261.545 68.3484 262.134 67.1674C262.547 66.3407 263.313 65.396 263.844 65.0122C264.374 64.6579 265.2 64.2445 265.671 64.0674C266.173 63.9198 267.263 63.8607 268.118 63.9198ZM265.406 68.8503L265.229 69.677H270.24C270.004 68.4074 269.621 67.7579 269.209 67.3741C268.825 67.0198 268.147 66.7246 267.764 66.7246C267.381 66.7246 266.703 67.0198 266.29 67.3741C265.907 67.7579 265.495 68.4074 265.406 68.8503ZM284.389 63.9198C285.126 64.0083 286.069 64.3036 286.452 64.6283C286.865 64.9236 287.455 65.5141 287.779 65.9569C288.309 66.695 288.398 67.2855 288.516 77.3533H284.684L284.625 72.5999C284.536 67.935 284.536 67.8465 283.799 67.2855C283.416 66.9607 282.768 66.695 282.414 66.695C282.06 66.7246 281.382 67.0493 280.115 68.1417L279.967 77.6485L276.283 77.5009L276.136 64.3626H277.904C279.496 64.3626 279.673 64.4217 279.673 64.9531C279.673 65.5436 279.702 65.5141 280.645 64.8941C281.176 64.5398 281.942 64.156 282.326 64.0083C282.738 63.8902 283.682 63.8607 284.389 63.9198ZM296.563 63.7721C297.801 63.7721 299.009 63.9788 299.776 64.274C300.454 64.5693 301.22 65.1302 301.485 65.5436C301.78 65.9569 302.075 66.5179 302.193 66.7836C302.34 67.2265 302.134 67.3446 300.748 67.6103C299.245 67.876 299.098 67.8465 298.39 67.1674C297.83 66.6065 297.359 66.4293 296.356 66.4293C295.502 66.4293 294.883 66.6065 294.558 66.9312C294.087 67.4331 294.087 67.4922 294.617 67.8169C294.912 68.0236 296.062 68.4074 297.152 68.6436C298.243 68.8798 299.687 69.3227 300.365 69.5884C301.043 69.8836 301.839 70.4446 302.134 70.8579C302.487 71.3303 302.694 72.0684 302.694 72.9246C302.694 73.6627 302.429 74.637 302.134 75.1389C301.868 75.6113 301.014 76.3199 300.306 76.6742C299.275 77.2056 298.479 77.3533 296.622 77.3533C294.735 77.3533 294.028 77.2352 292.937 76.6742C292.23 76.2904 291.316 75.5227 290.962 74.9618C290.579 74.4008 290.284 73.8694 290.284 73.7218C290.284 73.6037 290.667 73.4561 291.11 73.3675C291.552 73.3084 292.407 73.1608 293.026 73.0722C293.792 72.9542 294.116 73.0427 294.116 73.2789C294.116 73.4856 294.352 73.8989 294.647 74.1942C294.912 74.4894 295.767 74.7846 296.474 74.8732C297.565 75.0208 297.948 74.9323 298.538 74.4599C299.157 73.958 299.216 73.7513 298.95 73.3084C298.773 73.0132 298.184 72.6589 297.624 72.5113C297.093 72.3932 295.767 72.0389 294.706 71.7141C293.527 71.3894 292.495 70.8579 291.994 70.356C291.463 69.8246 291.11 69.0865 291.021 68.3484C290.903 67.5217 291.021 66.8427 291.375 66.1341C291.729 65.455 292.377 64.8645 293.232 64.4217C294.234 63.9493 295.089 63.7721 296.563 63.7721ZM311.154 63.9198C312.008 64.0083 313.099 64.2741 313.571 64.5102C314.072 64.7464 314.779 65.396 315.162 65.8979C315.546 66.4293 316.017 67.3446 316.194 67.9055C316.371 68.4665 316.577 69.5589 316.813 71.7437H307.97L308.147 72.5408C308.235 73.0132 308.619 73.6627 308.972 74.0465C309.385 74.4894 309.945 74.6961 310.623 74.6961C311.213 74.6961 311.979 74.4894 312.333 74.2532C312.686 74.017 312.981 73.6332 313.011 73.4265C313.011 73.1608 313.394 73.1313 314.779 73.3675C315.752 73.5151 316.548 73.7808 316.548 73.958C316.548 74.1056 316.165 74.7846 315.722 75.4342C315.251 76.0837 314.396 76.8513 313.777 77.1171C313.129 77.4418 312.008 77.6485 310.918 77.6485C309.945 77.6485 308.678 77.4418 308.059 77.1761C307.44 76.9399 306.644 76.438 306.26 76.0837C305.877 75.7294 305.288 74.9027 304.993 74.2532C304.639 73.4265 304.462 72.3932 304.462 70.8579C304.462 69.3227 304.639 68.2893 304.993 67.4627C305.317 66.8131 305.936 65.9274 306.408 65.455C306.879 65.0121 307.764 64.4512 308.412 64.215C309.179 63.9198 310.151 63.8017 311.154 63.9198ZM308.442 68.8503L308.265 69.677C313.099 69.677 313.276 69.6179 313.276 69.0865C313.276 68.7617 312.893 68.0827 312.392 67.6103C311.92 67.1084 311.213 66.7246 310.8 66.7246C310.417 66.7246 309.739 67.0198 309.326 67.3741C308.943 67.7579 308.53 68.4074 308.442 68.8503ZM202.739 64.0674H206.276V68.3484C206.276 70.7103 206.424 72.9541 206.571 73.3675C206.748 73.7808 207.19 74.2532 207.544 74.4304C207.897 74.6075 208.634 74.6666 209.165 74.578C209.755 74.4599 210.315 74.1056 210.639 73.6037C211.051 72.9542 211.169 72.0094 211.287 64.0674H214.824V77.3533H213.056C211.346 77.3533 211.287 77.3237 211.317 76.5266C211.317 75.7885 211.287 75.7589 210.786 76.2018C210.491 76.4675 209.843 76.9104 209.312 77.1761C208.782 77.4418 207.809 77.6485 207.161 77.6485C206.512 77.6485 205.539 77.4418 204.95 77.2056C204.39 76.9694 203.653 76.3199 203.329 75.7885C202.798 74.9323 202.769 74.3123 202.739 69.4408V64.0674ZM240.469 64.0674H244.006V77.3533H240.469V64.0674Z" fill="#0058A6"/>
</svg>
