<svg width="352" height="132" fill="none" xmlns="http://www.w3.org/2000/svg"><path fill-rule="evenodd" clip-rule="evenodd" d="M46.777.34c-.442.065-.934.138-1.413.207-1.208.197-3.383.68-4.833 1.073-1.45.394-3.537 1.073-4.613 1.533-1.077.438-2.966 1.313-4.174 1.926-1.209.613-3.098 1.708-4.174 2.43-1.077.701-2.812 1.993-3.845 2.847a61.328 61.328 0 0 0-3.844 3.525c-1.098 1.073-2.68 2.802-3.559 3.831-.857 1.03-2.394 3.087-3.405 4.598-1.01 1.51-2.284 3.635-2.856 4.707-.57 1.073-1.472 3.153-2.043 4.598-.57 1.445-1.362 3.897-1.757 5.474-.418 1.576-1.01 4.225-1.296 5.911-.286 1.686-.703 4.751-.923 6.787-.285 2.869-.373 5.518-.351 11.56l.044 7.817a10.44 10.44 0 0 1-1.582-.57c-.352-.175-.835-.306-1.12-.306-.286 0-.616.131-.77.263-.153.153-.263.503-.263.766 0 .285.198.876.417 1.314.22.46.923 1.664 1.538 2.693.615 1.029 1.12 1.926 1.12 2.014 0 .11-.175.131-.373.066-.22-.066-.615.043-.879.219-.395.262-.505.547-.505 1.248 0 .7.483 2.014 1.867 5.1A739.87 739.87 0 0 0 8.106 92.7c1.692 3.612 3.032 6.59 2.966 6.612-.044.044-.703-.306-1.45-.766-1.054-.635-1.582-.81-2.395-.81-.768 0-1.208.131-1.537.438-.462.415-.462.46-.088 1.094.33.547.351.788.132 1.358-.154.503-.176.854-.022 1.16.131.241.22.525.22.657 0 .131-.396.306-.88.438-.527.131-1.098.481-1.427.876-.308.35-.55.853-.55 1.094 0 .241.154.788.33 1.204.198.46.615.92 1.055 1.139.439.219 1.296.372 2.24.372.835.022 1.692.131 1.868.241.175.131 1.471.219 2.855.219 2.439 0 2.593.022 4.13.766.879.416 1.582.81 1.582.876 0 .066-.417.285-.945.482-.505.197-1.45.853-2.065 1.423-.966.875-1.164 1.182-1.164 1.817 0 .416.154.985.33 1.248.285.46.285.547 0 .985-.176.285-.33.723-.33.985 0 .46.11.504 1.164.504.616 0 1.428.044 1.802.131.461.088.79.351 1.12.92.264.46.813.985 1.274 1.182.44.219 1.23.394 1.78.394.703 0 1.428-.219 2.482-.766l1.472-.766c3.91.81 5.777 1.248 6.656 1.51l1.582.46c-1.098 1.467-1.23 1.949-1.384 3.372l-.083.947c-.056.66-.107 1.244-.137 1.483-.044.591.022.657.615.723.352.043 1.406.328 2.307.635 1.626.547 1.648.547 2.307.153a28.425 28.425 0 0 0 1.647-1.161c.55-.416 1.582-1.029 2.307-1.357.725-.35 1.538-.635 1.823-.635.264 0 .527.131.571.263.066.153.154 1.029.242 1.926l.132 1.643c2.197.262 3.031.437 3.273.547a3.01 3.01 0 0 0 1.055.219c.329-.022.702.109.834.263.154.153.44.853.66 1.554l.417 1.248H61.29c1.098-2.386 1.515-2.934 1.933-3.153.33-.153.659-.503.769-.766.131-.394.33-.46 1.362-.46 1.076 0 1.23-.044 1.318-.503.066-.263.11-.811.11-1.205 0-.372.066-.7.175-.7.088-.022.66.328 1.252.744a23.4 23.4 0 0 0 1.978 1.248c.769.416 1.12.46 2.746.35a11.733 11.733 0 0 0 3.405-.678c.856-.307 1.757-.788 2.043-1.073.395-.372.483-.723.483-1.576-.022-.964-.11-1.183-.769-1.818-.417-.372-1.076-.744-1.428-.81-.395-.065-.637-.219-.593-.394.044-.131 1.164-.635 2.482-1.073 1.319-.438 2.878-.919 3.493-1.051.835-.175 1.714-.175 3.625.022 2.065.219 2.768.219 3.844 0 1.187-.262 1.472-.459 3.032-1.97.945-.92 2.021-2.102 2.373-2.649.395-.591.637-1.27.637-1.708 0-.372-.176-1.051-.396-1.467-.198-.416-.593-.854-.879-.985-.263-.11-.483-.351-.483-.504 0-.131.462-.569 1.033-.941.593-.394 1.603-.876 2.262-1.073.923-.307 1.56-.372 2.637-.263.79.088 1.779.219 2.196.285.637.109.923 0 1.648-.548.483-.394 1.12-.678 1.428-.678.307 0 .813-.175 1.142-.438.396-.263.615-.635.615-.985 0-.307-.132-.81-.307-1.161-.176-.328-.593-.854-.945-1.182-.329-.328-1.054-.788-1.604-1.029-.549-.241-1.559-.482-2.24-.504-.725-.043-1.252-.153-1.209-.284.044-.132.506-.438 1.055-.723.527-.263 1.648-.81 2.504-1.204.989-.438 1.626-.898 1.802-1.248.153-.306.637-.788 1.076-1.095.461-.306.901-.832 1.033-1.204.153-.525.087-.854-.33-1.62-.285-.547-.747-1.16-1.054-1.401-.308-.22-1.055-.46-1.648-.526-.769-.087-1.318-.022-1.823.241-.374.197-.747.329-.791.285-.066-.022.571-2.168 1.406-4.751a274.742 274.742 0 0 1 2.614-7.838l1.12-3.11c-1.032-1.225-1.076-1.4-.856-1.926.131-.328 1.208-1.598 2.416-2.846 2.021-2.08 2.175-2.3 2.175-3.11 0-.656-.11-.963-.505-1.203-.264-.176-.901-.329-1.428-.329-.506 0-1.296.153-1.758.329-.439.175-.856.262-.922.197-.066-.066-.176-3.832-.264-8.364-.11-6.59-.22-8.955-.593-11.757-.264-1.927-.637-4.248-.813-5.145a91.275 91.275 0 0 0-.857-3.722c-.285-1.139-.944-3.263-1.45-4.708-.505-1.444-1.691-4.116-2.614-5.91-.922-1.818-2.197-4.117-2.856-5.146a77.502 77.502 0 0 0-2.153-3.175c-.505-.722-1.8-2.299-2.855-3.48-1.055-1.205-3.01-3.154-4.328-4.358-1.318-1.182-3.603-2.956-5.053-3.94-1.45-.964-3.932-2.387-5.492-3.132-1.56-.766-4.195-1.839-5.821-2.364C69.77 2.21 67.2 1.51 65.684 1.204c-1.516-.306-4.042-.7-5.602-.897C58.325.109 55.601 0 53.052 0c-2.284.022-4.48.088-4.832.131-.213.027-.77.11-1.443.209Zm-4.379 1.937c1.274-.284 3.207-.679 4.284-.854 1.45-.24 3.427-.306 7.469-.262 4.394.065 6.041.175 8.238.547 1.516.263 3.932.788 5.382 1.16 1.45.373 3.58 1.051 4.723 1.49a133.32 133.32 0 0 1 3.515 1.488c.79.35 2.417 1.204 3.625 1.905 1.208.678 3.141 1.948 4.284 2.824 1.142.854 3.163 2.584 4.46 3.853 1.317 1.27 3.118 3.175 3.997 4.27a75.293 75.293 0 0 1 3.054 4.16c.79 1.204 2.197 3.612 3.075 5.364.901 1.751 2.087 4.247 2.636 5.583.528 1.335 1.34 3.744 1.758 5.364.417 1.62.988 4.225 1.23 5.802.264 1.576.593 4.466.769 6.459.176 1.992.329 6.02.329 8.976 0 2.956-.109 6.196-.219 7.225-.176 1.314-.396 2.168-.835 2.934-.33.57-.725 1.16-.901 1.314-.263.197-.285-.504-.197-4.795.066-2.759.044-7.006-.066-9.415-.11-2.408-.352-5.867-.528-7.662-.197-1.818-.593-4.62-.9-6.24-.286-1.62-.791-3.854-1.099-4.927-.307-1.072-.9-2.912-1.34-4.05-.439-1.139-1.515-3.503-2.394-5.255-.879-1.751-2.373-4.357-3.34-5.802-.966-1.445-2.635-3.656-3.712-4.926-1.076-1.27-2.9-3.109-4.042-4.116-1.142-1.007-3.207-2.583-4.591-3.525-1.384-.92-3.669-2.233-5.053-2.912-1.384-.678-3.669-1.62-5.052-2.102a56.5 56.5 0 0 0-4.943-1.423c-1.34-.306-3.56-.744-4.943-.941-2.021-.285-3.69-.329-8.348-.263-4.877.088-6.217.197-8.238.591-1.34.285-3.603.876-5.053 1.358-1.45.481-3.822 1.445-5.272 2.145-1.45.701-3.625 1.927-4.833 2.737-1.208.832-2.746 1.949-3.405 2.518-.659.547-2.043 1.795-3.053 2.759-1.01.963-2.637 2.693-3.581 3.831-.967 1.139-2.549 3.262-3.515 4.707-.945 1.445-2.263 3.657-2.9 4.927-.659 1.27-1.56 3.284-1.999 4.488-.461 1.204-1.208 3.656-1.648 5.473A94.67 94.67 0 0 0 7.93 45.08c-.241 1.511-.615 4.16-.812 5.912-.286 2.43-.374 5.276-.396 11.976-.022 4.86-.088 8.823-.176 8.823-.11 0-.417-.328-.725-.7-.395-.504-.615-1.205-.79-2.365-.132-.898-.242-4.598-.264-8.21-.022-4.708.088-7.62.351-10.29.198-2.037.616-5.146.923-6.897a82.886 82.886 0 0 1 1.208-5.583c.352-1.336.923-3.24 1.296-4.27.352-1.029 1.099-2.846 1.67-4.05a60.617 60.617 0 0 1 2.417-4.488c.768-1.27 2.02-3.153 2.79-4.182.746-1.051 2.284-2.912 3.36-4.138 1.077-1.226 2.725-2.89 3.625-3.7.9-.81 2.593-2.168 3.735-3.022a83.274 83.274 0 0 1 3.734-2.54c.901-.547 2.79-1.532 4.174-2.189 1.384-.657 3.317-1.445 4.284-1.773.967-.307 2.79-.81 4.064-1.117Zm.55 3.372c1.559-.372 3.448-.766 4.173-.854.725-.11 3.976-.153 7.25-.11 3.273.044 6.678.198 7.579.329.9.153 2.943.591 4.503.985a54.454 54.454 0 0 1 5.119 1.62 86.572 86.572 0 0 1 4.283 1.905c1.099.57 2.812 1.51 3.779 2.102.966.613 2.636 1.817 3.734 2.693 1.099.876 2.79 2.452 3.8 3.481.99 1.03 2.55 2.89 3.472 4.138.922 1.226 2.372 3.416 3.229 4.86.857 1.446 2.153 3.854 2.856 5.365.725 1.51 1.582 3.569 1.933 4.598.33 1.028.813 2.649 1.055 3.612.263.963.659 2.824.9 4.16.242 1.335.593 3.94.791 5.802.176 1.86.417 5.364.527 7.772.11 2.409.132 6.371-.11 13.224l-.878.132c-.484.065-.901.11-.923.065-.022-.043-.154-4.16-.285-9.151-.11-4.992-.33-9.918-.44-10.947-.132-1.03-.417-3.131-.659-4.708a86.782 86.782 0 0 0-1.12-5.692c-.396-1.577-1.143-3.985-1.692-5.364-.549-1.38-1.603-3.656-2.306-5.036-.725-1.38-1.758-3.218-2.285-4.05a72.08 72.08 0 0 0-2.24-3.175c-.682-.898-2.176-2.605-3.318-3.81-1.142-1.182-3.032-2.912-4.174-3.831-1.142-.92-3.032-2.233-4.174-2.912-1.142-.679-2.878-1.598-3.844-2.036-.967-.438-2.702-1.117-3.845-1.533-1.142-.394-3.229-.963-4.613-1.27-1.384-.306-3.647-.722-4.987-.897-1.384-.197-4.02-.35-5.997-.35-1.933 0-4.481.109-5.646.218-1.186.132-3.383.526-4.899.898-1.515.372-3.822 1.117-5.162 1.642-1.34.526-3.515 1.577-4.833 2.32-1.34.767-3.47 2.19-4.723 3.176-1.274.985-3.295 2.802-4.503 4.05-1.23 1.248-2.812 3.043-3.537 4.007-.725.963-1.736 2.342-2.22 3.065a54.38 54.38 0 0 0-1.932 3.175c-.571 1.029-1.472 2.89-1.977 4.16-.506 1.27-1.252 3.371-1.626 4.707-.395 1.335-.989 3.831-1.34 5.583-.352 1.751-.835 4.948-1.098 7.115-.308 2.846-.484 6.13-.594 11.823-.087 5.342-.22 7.926-.373 8.035-.132.088-.637.175-2 .175l.155-7.925c.088-4.38.263-9.02.395-10.356.11-1.336.417-3.832.681-5.583.242-1.752.725-4.401 1.077-5.912.329-1.51 1.032-4.006 1.56-5.583.505-1.576 1.537-4.072 2.306-5.583.769-1.51 2.065-3.765 2.9-5.035.834-1.27 2.46-3.394 3.602-4.708 1.143-1.313 2.768-3.043 3.603-3.831a89.788 89.788 0 0 1 3.273-2.912 33.965 33.965 0 0 1 3.625-2.65c1.033-.634 2.658-1.554 3.625-2.035.966-.482 2.658-1.226 3.734-1.664 1.077-.438 3.274-1.095 4.833-1.49Zm8.677 10.203c0-.22.263-.35.834-.395.44-.021 1.011.066 1.253.22.241.153.593.35.768.415.176.066.66-.043 1.055-.24.483-.241.967-.329 2.24-.11l-.46 1.03c-.242.59-.506 1.116-.594 1.181-.088.088-1.01.197-3.998.416l-.55-1.094c-.307-.613-.548-1.248-.548-1.423Zm6.546 2.386c-.11-.044.088-.591.418-1.204l.57-1.139 1.736.154c.945.065 1.933.24 2.219.372.469.233.462.24-1.326 2.042l-.168.17-1.648-.154c-.9-.088-1.713-.197-1.8-.241Zm-11.687-1.38c.066-.065.747-.24 1.494-.372.747-.13 1.56-.24 1.78-.219.241.022.658.373.944.81.286.417.505.92.505 1.14 0 .306-.307.437-1.384.612-.747.11-1.625.22-1.91.22-.44 0-.66-.198-1.055-1.052-.286-.57-.44-1.095-.374-1.138ZM63.4 18.545c.197-.262.768-.7 1.274-.985.725-.416 1.098-.481 1.801-.372.483.088 1.318.35 1.867.57.528.218.923.46.879.503-.066.044-.79.438-3.076 1.664l-1.537-.438c-1.516-.438-1.538-.46-1.209-.942Zm-22.122.395c0-.132.637-.482 1.406-.81.747-.307 1.581-.592 1.823-.592.286-.021.637.285 1.032.898.33.504.594 1.007.594 1.095.022.087-.637.372-2.834 1.05l-1.033-.722c-.549-.394-1.01-.81-.988-.92Zm6.414 1.488c1.143-.284 3.01-.656 4.174-.81 1.143-.175 2.724-.328 3.515-.328.769-.022 2.46.11 3.735.285 1.252.175 3.097.503 4.064.744.966.263 2.35.7 3.075.985.725.285 1.736.767 2.241 1.095.527.328.945.722.945.92a.337.337 0 0 1-.33.328c-.198 0-1.01-.307-1.823-.679-.813-.372-2.131-.92-2.9-1.182-.79-.285-2.285-.679-3.295-.898-1.384-.306-2.746-.416-5.163-.416-2.46.022-3.91.132-5.711.504-1.34.24-3.12.7-3.955.985-.856.285-1.845.679-2.196.854-.374.197-.945.591-1.274.92-.528.481-.594.678-.484 1.554.088.854.044 1.007-.395 1.226-.264.131-1.23.788-2.11 1.467l-.731.553c-.672.508-1.3.984-1.575 1.177-.659.438-.725.46-1.34.13-.527-.284-.835-.306-1.428-.108-.461.13-1.252.722-1.889 1.379-.615.657-1.735 2.102-2.482 3.262-.835 1.27-1.78 3.13-2.439 4.817a72.202 72.202 0 0 0-1.78 5.145c-.373 1.314-.79 2.496-.878 2.627-.11.131-.242-.044-.351-.438-.066-.372-.022-1.248.131-1.97.154-.723.703-2.408 1.209-3.722.527-1.336 1.362-3.262 1.867-4.27.527-1.029 1.494-2.714 2.175-3.722.68-1.029 2.197-2.846 3.36-4.05 1.165-1.204 2.637-2.605 3.296-3.109.637-.503 2.021-1.401 3.054-1.992a66.498 66.498 0 0 1 3.734-1.905c1.01-.46 2.79-1.073 3.954-1.358Zm20.65-.394c.352-.197 1.033-.438 1.472-.547.462-.11 1.077-.153 1.384-.11l.317.05c.325.052.763.122 1.111.17.483.087 1.274.394 2.636 1.291l-1.538.241c-.856.11-1.933.394-3.295 1.007l-1.296-.722c-.725-.394-1.34-.81-1.384-.898-.044-.088.22-.306.593-.482ZM36.38 21.83c.066-.088.857-.591 1.78-1.139l1.669-.963.988.678c.55.373.967.745.967.81-.022.066-.703.46-2.988 1.577l-1.252-.394c-.68-.219-1.208-.482-1.164-.57Zm17.574.788c.242-.153.989-.482 1.648-.723.659-.24 1.428-.438 1.691-.438.286 0 .725.088 1.033.198.417.197.483.328.395.941-.088.613.11 1.007 1.45 2.956 1.318 1.86 1.538 2.299 1.296 2.561a1.352 1.352 0 0 1-.769.438c-.285.066-.812-.087-1.318-.394-.439-.284-1.252-.657-1.78-.832-.526-.153-1.185-.547-1.427-.876-.264-.306-.637-.875-.857-1.248-.197-.394-.505-.656-.659-.613-.154.022-.285.285-.33.548-.021.262.154.875.418 1.4.395.79.44 1.161.33 2.519-.11 1.204-.066 1.62.153 1.751.176.088.77.548 2.329 1.905l-.44.941c-.219.504-.373 1.03-.307 1.139.066.131.264.219.44.219.175 0 .9-.744 1.581-1.642.813-1.073 1.472-1.708 1.824-1.795.307-.066 1.625.109 2.965.372 1.318.284 2.505.59 2.636.679.132.13.088.24-.11.328-.175.066-1.12-.022-2.087-.219-.966-.197-2.13-.35-2.592-.35-.593 0-.922.153-1.208.525-.198.263-.923 1.664-1.582 3.065s-1.296 2.562-1.384 2.562c-.087 0-.769-.526-1.493-1.16a57.966 57.966 0 0 0-2.153-1.752c-.44-.35-.923-.613-1.077-.613-.154 0-.263.175-.263.394 0 .197.373.766 1.647 2.058l-.769.657c-.417.372-1.34 1.05-2.043 1.51-.768.526-1.691.942-2.416 1.073-.637.132-1.472.241-1.867.22-.637 0-.725-.066-.835-.81-.066-.46-.22-1.008-.33-1.205-.11-.219-.351-.394-.527-.394-.263 0-.33.285-.33 1.27 0 1.248-.021 1.27-1.274 2.452-1.032 1.007-1.581 1.336-3.119 1.861-1.01.372-1.977.788-2.13.941-.177.154-.287.81-.287 1.643 0 1.138-.087 1.532-.637 2.342-.351.548-.703 1.27-.769 1.599-.087.328-.175.59-.241.59s-.374-.109-.66-.262c-.307-.153-.57-.394-.548-.547 0-.154.351-.745.79-1.314.418-.57.923-1.577 1.099-2.255.176-.657.461-1.489.615-1.861.176-.35.813-1.27 1.428-2.014.944-1.16 1.098-1.467.966-1.97a22.586 22.586 0 0 1-.263-1.709c-.132-1.007-.176-1.094-.791-1.16-.483-.044-.835.11-1.274.547-.33.35-.703.964-.813 1.38-.11.438-.373 2.145-.571 3.831-.242 2.124-.483 3.284-.769 3.788-.242.394-.637.766-.923.832-.263.066-.505.087-.549.044-.022-.022.242-.46.615-.942.374-.482.725-1.117.791-1.423.066-.285.022-.635-.11-.766-.154-.132-.44.044-.878.547-.159.197-.344.421-.52.633-.214.26-.414.502-.535.659-.264.372-.527.482-.79.394-.198-.088-.374-.263-.396-.416 0-.153.373-.526.835-.854.461-.306 1.01-.898 1.208-1.314.198-.394.659-1.73 1.032-2.933.506-1.664.857-2.409 1.494-3.153.462-.526 1.208-1.139 1.648-1.358.461-.219 2.394-.722 4.284-1.094 1.91-.394 3.558-.789 3.69-.876.132-.131.11-.307-.11-.526-.307-.306-.637-.284-3.295.22-1.626.306-3.47.678-4.064.853-.615.175-1.582.679-2.153 1.117-.571.416-1.12.766-1.208.766-.088 0-.352-.175-.571-.372-.396-.372-.483-.307-2.241 1.576-1.01 1.095-1.845 1.861-1.845 1.708 0-.153.263-.788.57-1.423.308-.635 1.1-1.97 1.758-2.956.66-1.007 2.197-2.868 3.45-4.16 1.273-1.291 2.811-2.78 3.47-3.284.66-.503 1.933-1.335 2.834-1.86.9-.504 2.24-1.117 2.966-1.358 1.296-.394 1.34-.394 2.043 0 .395.24.769.59.813.81.066.197.022.547-.088.766-.11.197-.308.854-.44 1.423-.175.7-.175 1.204-.022 1.577.132.328.396.547.66.547.373 0 .439-.131.439-.92 0-.525.154-1.379.33-1.926.197-.526.68-1.51 1.098-2.19.417-.657 1.164-1.62 1.691-2.167.505-.526 1.143-1.073 1.384-1.248ZM31.7 25.879c-.176-.11.263-.591 1.406-1.423 1.252-.963 1.823-1.248 2.35-1.226.396 0 .989.087 2.021.306l-.944.876c-.528.482-1.275 1.03-1.648 1.248-.417.22-1.164.372-1.801.372-.615 0-1.23-.065-1.384-.153Zm30.513.438c-.747-1.007-1.362-1.905-1.384-2.014 0-.11.396-.11.945.022.527.11 2.35.788 4.042 1.488 1.691.723 3.23 1.467 3.405 1.664.264.285.286.701.198 1.927-.11 1.139-.308 1.817-.725 2.496-.308.504-.703 1.007-.835 1.095-.198.11-.22 0-.11-.438.132-.504.066-.657-.351-.854-.264-.131-1.67-.482-3.12-.766-1.45-.285-2.922-.504-3.251-.504-.33-.022-.593-.11-.593-.24 0-.11.461-.439 1.032-.745.572-.285 1.274-.7 2.087-1.336l-1.34-1.795Zm-12.939-1.03c-.154-.196-.22-.437-.154-.568.066-.11.374-.22.66-.22.307 0 .548.088.548.176 0 .087-.175.328-.373.547-.351.35-.44.35-.68.066Zm-20.65 2.366c.088-.044.791-.176 1.538-.263.769-.11 1.757-.22 3.032-.263l-.418.613c-.242.329-.967 1.095-1.604 1.73-1.12 1.073-1.252 1.116-3.14 1.467-1.1.175-2.022.284-2.088.24-.066-.043.483-.853 1.208-1.773.725-.92 1.384-1.708 1.472-1.752Zm27.636 1.773c0-.285.044-.679.132-.876.066-.175.153-.328.22-.328.043 0 .505.197 1.01.416.527.24 1.252.7 2.328 1.664l-1.603 1.576-1.055-.941c-.703-.657-1.032-1.139-1.032-1.511Zm13.18 3.393c.352-.525.77-1.488.901-2.123.154-.635.308-1.16.352-1.16.022 0 1.164.437 2.526.963 1.362.525 3.669 1.489 5.119 2.102 1.45.635 3.427 1.554 4.393 2.036.967.481 1.934 1.029 2.131 1.226.22.197.33.438.286.525-.066.088-.264.154-.44.154-.175 0-.9-.35-1.603-.789-.681-.438-1.648-.92-2.131-1.072a55.681 55.681 0 0 1-1.758-.613c-.505-.197-1.603-.35-2.592-.35-1.516-.023-1.691-.045-1.56-.395.066-.219.154-.525.154-.722.022-.197-.593-.635-1.603-1.139-.901-.46-1.758-.81-1.868-.832-.132 0-.505.876-.856 1.927-.33 1.05-.901 2.605-1.253 3.437-.439 1.095-.9 1.817-1.625 2.474-.55.504-1.802 1.467-2.812 2.102-.989.657-2.834 1.73-4.108 2.386-1.274.657-3.142 1.533-4.152 1.95-1.01.393-1.955.853-2.087 1.028-.198.241-.11.394.417.745.352.262 1.099.92 1.648 1.466.55.548 1.34 1.62 1.757 2.387.418.766.857 1.445.989 1.51.11.044 1.296-.372 2.636-.94 1.233-.533 3.274-1.373 4.666-1.945l.277-.114c1.384-.591 3.756-1.467 5.272-1.97 1.516-.526 4.24-1.314 6.085-1.796 1.846-.46 5.163-1.094 7.36-1.423 2.218-.306 4.151-.678 4.305-.81.264-.219.242-.284-.11-.394-.22-.087-.966-.175-1.67-.175-.68 0-1.251-.066-1.251-.132 0-.043.241-.437.549-.875.505-.7.593-.745 1.142-.526.33.132 1.472.723 2.527 1.314 1.054.591 1.889 1.16 1.845 1.248-.044.088-.769.24-1.604.328-.813.11-2.922.416-4.679.723-1.757.284-5.009.985-7.25 1.532-2.24.548-5.645 1.533-7.578 2.168-1.933.635-4.745 1.664-6.261 2.299s-3.823 1.686-7.47 3.503l-.724-1.358c-.396-.744-1.34-2.036-2.131-2.868-.791-.832-1.758-1.686-2.153-1.926-.395-.22-.813-.35-.923-.307-.131.066-.22.24-.22.394 0 .154.704.92 1.582 1.708 1.165 1.05 1.824 1.861 2.417 3.021.461.854.835 1.818.835 2.102 0 .307.11.613.263.679.154.087 2.065-.7 4.24-1.708 2.175-1.029 5.14-2.342 6.59-2.912 1.45-.569 3.779-1.401 5.163-1.86 1.384-.46 4.35-1.27 6.59-1.818a110.22 110.22 0 0 1 7.36-1.554c1.8-.285 4.283-.657 5.492-.789 1.56-.153 2.372-.153 2.855 0 .418.154.572.307.44.438-.132.11-2.549.613-5.382 1.095a447.669 447.669 0 0 0-9.447 1.795c-2.35.46-5.667 1.248-7.359 1.752-1.691.481-4.371 1.357-5.931 1.948a82.668 82.668 0 0 0-4.723 1.905c-1.033.46-3.01 1.51-4.394 2.3-1.384.81-2.68 1.466-2.856 1.466-.175.022-.835-.7-1.428-1.555-.615-.875-1.56-2.036-2.087-2.583-.549-.547-1.362-1.182-1.823-1.38-.44-.218-1.12-.394-1.472-.394-.373 0-.9.132-1.208.285-.308.153-.637.46-.747.7-.088.242-.308.942-.44 1.533-.153.613-.812 3.722-1.471 6.897-.66 3.197-1.538 7.29-1.955 9.086-.396 1.817-.88 3.853-1.077 4.554-.197.679-.483 1.248-.637 1.248-.154 0-.857-.153-1.582-.35-.724-.197-2.46-.832-3.844-1.423-1.384-.591-2.614-1.16-2.702-1.248-.088-.088.154-.46 1.274-1.511l2.592 1.007c2.021.788 2.68.963 2.966.788.198-.131.593-.678.835-1.204.263-.547.944-2.802 1.494-5.035.549-2.212 1.45-6.24 1.999-8.911l.211-1.08c.433-2.209.777-3.961.777-4.131 0-.175-.197-.329-.44-.329-.24 0-1.647.898-3.14 1.993-1.472 1.094-2.988 2.145-3.34 2.32-.593.285-.703.285-.988-.021-.308-.329-.286-.416.22-.789.307-.219 3.404-2.364 6.92-4.729 1.38-.944 2.968-2.024 4.528-3.087 2.385-1.623 4.705-3.202 6.126-4.182a366.28 366.28 0 0 0 7.14-5.057c1.56-1.16 3.58-2.803 4.459-3.635.9-.832 1.911-1.97 2.24-2.518Zm-43.87.022c.264-.175.967-.437 1.582-.59.593-.132 1.318-.263 1.582-.285.483-.022.483.022-.308 1.467-.439.81-1.01 1.707-1.252 1.97-.263.263-.769.547-1.12.613-.373.066-1.164.285-1.757.46-.616.175-1.143.263-1.209.197-.066-.066.352-.876.945-1.817.571-.942 1.252-1.84 1.538-2.015Zm45.628 3.044c-.132 0 .044-.832.374-1.861.33-1.007.68-1.861.768-1.861.088 0 .462.153.835.328.352.197.66.416.637.504 0 .087-.527.766-1.208 1.532-.659.745-1.296 1.358-1.406 1.358Zm-9.007-.876c-.132-.591-.22-1.182-.22-1.314 0-.11.154-.219.33-.219.176 0 .55.482.79 1.051.462 1.007.462 1.051.067 1.314-.242.153-.505.285-.593.285-.088-.022-.264-.504-.374-1.117Zm2.46.285c-.153-.22-.285-.548-.285-.767 0-.306.132-.35.725-.24.395.065.879.218 1.055.306.241.131.153.263-.44.613-.725.438-.79.438-1.054.088Zm-6.612 4.16c.198-.22.879-1.402 1.494-2.65.637-1.226 1.23-2.19 1.362-2.123.11.065.264.437.33.832.066.394.263.92.439 1.204.198.306.527.481 1.516.503l-.55.416c-.307.241-2.57 1.861-5.052 3.59-2.482 1.73-7.82 5.365-11.863 8.08-4.042 2.693-7.776 5.123-8.304 5.386-.505.263-1.098.416-1.318.372-.197-.066-1.208-.92-2.219-1.927-1.01-.985-2.065-2.211-2.35-2.693-.286-.481-.703-1.4-.923-2.08-.241-.656-.483-1.795-.57-2.517-.089-.767-.067-1.599.065-2.015.132-.394.33-.722.461-.722.132 0 1.099-.832 2.153-1.861 1.055-1.03 1.955-1.817 2.021-1.752.066.066-.066.723-.263 1.49-.198.743-.462 1.773-.594 2.298-.131.504-.483 1.204-.768 1.533-.286.328-.967.766-1.538.985-.747.284-1.01.503-1.01.81 0 .24.307.81.702 1.248.396.438 1.143 1.029 1.648 1.314.659.35.989.7 1.054 1.116.088.329.22.745.308.92.11.197.615.547 1.142.832.528.262 1.143.481 1.34.481.22 0 .44-.175.506-.372.066-.219.505-1.16.988-2.08.483-.941.879-1.927.879-2.19-.022-.284.066-.569.154-.656.087-.088.79.285 1.537.832 1.033.722 1.692 1.029 2.637 1.182.724.11 1.405.131 1.603.022.176-.11.55-.416.813-.7.264-.285.571-.789.703-1.117.198-.526.176-.635-.198-.832-.241-.11-.856-.22-1.384-.22-.659.023-1.23-.174-1.977-.656-.571-.35-1.032-.7-1.032-.766 0-.044.263-.241.593-.394.33-.175 1.208-.81 1.933-1.423.633-.526.962-.8 1.34-.954.409-.166.875-.194 1.845-.25 1.033-.044 2.22-.241 2.636-.439.418-.175 1.626-.963 4.614-3.218l1.032.788c.572.416 1.209.767 1.384.767.176 0 .484-.176.681-.395Zm15.488-3.876c.351-.219.878-.482 1.186-.569.308-.11.813-.175 1.12-.197.462-.022.528.044.33.306-.132.197-.55.373-.9.438a3.628 3.628 0 0 0-1.275.548c-.55.416-.593.569-.593 1.86 0 1.27.066 1.49.593 1.993.395.35.857.547 1.274.526.352 0 .989-.132 1.406-.285.527-.175.813-.438.9-.81a2.935 2.935 0 0 0 0-1.073 1.085 1.085 0 0 0-.614-.7c-.264-.11-.725-.132-1.033-.088-.366.073-.549.255-.549.547 0 .292.147.438.44.438.241 0 .483.11.549.219.066.131-.088.328-.33.438a1.247 1.247 0 0 1-.835.087 1.764 1.764 0 0 1-.549-.394c-.088-.131-.154-.525-.154-.897-.022-.35.11-.767.264-.898.154-.153.659-.328 1.098-.394.703-.11.923-.022 1.472.482.352.328.703.853.791 1.138.088.307.088.832.022 1.16-.066.329-.374.854-.681 1.139-.461.482-.725.547-1.867.547-1.12 0-1.428-.087-2.021-.59-.374-.33-.835-.92-.989-1.315-.154-.394-.285-1.007-.285-1.379 0-.35.131-.92.307-1.248.154-.328.571-.788.923-1.029Zm4.92.854c-.373-.416-.615-.898-.549-1.095.044-.175.33-.328.594-.328.285 0 .615.131.768.328.22.263.22.416 0 .767-.175.292-.19.51-.044.657.154.175.462.065 1.033-.307.461-.306.879-.57.945-.57.065 0 1.274.789 2.68 1.73 1.428.942 2.768 1.905 2.965 2.146.374.394.374.438-.373 1.445-.417.57-.857 1.029-.945 1.05-.088 0-.593-.152-1.142-.35-.55-.175-1.582-.328-2.307-.328-.835 0-1.472-.131-1.713-.328-.198-.175-.484-.263-.593-.22-.132.066-.22.242-.22.395 0 .153-.264.394-.593.547-.352.132-1.252.394-2.043.57-.791.175-2.526.635-3.845 1.007l-.156.043c-1.268.352-2.284.634-2.326.614-.022 0-.417-.635-.879-1.424-.44-.788-.966-1.423-1.142-1.423-.176 0-2.109 1.095-4.284 2.387-2.175 1.313-4.064 2.54-4.174 2.736-.154.241-.088.613.264 1.336.285.547.68 1.051.879 1.139.241.065 1.933-.482 4.24-1.402 2.108-.854 4.942-1.904 6.304-2.342a196.097 196.097 0 0 1 4.504-1.314 60.379 60.379 0 0 1 4.24-.876c1.208-.197 2.218-.306 2.24-.24.044.065.022.218-.044.328-.066.131-.285.219-.505.219-.198 0-1.757.35-3.449.744a105.363 105.363 0 0 0-5.931 1.686c-1.582.504-4.152 1.445-5.712 2.08-1.582.635-3.734 1.554-6.7 2.934l-.923-1.358c-.505-.766-1.296-1.795-2.592-3.24l.923-.35c.527-.197 2.13-.964 3.58-1.708 1.45-.744 3.471-1.883 4.504-2.562 1.032-.678 2.57-1.73 3.449-2.364 1.032-.7 1.625-1.007 1.691-.832.044.153.264.766.484 1.357.22.613.637 1.336.944 1.62.308.285.813.613 1.12.723.308.131 1.209.219 2.022.197.812 0 1.757-.153 2.087-.307.33-.175.79-.569.988-.875.286-.438.396-1.03.396-2.234 0-1.51-.066-1.707-.66-2.408Zm-56.435 2.693c.11-.219.9-.722 1.78-1.16.856-.416 1.757-.767 1.976-.767.22 0 .396.154.396.329 0 .197-.396 1.401-.9 2.693-.484 1.291-.924 2.408-.99 2.452-.065.066-.263-.11-.483-.394-.198-.285-.461-.438-.549-.329-.088.11-.44 1.227-1.406 4.773l-1.186.394c-.66.22-1.516.416-1.933.438-.55.044-.813-.065-1.033-.438-.307-.481-.264-.525.9-1.16.66-.35 1.275-.832 1.363-1.029.088-.219.044-.416-.11-.438-.154-.044-.264-.153-.264-.284 0-.11.418-.832.945-1.577.527-.766 1.032-1.773 1.12-2.255.088-.482.264-1.05.374-1.248Zm15.663 2.737c.066-.526.22-1.183.352-1.489.11-.285.307-.547.439-.547.11 0 .22.372.22.832 0 .569-.176 1.029-1.12 2.123l.109-.92Zm29.832 2.43c-.373-.766-.373-.788.154-1.204.286-.219.571-.416.66-.416.065 0 .35.46.636 1.05.396.81.44 1.074.22 1.205-.154.088-.505.153-.79.153-.352 0-.594-.219-.88-.788Zm-2.284.547c-.022-.197.088-.416.263-.481.176-.066.374-.132.44-.132.066-.021.285.329.483.745.352.679.352.788.066.941-.22.11-.505 0-.79-.284-.243-.241-.462-.592-.462-.789Zm-23.945 1.993c-.945-.657-1.648-1.27-1.582-1.358a.506.506 0 0 1 .373-.175c.132 0 .945.482 1.802 1.095 1.208.876 1.713 1.117 2.35 1.117.572-.022.813.065.747.262-.044.153-.439.263-1.032.263-.813 0-1.252-.197-2.658-1.204Zm22.187-.876c-.022-.197.044-.416.154-.504a.624.624 0 0 1 .374-.153c.087 0 .263.197.395.438.154.328.132.547-.066.766-.22.285-.33.285-.55.066-.153-.153-.307-.438-.307-.613Zm-1.56 1.773c-.087 0-.197-.153-.263-.35-.066-.175 0-.481.154-.657.242-.306.307-.306.593-.022.307.307.307.373.022.68-.176.196-.418.35-.505.35Zm30.207.701c.9.132 1.076.11 1.164-.219.11-.306.154-.328.285-.087.11.218.44.262 1.253.153 1.01-.132 1.054-.11.659.197-.242.197-.615.35-.835.35-.198-.022-.44.11-.505.263-.088.153.066.547.33.876.24.328.46.722.46.875 0 .154-.351-.13-.768-.613-.637-.7-.813-.81-.967-.547-.11.197-.395.591-.659.876-.308.372-.461.46-.461.219 0-.175.197-.613.417-.986.242-.35.395-.722.33-.81-.044-.087-.396-.175-.747-.175-.374 0-.747-.11-.835-.262-.11-.197.11-.22.879-.11Zm-74.616.532c.43-.083.91-.175 1.309-.247.724-.154 1.625-.307 2.02-.307.704-.044.726-.022.594.679-.066.394-.396 1.248-.703 1.905-.33.678-1.143 1.795-1.802 2.496-.747.788-1.713 1.532-2.526 1.926-1.033.504-1.56.635-2.416.57-1.033-.044-1.099-.088-1.033-.614.022-.284.286-.875.593-1.27.286-.415 1.208-1.16 2.021-1.663.813-.526 1.516-1.095 1.538-1.292.044-.219-.198-.504-.593-.7-.374-.176-.681-.504-.703-.745-.044-.35.11-.46.813-.57.217-.039.536-.1.888-.168Zm6.471 11.51c0-5.036.066-9.634.132-10.247.132-.832.198-.985.33-.656.087.24 1.076 4.532 2.174 9.524 1.098 5.013 2.043 9.217 2.087 9.37.066.175-.373.373-1.384.57-.813.175-1.89.372-3.339.569v-9.13Zm48.659-8.999c1.208-.372 3.273-.985 4.613-1.335 1.203-.32 2.278-.585 2.523-.645l.048-.012c.087 0 .175.263.175.591 0 .329.11 1.84.22 3.328.11 1.51.33 3.284.461 3.941.132.679.725 2.78 1.318 4.707.594 1.927 1.12 3.832 1.187 4.226.087.57 0 .766-.396 1.029-.307.219-.9.328-1.691.285-1.077-.044-1.209 0-1.538.525-.286.525-.286.744-.044 1.642.242.92.22 1.095-.066 1.38-.286.262-.879.328-2.856.284-1.406-.044-2.526.022-2.548.11 0 .087.132.284.286.437.153.132 1.12.373 2.152.504 1.033.131 2 .35 2.153.504.154.13.286.372.264.525 0 .153-.33.328-1.428.482l.066 2.364c.044 1.686-.022 2.43-.22 2.627-.154.154-.79.373-1.384.504-.615.11-2.592.285-4.393.394-2.966.153-3.405.22-4.284.723-.55.306-1.318.92-1.714 1.357-.395.46-.856 1.336-1.076 2.058-.286 1.007-.373 2.233-.373 6.218-.023 3.788.043 5.036.263 5.255.22.24.308.24.505-.044.132-.175.154-1.03.088-2.014-.11-1.511-.066-1.708.264-1.686.22 0 .769.416 1.23.92.461.503 1.032 1.466 1.274 2.123.286.723.505 2.058.593 3.328.088 1.182.242 2.255.374 2.386.11.132.33.197.483.11.198-.088.286-.7.286-1.883 0-.963-.11-2.255-.242-2.89a14.483 14.483 0 0 0-.79-2.255c-.33-.635-1.187-1.686-2.132-2.562-1.098-1.029-1.493-1.554-1.34-1.707.154-.198.55-.11 1.428.284.66.285 1.494.81 1.824 1.16.351.35.856 1.139 1.164 1.73.285.613.769 2.08 1.076 3.284.396 1.62.55 2.759.55 4.335 0 1.161.087 2.387.22 2.671.109.307.373.635.548.723.198.088.44.066.572-.066.153-.131.131-.525-.066-1.16-.286-.92-.264-.985.263-1.379.308-.219.66-.504.813-.635.154-.11.286-.285.286-.373 0-.087-.308-.262-.703-.394-.594-.175-.747-.35-.791-.875-.044-.373.044-.723.22-.81.153-.088.593-.154.988-.176.505 0 .813.154 1.055.504.175.263.329.657.329.876 0 .197-.22.656-.461.985-.286.35-.418.744-.33.985.066.197.308.35.505.329.198-.044.572-.373.813-.745.242-.341.502-.774.645-1.013l.036-.06c.154-.284.396-.35.923-.24.395.087.922.35 1.164.634.242.263.44.701.44.986 0 .262-.44 1.051-.967 1.751-.55.679-1.428 1.62-1.977 2.08-.571.438-1.01.963-1.01 1.139 0 .197.263.503.592.7.396.241.813.307 1.209.219.351-.087.615-.066.615.066 0 .131-.242.219-.55.219-.307 0-.702.065-.878.109-.176.066-.33.307-.33.548 0 .306.154.438.484.438.285.021.659.109.834.218.264.154.286.285.066.811-.154.35-.461.788-.659.985a2.12 2.12 0 0 1-.922.438c-.308.043-.572.197-.615.35-.044.153.22.416.593.591.395.219.659.504.659.766 0 .351-.154.438-.66.438-.505 0-.724-.131-.878-.547-.132-.328-.395-.547-.66-.547-.395 0-.439.153-.439 1.204 0 .678-.087 1.204-.175 1.204s-.374-.219-.637-.482c-.374-.372-.462-.657-.352-1.16.088-.438 0-.854-.263-1.314-.374-.635-.396-.635-.703-.219a1.43 1.43 0 0 0-.176 1.051c.044.329.066.701 0 .81-.066.132-.418.022-.835-.262a28.464 28.464 0 0 1-.46-.316c-.182-.126-.315-.219-.353-.232-.066-.044.286-.46.77-.919.79-.789.834-.898.548-1.248-.175-.197-.725-.548-1.208-.767-.835-.372-.879-.438-.835-1.269.044-.482-.044-.942-.153-1.008-.132-.043-.506.197-.835.57-.33.35-.703.656-.813.656-.132 0-.373.088-.55.198-.285.175-.263.262.55 1.094l-.615.285c-.505.219-.66.219-.945-.066-.175-.175-.395-.766-.461-1.313-.066-.526-.066-1.314 0-1.752.088-.416.286-.963.44-1.204.15-.205.227-.309.298-.304.073.004.138.124.273.369.197.395.153.679-.198 1.467-.242.548-.374 1.051-.286 1.117.088.066.352.109.55.109.219-.021.527-.24.702-.503.176-.285.396-.898.484-1.379.11-.482.351-1.073.549-1.314.146-.172.235-.276.346-.31.172-.054.397.061.972.354.747.394 1.032.438 1.252.219.154-.132.22-.373.154-.526-.066-.153-.044-.284.044-.284s.285.131.44.284c.24.219.35.197.636-.065.33-.285.308-.373-.066-1.03-.22-.394-.703-.875-1.054-1.029-.374-.175-1.252-.394-1.977-.459-.725-.066-1.472-.022-1.648.087-.176.11-.263.307-.176.438.088.131.791.372 1.538.526.769.131 1.582.437 1.823.635.418.372.396.372-.593.021-.878-.328-1.164-.35-1.757-.109-.395.153-.945.263-1.23.263-.264 0-3.537-1.402-7.25-3.131-3.712-1.73-8.897-4.116-11.533-5.32-2.636-1.183-4.767-2.278-4.767-2.43 0-.154.088-.482.22-.723.197-.416.395-.329 3.998 1.401 2.087 1.007 5.382 2.562 7.315 3.415 1.933.876 5.14 2.365 7.14 3.328 2.24 1.095 3.778 1.708 3.998 1.621.22-.066.352-.241.33-.395-.044-.153-.813-.7-1.714-1.204-.9-.525-3.844-1.926-6.568-3.153-2.724-1.226-6.832-3.13-9.117-4.247-2.307-1.117-4.372-2.168-4.613-2.343-.192-.143-.3-.223-.319-.321-.025-.127.1-.284.384-.642.264-.35.484-.81.484-1.007 0-.219.242-1.051.571-1.861.461-1.226.55-1.73.351-4.554l1.187-1.423c.637-.788 1.494-2.014 1.867-2.737.44-.81.9-2.233 1.23-3.832.308-1.379.637-2.911.725-3.393.11-.482.198-1.467.198-2.19 0-.722.088-1.62.176-2.014.087-.394.263-.722.395-.722.11 0 .835.525 1.582 1.204.769.657 1.67 1.357 2.043 1.532.505.263.725.592.966 1.49.176.634.747 1.773 1.274 2.54.506.787 1.143 1.553 1.384 1.707.242.153.616.284.813.284.22 0 .396-.153.374-.372 0-.219-.33-.722-.703-1.16-.396-.416-.989-1.204-1.318-1.752a9.607 9.607 0 0 1-.813-1.686c-.22-.678-.176-.744.505-1.116.417-.241 1.01-.723 1.318-1.095.33-.394.55-.832.483-1.029-.065-.175-.241-.328-.395-.328-.154 0-.593.35-.989.766-.527.591-.878.766-1.427.766-.396 0-.923-.131-1.165-.284-.263-.132-1.054-.767-3.053-2.54l.879-.219c.483-.131 1.032-.219 1.208-.219.175 0 .637.24 1.032.547.396.285.879.526 1.055.526.175 0 .33-.175.33-.372 0-.22-.242-.613-.99-1.38l.66-.678c.351-.373 1.01-.854 1.428-1.073.417-.22 1.647-.548 2.746-.745 1.406-.24 2.13-.481 2.482-.832.286-.284.945-1.094 1.45-1.817.527-.722 1.384-1.642 1.911-2.058a70.73 70.73 0 0 0 2.834-2.562c1.823-1.73 1.933-1.795 4.064-2.452ZM20.254 59.53c1.055-4.75 2-8.889 2.087-9.195.132-.438.198-.328.33.657.088.678.154 5.08.198 18.39h-.55c-.307 0-1.23-.13-2.043-.306-.813-.175-1.581-.46-1.713-.613-.198-.219.22-2.408 1.691-8.933Zm64.96-6.743c-.022-.35.044-.679.132-.766a.42.42 0 0 1 .395-.022c.11.066.198.416.176 1.401l1.032-.153c.791-.11 1.01-.066.879.11-.088.153-.462.328-.813.371-.373.066-.659.241-.659.395 0 .153.132.46.286.7.153.241.373.635.439.876.088.263-.154.087-1.384-1.314l-.461.548c-.242.306-.484.657-.506.766-.044.131-.131.153-.22.066-.065-.088.023-.46.198-.832.176-.35.308-.68.264-.745-.022-.044-.395-.24-1.582-.744l.923-.022c.9-.022.945-.044.9-.635Zm-37.456 2.32c.154-.634.44-1.422.66-1.75.219-.373.57-.614.878-.614.264 0 .79.197 1.186.438.396.241.725.547.725.657 0 .131-.33.547-.725.92-.395.372-1.12.875-1.647 1.094-.505.22-1.033.394-1.143.394-.131 0-.11-.416.066-1.138Zm15.927-.021c-.022-.153.703-.591 1.604-.963.9-.395 1.691-.701 1.757-.701.066 0 .132.088.11.219-.022.153-.527.525-1.12.854-.615.35-1.384.678-1.714.744-.395.088-.615.044-.637-.153Zm31.612.35c.79.044.835.022.9-.657.045-.394.154-.722.286-.722.11 0 .22.328.242.722.044.482.176.701.395.68.176-.023.593-.089.923-.154.351-.088.615-.044.615.066 0 .13-.308.306-.68.394-.396.087-.748.262-.814.372-.044.131.11.503.374.832.241.328.395.678.351.766-.066.088-.395-.175-1.362-1.38l-.527.833c-.286.438-.593.744-.703.657-.088-.088.044-.482.285-.876.259-.425.365-.6.32-.716-.032-.082-.138-.135-.32-.226-.241-.11-.593-.219-.768-.219-.176 0-.33-.087-.33-.218 0-.11.374-.198.813-.154Zm-77.371.504c.593-.416 1.274-.942 1.494-1.204.241-.241.505-.394.615-.329.11.044.11.307 0 .591-.11.263-.396.876-.637 1.358-.242.481-1.033 1.62-1.736 2.518-.725.92-1.845 2.145-2.504 2.758-.66.613-1.516 1.292-1.911 1.49-.396.196-.901.35-1.143.35-.241 0-.593-.132-.769-.329-.175-.175-.33-.613-.33-.985 0-.591.089-.679 1.143-.964.637-.175 1.384-.481 1.648-.656.285-.197.505-.482.505-.68 0-.174-.132-.328-.286-.328-.153 0-.768.154-1.362.329-.615.175-1.142.263-1.208.219-.066-.066.022-.372.154-.7.154-.33.505-.877.769-1.227.417-.504.857-.679 2.482-1.029 1.406-.306 2.285-.657 3.076-1.182Zm21.463 2.299c.043-.11 1.076-.986 2.328-1.949 1.274-.963 2.329-1.62 2.373-1.489.044.132-.308 2.212-.791 4.62-.505 2.408-1.274 5.868-1.736 7.663-.461 1.817-.988 3.59-1.164 3.94-.242.526-.44.658-.967.636-.351-.022-1.23-.263-1.933-.547-.725-.285-1.34-.635-1.384-.789-.044-.197.462-.087 1.516.263.879.306 1.714.57 1.867.547.154 0 .484-.613.703-1.357.242-.766.747-2.606 1.12-4.116.374-1.489.923-3.92 1.23-5.364.286-1.445.528-2.89.528-3.219 0-.328-.132-.613-.285-.613-.154 0-.945.46-1.758.985-.813.548-1.516.986-1.582.986-.066 0-.087-.088-.066-.197Zm9.512-1.117c.834-.372 1.91-1.007 2.35-1.423.462-.416.923-.766 1.055-.766.11 0 .505.416.878.941.374.504.66 1.007.66 1.095 0 .087-.286.306-.616.46-.33.175-1.801.481-3.295.656-1.472.197-2.724.35-2.79.35-.066 0-.044-.153.044-.328.088-.175.857-.635 1.714-.985Zm11.467 1.62c.285-.153.813-.744 1.164-1.291.571-.833.77-.986 1.428-.986.55 0 .725.088.615.285-.066.153-.505.832-.966 1.51-.484.745-1.077 1.336-1.45 1.468-.33.13-1.209.328-1.933.437-.725.11-1.604.329-1.934.46-.33.11-1.406.788-2.416 1.467-1.758 1.182-1.845 1.226-3.01 1.117-.659-.066-1.603-.307-2.065-.526-.461-.219-.834-.503-.834-.635.022-.11 1.098-.328 2.394-.481 1.296-.132 2.57-.307 2.812-.373.242-.065.923-.481 1.538-.963.944-.723 1.318-.854 2.636-1.007.835-.088 1.757-.307 2.02-.482Zm-2.175-.854c-.022-.043.461-.394 1.055-.744.593-.372 1.142-.657 1.23-.657.088-.022.175.088.175.197 0 .132-.307.482-.659.767-.373.306-.9.547-1.208.547-.307 0-.571-.044-.593-.11Zm-7.755 1.314c1.45-.197 2.834-.438 3.076-.547.241-.11.637-.175.879-.154.263.044.46.241.483.548.044.372-.132.59-.66.832-.395.197-1.8.481-3.119.635-1.889.197-2.636.372-3.47.832-.572.328-1.077.59-1.143.59-.066 0-.022-.306.11-.7.11-.394.44-.941.703-1.204.417-.394.989-.547 3.141-.832ZM39.301 60.45c.087-.285.549-.81 1.032-1.139.483-.35.945-.634 1.033-.634.087 0 .11.503.044 1.138-.066.635-.418 2.43-.791 3.985-.352 1.576-.857 3.569-1.12 4.444-.44 1.401-.55 1.577-.923 1.445-.242-.065-.77-.262-1.868-.744l.857-1.795c.483-1.008 1.033-2.409 1.208-3.131.198-.723.352-1.708.374-2.19 0-.481.088-1.094.154-1.379Zm-24.67 3.197c.724-.526 1.889-1.62 2.614-2.409.703-.81 1.362-1.401 1.472-1.357.11.044.044.854-.154 1.795-.198.92-.593 2.627-.879 3.766-.307 1.16-.769 2.43-1.054 2.846-.286.438-1.12 1.182-3.208 2.627l-.175-.678c-.088-.394-.528-1.139-1.802-2.606l1.143-1.073c1.054-.963 1.12-1.094.834-1.423-.175-.197-.285-.394-.22-.438.026-.016.136-.098.303-.222.267-.199.68-.505 1.126-.828Zm73.856-.35c.637-.22.725-.351.725-1.03 0-.416.088-.766.22-.766.11 0 .307.263.439.547.11.307.395.548.593.548.22 0 .593-.154.835-.329.241-.175.505-.328.593-.328.088 0 .176.11.176.219 0 .131-.374.438-1.648 1.116l.769.767c.681.657.703.722.242.59-.286-.087-.638-.284-.77-.459-.131-.153-.35-.263-.46-.263-.132 0-.352.394-.506.876-.154.482-.373.876-.483.876-.132 0-.176-.175-.088-.372.044-.146.107-.39.17-.633l.094-.353c.131-.547.11-.59-1.604-.744l.703-.263Zm-42.64 1.926c.22-.525.637-1.248.923-1.576.285-.329.703-.614.944-.614.22 0 .462.11.528.22.066.13-.088.35-.308.503-.242.153-.593.635-.769 1.095-.22.503-.307 1.116-.22 1.642.066.438.264 1.51.44 2.343.176.853.417 2.233.527 3.065.11.897.088 2.058-.022 2.736-.11.68-.483 1.796-.835 2.518-.351.723-1.164 1.905-1.823 2.606-.703.788-1.604 1.51-2.263 1.817-.615.284-1.296.503-1.516.503-.285 0 .132-.525 1.406-1.795 1.297-1.314 2.021-2.255 2.615-3.46.527-1.028.9-2.123 1.01-2.955.088-.744.066-1.905-.066-2.737-.132-.766-.417-2.211-.615-3.174-.33-1.664-.33-1.796.044-2.737Zm2.395.197c.088-.307.373-.657.637-.788.241-.132.615-.263.79-.263.286-.022.264.11-.11.657-.329.503-.46 1.182-.548 2.693l-.002.027c-.13 1.944-.132 1.961-.394 1.09-.132-.482-.33-1.314-.395-1.861-.088-.526-.066-1.227.022-1.555Zm57.622 4.97a11.32 11.32 0 0 1 1.581-1.248c.637-.394 1.274-.635 1.802-.635.593 0 .834.11.834.328 0 .198-.878 1.248-1.955 2.365-1.362 1.423-2.153 2.452-2.614 3.437-.373.789-.901 1.62-1.648 2.3l.11-1.643c.066-1.16.264-2.014.703-2.956.33-.722.857-1.598 1.187-1.948ZM2.263 71.419c-.637-1.007-1.143-1.861-1.143-1.927 0-.044.044-.11.11-.11.046 0 .315.128.681.3.16.077.34.161.527.248.594.307 1.516.92 2 1.38.505.437 1.054 1.138 1.208 1.532.175.416.307 1.533.307 2.78 0 1.249-.088 2.08-.22 2.08-.131 0-.702-1.007-1.274-2.233-.593-1.248-1.581-3.065-2.196-4.05Zm85.543-1.533c.132-.306.22-.197.637 1.27l1.098-.153c.813-.131 1.055-.11.923.088-.088.153-.44.262-.769.262-.33.022-.725.088-.9.175-.176.088-.264.416-.132 1.314l-1.033-.941-.637.766c-.351.438-.637.657-.637.504 0-.154.22-.592.483-.964.462-.635.484-.7.11-.876-.198-.11-.373-.284-.373-.416 0-.11.197-.153.439-.11.264.067.483 0 .55-.218.065-.175.175-.504.24-.7ZM19.77 75.732a512.736 512.736 0 0 1-1.362-5.451c-.11-.46-.066-.504.352-.373.263.066 1.296.285 4.086.854l.022 10.444h-.77c-.417 0-.834-.11-.922-.263-.088-.153-.725-2.496-1.406-5.21Zm4.306-4.926 1.647-.35c.901-.197 1.868-.373 2.131-.395.286 0 .506.088.506.198 0 .13-.308 1.423-.681 2.912-.374 1.466-.923 3.81-1.23 5.188-.286 1.402-.66 2.606-.791 2.693-.154.088-.594.154-1.692.154l.11-10.4Zm20.254 3.612c-.132-1.27-.11-2.255.066-3.109.154-.853.352-1.27.571-1.27.264 0 .308.395.242 2.475-.044 1.467-.198 2.715-.373 3.109-.286.656-.308.613-.506-1.205ZM6.722 73.39l1.099-.788c.593-.438 1.186-.788 1.318-.81.11 0 .395.132.637.285.395.263.395.306-.088 1.686-.44 1.226-.527 2.014-.615 5.364-.044 2.167 0 4.926.132 6.13.131 1.204.549 3.24.922 4.488.374 1.27 1.186 3.547 1.801 5.036.616 1.51 1.538 3.59 2.044 4.598.505 1.029 1.142 2.036 1.405 2.255.264.219.506.285.572.153.066-.109-.044-.591-.198-1.029-.176-.46-.923-2.211-1.67-3.897-.746-1.686-1.691-4.05-2.108-5.255-.44-1.204-.99-2.977-1.23-3.94-.33-1.358-.462-2.76-.572-6.35-.11-4.247-.088-4.707.352-6.13.263-.832.637-1.752.856-2.036.198-.285.637-.591.945-.723.286-.11 1.01-.153 1.582-.088.659.066 1.098.241 1.164.438.066.198-.373.942-.967 1.708-.57.745-1.318 1.774-1.647 2.3-.308.503-.77 1.51-1.01 2.232-.264.767-.462 2.036-.506 3.065-.044 1.402.022 1.818.33 2.124.22.22.417.35.483.285.066-.044.175-.92.285-1.905.088-1.007.242-1.817.33-1.817.088 0 .176.11.176.219 0 .131.11.219.263.24.154 0 .527-.262.835-.569.308-.306.615-.547.703-.547.088 0 .176.087.176.175s-.33.613-.77 1.139c-.416.547-.768 1.16-.768 1.379 0 .197.11.372.264.394.153 0 .703-.35 1.208-.766.527-.438.988-.788 1.054-.788.066 0 .11.109.11.218 0 .132-.549.789-1.208 1.49-.66.678-1.296 1.598-1.428 2.014-.132.438-.22 1.248-.22 1.817s.088 1.291.22 1.576c.11.307.308.504.44.438.11-.044.219-.482.219-.92 0-.46.088-1.16.198-1.598.153-.547.417-.854.988-1.138.44-.22 1.165-.373 2.549-.285l-1.055 1.314c-.593.722-1.186 1.532-1.34 1.817-.132.263-.242 1.05-.242 1.751 0 .68.154 2.19.352 3.328.198 1.16.68 3.394 1.098 4.992.418 1.599 1.187 4.094 1.736 5.583.549 1.467 1.23 3.065 1.516 3.547.285.482 1.362 1.817 2.394 2.956 1.033 1.16 1.845 2.146 1.802 2.189-.045.066-1.099-.022-2.351-.197-1.78-.241-2.57-.241-3.69-.044-.814.132-1.802.482-2.263.789-.44.306-.923.547-1.033.547-.132 0-.22-.066-.242-.153 0-.088.22-.46.506-.81.285-.351.944-.92 1.493-1.27.704-.438 1.275-.613 1.978-.613.725 0 1.252.175 2.02.657.572.372 1.143.613 1.275.547.11-.044.22-.219.22-.372-.022-.154-.484-.832-1.055-1.511-.237-.272-.616-.713-1.061-1.23-.63-.731-1.39-1.613-2.058-2.383-1.165-1.313-2.527-3.065-3.032-3.919-.505-.832-2.9-5.802-5.338-11.056C6.59 86.482 4.174 81.205 3.647 80c-.506-1.204-.989-2.452-1.077-2.78-.132-.547-.088-.591.33-.438.263.088.703.416.944.7.264.307.857 1.533 1.34 2.737.484 1.205 1.033 2.387 1.604 3.066l.176-.438c.088-.241.066-2.474-.242-9.459Zm86.62-.569c.088-.087.703-.306 1.362-.46.659-.175 1.406-.306 1.647-.328.242 0 .835.175 1.319.394.483.22 1.252.81 1.691 1.314.461.503.945 1.27 1.076 1.73.198.612.176 1.576 0 3.765-.153 1.642-.417 3.656-.593 4.489-.175.853-.57 2.386-1.493 5.254l-.154-2.299c-.088-1.248-.308-2.693-.505-3.174-.176-.482-.681-1.183-1.12-1.577-.418-.394-1.077-.788-1.473-.876-.373-.087-.747-.284-.813-.46-.066-.153.022-.415.198-.612.22-.22.55-.285 1.033-.198.461.066.878.35 1.164.767.242.372.593.657.769.657.22 0 .33-.22.33-.657 0-.548-.264-.876-1.67-2.014-.923-.767-1.648-1.533-1.648-1.752a.698.698 0 0 1 .396-.525c.22-.066.637-.066.944.022.308.087.791.437 1.099.744.307.328.725 1.138.944 1.795.22.657.462 2.08.55 3.153.11 1.555.22 1.97.483 1.97.197 0 .395-.328.527-.875.154-.57.132-1.423-.022-2.518-.132-.898-.461-2.124-.703-2.737-.264-.591-.79-1.401-1.186-1.773-.374-.394-1.45-1.117-2.35-1.62-.901-.526-1.714-1.03-1.802-1.183-.088-.131-.088-.306 0-.416Zm7.93 1.555c-.241-.767-.395-1.49-.329-1.642.066-.154.197-.285.285-.285.088 0 .396.153.659.328.286.198.615.745.747 1.27.154.591.176 1.73.088 3.11-.088 1.203-.285 2.977-.461 3.94a127.04 127.04 0 0 1-1.077 4.598 107.553 107.553 0 0 1-1.647 5.474c-.484 1.444-.879 2.802-.879 3.02 0 .198.11.395.264.395.153 0 .395-.131.527-.285.132-.153.55-1.072.901-2.036.373-.963 1.032-3.065 1.471-4.707.378-1.324.916-3.234 1.316-4.653l.244-.864c.418-1.423 1.011-3.066 1.318-3.679.308-.59.703-1.16.879-1.247.176-.088.373-.11.439-.066.066.066-.285 1.204-.769 2.518-.505 1.335-1.449 4.181-2.13 6.349a470.828 470.828 0 0 1-2.043 6.35c-.725 2.101-1.275 3.086-4.065 7.443-1.779 2.781-3.712 5.693-4.283 6.459-.593.788-2.131 2.474-3.45 3.722-1.295 1.27-2.79 2.605-3.316 2.956-.506.372-1.011.591-1.099.503-.088-.087 1.12-1.467 2.702-3.065 1.582-1.598 3.889-4.138 5.163-5.67 1.274-1.511 2.46-3.022 2.636-3.328.263-.46.263-.657.066-.854-.22-.219-.352-.219-.703.044-.242.197-1.252 1.379-2.24 2.627-1.011 1.27-3.67 4.138-5.91 6.393-2.241 2.233-4.855 4.642-5.822 5.364-.966.701-2.24 1.554-2.812 1.883-.57.328-1.142.569-1.274.547-.132-.044.879-.919 2.24-1.948a84.865 84.865 0 0 0 4.812-4.007c1.274-1.16 3.515-3.415 5.008-4.992 1.494-1.598 3.537-3.897 4.504-5.123 1.142-1.401 2.285-3.153 3.163-4.817a84.381 84.381 0 0 0 2.439-5.342c.593-1.489 1.34-3.81 1.647-5.145.33-1.314.725-3.678.923-5.255.176-1.554.33-3.306.33-3.875 0-.57-.198-1.664-.462-2.408ZM32.534 76.17c.638-.416 1.253-.941 1.34-1.139.11-.218.33-.394.484-.394.132 0 .373.11.527.263.22.241-.088.635-1.538 2.08-.988 1.007-1.933 1.817-2.087 1.817-.153 0-.263-.24-.263-.547 0-.285.088-.722.175-.92.11-.218.725-.722 1.363-1.16ZM13.27 77.746a19.452 19.452 0 0 1 1.428-2.036c.395-.46.812-.854.944-.854.11 0 .198.088.198.175 0 .088-.747 1.292-1.67 2.672-.922 1.4-1.735 2.583-1.801 2.627-.066.066-.044-.219.044-.657.066-.416.461-1.292.857-1.927Zm20.737.373c.703-.548 1.472-1.358 1.692-1.796.242-.438.55-.81.725-.81.154 0 .44.153.615.329.286.306.286.394-.044.941-.198.329-1.12 1.336-2.065 2.233-1.362 1.336-1.736 1.817-1.823 2.474-.088.438-.242.81-.352.81-.132 0-.351-.394-.505-.875-.22-.767-.22-.986.11-1.599.197-.372.944-1.16 1.647-1.707Zm3.933-.46c.197-.394.46-.832.593-.985.11-.176.33-.263.461-.22.132.044.264.417.308.833.044.59-.066.897-.55 1.379-.33.328-1.186 1.029-1.867 1.532-.703.504-1.494 1.27-1.757 1.73-.286.46-.637 1.007-.77 1.204-.24.329-.285.263-.285-.438 0-.46.154-1.116.352-1.445.197-.35.988-1.138 1.757-1.751.77-.635 1.56-1.445 1.758-1.84Zm2.438.503c.395-1.072.417-1.094 1.384-1.16.55-.022 1.054 0 1.142.044.088.066.044.503-.066.985-.153.547-.593 1.226-1.164 1.751-.505.482-1.801 1.49-2.878 2.212-1.098.744-2.196 1.62-2.46 1.97-.264.35-.637 1.292-.813 2.058-.198.789-.351 1.883-.351 2.409-.022.897.066 1.073.966 1.926.55.504 1.406 1.117 1.89 1.358.483.24.878.525.878.613 0 .087-.22.394-.988 1.16l-.66-.81c-.439-.547-1.208-1.073-2.262-1.554-1.296-.57-1.604-.832-1.714-1.314-.11-.438.066-1.029.572-2.145.395-.833.966-2.256 1.296-3.153.373-1.073.834-1.905 1.34-2.409.417-.438 1.384-1.248 2.13-1.817 1.121-.854 1.45-1.248 1.758-2.124Zm41.651 3.175c.879-1.423 1.956-3 2.417-3.481.703-.723.922-.832 1.428-.7.33.087.966.503 1.45.963.46.438 1.23 1.379 1.691 2.101.483.723.857 1.577.857 1.861-.022.307.154.723.373.898.22.197 1.01.723 1.758 1.16.769.438 1.428.898 1.494 1.008.066.153-.242.175-.835.087-.725-.087-1.01-.022-1.318.285-.198.219-.462.854-.703 2.452l-1.209-.526c-.659-.284-1.318-.525-1.427-.525-.132-.022-.44.175-.725.416-.33.307-.484.7-.484 1.204 0 .723-.044.788-.834.876-.44.044-3.779.153-7.404.24-4.59.088-6.92.066-7.688-.109-.428-.091-.972-.225-1.42-.334a73.318 73.318 0 0 0-.514-.125c-.439-.11-.812-.285-.812-.373 0-.087.812-.678 1.801-1.313 1.01-.613 2.307-1.336 2.922-1.599.988-.437 1.23-.46 2.306-.24.66.131 1.67.24 2.241.24.923 0 1.164-.109 2.065-.92.571-.525 1.692-2.057 2.57-3.546Zm-54.722 2.671a36.581 36.581 0 0 1 1.56-1.839c.395-.46.747-.657.988-.57.198.066.594.33.88.57.263.263.482.722.482 1.007 0 .307-.241.942-.505 1.423-.33.591-.835 1.051-1.472 1.38-.659.328-1.296.481-1.867.438-.79-.044-.879-.132-.945-.657-.022-.438.22-.942.88-1.752Zm64.366-1.401c-.263-.175-.417-.416-.33-.547.089-.154.682-.22 1.692-.132.857.044 1.867.263 2.263.46.461.219.879.7 1.164 1.292.286.635.462 1.642.571 3.109.066 1.204.022 3.13-.11 4.27-.175 1.816-.35 2.386-1.34 4.378-.615 1.27-1.164 2.255-1.208 2.19-.066-.044.176-.986.528-2.08.351-1.073.746-2.606.878-3.394.132-.767.242-2.212.242-3.175 0-.963-.132-2.124-.286-2.583-.153-.482-.57-1.205-.922-1.62-.374-.439-1.099-1.03-1.648-1.336a30.68 30.68 0 0 1-1.05-.582c-.182-.104-.338-.194-.444-.25Zm-71.11.7c0-.24.242-.569.55-.722.307-.153 1.317-.263 2.24-.285.945 0 1.955.11 2.263.22.395.153.527.371.483.722-.022.35-.242.525-.703.635-.374.065-1.296.131-2.087.131-.79 0-1.735-.066-2.087-.131-.461-.11-.66-.285-.66-.57Zm21.595.789c-.044-.7.043-.876.483-1.073.373-.153.615-.153.834.022.154.131.352.744.418 1.335.11 1.03.066 1.139-.571 1.708-.374.329-.9.591-1.186.591-.264 0-.681.132-.923.307-.264.175-.505.678-.615 1.204-.088.504-.242.898-.33.92-.088 0-.483-.329-.9-.723-.396-.394-.681-.832-.594-.985.066-.153.77-.57 1.56-.942.791-.35 1.516-.854 1.648-1.094.11-.241.197-.81.175-1.27Zm-4.724.46c.264-.285.88-.592 1.362-.701.484-.11 1.077-.197 1.318-.22.242-.021.594.132.77.33.241.262.263.437.087.722-.132.197-.769.57-1.428.832-.659.284-1.362.635-1.581.832-.22.197-.374.657-.374 1.094 0 .526.198.986.593 1.446.33.394 1.187 1.007 1.912 1.379.702.372 1.34.81 1.427.963.066.153-.11.526-.417.832-.308.307-.637.547-.725.547-.088-.021-.351-.35-.593-.788-.242-.416-.813-.941-1.274-1.16-.44-.24-1.143-.679-1.538-.985-.571-.482-.703-.745-.703-1.401 0-.46.154-1.358.352-2.037.175-.656.549-1.423.812-1.686Zm-6.217 1.357c.484-.525.88-1.117.88-1.314 0-.175.153-.328.329-.328.175 0 .483.306.659.657.307.613.285.766-.22 1.97-.307.723-.615 1.73-.703 2.255-.11.679-.044 1.095.22 1.533.197.328.988.92 3.12 2.014l-.77.088c-.417.022-1.12-.088-1.538-.241-.417-.175-1.098-.591-1.493-.898-.66-.547-.703-.678-.725-1.948 0-.767-.132-1.62-.308-1.927-.176-.285-.33-.613-.33-.7 0-.088.396-.614.88-1.161Zm-13.993 1.489c.769-.942 1.735-1.927 2.13-2.19.638-.438.77-.46.923-.175.088.175.154.547.11.832-.022.35-.351.635-1.098.985-.637.307-1.033.635-1.033.876-.022.197.044.438.088.482.066.066.835-.066 1.714-.263 1.12-.284 2.438-.394 4.46-.372 1.559 0 3.294.088 3.844.197.549.11 1.12.372 1.274.591.131.219.263.766.263 1.226 0 .679-.087.832-.505.92-.264.065-2.592.197-5.14.284-3.032.11-4.768.241-4.943.416-.242.22-.198.285.154.394.241.066 2.768.22 5.601.307 5.075.175 5.163.197 5.558.7.22.307.374.854.374 1.249 0 .503-.132.766-.506.963-.351.175-1.823.175-10.039-.153v.503c0 .438.132.504 1.362.591.769.066 2.658.175 4.24.241 1.56.088 3.076.22 3.34.329.285.109.57.372.636.59.066.198.066.592 0 .877-.088.35-.395.547-1.076.722-.615.153-1.846.175-3.603.066-2.438-.175-2.702-.154-2.856.197-.11.219-.132.438-.066.503.066.044 1.494.241 3.186.416 2.46.263 3.119.394 3.36.701.133.219.264.657.264.941 0 .307-.175.723-.373.92-.264.219-1.01.394-2.329.482-1.054.065-2.109.24-2.35.35-.242.131-.44.416-.44.657 0 .416.11.438 1.253.328.703-.066 1.45-.175 1.647-.219.242-.066.373 0 .308.175-.022.154-.396.329-.835.373-.418.065-1.099.372-2.263 1.291l-1.098-.503c-.615-.263-1.692-1.029-2.417-1.708-.725-.657-1.581-1.686-1.91-2.277-.33-.591-.858-1.992-1.165-3.153-.308-1.138-.747-3.153-.989-4.488-.241-1.314-.44-2.868-.44-3.438 0-.963.11-1.182 1.385-2.736Zm5.755-.986c-1.252-.065-1.318-.087-1.384-.656l-.087-.613h1.889c1.867 0 1.89.021 1.89.547 0 .394-.155.591-.506.679-.264.065-1.077.087-1.802.043Zm69.265 2.628c-.087-.613-.22-1.467-.307-1.861-.11-.57-.066-.7.22-.7.197 0 .505.152.703.328.241.24.329.832.307 2.342 0 1.117-.132 2.78-.285 3.678-.176.898-.418 1.861-.55 2.124-.132.285-.33.504-.417.504-.088 0-.22-.263-.308-.591-.066-.35-.417-.964-.768-1.358-.374-.46-1.253-1.05-2.22-1.489-.944-.438-1.581-.853-1.581-1.05 0-.22.22-.329.659-.329.44 0 1.098.329 2.087 1.095.79.613 1.56 1.05 1.757.985.176-.066.33-.219.33-.328 0-.132-.242-.46-.505-.745-.264-.284-1.077-1.05-1.802-1.686-.725-.635-1.406-1.291-1.493-1.445-.088-.175-.044-.284.11-.284.153 0 1.01.438 1.932.985.901.525 1.78.985 1.978.985.263 0 .285-.197.153-1.16Zm1.934 1.751c.066-1.116.175-2.43.241-2.955.088-.526.22-.876.352-.81.11.065.197.897.197 1.817-.022.92-.175 2.474-.351 3.437-.176.963-.571 2.408-.879 3.219-.307.81-.922 2.189-1.362 3.065-.44.876-1.142 2.145-1.56 2.802-.417.657-1.274 1.861-1.889 2.671-.615.81-1.208 1.423-1.296 1.358-.088-.044.132-.723.505-1.511.352-.788.901-2.167 1.209-3.065.373-1.16.549-2.124.549-3.284 0-.898-.11-1.927-.242-2.255-.11-.329-.593-.92-1.032-1.314-.681-.57-.747-.7-.374-.7.242-.022.703.175 1.033.415.33.263.747.745.944 1.117.198.416.33 1.292.33 2.408 0 .964.066 1.752.154 1.752.087 0 .439-.197.769-.438.329-.24.944-1.16 1.34-2.036.417-.876.856-2.058.988-2.627.154-.57.308-1.95.374-3.066ZM41.673 89c-.066-.175-.022-.525.11-.766s.417-.438.659-.438c.242 0 .483.087.55.219.043.11-.089.46-.33.766-.242.307-.55.547-.66.547-.131 0-.285-.153-.329-.328Zm28.668 2.299c-.241-.132-.461-.307-.461-.438-.022-.11.286-.088.681.066.395.131.747.328.79.416.045.087-.065.175-.24.175-.199 0-.528-.11-.77-.22Zm.88 1.97c-.309-.197-.309-.24 0-.438.175-.109.526-.153.768-.087.242.088.461.175.483.219.022.044 0 .175-.044.306-.066.11-.285.22-.505.22-.22 0-.527-.11-.703-.22Zm30.732 1.445c.44-.481 1.077-1.05 1.45-1.27.352-.218.879-.394 1.142-.394.264 0 .791.154 1.165.329.351.175.813.635.988 1.029.198.394.308.832.22.985-.066.153-.308.285-.549.285-.242 0-.747-.241-1.099-.548-.373-.306-.812-.547-.988-.547-.198 0-.813.372-1.384.832-.571.46-1.318 1.16-1.648 1.533-.329.394-.593.854-.593 1.029 0 .175.132.328.33.328.175 0 .878-.547 1.581-1.204.703-.657 1.428-1.182 1.648-1.204.22 0 .483.197.615.438.154.306.132.569-.088.92-.154.284-.879.744-1.582 1.028-.724.285-1.735.745-2.24 1.03-.506.284-1.582 1.138-2.373 1.882-.79.766-1.472 1.292-1.538 1.204-.044-.087.132-.525.396-.985.263-.438 1.208-1.949 2.13-3.328.901-1.38 2-2.912 2.417-3.372Zm-27.943-.306c-.22-.197-.395-.504-.395-.657 0-.153.11-.263.241-.263.11 0 .615.175 1.12.373.506.218.99.569 1.099.766.11.219.154.438.132.503-.022.066-.44.022-.923-.11-.483-.13-1.054-.393-1.274-.612Zm-41.454.175c-.241-.24-.439-.547-.439-.657 0-.131.088-.219.22-.219.077 0 .502.054 1.053.125l.748.094c.456.068.937.142 1.336.204.37.057.67.104.817.125.267.053.404.08.424.144.022.068-.088.178-.314.403-.242.24-.703.503-.989.57-.307.065-.988 0-1.493-.132-.506-.11-1.12-.416-1.362-.657Zm6.086.197c.22-.197.68-.46 1.054-.591.352-.131.879-.24 1.142-.24.264-.023 1.143.262 1.934.634.768.35 1.471.766 1.537.92.088.153.022.525-.131.832-.132.306-.572.875-.945 1.27-.637.656-.791.7-2.065.7s-1.428-.066-2.131-.766c-.615-.591-.769-.942-.79-1.599 0-.503.153-.941.395-1.16Zm39.169 1.007c-.286-.394-.44-.81-.374-1.05.066-.198.242-.373.352-.373.131 0 .57.307.988.7.395.395.813 1.008.9 1.38.089.372.045.876-.373 1.751l-.483-.875a12.394 12.394 0 0 0-1.01-1.533Zm-5.998.504c-.088-.153-.154-.613-.154-1.007 0-.416.11-.701.264-.701.154 0 .505.131.769.328.286.198.505.548.505.876 0 .416-.154.57-.615.679-.395.088-.659.022-.769-.175Zm-40.575 1.138c0-.613.044-1.248.11-1.423.088-.175.286-.328.44-.328.175 0 .527.197.768.438.242.24.44.59.44.766 0 .175-.308.679-.66 1.095-.373.416-.768.722-.878.656-.132-.065-.22-.613-.22-1.204Zm2.702-.11c.242-.569.462-.7 1.472-.875.967-.175 1.23-.175 1.472.11.154.175.286.437.286.59 0 .154.395.723.878 1.27.66.745.835 1.073.681 1.358-.11.219-.395.569-.615.766-.22.219-.747.438-1.164.526a2.26 2.26 0 0 1-1.538-.263c-.44-.219-1.01-.635-1.274-.942-.307-.35-.505-.831-.483-1.226 0-.372.132-.963.285-1.313ZM44.75 99.4c-.11-.547-.022-1.138.307-2.035.33-.854.593-1.248.857-1.248.198 0 1.472.547 2.834 1.204 1.362.657 2.482 1.292 2.482 1.423 0 .11-.197.591-.417 1.029-.242.46-.66 1.051-.945 1.314-.285.262-.79.569-1.12.7-.44.175-.857.175-1.538 0-.505-.153-1.252-.569-1.626-.941-.373-.372-.746-1.03-.834-1.445Zm30.535-2.035c-.417-.395-.747-.832-.747-1.008.022-.218.22-.262.813-.13.44.065 1.12.328 1.516.568.395.22.813.613.945.854.197.394.131.438-.77.438-.812 0-1.142-.131-1.757-.722Zm5.866-.263c-.154-.175-.22-.438-.154-.547.066-.132.242-.22.395-.22.132 0 .374.11.527.263.154.154.286.394.286.548 0 .153-.176.284-.395.284-.22.022-.506-.131-.66-.328Zm2.768 1.007c.197-.416.703-.985 1.142-1.27.417-.284.922-.503 1.142-.503.22 0 .55.262.747.59.33.526.33.723.088 1.49-.132.481-1.098 2.605-2.109 4.707-1.032 2.102-1.845 4.006-1.845 4.203 0 .219.066.438.154.504.087.044.33-.066.527-.285.198-.197.988-1.554 1.735-2.999a236.242 236.242 0 0 1 1.89-3.569c.285-.503.615-.876.746-.81.132.066.066.504-.153 1.139-.22.569-.857 1.992-1.45 3.13-.593 1.139-1.67 2.912-2.373 3.941-.703 1.029-1.977 2.54-2.834 3.394-.856.832-1.713 1.598-1.889 1.686-.176.087-.33.153-.33.109 0-.022.638-1.27 1.428-2.78.77-1.511 1.582-3.328 1.78-4.051.198-.722.461-2.014.55-2.846l.078-.62c.105-.837.24-1.906.36-2.664.132-.963.418-2.08.616-2.496Zm-4.13 2.386c0-.832.11-1.204.46-1.554.352-.35.594-.416 1.143-.307.374.088.725.176.747.198.044 0 .11.415.176.897.066.504 0 1.095-.176 1.423-.154.307-.659.679-1.186.876-.505.175-1.142.547-1.428.788-.286.263-.703.876-.945 1.38-.241.503-.57.941-.725 1.007-.153.065-.373.065-.483 0-.132-.066.088-.526.483-1.051.374-.504.967-1.292 1.319-1.752.483-.635.615-1.051.615-1.905Zm-71.726-.416-.505-.678c-.33-.438-.417-.657-.22-.657.154 0 .77.285 1.384.635.593.328 2 1.598 3.142 2.78 1.12 1.183 2.02 2.277 2.02 2.431 0 .175-.548.022-1.493-.46-.813-.394-2.219-1.051-3.12-1.401-.922-.373-1.845-.898-2.526-1.621l1.318-1.029Zm33.61-.634h.001c.725-.11 1.384-.22 1.472-.241.088-.022.373.438.615 1.007.264.569.637 1.226.835 1.423.22.241.308.525.198.722-.088.197-.725.416-1.538.548-.747.131-1.67.372-2.021.547a5.314 5.314 0 0 1-.725.329c-.022 0-.198-.351-.374-.767-.197-.416-.33-1.313-.33-1.97 0-.767.089-1.248.264-1.292.154-.044.878-.175 1.602-.306Zm10.238 2.145c0-.7.11-1.532.198-1.86.11-.307.351-.548.527-.548.198 0 1.362.46 2.592 1.051 1.23.569 2.329 1.16 2.417 1.313.088.132-.022.679-.242 1.183-.22.525-.703 1.204-1.098 1.532-.55.482-.923.613-1.736.613-.57 0-1.274-.153-1.537-.328-.264-.175-.637-.635-.813-.985-.198-.394-.33-1.205-.308-1.971Zm-21.66-.503c-.11-1.183-.088-1.248.373-1.336.264-.044.857-.088 1.318-.11.528-.021.835.066.813.241 0 .154.352.635.791 1.051.461.438.747.942.725 1.183-.044.219-.308.547-.571.7-.44.285-.571.241-1.252-.35-.44-.372-.923-.613-1.099-.547-.197.065-.33.35-.33.656 0 .307-.11.548-.219.548-.132 0-.264-.175-.33-.394-.035-.161-.1-.685-.17-1.253l-.05-.389Zm5.074 1.839c.242-.307.77-.591 1.297-.679a18.36 18.36 0 0 1 1.361-.197c.352-.022.572.153.726.569.131.329.373.898.57 1.27.308.613.308.723-.219 1.861-.33.657-.571 1.379-.571 1.576 0 .219-.11.395-.22.395-.132 0-.264-.176-.33-.395a17.603 17.603 0 0 1-.22-1.313c-.087-.635-.329-1.139-.768-1.577-.373-.372-.967-.744-2.021-.985l.395-.525Zm23.155.744c.132-.722.285-1.379.33-1.467.043-.087.658.11 1.361.416.703.285 1.736.788 2.307 1.073.571.285 1.098.635 1.164.788.088.153-.022.635-.198 1.051-.197.416-.593 1.007-.922 1.314-.462.438-.77.525-1.604.503-.79-.043-1.164-.197-1.648-.657-.351-.35-.724-.853-.834-1.16-.132-.35-.11-1.029.044-1.861Zm-10.391-.547c.22-.022.79-.197 1.274-.438.483-.219.966-.394 1.054-.372.11.022.33.481.506 1.029.175.547.549 1.27 1.362 2.299l-.484.766c-.285.416-.659.832-.878.919-.286.132-.462-.065-.879-.985-.286-.635-.945-1.62-1.428-2.189-.703-.788-.813-1.029-.527-1.029Zm48.285 1.401c.725-.504 1.846-1.182 2.527-1.489.878-.416 1.559-.569 2.57-.569.901 0 1.648.131 2.197.394.461.241 1.098.723 1.428 1.095.329.394.615.854.615 1.029 0 .175-.286.394-.615.46-.44.087-.967-.066-1.912-.57-1.23-.657-1.449-.7-3.097-.635-.989.044-1.955.197-2.153.351-.22.175-.307.416-.198.635.132.284.44.328 2.043.197 1.692-.154 1.912-.11 2.461.306.329.241.615.613.615.788 0 .241-.198.307-.835.219a49.477 49.477 0 0 0-2.35-.241c-1.143-.109-1.89-.043-2.856.241-.725.197-1.78.679-2.307 1.051-.55.351-1.362.985-1.823 1.401-.462.395-.923.723-1.033.723-.132 0-.22-.044-.22-.11 0-.065.813-1.072 1.802-2.233.989-1.16 2.416-2.518 3.141-3.043Zm-16.74.241c.067-.241.33-.723.594-1.051.264-.35.68-.591.966-.591.484 0 .506.065.418 1.204-.044.657-.374 1.97-.725 2.89-.352.941-.79 1.905-.967 2.146-.307.416-.351.394-.988-.657-.396-.613-.703-1.183-.703-1.27.022-.088.176-.329.395-.526.242-.219.396-.262.44-.109.022.153.263.263.505.263s.483-.11.55-.219c.043-.132-.067-.548-.242-.942-.198-.394-.308-.897-.242-1.138Zm-75.24.328c-.021-.438.132-.744.506-.985.351-.219 1.04-.328 2.065-.328.966 0 1.999.153 2.856.437.725.241 1.977.832 2.79 1.314.812.482 1.56.985 1.647 1.139.132.197-.088.219-.813.087-.57-.087-1.625-.044-2.416.088-1.142.175-1.494.175-1.736-.044-.22-.219-.241-.416-.044-.788.132-.263.242-.679.242-.92s-.066-.438-.11-.438c-.066 0-.68.438-1.384 1.007-1.032.811-1.384.986-1.867.876-.33-.087-.857-.284-1.142-.46-.374-.218-.572-.547-.593-.985Zm37.5-.591c.351-.197 1.098-.416 1.647-.503.528-.11 1.23-.132 1.538-.088.308.044.857.131 1.208.197.352.066 1.011.482 1.472.92.44.459.901 1.094 1.033 1.423.132.328.241.897.241 1.27 0 .437-.263.919-.724 1.445-.396.437-.99.941-1.319 1.094-.33.175-.659.263-.703.197-.066-.065.066-.438.308-.832.264-.416.44-1.116.461-1.686 0-.788-.11-1.116-.615-1.598a2.861 2.861 0 0 0-1.472-.744c-.68-.11-1.142-.022-1.977.394-.593.284-1.23.766-1.428 1.051-.175.306-.33.897-.33 1.335 0 .548.199 1.095.66 1.73.351.504.944 1.029 1.318 1.182.351.132 1.384.263 2.307.241 1.493 0 1.889-.109 4.283-1.16 1.45-.635 3.427-1.358 4.394-1.599 1.164-.306 2.153-.416 2.966-.35.68.066 1.713.372 2.416.723.66.328 1.736.963 2.416 1.379.66.416 1.494.81 1.868.854.44.066 1.164-.153 2.24-.701.88-.416 1.846-.766 2.153-.766.286 0 .55.088.55.219 0 .109-.55.635-1.23 1.138-.66.526-1.209 1.008-1.209 1.095 0 .088.242.285.505.438.484.263.484.263-.153.416-.374.066-1.428.153-2.373.175-1.01 0-1.999-.109-2.416-.285-.396-.153-1.362-.81-3.56-2.583l-1.976.088c-1.868.065-2.131.131-4.504 1.248-1.406.634-3.273 1.357-4.174 1.576-.922.241-2.196.416-2.855.416-.747 0-1.582-.175-2.153-.438-.506-.241-1.362-.832-1.868-1.292-.659-.591-1.01-1.16-1.23-1.905-.197-.656-.263-1.445-.176-2.014.088-.503.308-1.248.506-1.642.197-.394.57-.941.813-1.226a4.363 4.363 0 0 1 1.142-.832Zm-13.884 1.576c-.132-.985-.088-1.138.395-1.488.286-.219.791-.373 1.165-.329.44.044.769.263.988.657.308.547.308.635-.11 1.204a5.49 5.49 0 0 1-1.186 1.051c-.461.285-.769.35-.9.219-.11-.131-.264-.722-.352-1.314Zm5.83-1.008-.052-.042-.681-.613.988.131c.527.087 1.252.284 1.582.46.373.175.68.591.813 1.007.11.394.263 1.007.33 1.379.065.35.46 1.204.9 1.861.417.657.769 1.423.769 1.686 0 .438-.066.482-.505.241-.264-.132-.813-.504-1.23-.81-.418-.329-.813-.898-.923-1.336-.11-.416-.198-1.182-.198-1.708 0-.744-.11-.985-.571-1.313-.316-.189-.832-.618-1.223-.943Zm-13.497 1.49c-.417-.81-.769-1.576-.769-1.686 0-.131.528.132 1.165.548.637.438 1.318.832 1.537.875.264.066.33.241.264.592a31.77 31.77 0 0 1-.236.911l-.05.183c-.131.504.022.745 1.45 2.124.857.854 1.582 1.642 1.582 1.773 0 .11-.264.022-.593-.197-.352-.219-1.274-1.138-2.087-2.014-.813-.898-1.845-2.299-2.263-3.109Zm4.9-.306c-.023-.263.109-.526.285-.592.153-.065.461-.087.637-.065.22.022.637.963 1.208 2.671.483 1.445 1.076 2.977 1.296 3.393.22.416.835 1.424 1.362 2.234.527.81 1.692 2.233 2.57 3.152.857.92 2.021 1.993 2.57 2.409.55.394 1.121.722 1.275.722.132.022.263-.153.263-.372 0-.197-.746-1.116-1.625-2.014-1.099-1.117-1.846-2.102-2.307-3.065-.373-.789-.725-1.774-.79-2.19-.089-.416-.045-1.182.087-1.708.132-.503.396-1.072.593-1.247.176-.176.506-.329.703-.329.198 0 .571.131.813.307.155.107.255.177.302.273.086.177-.01.441-.28 1.194-.307.897-.395 1.576-.33 2.824.074 1.095.257 1.897.55 2.408.263.46.637.788.922.81.352.044.484-.043.484-.372 0-.241-.198-.832-.44-1.314-.241-.503-.439-1.335-.439-1.926-.022-.679.11-1.204.373-1.533.22-.284.55-.46.725-.394.176.066.396.263.506.438.087.197.044.963-.11 1.708-.242 1.291-.22 1.467.33 2.912.307.832.614 1.795.68 2.123.066.329.593 1.073 1.187 1.664.57.57 1.625 1.38 2.35 1.796.725.394 1.23.766 1.099.81-.11.044-1.143-.219-2.241-.591-1.12-.351-3.12-1.205-4.46-1.861-1.318-.657-3.141-1.445-3.998-1.73-.879-.307-2.834-.788-4.35-1.117-1.691-.35-3.01-.503-3.405-.416-.351.066-1.208.416-1.867.767-.659.35-1.494.635-1.867.635-.352 0-.879-.154-1.142-.329-.286-.175-.506-.481-.506-.657 0-.219.286-.372.835-.459.44-.066.945-.176 1.099-.263.175-.088.285-.263.285-.372 0-.132-.22-.285-.505-.373-.286-.065-1.516-.153-2.746-.153-1.274-.022-2.307-.131-2.373-.241-.066-.131.264-.613.725-1.116.725-.788.967-.92 2.35-1.117 1.319-.219 1.846-.175 3.845.219 1.516.307 3.054.81 4.504 1.467 1.208.569 2.46 1.117 2.811 1.226.506.153.594.131.594-.197 0-.197-.55-1.117-1.23-2.014-.682-.898-1.67-2.277-2.175-3.065-.528-.789-1.34-1.708-1.846-2.037-.659-.437-.9-.744-.9-1.138 0-.307.131-.547.285-.547.132-.022.593.328.989.766.373.416.813.766.922.766.132 0 .286-.131.352-.284.066-.154-.088-.657-.33-1.139-.263-.482-.483-1.095-.505-1.357Zm6.546.635a2.165 2.165 0 0 1 0-.92c.11-.416.153-.416.812-.088.396.197.967.548 1.319.767.373.262.593.613.593.963 0 .504-.088.547-.923.547-.63 0-1.062-.124-1.296-.372a2.793 2.793 0 0 1-.505-.897Zm23.483-.92c.374 0 .813-.109.989-.219a1.24 1.24 0 0 1 .615-.219c.132 0 .417.285.593.657.176.35.33.722.33.81 0 .088-.462.197-1.033.219-.593.022-1.472.088-1.977.153-.681.088-1.032.044-1.274-.197-.176-.175-.33-.46-.352-.635-.022-.175.286-.35.703-.438a8.257 8.257 0 0 1 1.406-.131Zm-12.873 2.014c.088-.197.461-.591.79-.876.352-.262.902-.481 1.253-.481.33 0 .813.197 1.055.438.241.241.439.7.439 1.029.022.438-.242.854-.879 1.423-.483.46-1.01.832-1.142.832-.154 0-.505-.219-.747-.482-.264-.284-.593-.722-.725-1.007-.154-.285-.176-.635-.044-.876Zm-13.4 1.161c-.022-.329.153-.657.483-.876.285-.175.703-.329.923-.329.197 0 .527.154.703.329.175.175.33.438.33.591 0 .153-.287.657-.66 1.095-.351.46-.813.832-.989.832-.175 0-.417-.241-.549-.548-.11-.306-.241-.788-.241-1.094Zm32.49-.46c-.022-.044.198-.197.505-.307.286-.109.66-.197.813-.219.132 0 .418.416.594.92.197.525.285.963.22.985-.067.044-.55-.241-1.1-.591-.548-.372-1.01-.722-1.032-.788Zm15.29 4.291c.066-.898.307-2.146.505-2.737l.352-1.094.505.591c.308.35.527.897.527 1.27 0 .35-.263 1.072-.571 1.576-.33.525-.79 1.182-1.472 2.036l.154-1.642Zm10.237.657c1.142-.701 2.724-1.576 3.515-1.949.79-.372 1.757-.678 2.153-.678.461 0 .9.175 1.252.547.351.328.55.788.55 1.204 0 .416-.242.92-.704 1.445-.395.46-1.01.985-1.384 1.182-.527.307-.835.351-1.538.176-.483-.11-1.274-.176-1.757-.132-.593.044-.879.175-.879.372 0 .219.484.438 1.384.657.77.197 1.406.438 1.406.57.022.109-.307.394-.725.634-.637.351-1.076.416-3.053.329a137.37 137.37 0 0 0-3.954-.066c-1.407 0-2.11.175-4.943 1.161-1.802.635-4.68 1.642-6.371 2.233-1.692.591-3.251 1.073-3.449 1.073-.22 0-.395-.088-.395-.176 0-.087 2.196-1.029 4.898-2.101a248.698 248.698 0 0 0 8.392-3.569c1.933-.898 4.46-2.19 5.602-2.912Zm-29.437-1.204c-.637-.329-1.033-.657-.945-.788.088-.132.374-.176.703-.088.33.088.857.328 1.187.569.33.219.593.504.593.635a.22.22 0 0 1-.22.219c-.11 0-.703-.241-1.318-.547Zm-5.536.81c-.022-.088.505-.438 1.164-.766.66-.307 1.296-.57 1.406-.592.132 0 .22.11.22.263-.022.153-.461.504-.989.766-.549.285-1.164.504-1.362.504-.22 0-.417-.088-.439-.175Zm-13.796.985c-.242-.394-.44-.876-.44-1.095 0-.197.133-.372.286-.372.154 0 .593.197.989.438.395.241.835.701.966 1.029.154.328.418.788.616.985.263.307.395.329.615.11.154-.153.285-.394.285-.548-.022-.153.11-.24.264-.197.154.044.33.613.395 1.38.088.7.352 1.751.615 2.32.264.57.396 1.095.308 1.161-.088.044-.769-.723-1.516-1.708s-1.691-2.014-2.13-2.299c-.44-.262-1.011-.81-1.253-1.204Zm17.245-.153c-.066-.241 0-.591.132-.766.132-.176.307-.329.395-.351.066 0 .286.153.462.351.307.284.285.372-.11.766-.242.241-.505.438-.593.438-.088 0-.22-.197-.286-.438Zm16.476 3.218c.615-.854 1.516-1.992 2.043-2.539.505-.526 1.054-.876 1.164-.811.132.088.242.373.22.635-.022.263-.22.876-.44 1.358-.307.613-.9 1.204-2.086 2.014-.923.635-1.736 1.117-1.824 1.051-.087-.066.33-.832.923-1.708Zm-4.152-.7c.198-.854.505-1.752.681-2.037.22-.372.505-.481 1.164-.481.528 0 1.165.175 1.538.438.374.241.66.547.66.7 0 .154-.484.92-1.055 1.708-.572.766-1.714 2.124-2.57 2.956-1.143 1.182-2 1.773-3.406 2.474-1.032.503-1.91.876-1.977.81-.066-.066.066-.526.286-1.051.33-.766.373-1.467.33-4.16-.045-2.408 0-3.24.22-3.328.153-.065.966-.109 1.8-.109.857 0 1.538.022 1.538.043 0 .044-.11.657-.242 1.38-.131.722-.439 1.708-.68 2.189a11.599 11.599 0 0 1-1.055 1.642c-.33.416-.703.986-.835 1.248-.22.416-.197.526.088.657.22.131.593-.087 1.208-.701.462-.481 1.099-1.313 1.384-1.861.308-.547.703-1.685.923-2.517Zm-11.006-1.161c.066-.262.396-.635.725-.81.33-.175.967-.328 1.428-.328.461 0 .769.087.703.219-.066.109-.703.503-1.428.875-.725.351-1.362.635-1.428.592-.088-.022-.088-.263 0-.548Zm-2.9.066c-.395-.307-.725-.657-.725-.766 0-.132.198-.219.44-.219.241 0 .637.197.878.438.242.24.44.591.44.766 0 .175-.066.328-.154.328-.088-.022-.483-.262-.879-.547Zm-5.492 2.671c.022-.985-.022-2.189-.087-2.649l-.154-.854 1.252.131c.68.088 1.67.373 2.219.635.527.285 1.274.788 1.625 1.161.352.35.835 1.051 1.077 1.532.351.701.417 1.117.307 2.19-.088.875-.322 1.583-.703 2.123-.395.613-.813.92-1.581 1.161-.572.175-1.34.328-1.714.328-.351 0-1.054-.197-1.538-.416-.483-.219-1.296-.722-1.801-1.094-.527-.373-.945-.767-.945-.854 0-.088.286-.285.615-.438.506-.219.66-.197 1.033.153.242.219.79.613 1.208.876.462.263 1.143.46 1.714.46.505 0 1.252-.132 1.647-.285.396-.175.879-.526 1.099-.832.33-.46.33-.569.066-.854-.286-.285-.418-.263-1.165.263-.461.328-1.12.613-1.494.613-.417 0-1.032-.263-2.746-1.533l.066-1.817Zm-2.24-2.08c-.33-.679-.374-.941-.176-1.007.154-.044.483.044.725.197.263.153.505.657.615 1.226.11.526.132 1.379.066 1.883-.11.701-.308 1.073-.857 1.489-.395.306-.813.525-.923.481-.131-.043-.549-.569-.944-1.16-.418-.591-.879-1.598-1.033-2.233-.175-.635-.263-1.314-.197-1.489a.428.428 0 0 1 .417-.306c.176 0 .615.503.967 1.138.351.635.79 1.27.988 1.423.198.153.44.241.571.175.11-.065.22-.284.22-.503-.022-.197-.22-.788-.44-1.314Zm10.984 1.642c.439-.54 1.26-1.102 2.46-1.686 1.01-.481 1.955-.854 2.13-.832.177.044.418.46.506.942.11.481.176 1.861.132 3.065-.066 1.773-.154 2.299-.505 2.802-.242.329-.835.81-1.318 1.051-.484.263-1.34.526-1.912.591-.944.154-1.054.11-1.801-.678-.615-.613-.79-1.007-.79-1.577 0-.416.087-1.248.219-1.817.11-.569.505-1.401.879-1.861Zm-18.607.285c-.176-.416-.264-.898-.176-1.051.066-.175.352-.263.615-.219.264.044.79.525 1.252 1.16.418.591 1.56 1.861 2.527 2.781 1.647 1.598 1.713 1.686.988 1.489-.44-.132-1.428-.613-2.197-1.073-.79-.46-1.713-1.182-2.065-1.577-.351-.416-.79-1.094-.944-1.51Zm-6.063 3.919c.22-.197.527-.416.724-.482.176-.087.616-.087.99-.022.35.044.746.197.878.285.132.131-.088.46-.637.941-.462.394-1.099 1.183-1.384 1.752-.286.569-.615 1.007-.725.941-.132-.065-.22-.788-.242-1.598 0-1.138.088-1.554.396-1.817Zm39.3.766a8.666 8.666 0 0 0 1.077-.219c.11-.044 1.01-.044 1.977 0 1.274.088 1.889.219 2.306.526.286.219.638.722.77 1.094.153.504.131.767-.045.964-.22.219-.57.153-1.647-.351-.77-.35-2.263-.853-3.317-1.094-1.055-.263-1.934-.526-1.956-.613-.022-.088.352-.219.835-.307Zm-37.785 2.649c.088-.372.528-1.029.967-1.488.703-.701.945-.811 1.78-.811.527 0 1.34.088 1.779.219.461.11.835.307.835.438 0 .11-.286.351-.616.526-.33.153-1.208.744-1.977 1.313-.747.548-1.538 1.008-1.757 1.008-.198 0-.55-.132-.769-.263-.33-.219-.373-.438-.242-.942Zm30.448 1.117c-.154-.088-.264-.569-.264-1.248l.022-1.095.703.066c.66.066.703.109.747 1.095.044.919 0 1.072-.44 1.182-.263.066-.614.066-.768 0ZM53.8 124.95c3.844-.087 7.315-.262 7.732-.372.44-.109.9-.197 1.055-.219.197-.022.263.46.263 3.481H46.814v-2.737l6.986-.153Zm15.904.416c-.747-.503-1.362-.941-1.362-.963 0-.044.593-.066 1.318-.066.725 0 2.043.175 2.922.372s1.911.482 2.307.657c.395.153.68.372.637.46-.044.088-.813.35-1.714.569-1.296.329-1.713.351-2.174.154a35.578 35.578 0 0 1-1.934-1.183Zm-26.164 1.007c0-.459.044-1.051.132-1.313.088-.394.286-.504.813-.504.373 0 .813.131.967.285.153.153.285.744.263 2.342h-2.197l.022-.81Zm5.976 3.722c-.154-.459-.264-.897-.264-.985 0-.087 2.702-.175 12.06-.175l-.131.504c-.066.262-.286.788-.813 1.795l-2.768-.153c-1.516-.088-3.888-.176-7.82-.154l-.264-.832Z" fill="#036"/><path d="M80.03 38.118c-.045-.132.109-.416.307-.613.263-.241.593-.307 1.142-.22.44.066 1.032.307 1.34.526.308.241.571.635.593.898.044.284-.066.46-.263.46-.176 0-.55-.11-.835-.263-.264-.153-.879-.307-1.34-.372-.484-.088-.9-.263-.945-.416ZM72.648 54.188c.637-.306 1.538-.657 1.977-.766.461-.132 1.23-.175 1.713-.132.484.044 1.428.373 2.088.701.856.438 1.208.744 1.208 1.05 0 .33-.132.417-.55.373-.483-.044-.637.131-1.252 1.423-.395.81-.922 1.708-1.208 1.949-.285.262-.703.547-.944.613-.242.087-1.385-.066-2.527-.307-1.142-.24-2.504-.657-3.031-.875-.506-.241-.923-.504-.923-.614 0-.087.351-.328.813-.547.461-.197 2.109-.81 3.69-1.335 1.56-.526 2.878-1.051 2.9-1.205.044-.13-.132-.24-.373-.24-.242 0-1.362.328-2.483.744-1.098.416-2.24.81-2.526.876-.308.087-.483.044-.483-.154-.022-.13.154-.415.373-.612.22-.198.923-.614 1.538-.942ZM75.79 66.449c-.023-.832.087-1.051.768-1.642.44-.373.923-.679 1.099-.679.175 0 .373.088.439.219s-.198.591-.55 1.029c-.373.46-.68.963-.658 1.095 0 .153.263.416.57.547.33.153.594.372.594.504 0 .13-.154.306-.352.438-.241.153-.57.109-1.142-.176-.703-.35-.769-.46-.769-1.335ZM80.315 100.45c-.11-.175-.132-.481-.066-.678a.682.682 0 0 1 .593-.394c.308 0 .483.197.571.613.088.394.044.635-.154.744-.175.088-.417.131-.527.088-.132-.044-.308-.197-.417-.373ZM73.285 103.165c.044-.153.154-.438.22-.635.11-.306.373-.35 1.494-.24.724.087 1.383.197 1.45.262.065.066 0 .307-.132.504-.154.241-.55.372-1.033.372-.527 0-.9.153-1.472.876l-.307-.438c-.176-.241-.286-.569-.22-.701ZM72.494 105.727c.11-.241.44-.591.681-.766.264-.176.571-.241.681-.154.132.088.176.351.11.592-.088.24.066.875.308 1.423.395.919.395 1.007.043 1.532-.197.307-.263.569-.153.613.11.022.351.132.527.241.198.131.263.329.154.547a.64.64 0 0 1-.55.351c-.197 0-.615.197-.922.438-.308.24-.66.416-.769.372-.132-.044-.22-.329-.198-.613.022-.285.088-.701.154-.898.132-.306.044-.394-.395-.394-.308 0-.594-.109-.66-.219-.065-.131.044-.372.242-.547.176-.175.571-.329.879-.329.33 0 .527-.131.527-.328 0-.175-.198-.569-.44-.876-.329-.416-.395-.657-.219-.985Z" fill="#036"/><path d="M70.188 106.668c-.286-.35-.462-.7-.374-.788.088-.109.44-.131.813-.044.351.066.835.307 1.054.504.22.197.396.525.396.701 0 .175-.198.503-.462.722-.241.197-.549.328-.659.263-.132-.066-.22-.263-.22-.438s-.241-.591-.549-.92ZM49.164 117.046a.552.552 0 0 1 .176-.46c.11-.087.637-.131 1.186-.065.703.087 1.142.284 1.472.678.286.307.571.832.637 1.183.088.35.022.81-.154 1.138-.175.307-.527.591-.747.635-.395.066-.417 0-.285-.657.11-.503.044-.897-.176-1.226-.176-.284-.681-.591-1.186-.722-.484-.11-.9-.351-.923-.504ZM57.776 119.476c.11-.35.549-.81.922-1.05.396-.241.791-.438.879-.438.11 0 .242.153.33.328.117.234-.022.547-.418.942-.33.328-.615.81-.615 1.094 0 .329.132.482.44.482.241 0 .724-.153 1.098-.329.637-.306.659-.306.659.176.022.262-.154.635-.374.832-.22.197-.549.394-.725.481-.175.066-.747-.065-1.274-.306-.68-.307-.944-.569-1.032-1.007-.066-.351-.022-.876.11-1.205ZM72.165 57.626l1.208-.57c.659-.328 1.23-.59 1.252-.59.044 0 .066.393.066.875 0 .7-.088.876-.374.854-.22 0-.79-.132-2.152-.57Z" fill="#036"/><path fill-rule="evenodd" clip-rule="evenodd" d="m250.436 94.874.068-29.473.034-29.507 17.291.203c13.874.169 17.766.304 19.661.744 1.319.27 3.654 1.05 5.245 1.726 1.59.643 3.789 1.827 4.906 2.64 1.117.812 2.606 2.131 3.316 2.943.745.813 1.76 2.267 2.301 3.181.542.948 1.286 2.673 1.692 3.892.373 1.218.779 3.654.88 5.414.102 1.793.034 4.297-.203 5.685-.203 1.32-.744 3.383-1.218 4.568-.474 1.15-1.557 3.011-2.436 4.094-.914 1.117-2.403 2.64-3.317 3.384a30.356 30.356 0 0 1-3.384 2.437l1.895 2.876a427.5 427.5 0 0 1 2.385 3.5c1.091 1.61 2.34 3.453 3.47 5.095 2.165 3.18 3.925 5.82 3.925 5.922 0 .101-1.523.27-3.384.44-1.861.135-6.7.135-18.104-.204l-4.737-6.936c-2.606-3.824-4.907-6.971-5.076-7.039-.169-.034-1.353-.135-4.906-.304v14.72h-20.304Zm20.337-36.376c0-3.451.102-6.429.203-6.666.102-.338 1.286-.372 4.975-.203 3.147.136 5.245.372 5.989.71.677.305 1.523.88 1.963 1.32.406.44 1.049 1.59 1.421 2.572.575 1.455.643 2.03.338 3.283-.169.845-.609 1.962-.981 2.47-.372.507-1.32 1.286-2.132 1.76-1.353.811-1.793.845-11.776 1.014v-6.26Z" fill="#036"/><path d="M121.072 36.198c-.508.068-.914.203-.914.305 0 .101 2.233 3.417 5.008 7.377l4.974 7.173c.372 21.15.508 23.789.982 25.718.338 1.32 1.252 3.756 2.064 5.414.778 1.692 2.064 3.858 2.842 4.839.745.947 2.335 2.47 3.519 3.316 1.151.846 3.114 2.064 4.399 2.707 1.252.643 3.384 1.455 4.738 1.827 1.32.373 4.094.846 6.158 1.05 2.065.168 5.178.236 6.937.135 1.76-.136 4.366-.474 5.753-.745 1.387-.27 3.519-.88 4.737-1.353 1.218-.44 3.181-1.49 4.399-2.267 1.218-.813 3.08-2.335 4.196-3.452 1.083-1.083 2.504-2.978 3.181-4.196.677-1.218 1.658-3.35 2.233-4.737.979-2.497.982-2.605 1.25-12.262l.002-.09c.136-5.38.271-14.584.271-20.37l.034-10.592H167.87c-.034 25.312-.135 33.873-.27 35.361-.203 2.132-.474 3.08-1.252 4.366-.576.947-1.625 2.132-2.369 2.673-1.117.812-1.794 1.015-3.892 1.15-2.131.17-2.808.068-4.229-.54-.914-.407-1.963-1.016-2.301-1.32-.373-.305-1.151-1.49-1.794-2.606l-1.15-2.03V35.995c-22.165.068-29 .17-29.541.203ZM196.633 94.874h20.303v-18.61H241.3V60.696h-24.364v-9.136h27.748V35.995h-48.051v58.88ZM307.996 36.435c0 .237 2.233 3.722 4.974 7.783l5.008 7.377h14.043c-.068 10.591-.169 15.904-.304 18.611-.203 4.771-.237 4.974-1.219 6.362-.609.846-1.455 1.556-2.03 1.76-.575.168-5.177.405-10.253.575-5.076.135-9.238.304-9.238.338.015.015.352.52.902 1.343l.004.006.002.003c.71 1.063 1.771 2.652 2.95 4.4.799 1.168 1.631 2.392 2.404 3.529l.002.001.008.012c1.285 1.89 2.405 3.537 2.932 4.275l1.489 2.166c13.231-.305 16.31-.542 18.104-.948 1.387-.304 3.282-.913 4.23-1.353.913-.44 2.199-1.252 2.876-1.76.643-.541 1.827-1.962 2.639-3.147.778-1.218 1.895-3.384 2.47-4.873.982-2.537 1.083-3.18 1.32-8.967.169-3.451.305-13.4.305-22.096l.034-15.803c-39.084 0-43.652.068-43.652.406Z" fill="#036"/></svg>