<svg width="241" height="98" fill="none" xmlns="http://www.w3.org/2000/svg"><path d="M.164 79.455 0 0h78.164v6.553H45.459v68.479l-6.377-.164-.164-68.315H6.541l.033 35.288c0 32.077.065 35.517.556 37.45.294 1.18 1.079 3.015 1.7 4.063.622 1.049 1.995 2.687 3.01 3.67 1.046.983 2.812 2.195 3.924 2.72 1.144.523 2.845 1.113 3.76 1.31 1.178.23 8.667.36 22.828.36 14.162 0 21.65-.13 22.795-.36.949-.197 2.682-.82 3.86-1.376 1.417-.656 2.845-1.704 4.284-3.146 1.406-1.409 2.518-2.916 3.172-4.292.556-1.18 1.21-3.276 1.865-7.208h6.213l.393 2.523c.261 1.54.85 3.407 1.472 4.685.588 1.18 1.83 2.949 2.747 3.932.948.983 2.55 2.326 3.597 2.949 1.047.622 2.878 1.409 4.055 1.704 1.897.49 4.481.556 23.711.556 19.231 0 21.814-.065 23.711-.556 1.178-.295 3.009-1.082 4.056-1.704 1.046-.623 2.681-1.999 3.662-3.047.982-1.016 2.192-2.785 2.715-3.932.523-1.114 1.112-2.818 1.308-3.768.196-.918.36-4.686.36-14.974L118.227 25.23l4.579-4.587 40.095 40.137-.098 9.338v.058c-.13 9.182-.132 9.318-1.046 11.901-.491 1.442-1.308 3.342-1.832 4.26a31.561 31.561 0 0 1-2.354 3.342c-.785.917-2.126 2.293-3.042 3.047-.883.72-2.355 1.77-3.27 2.293-.883.525-3.009 1.41-7.686 2.95h-45.95l-2.78-.853c-1.537-.458-3.597-1.277-4.578-1.834-.981-.558-2.682-1.704-3.761-2.556-1.08-.885-2.617-2.457-3.434-3.572-.818-1.08-1.537-1.965-1.636-1.965-.098 0-.817.884-1.635 1.965-.818 1.114-2.355 2.687-3.434 3.54-1.08.884-2.616 1.965-3.434 2.424-.817.458-2.845 1.31-7.522 2.85H19.296l-3.01-1.016c-1.667-.524-3.695-1.376-4.512-1.834-.818-.459-2.322-1.54-3.369-2.36-1.046-.819-2.55-2.326-3.303-3.309-.785-.983-1.766-2.457-2.257-3.276-.458-.82-1.242-2.654-2.681-6.717Z" fill="#231F20"/><path d="M90.068 2.982c1.08-.623 3.238-1.54 4.743-2.032l2.78-.884L143.54.033l3.042.983c1.668.557 3.696 1.376 4.48 1.867.818.459 2.355 1.54 3.434 2.392 1.08.852 2.649 2.458 3.434 3.539.818 1.081 1.57 1.998 1.636 1.998.098 0 .85-.917 1.635-1.998.817-1.081 2.355-2.687 3.434-3.539 1.079-.852 2.649-1.933 3.434-2.392.817-.491 2.845-1.31 7.522-2.85h46.113l3.042.983c1.668.557 3.695 1.376 4.48 1.867.818.459 2.29 1.475 3.271 2.228 1.014.787 2.485 2.261 3.303 3.31.818 1.048 1.897 2.588 2.355 3.407.458.787 1.308 2.818 2.845 7.536v45.871h-38.918V98h-39.246v-6.553h32.378V22.968h6.868v35.714h32.377V40.006c0-12.385-.098-19.266-.36-20.413-.196-.95-.817-2.686-1.341-3.833-.675-1.442-1.733-2.872-3.172-4.292-1.439-1.442-2.867-2.501-4.284-3.178-1.145-.557-2.878-1.147-3.827-1.344-1.177-.262-8.666-.36-23.056-.36-18.969.033-21.585.098-23.482.59-1.178.294-3.009 1.048-4.056 1.67-1.046.656-2.681 2-3.663 3.048-.948 1.048-2.191 2.817-2.714 3.931-.556 1.114-1.177 3.179-1.831 7.143h-6.214l-.425-2.555c-.229-1.41-.884-3.506-1.439-4.686-.655-1.376-1.767-2.883-3.173-4.26-1.439-1.44-2.867-2.5-4.284-3.177-1.145-.557-2.878-1.147-3.827-1.344-1.144-.262-8.666-.393-22.827-.393-14.129 0-21.65.131-22.795.393-.949.197-2.682.787-3.86 1.344-1.406.655-2.845 1.736-4.284 3.178-1.177 1.18-2.55 2.916-3.009 3.866-.49.95-1.079 2.654-1.373 3.768-.327 1.474-.458 3.965-.49 15.465l38.1 38.171-4.579 4.62-40.063-40.17v-8.257c0-6.422.131-8.813.523-10.648.295-1.31 1.014-3.408 1.603-4.686.589-1.245 1.766-3.21 2.65-4.39.882-1.147 2.42-2.785 3.4-3.604 1.014-.82 2.682-1.999 3.761-2.621Z" fill="#231F20"/></svg>